%TF.GenerationSoftware,KiCad,Pcbnew,8.0.0*%
%TF.CreationDate,2024-11-20T18:05:04+03:00*%
%TF.ProjectId,box_side_MCU_green,626f785f-7369-4646-955f-4d43555f6772,rev?*%
%TF.SameCoordinates,Original*%
%TF.FileFunction,Paste,Bot*%
%TF.FilePolarity,Positive*%
%FSLAX46Y46*%
G04 Gerber Fmt 4.6, Leading zero omitted, Abs format (unit mm)*
G04 Created by KiCad (PCBNEW 8.0.0) date 2024-11-20 18:05:04*
%MOMM*%
%LPD*%
G01*
G04 APERTURE LIST*
G04 Aperture macros list*
%AMRoundRect*
0 Rectangle with rounded corners*
0 $1 Rounding radius*
0 $2 $3 $4 $5 $6 $7 $8 $9 X,Y pos of 4 corners*
0 Add a 4 corners polygon primitive as box body*
4,1,4,$2,$3,$4,$5,$6,$7,$8,$9,$2,$3,0*
0 Add four circle primitives for the rounded corners*
1,1,$1+$1,$2,$3*
1,1,$1+$1,$4,$5*
1,1,$1+$1,$6,$7*
1,1,$1+$1,$8,$9*
0 Add four rect primitives between the rounded corners*
20,1,$1+$1,$2,$3,$4,$5,0*
20,1,$1+$1,$4,$5,$6,$7,0*
20,1,$1+$1,$6,$7,$8,$9,0*
20,1,$1+$1,$8,$9,$2,$3,0*%
G04 Aperture macros list end*
%ADD10RoundRect,0.237500X0.300000X0.237500X-0.300000X0.237500X-0.300000X-0.237500X0.300000X-0.237500X0*%
%ADD11RoundRect,0.237500X-0.250000X-0.237500X0.250000X-0.237500X0.250000X0.237500X-0.250000X0.237500X0*%
%ADD12RoundRect,0.237500X-0.300000X-0.237500X0.300000X-0.237500X0.300000X0.237500X-0.300000X0.237500X0*%
%ADD13R,2.400000X2.000000*%
%ADD14RoundRect,0.237500X0.237500X-0.250000X0.237500X0.250000X-0.237500X0.250000X-0.237500X-0.250000X0*%
%ADD15RoundRect,0.237500X0.237500X-0.300000X0.237500X0.300000X-0.237500X0.300000X-0.237500X-0.300000X0*%
%ADD16RoundRect,0.237500X-0.237500X0.300000X-0.237500X-0.300000X0.237500X-0.300000X0.237500X0.300000X0*%
%ADD17R,1.800000X1.750000*%
G04 APERTURE END LIST*
D10*
%TO.C,C5*%
X137162501Y-93800000D03*
X135437499Y-93800000D03*
%TD*%
D11*
%TO.C,SB9*%
X146187500Y-90400000D03*
X148012500Y-90400000D03*
%TD*%
D12*
%TO.C,C7*%
X170237499Y-84600000D03*
X171962501Y-84600000D03*
%TD*%
D13*
%TO.C,Y2*%
X140100000Y-89749999D03*
X140100000Y-93450001D03*
%TD*%
D10*
%TO.C,C1*%
X138562501Y-83800000D03*
X136837499Y-83800000D03*
%TD*%
D14*
%TO.C,SB11*%
X147600000Y-79512500D03*
X147600000Y-77687500D03*
%TD*%
D10*
%TO.C,C2*%
X138562501Y-87000000D03*
X136837499Y-87000000D03*
%TD*%
D11*
%TO.C,SB8*%
X146187500Y-88800000D03*
X148012500Y-88800000D03*
%TD*%
D15*
%TO.C,C13*%
X153400000Y-79462501D03*
X153400000Y-77737499D03*
%TD*%
D16*
%TO.C,C6*%
X164900000Y-99737499D03*
X164900000Y-101462501D03*
%TD*%
D14*
%TO.C,SB12*%
X146000000Y-79512500D03*
X146000000Y-77687500D03*
%TD*%
D10*
%TO.C,C4*%
X137162501Y-90000000D03*
X135437499Y-90000000D03*
%TD*%
D11*
%TO.C,SB6*%
X146187500Y-85600000D03*
X148012500Y-85600000D03*
%TD*%
D14*
%TO.C,SB15*%
X141200001Y-79512500D03*
X141200001Y-77687500D03*
%TD*%
%TO.C,SB14*%
X142799999Y-79512500D03*
X142799999Y-77687500D03*
%TD*%
D12*
%TO.C,C15*%
X170337499Y-82600000D03*
X172062501Y-82600000D03*
%TD*%
D16*
%TO.C,C17*%
X139600000Y-77737499D03*
X139600000Y-79462501D03*
%TD*%
D11*
%TO.C,SB7*%
X146187500Y-87200000D03*
X148012500Y-87200000D03*
%TD*%
D16*
%TO.C,C11*%
X166800000Y-99737499D03*
X166800000Y-101462501D03*
%TD*%
D17*
%TO.C,Y1*%
X140700000Y-83749998D03*
X140700000Y-87000000D03*
%TD*%
D14*
%TO.C,SB13*%
X144400000Y-79512500D03*
X144400000Y-77687500D03*
%TD*%
D16*
%TO.C,C9*%
X154200000Y-99737499D03*
X154200000Y-101462501D03*
%TD*%
M02*
