%TF.GenerationSoftware,KiCad,Pcbnew,8.0.0*%
%TF.CreationDate,2024-11-20T18:05:04+03:00*%
%TF.ProjectId,box_side_MCU_green,626f785f-7369-4646-955f-4d43555f6772,rev?*%
%TF.SameCoordinates,Original*%
%TF.FileFunction,Legend,Bot*%
%TF.FilePolarity,Positive*%
%FSLAX46Y46*%
G04 Gerber Fmt 4.6, Leading zero omitted, Abs format (unit mm)*
G04 Created by KiCad (PCBNEW 8.0.0) date 2024-11-20 18:05:04*
%MOMM*%
%LPD*%
G01*
G04 APERTURE LIST*
%ADD10C,0.150000*%
%ADD11C,0.120000*%
G04 APERTURE END LIST*
D10*
X136466666Y-92729580D02*
X136514285Y-92777200D01*
X136514285Y-92777200D02*
X136657142Y-92824819D01*
X136657142Y-92824819D02*
X136752380Y-92824819D01*
X136752380Y-92824819D02*
X136895237Y-92777200D01*
X136895237Y-92777200D02*
X136990475Y-92681961D01*
X136990475Y-92681961D02*
X137038094Y-92586723D01*
X137038094Y-92586723D02*
X137085713Y-92396247D01*
X137085713Y-92396247D02*
X137085713Y-92253390D01*
X137085713Y-92253390D02*
X137038094Y-92062914D01*
X137038094Y-92062914D02*
X136990475Y-91967676D01*
X136990475Y-91967676D02*
X136895237Y-91872438D01*
X136895237Y-91872438D02*
X136752380Y-91824819D01*
X136752380Y-91824819D02*
X136657142Y-91824819D01*
X136657142Y-91824819D02*
X136514285Y-91872438D01*
X136514285Y-91872438D02*
X136466666Y-91920057D01*
X135561904Y-91824819D02*
X136038094Y-91824819D01*
X136038094Y-91824819D02*
X136085713Y-92301009D01*
X136085713Y-92301009D02*
X136038094Y-92253390D01*
X136038094Y-92253390D02*
X135942856Y-92205771D01*
X135942856Y-92205771D02*
X135704761Y-92205771D01*
X135704761Y-92205771D02*
X135609523Y-92253390D01*
X135609523Y-92253390D02*
X135561904Y-92301009D01*
X135561904Y-92301009D02*
X135514285Y-92396247D01*
X135514285Y-92396247D02*
X135514285Y-92634342D01*
X135514285Y-92634342D02*
X135561904Y-92729580D01*
X135561904Y-92729580D02*
X135609523Y-92777200D01*
X135609523Y-92777200D02*
X135704761Y-92824819D01*
X135704761Y-92824819D02*
X135942856Y-92824819D01*
X135942856Y-92824819D02*
X136038094Y-92777200D01*
X136038094Y-92777200D02*
X136085713Y-92729580D01*
X145161904Y-90807200D02*
X145019047Y-90854819D01*
X145019047Y-90854819D02*
X144780952Y-90854819D01*
X144780952Y-90854819D02*
X144685714Y-90807200D01*
X144685714Y-90807200D02*
X144638095Y-90759580D01*
X144638095Y-90759580D02*
X144590476Y-90664342D01*
X144590476Y-90664342D02*
X144590476Y-90569104D01*
X144590476Y-90569104D02*
X144638095Y-90473866D01*
X144638095Y-90473866D02*
X144685714Y-90426247D01*
X144685714Y-90426247D02*
X144780952Y-90378628D01*
X144780952Y-90378628D02*
X144971428Y-90331009D01*
X144971428Y-90331009D02*
X145066666Y-90283390D01*
X145066666Y-90283390D02*
X145114285Y-90235771D01*
X145114285Y-90235771D02*
X145161904Y-90140533D01*
X145161904Y-90140533D02*
X145161904Y-90045295D01*
X145161904Y-90045295D02*
X145114285Y-89950057D01*
X145114285Y-89950057D02*
X145066666Y-89902438D01*
X145066666Y-89902438D02*
X144971428Y-89854819D01*
X144971428Y-89854819D02*
X144733333Y-89854819D01*
X144733333Y-89854819D02*
X144590476Y-89902438D01*
X143828571Y-90331009D02*
X143685714Y-90378628D01*
X143685714Y-90378628D02*
X143638095Y-90426247D01*
X143638095Y-90426247D02*
X143590476Y-90521485D01*
X143590476Y-90521485D02*
X143590476Y-90664342D01*
X143590476Y-90664342D02*
X143638095Y-90759580D01*
X143638095Y-90759580D02*
X143685714Y-90807200D01*
X143685714Y-90807200D02*
X143780952Y-90854819D01*
X143780952Y-90854819D02*
X144161904Y-90854819D01*
X144161904Y-90854819D02*
X144161904Y-89854819D01*
X144161904Y-89854819D02*
X143828571Y-89854819D01*
X143828571Y-89854819D02*
X143733333Y-89902438D01*
X143733333Y-89902438D02*
X143685714Y-89950057D01*
X143685714Y-89950057D02*
X143638095Y-90045295D01*
X143638095Y-90045295D02*
X143638095Y-90140533D01*
X143638095Y-90140533D02*
X143685714Y-90235771D01*
X143685714Y-90235771D02*
X143733333Y-90283390D01*
X143733333Y-90283390D02*
X143828571Y-90331009D01*
X143828571Y-90331009D02*
X144161904Y-90331009D01*
X143114285Y-90854819D02*
X142923809Y-90854819D01*
X142923809Y-90854819D02*
X142828571Y-90807200D01*
X142828571Y-90807200D02*
X142780952Y-90759580D01*
X142780952Y-90759580D02*
X142685714Y-90616723D01*
X142685714Y-90616723D02*
X142638095Y-90426247D01*
X142638095Y-90426247D02*
X142638095Y-90045295D01*
X142638095Y-90045295D02*
X142685714Y-89950057D01*
X142685714Y-89950057D02*
X142733333Y-89902438D01*
X142733333Y-89902438D02*
X142828571Y-89854819D01*
X142828571Y-89854819D02*
X143019047Y-89854819D01*
X143019047Y-89854819D02*
X143114285Y-89902438D01*
X143114285Y-89902438D02*
X143161904Y-89950057D01*
X143161904Y-89950057D02*
X143209523Y-90045295D01*
X143209523Y-90045295D02*
X143209523Y-90283390D01*
X143209523Y-90283390D02*
X143161904Y-90378628D01*
X143161904Y-90378628D02*
X143114285Y-90426247D01*
X143114285Y-90426247D02*
X143019047Y-90473866D01*
X143019047Y-90473866D02*
X142828571Y-90473866D01*
X142828571Y-90473866D02*
X142733333Y-90426247D01*
X142733333Y-90426247D02*
X142685714Y-90378628D01*
X142685714Y-90378628D02*
X142638095Y-90283390D01*
X171266666Y-86389580D02*
X171314285Y-86437200D01*
X171314285Y-86437200D02*
X171457142Y-86484819D01*
X171457142Y-86484819D02*
X171552380Y-86484819D01*
X171552380Y-86484819D02*
X171695237Y-86437200D01*
X171695237Y-86437200D02*
X171790475Y-86341961D01*
X171790475Y-86341961D02*
X171838094Y-86246723D01*
X171838094Y-86246723D02*
X171885713Y-86056247D01*
X171885713Y-86056247D02*
X171885713Y-85913390D01*
X171885713Y-85913390D02*
X171838094Y-85722914D01*
X171838094Y-85722914D02*
X171790475Y-85627676D01*
X171790475Y-85627676D02*
X171695237Y-85532438D01*
X171695237Y-85532438D02*
X171552380Y-85484819D01*
X171552380Y-85484819D02*
X171457142Y-85484819D01*
X171457142Y-85484819D02*
X171314285Y-85532438D01*
X171314285Y-85532438D02*
X171266666Y-85580057D01*
X170933332Y-85484819D02*
X170266666Y-85484819D01*
X170266666Y-85484819D02*
X170695237Y-86484819D01*
X140576190Y-95578628D02*
X140576190Y-96054819D01*
X140909523Y-95054819D02*
X140576190Y-95578628D01*
X140576190Y-95578628D02*
X140242857Y-95054819D01*
X139957142Y-95150057D02*
X139909523Y-95102438D01*
X139909523Y-95102438D02*
X139814285Y-95054819D01*
X139814285Y-95054819D02*
X139576190Y-95054819D01*
X139576190Y-95054819D02*
X139480952Y-95102438D01*
X139480952Y-95102438D02*
X139433333Y-95150057D01*
X139433333Y-95150057D02*
X139385714Y-95245295D01*
X139385714Y-95245295D02*
X139385714Y-95340533D01*
X139385714Y-95340533D02*
X139433333Y-95483390D01*
X139433333Y-95483390D02*
X140004761Y-96054819D01*
X140004761Y-96054819D02*
X139385714Y-96054819D01*
X137866666Y-82759580D02*
X137914285Y-82807200D01*
X137914285Y-82807200D02*
X138057142Y-82854819D01*
X138057142Y-82854819D02*
X138152380Y-82854819D01*
X138152380Y-82854819D02*
X138295237Y-82807200D01*
X138295237Y-82807200D02*
X138390475Y-82711961D01*
X138390475Y-82711961D02*
X138438094Y-82616723D01*
X138438094Y-82616723D02*
X138485713Y-82426247D01*
X138485713Y-82426247D02*
X138485713Y-82283390D01*
X138485713Y-82283390D02*
X138438094Y-82092914D01*
X138438094Y-82092914D02*
X138390475Y-81997676D01*
X138390475Y-81997676D02*
X138295237Y-81902438D01*
X138295237Y-81902438D02*
X138152380Y-81854819D01*
X138152380Y-81854819D02*
X138057142Y-81854819D01*
X138057142Y-81854819D02*
X137914285Y-81902438D01*
X137914285Y-81902438D02*
X137866666Y-81950057D01*
X136914285Y-82854819D02*
X137485713Y-82854819D01*
X137199999Y-82854819D02*
X137199999Y-81854819D01*
X137199999Y-81854819D02*
X137295237Y-81997676D01*
X137295237Y-81997676D02*
X137390475Y-82092914D01*
X137390475Y-82092914D02*
X137485713Y-82140533D01*
X149437200Y-76861905D02*
X149484819Y-77004762D01*
X149484819Y-77004762D02*
X149484819Y-77242857D01*
X149484819Y-77242857D02*
X149437200Y-77338095D01*
X149437200Y-77338095D02*
X149389580Y-77385714D01*
X149389580Y-77385714D02*
X149294342Y-77433333D01*
X149294342Y-77433333D02*
X149199104Y-77433333D01*
X149199104Y-77433333D02*
X149103866Y-77385714D01*
X149103866Y-77385714D02*
X149056247Y-77338095D01*
X149056247Y-77338095D02*
X149008628Y-77242857D01*
X149008628Y-77242857D02*
X148961009Y-77052381D01*
X148961009Y-77052381D02*
X148913390Y-76957143D01*
X148913390Y-76957143D02*
X148865771Y-76909524D01*
X148865771Y-76909524D02*
X148770533Y-76861905D01*
X148770533Y-76861905D02*
X148675295Y-76861905D01*
X148675295Y-76861905D02*
X148580057Y-76909524D01*
X148580057Y-76909524D02*
X148532438Y-76957143D01*
X148532438Y-76957143D02*
X148484819Y-77052381D01*
X148484819Y-77052381D02*
X148484819Y-77290476D01*
X148484819Y-77290476D02*
X148532438Y-77433333D01*
X148961009Y-78195238D02*
X149008628Y-78338095D01*
X149008628Y-78338095D02*
X149056247Y-78385714D01*
X149056247Y-78385714D02*
X149151485Y-78433333D01*
X149151485Y-78433333D02*
X149294342Y-78433333D01*
X149294342Y-78433333D02*
X149389580Y-78385714D01*
X149389580Y-78385714D02*
X149437200Y-78338095D01*
X149437200Y-78338095D02*
X149484819Y-78242857D01*
X149484819Y-78242857D02*
X149484819Y-77861905D01*
X149484819Y-77861905D02*
X148484819Y-77861905D01*
X148484819Y-77861905D02*
X148484819Y-78195238D01*
X148484819Y-78195238D02*
X148532438Y-78290476D01*
X148532438Y-78290476D02*
X148580057Y-78338095D01*
X148580057Y-78338095D02*
X148675295Y-78385714D01*
X148675295Y-78385714D02*
X148770533Y-78385714D01*
X148770533Y-78385714D02*
X148865771Y-78338095D01*
X148865771Y-78338095D02*
X148913390Y-78290476D01*
X148913390Y-78290476D02*
X148961009Y-78195238D01*
X148961009Y-78195238D02*
X148961009Y-77861905D01*
X149484819Y-79385714D02*
X149484819Y-78814286D01*
X149484819Y-79100000D02*
X148484819Y-79100000D01*
X148484819Y-79100000D02*
X148627676Y-79004762D01*
X148627676Y-79004762D02*
X148722914Y-78909524D01*
X148722914Y-78909524D02*
X148770533Y-78814286D01*
X149484819Y-80338095D02*
X149484819Y-79766667D01*
X149484819Y-80052381D02*
X148484819Y-80052381D01*
X148484819Y-80052381D02*
X148627676Y-79957143D01*
X148627676Y-79957143D02*
X148722914Y-79861905D01*
X148722914Y-79861905D02*
X148770533Y-79766667D01*
X137866666Y-85959580D02*
X137914285Y-86007200D01*
X137914285Y-86007200D02*
X138057142Y-86054819D01*
X138057142Y-86054819D02*
X138152380Y-86054819D01*
X138152380Y-86054819D02*
X138295237Y-86007200D01*
X138295237Y-86007200D02*
X138390475Y-85911961D01*
X138390475Y-85911961D02*
X138438094Y-85816723D01*
X138438094Y-85816723D02*
X138485713Y-85626247D01*
X138485713Y-85626247D02*
X138485713Y-85483390D01*
X138485713Y-85483390D02*
X138438094Y-85292914D01*
X138438094Y-85292914D02*
X138390475Y-85197676D01*
X138390475Y-85197676D02*
X138295237Y-85102438D01*
X138295237Y-85102438D02*
X138152380Y-85054819D01*
X138152380Y-85054819D02*
X138057142Y-85054819D01*
X138057142Y-85054819D02*
X137914285Y-85102438D01*
X137914285Y-85102438D02*
X137866666Y-85150057D01*
X137485713Y-85150057D02*
X137438094Y-85102438D01*
X137438094Y-85102438D02*
X137342856Y-85054819D01*
X137342856Y-85054819D02*
X137104761Y-85054819D01*
X137104761Y-85054819D02*
X137009523Y-85102438D01*
X137009523Y-85102438D02*
X136961904Y-85150057D01*
X136961904Y-85150057D02*
X136914285Y-85245295D01*
X136914285Y-85245295D02*
X136914285Y-85340533D01*
X136914285Y-85340533D02*
X136961904Y-85483390D01*
X136961904Y-85483390D02*
X137533332Y-86054819D01*
X137533332Y-86054819D02*
X136914285Y-86054819D01*
X145161904Y-89207200D02*
X145019047Y-89254819D01*
X145019047Y-89254819D02*
X144780952Y-89254819D01*
X144780952Y-89254819D02*
X144685714Y-89207200D01*
X144685714Y-89207200D02*
X144638095Y-89159580D01*
X144638095Y-89159580D02*
X144590476Y-89064342D01*
X144590476Y-89064342D02*
X144590476Y-88969104D01*
X144590476Y-88969104D02*
X144638095Y-88873866D01*
X144638095Y-88873866D02*
X144685714Y-88826247D01*
X144685714Y-88826247D02*
X144780952Y-88778628D01*
X144780952Y-88778628D02*
X144971428Y-88731009D01*
X144971428Y-88731009D02*
X145066666Y-88683390D01*
X145066666Y-88683390D02*
X145114285Y-88635771D01*
X145114285Y-88635771D02*
X145161904Y-88540533D01*
X145161904Y-88540533D02*
X145161904Y-88445295D01*
X145161904Y-88445295D02*
X145114285Y-88350057D01*
X145114285Y-88350057D02*
X145066666Y-88302438D01*
X145066666Y-88302438D02*
X144971428Y-88254819D01*
X144971428Y-88254819D02*
X144733333Y-88254819D01*
X144733333Y-88254819D02*
X144590476Y-88302438D01*
X143828571Y-88731009D02*
X143685714Y-88778628D01*
X143685714Y-88778628D02*
X143638095Y-88826247D01*
X143638095Y-88826247D02*
X143590476Y-88921485D01*
X143590476Y-88921485D02*
X143590476Y-89064342D01*
X143590476Y-89064342D02*
X143638095Y-89159580D01*
X143638095Y-89159580D02*
X143685714Y-89207200D01*
X143685714Y-89207200D02*
X143780952Y-89254819D01*
X143780952Y-89254819D02*
X144161904Y-89254819D01*
X144161904Y-89254819D02*
X144161904Y-88254819D01*
X144161904Y-88254819D02*
X143828571Y-88254819D01*
X143828571Y-88254819D02*
X143733333Y-88302438D01*
X143733333Y-88302438D02*
X143685714Y-88350057D01*
X143685714Y-88350057D02*
X143638095Y-88445295D01*
X143638095Y-88445295D02*
X143638095Y-88540533D01*
X143638095Y-88540533D02*
X143685714Y-88635771D01*
X143685714Y-88635771D02*
X143733333Y-88683390D01*
X143733333Y-88683390D02*
X143828571Y-88731009D01*
X143828571Y-88731009D02*
X144161904Y-88731009D01*
X143019047Y-88683390D02*
X143114285Y-88635771D01*
X143114285Y-88635771D02*
X143161904Y-88588152D01*
X143161904Y-88588152D02*
X143209523Y-88492914D01*
X143209523Y-88492914D02*
X143209523Y-88445295D01*
X143209523Y-88445295D02*
X143161904Y-88350057D01*
X143161904Y-88350057D02*
X143114285Y-88302438D01*
X143114285Y-88302438D02*
X143019047Y-88254819D01*
X143019047Y-88254819D02*
X142828571Y-88254819D01*
X142828571Y-88254819D02*
X142733333Y-88302438D01*
X142733333Y-88302438D02*
X142685714Y-88350057D01*
X142685714Y-88350057D02*
X142638095Y-88445295D01*
X142638095Y-88445295D02*
X142638095Y-88492914D01*
X142638095Y-88492914D02*
X142685714Y-88588152D01*
X142685714Y-88588152D02*
X142733333Y-88635771D01*
X142733333Y-88635771D02*
X142828571Y-88683390D01*
X142828571Y-88683390D02*
X143019047Y-88683390D01*
X143019047Y-88683390D02*
X143114285Y-88731009D01*
X143114285Y-88731009D02*
X143161904Y-88778628D01*
X143161904Y-88778628D02*
X143209523Y-88873866D01*
X143209523Y-88873866D02*
X143209523Y-89064342D01*
X143209523Y-89064342D02*
X143161904Y-89159580D01*
X143161904Y-89159580D02*
X143114285Y-89207200D01*
X143114285Y-89207200D02*
X143019047Y-89254819D01*
X143019047Y-89254819D02*
X142828571Y-89254819D01*
X142828571Y-89254819D02*
X142733333Y-89207200D01*
X142733333Y-89207200D02*
X142685714Y-89159580D01*
X142685714Y-89159580D02*
X142638095Y-89064342D01*
X142638095Y-89064342D02*
X142638095Y-88873866D01*
X142638095Y-88873866D02*
X142685714Y-88778628D01*
X142685714Y-88778628D02*
X142733333Y-88731009D01*
X142733333Y-88731009D02*
X142828571Y-88683390D01*
X155189580Y-77957142D02*
X155237200Y-77909523D01*
X155237200Y-77909523D02*
X155284819Y-77766666D01*
X155284819Y-77766666D02*
X155284819Y-77671428D01*
X155284819Y-77671428D02*
X155237200Y-77528571D01*
X155237200Y-77528571D02*
X155141961Y-77433333D01*
X155141961Y-77433333D02*
X155046723Y-77385714D01*
X155046723Y-77385714D02*
X154856247Y-77338095D01*
X154856247Y-77338095D02*
X154713390Y-77338095D01*
X154713390Y-77338095D02*
X154522914Y-77385714D01*
X154522914Y-77385714D02*
X154427676Y-77433333D01*
X154427676Y-77433333D02*
X154332438Y-77528571D01*
X154332438Y-77528571D02*
X154284819Y-77671428D01*
X154284819Y-77671428D02*
X154284819Y-77766666D01*
X154284819Y-77766666D02*
X154332438Y-77909523D01*
X154332438Y-77909523D02*
X154380057Y-77957142D01*
X155284819Y-78909523D02*
X155284819Y-78338095D01*
X155284819Y-78623809D02*
X154284819Y-78623809D01*
X154284819Y-78623809D02*
X154427676Y-78528571D01*
X154427676Y-78528571D02*
X154522914Y-78433333D01*
X154522914Y-78433333D02*
X154570533Y-78338095D01*
X154284819Y-79242857D02*
X154284819Y-79861904D01*
X154284819Y-79861904D02*
X154665771Y-79528571D01*
X154665771Y-79528571D02*
X154665771Y-79671428D01*
X154665771Y-79671428D02*
X154713390Y-79766666D01*
X154713390Y-79766666D02*
X154761009Y-79814285D01*
X154761009Y-79814285D02*
X154856247Y-79861904D01*
X154856247Y-79861904D02*
X155094342Y-79861904D01*
X155094342Y-79861904D02*
X155189580Y-79814285D01*
X155189580Y-79814285D02*
X155237200Y-79766666D01*
X155237200Y-79766666D02*
X155284819Y-79671428D01*
X155284819Y-79671428D02*
X155284819Y-79385714D01*
X155284819Y-79385714D02*
X155237200Y-79290476D01*
X155237200Y-79290476D02*
X155189580Y-79242857D01*
X165359580Y-103233333D02*
X165407200Y-103185714D01*
X165407200Y-103185714D02*
X165454819Y-103042857D01*
X165454819Y-103042857D02*
X165454819Y-102947619D01*
X165454819Y-102947619D02*
X165407200Y-102804762D01*
X165407200Y-102804762D02*
X165311961Y-102709524D01*
X165311961Y-102709524D02*
X165216723Y-102661905D01*
X165216723Y-102661905D02*
X165026247Y-102614286D01*
X165026247Y-102614286D02*
X164883390Y-102614286D01*
X164883390Y-102614286D02*
X164692914Y-102661905D01*
X164692914Y-102661905D02*
X164597676Y-102709524D01*
X164597676Y-102709524D02*
X164502438Y-102804762D01*
X164502438Y-102804762D02*
X164454819Y-102947619D01*
X164454819Y-102947619D02*
X164454819Y-103042857D01*
X164454819Y-103042857D02*
X164502438Y-103185714D01*
X164502438Y-103185714D02*
X164550057Y-103233333D01*
X164454819Y-104090476D02*
X164454819Y-103900000D01*
X164454819Y-103900000D02*
X164502438Y-103804762D01*
X164502438Y-103804762D02*
X164550057Y-103757143D01*
X164550057Y-103757143D02*
X164692914Y-103661905D01*
X164692914Y-103661905D02*
X164883390Y-103614286D01*
X164883390Y-103614286D02*
X165264342Y-103614286D01*
X165264342Y-103614286D02*
X165359580Y-103661905D01*
X165359580Y-103661905D02*
X165407200Y-103709524D01*
X165407200Y-103709524D02*
X165454819Y-103804762D01*
X165454819Y-103804762D02*
X165454819Y-103995238D01*
X165454819Y-103995238D02*
X165407200Y-104090476D01*
X165407200Y-104090476D02*
X165359580Y-104138095D01*
X165359580Y-104138095D02*
X165264342Y-104185714D01*
X165264342Y-104185714D02*
X165026247Y-104185714D01*
X165026247Y-104185714D02*
X164931009Y-104138095D01*
X164931009Y-104138095D02*
X164883390Y-104090476D01*
X164883390Y-104090476D02*
X164835771Y-103995238D01*
X164835771Y-103995238D02*
X164835771Y-103804762D01*
X164835771Y-103804762D02*
X164883390Y-103709524D01*
X164883390Y-103709524D02*
X164931009Y-103661905D01*
X164931009Y-103661905D02*
X165026247Y-103614286D01*
X146607199Y-73149405D02*
X146654818Y-73292262D01*
X146654818Y-73292262D02*
X146654818Y-73530357D01*
X146654818Y-73530357D02*
X146607199Y-73625595D01*
X146607199Y-73625595D02*
X146559579Y-73673214D01*
X146559579Y-73673214D02*
X146464341Y-73720833D01*
X146464341Y-73720833D02*
X146369103Y-73720833D01*
X146369103Y-73720833D02*
X146273865Y-73673214D01*
X146273865Y-73673214D02*
X146226246Y-73625595D01*
X146226246Y-73625595D02*
X146178627Y-73530357D01*
X146178627Y-73530357D02*
X146131008Y-73339881D01*
X146131008Y-73339881D02*
X146083389Y-73244643D01*
X146083389Y-73244643D02*
X146035770Y-73197024D01*
X146035770Y-73197024D02*
X145940532Y-73149405D01*
X145940532Y-73149405D02*
X145845294Y-73149405D01*
X145845294Y-73149405D02*
X145750056Y-73197024D01*
X145750056Y-73197024D02*
X145702437Y-73244643D01*
X145702437Y-73244643D02*
X145654818Y-73339881D01*
X145654818Y-73339881D02*
X145654818Y-73577976D01*
X145654818Y-73577976D02*
X145702437Y-73720833D01*
X146131008Y-74482738D02*
X146178627Y-74625595D01*
X146178627Y-74625595D02*
X146226246Y-74673214D01*
X146226246Y-74673214D02*
X146321484Y-74720833D01*
X146321484Y-74720833D02*
X146464341Y-74720833D01*
X146464341Y-74720833D02*
X146559579Y-74673214D01*
X146559579Y-74673214D02*
X146607199Y-74625595D01*
X146607199Y-74625595D02*
X146654818Y-74530357D01*
X146654818Y-74530357D02*
X146654818Y-74149405D01*
X146654818Y-74149405D02*
X145654818Y-74149405D01*
X145654818Y-74149405D02*
X145654818Y-74482738D01*
X145654818Y-74482738D02*
X145702437Y-74577976D01*
X145702437Y-74577976D02*
X145750056Y-74625595D01*
X145750056Y-74625595D02*
X145845294Y-74673214D01*
X145845294Y-74673214D02*
X145940532Y-74673214D01*
X145940532Y-74673214D02*
X146035770Y-74625595D01*
X146035770Y-74625595D02*
X146083389Y-74577976D01*
X146083389Y-74577976D02*
X146131008Y-74482738D01*
X146131008Y-74482738D02*
X146131008Y-74149405D01*
X146654818Y-75673214D02*
X146654818Y-75101786D01*
X146654818Y-75387500D02*
X145654818Y-75387500D01*
X145654818Y-75387500D02*
X145797675Y-75292262D01*
X145797675Y-75292262D02*
X145892913Y-75197024D01*
X145892913Y-75197024D02*
X145940532Y-75101786D01*
X145750056Y-76054167D02*
X145702437Y-76101786D01*
X145702437Y-76101786D02*
X145654818Y-76197024D01*
X145654818Y-76197024D02*
X145654818Y-76435119D01*
X145654818Y-76435119D02*
X145702437Y-76530357D01*
X145702437Y-76530357D02*
X145750056Y-76577976D01*
X145750056Y-76577976D02*
X145845294Y-76625595D01*
X145845294Y-76625595D02*
X145940532Y-76625595D01*
X145940532Y-76625595D02*
X146083389Y-76577976D01*
X146083389Y-76577976D02*
X146654818Y-76006548D01*
X146654818Y-76006548D02*
X146654818Y-76625595D01*
X136666666Y-88759580D02*
X136714285Y-88807200D01*
X136714285Y-88807200D02*
X136857142Y-88854819D01*
X136857142Y-88854819D02*
X136952380Y-88854819D01*
X136952380Y-88854819D02*
X137095237Y-88807200D01*
X137095237Y-88807200D02*
X137190475Y-88711961D01*
X137190475Y-88711961D02*
X137238094Y-88616723D01*
X137238094Y-88616723D02*
X137285713Y-88426247D01*
X137285713Y-88426247D02*
X137285713Y-88283390D01*
X137285713Y-88283390D02*
X137238094Y-88092914D01*
X137238094Y-88092914D02*
X137190475Y-87997676D01*
X137190475Y-87997676D02*
X137095237Y-87902438D01*
X137095237Y-87902438D02*
X136952380Y-87854819D01*
X136952380Y-87854819D02*
X136857142Y-87854819D01*
X136857142Y-87854819D02*
X136714285Y-87902438D01*
X136714285Y-87902438D02*
X136666666Y-87950057D01*
X135809523Y-88188152D02*
X135809523Y-88854819D01*
X136047618Y-87807200D02*
X136285713Y-88521485D01*
X136285713Y-88521485D02*
X135666666Y-88521485D01*
X145074403Y-86007200D02*
X144931546Y-86054819D01*
X144931546Y-86054819D02*
X144693451Y-86054819D01*
X144693451Y-86054819D02*
X144598213Y-86007200D01*
X144598213Y-86007200D02*
X144550594Y-85959580D01*
X144550594Y-85959580D02*
X144502975Y-85864342D01*
X144502975Y-85864342D02*
X144502975Y-85769104D01*
X144502975Y-85769104D02*
X144550594Y-85673866D01*
X144550594Y-85673866D02*
X144598213Y-85626247D01*
X144598213Y-85626247D02*
X144693451Y-85578628D01*
X144693451Y-85578628D02*
X144883927Y-85531009D01*
X144883927Y-85531009D02*
X144979165Y-85483390D01*
X144979165Y-85483390D02*
X145026784Y-85435771D01*
X145026784Y-85435771D02*
X145074403Y-85340533D01*
X145074403Y-85340533D02*
X145074403Y-85245295D01*
X145074403Y-85245295D02*
X145026784Y-85150057D01*
X145026784Y-85150057D02*
X144979165Y-85102438D01*
X144979165Y-85102438D02*
X144883927Y-85054819D01*
X144883927Y-85054819D02*
X144645832Y-85054819D01*
X144645832Y-85054819D02*
X144502975Y-85102438D01*
X143741070Y-85531009D02*
X143598213Y-85578628D01*
X143598213Y-85578628D02*
X143550594Y-85626247D01*
X143550594Y-85626247D02*
X143502975Y-85721485D01*
X143502975Y-85721485D02*
X143502975Y-85864342D01*
X143502975Y-85864342D02*
X143550594Y-85959580D01*
X143550594Y-85959580D02*
X143598213Y-86007200D01*
X143598213Y-86007200D02*
X143693451Y-86054819D01*
X143693451Y-86054819D02*
X144074403Y-86054819D01*
X144074403Y-86054819D02*
X144074403Y-85054819D01*
X144074403Y-85054819D02*
X143741070Y-85054819D01*
X143741070Y-85054819D02*
X143645832Y-85102438D01*
X143645832Y-85102438D02*
X143598213Y-85150057D01*
X143598213Y-85150057D02*
X143550594Y-85245295D01*
X143550594Y-85245295D02*
X143550594Y-85340533D01*
X143550594Y-85340533D02*
X143598213Y-85435771D01*
X143598213Y-85435771D02*
X143645832Y-85483390D01*
X143645832Y-85483390D02*
X143741070Y-85531009D01*
X143741070Y-85531009D02*
X144074403Y-85531009D01*
X142645832Y-85054819D02*
X142836308Y-85054819D01*
X142836308Y-85054819D02*
X142931546Y-85102438D01*
X142931546Y-85102438D02*
X142979165Y-85150057D01*
X142979165Y-85150057D02*
X143074403Y-85292914D01*
X143074403Y-85292914D02*
X143122022Y-85483390D01*
X143122022Y-85483390D02*
X143122022Y-85864342D01*
X143122022Y-85864342D02*
X143074403Y-85959580D01*
X143074403Y-85959580D02*
X143026784Y-86007200D01*
X143026784Y-86007200D02*
X142931546Y-86054819D01*
X142931546Y-86054819D02*
X142741070Y-86054819D01*
X142741070Y-86054819D02*
X142645832Y-86007200D01*
X142645832Y-86007200D02*
X142598213Y-85959580D01*
X142598213Y-85959580D02*
X142550594Y-85864342D01*
X142550594Y-85864342D02*
X142550594Y-85626247D01*
X142550594Y-85626247D02*
X142598213Y-85531009D01*
X142598213Y-85531009D02*
X142645832Y-85483390D01*
X142645832Y-85483390D02*
X142741070Y-85435771D01*
X142741070Y-85435771D02*
X142931546Y-85435771D01*
X142931546Y-85435771D02*
X143026784Y-85483390D01*
X143026784Y-85483390D02*
X143074403Y-85531009D01*
X143074403Y-85531009D02*
X143122022Y-85626247D01*
X141537201Y-73149406D02*
X141584820Y-73292263D01*
X141584820Y-73292263D02*
X141584820Y-73530358D01*
X141584820Y-73530358D02*
X141537201Y-73625596D01*
X141537201Y-73625596D02*
X141489581Y-73673215D01*
X141489581Y-73673215D02*
X141394343Y-73720834D01*
X141394343Y-73720834D02*
X141299105Y-73720834D01*
X141299105Y-73720834D02*
X141203867Y-73673215D01*
X141203867Y-73673215D02*
X141156248Y-73625596D01*
X141156248Y-73625596D02*
X141108629Y-73530358D01*
X141108629Y-73530358D02*
X141061010Y-73339882D01*
X141061010Y-73339882D02*
X141013391Y-73244644D01*
X141013391Y-73244644D02*
X140965772Y-73197025D01*
X140965772Y-73197025D02*
X140870534Y-73149406D01*
X140870534Y-73149406D02*
X140775296Y-73149406D01*
X140775296Y-73149406D02*
X140680058Y-73197025D01*
X140680058Y-73197025D02*
X140632439Y-73244644D01*
X140632439Y-73244644D02*
X140584820Y-73339882D01*
X140584820Y-73339882D02*
X140584820Y-73577977D01*
X140584820Y-73577977D02*
X140632439Y-73720834D01*
X141061010Y-74482739D02*
X141108629Y-74625596D01*
X141108629Y-74625596D02*
X141156248Y-74673215D01*
X141156248Y-74673215D02*
X141251486Y-74720834D01*
X141251486Y-74720834D02*
X141394343Y-74720834D01*
X141394343Y-74720834D02*
X141489581Y-74673215D01*
X141489581Y-74673215D02*
X141537201Y-74625596D01*
X141537201Y-74625596D02*
X141584820Y-74530358D01*
X141584820Y-74530358D02*
X141584820Y-74149406D01*
X141584820Y-74149406D02*
X140584820Y-74149406D01*
X140584820Y-74149406D02*
X140584820Y-74482739D01*
X140584820Y-74482739D02*
X140632439Y-74577977D01*
X140632439Y-74577977D02*
X140680058Y-74625596D01*
X140680058Y-74625596D02*
X140775296Y-74673215D01*
X140775296Y-74673215D02*
X140870534Y-74673215D01*
X140870534Y-74673215D02*
X140965772Y-74625596D01*
X140965772Y-74625596D02*
X141013391Y-74577977D01*
X141013391Y-74577977D02*
X141061010Y-74482739D01*
X141061010Y-74482739D02*
X141061010Y-74149406D01*
X141584820Y-75673215D02*
X141584820Y-75101787D01*
X141584820Y-75387501D02*
X140584820Y-75387501D01*
X140584820Y-75387501D02*
X140727677Y-75292263D01*
X140727677Y-75292263D02*
X140822915Y-75197025D01*
X140822915Y-75197025D02*
X140870534Y-75101787D01*
X140584820Y-76577977D02*
X140584820Y-76101787D01*
X140584820Y-76101787D02*
X141061010Y-76054168D01*
X141061010Y-76054168D02*
X141013391Y-76101787D01*
X141013391Y-76101787D02*
X140965772Y-76197025D01*
X140965772Y-76197025D02*
X140965772Y-76435120D01*
X140965772Y-76435120D02*
X141013391Y-76530358D01*
X141013391Y-76530358D02*
X141061010Y-76577977D01*
X141061010Y-76577977D02*
X141156248Y-76625596D01*
X141156248Y-76625596D02*
X141394343Y-76625596D01*
X141394343Y-76625596D02*
X141489581Y-76577977D01*
X141489581Y-76577977D02*
X141537201Y-76530358D01*
X141537201Y-76530358D02*
X141584820Y-76435120D01*
X141584820Y-76435120D02*
X141584820Y-76197025D01*
X141584820Y-76197025D02*
X141537201Y-76101787D01*
X141537201Y-76101787D02*
X141489581Y-76054168D01*
X143227200Y-73349405D02*
X143274819Y-73492262D01*
X143274819Y-73492262D02*
X143274819Y-73730357D01*
X143274819Y-73730357D02*
X143227200Y-73825595D01*
X143227200Y-73825595D02*
X143179580Y-73873214D01*
X143179580Y-73873214D02*
X143084342Y-73920833D01*
X143084342Y-73920833D02*
X142989104Y-73920833D01*
X142989104Y-73920833D02*
X142893866Y-73873214D01*
X142893866Y-73873214D02*
X142846247Y-73825595D01*
X142846247Y-73825595D02*
X142798628Y-73730357D01*
X142798628Y-73730357D02*
X142751009Y-73539881D01*
X142751009Y-73539881D02*
X142703390Y-73444643D01*
X142703390Y-73444643D02*
X142655771Y-73397024D01*
X142655771Y-73397024D02*
X142560533Y-73349405D01*
X142560533Y-73349405D02*
X142465295Y-73349405D01*
X142465295Y-73349405D02*
X142370057Y-73397024D01*
X142370057Y-73397024D02*
X142322438Y-73444643D01*
X142322438Y-73444643D02*
X142274819Y-73539881D01*
X142274819Y-73539881D02*
X142274819Y-73777976D01*
X142274819Y-73777976D02*
X142322438Y-73920833D01*
X142751009Y-74682738D02*
X142798628Y-74825595D01*
X142798628Y-74825595D02*
X142846247Y-74873214D01*
X142846247Y-74873214D02*
X142941485Y-74920833D01*
X142941485Y-74920833D02*
X143084342Y-74920833D01*
X143084342Y-74920833D02*
X143179580Y-74873214D01*
X143179580Y-74873214D02*
X143227200Y-74825595D01*
X143227200Y-74825595D02*
X143274819Y-74730357D01*
X143274819Y-74730357D02*
X143274819Y-74349405D01*
X143274819Y-74349405D02*
X142274819Y-74349405D01*
X142274819Y-74349405D02*
X142274819Y-74682738D01*
X142274819Y-74682738D02*
X142322438Y-74777976D01*
X142322438Y-74777976D02*
X142370057Y-74825595D01*
X142370057Y-74825595D02*
X142465295Y-74873214D01*
X142465295Y-74873214D02*
X142560533Y-74873214D01*
X142560533Y-74873214D02*
X142655771Y-74825595D01*
X142655771Y-74825595D02*
X142703390Y-74777976D01*
X142703390Y-74777976D02*
X142751009Y-74682738D01*
X142751009Y-74682738D02*
X142751009Y-74349405D01*
X143274819Y-75873214D02*
X143274819Y-75301786D01*
X143274819Y-75587500D02*
X142274819Y-75587500D01*
X142274819Y-75587500D02*
X142417676Y-75492262D01*
X142417676Y-75492262D02*
X142512914Y-75397024D01*
X142512914Y-75397024D02*
X142560533Y-75301786D01*
X142608152Y-76730357D02*
X143274819Y-76730357D01*
X142227200Y-76492262D02*
X142941485Y-76254167D01*
X142941485Y-76254167D02*
X142941485Y-76873214D01*
X171842857Y-81559580D02*
X171890476Y-81607200D01*
X171890476Y-81607200D02*
X172033333Y-81654819D01*
X172033333Y-81654819D02*
X172128571Y-81654819D01*
X172128571Y-81654819D02*
X172271428Y-81607200D01*
X172271428Y-81607200D02*
X172366666Y-81511961D01*
X172366666Y-81511961D02*
X172414285Y-81416723D01*
X172414285Y-81416723D02*
X172461904Y-81226247D01*
X172461904Y-81226247D02*
X172461904Y-81083390D01*
X172461904Y-81083390D02*
X172414285Y-80892914D01*
X172414285Y-80892914D02*
X172366666Y-80797676D01*
X172366666Y-80797676D02*
X172271428Y-80702438D01*
X172271428Y-80702438D02*
X172128571Y-80654819D01*
X172128571Y-80654819D02*
X172033333Y-80654819D01*
X172033333Y-80654819D02*
X171890476Y-80702438D01*
X171890476Y-80702438D02*
X171842857Y-80750057D01*
X170890476Y-81654819D02*
X171461904Y-81654819D01*
X171176190Y-81654819D02*
X171176190Y-80654819D01*
X171176190Y-80654819D02*
X171271428Y-80797676D01*
X171271428Y-80797676D02*
X171366666Y-80892914D01*
X171366666Y-80892914D02*
X171461904Y-80940533D01*
X169985714Y-80654819D02*
X170461904Y-80654819D01*
X170461904Y-80654819D02*
X170509523Y-81131009D01*
X170509523Y-81131009D02*
X170461904Y-81083390D01*
X170461904Y-81083390D02*
X170366666Y-81035771D01*
X170366666Y-81035771D02*
X170128571Y-81035771D01*
X170128571Y-81035771D02*
X170033333Y-81083390D01*
X170033333Y-81083390D02*
X169985714Y-81131009D01*
X169985714Y-81131009D02*
X169938095Y-81226247D01*
X169938095Y-81226247D02*
X169938095Y-81464342D01*
X169938095Y-81464342D02*
X169985714Y-81559580D01*
X169985714Y-81559580D02*
X170033333Y-81607200D01*
X170033333Y-81607200D02*
X170128571Y-81654819D01*
X170128571Y-81654819D02*
X170366666Y-81654819D01*
X170366666Y-81654819D02*
X170461904Y-81607200D01*
X170461904Y-81607200D02*
X170509523Y-81559580D01*
X139959580Y-74757142D02*
X140007200Y-74709523D01*
X140007200Y-74709523D02*
X140054819Y-74566666D01*
X140054819Y-74566666D02*
X140054819Y-74471428D01*
X140054819Y-74471428D02*
X140007200Y-74328571D01*
X140007200Y-74328571D02*
X139911961Y-74233333D01*
X139911961Y-74233333D02*
X139816723Y-74185714D01*
X139816723Y-74185714D02*
X139626247Y-74138095D01*
X139626247Y-74138095D02*
X139483390Y-74138095D01*
X139483390Y-74138095D02*
X139292914Y-74185714D01*
X139292914Y-74185714D02*
X139197676Y-74233333D01*
X139197676Y-74233333D02*
X139102438Y-74328571D01*
X139102438Y-74328571D02*
X139054819Y-74471428D01*
X139054819Y-74471428D02*
X139054819Y-74566666D01*
X139054819Y-74566666D02*
X139102438Y-74709523D01*
X139102438Y-74709523D02*
X139150057Y-74757142D01*
X140054819Y-75709523D02*
X140054819Y-75138095D01*
X140054819Y-75423809D02*
X139054819Y-75423809D01*
X139054819Y-75423809D02*
X139197676Y-75328571D01*
X139197676Y-75328571D02*
X139292914Y-75233333D01*
X139292914Y-75233333D02*
X139340533Y-75138095D01*
X139054819Y-76042857D02*
X139054819Y-76709523D01*
X139054819Y-76709523D02*
X140054819Y-76280952D01*
X144961904Y-87607200D02*
X144819047Y-87654819D01*
X144819047Y-87654819D02*
X144580952Y-87654819D01*
X144580952Y-87654819D02*
X144485714Y-87607200D01*
X144485714Y-87607200D02*
X144438095Y-87559580D01*
X144438095Y-87559580D02*
X144390476Y-87464342D01*
X144390476Y-87464342D02*
X144390476Y-87369104D01*
X144390476Y-87369104D02*
X144438095Y-87273866D01*
X144438095Y-87273866D02*
X144485714Y-87226247D01*
X144485714Y-87226247D02*
X144580952Y-87178628D01*
X144580952Y-87178628D02*
X144771428Y-87131009D01*
X144771428Y-87131009D02*
X144866666Y-87083390D01*
X144866666Y-87083390D02*
X144914285Y-87035771D01*
X144914285Y-87035771D02*
X144961904Y-86940533D01*
X144961904Y-86940533D02*
X144961904Y-86845295D01*
X144961904Y-86845295D02*
X144914285Y-86750057D01*
X144914285Y-86750057D02*
X144866666Y-86702438D01*
X144866666Y-86702438D02*
X144771428Y-86654819D01*
X144771428Y-86654819D02*
X144533333Y-86654819D01*
X144533333Y-86654819D02*
X144390476Y-86702438D01*
X143628571Y-87131009D02*
X143485714Y-87178628D01*
X143485714Y-87178628D02*
X143438095Y-87226247D01*
X143438095Y-87226247D02*
X143390476Y-87321485D01*
X143390476Y-87321485D02*
X143390476Y-87464342D01*
X143390476Y-87464342D02*
X143438095Y-87559580D01*
X143438095Y-87559580D02*
X143485714Y-87607200D01*
X143485714Y-87607200D02*
X143580952Y-87654819D01*
X143580952Y-87654819D02*
X143961904Y-87654819D01*
X143961904Y-87654819D02*
X143961904Y-86654819D01*
X143961904Y-86654819D02*
X143628571Y-86654819D01*
X143628571Y-86654819D02*
X143533333Y-86702438D01*
X143533333Y-86702438D02*
X143485714Y-86750057D01*
X143485714Y-86750057D02*
X143438095Y-86845295D01*
X143438095Y-86845295D02*
X143438095Y-86940533D01*
X143438095Y-86940533D02*
X143485714Y-87035771D01*
X143485714Y-87035771D02*
X143533333Y-87083390D01*
X143533333Y-87083390D02*
X143628571Y-87131009D01*
X143628571Y-87131009D02*
X143961904Y-87131009D01*
X143057142Y-86654819D02*
X142390476Y-86654819D01*
X142390476Y-86654819D02*
X142819047Y-87654819D01*
X167159580Y-103157142D02*
X167207200Y-103109523D01*
X167207200Y-103109523D02*
X167254819Y-102966666D01*
X167254819Y-102966666D02*
X167254819Y-102871428D01*
X167254819Y-102871428D02*
X167207200Y-102728571D01*
X167207200Y-102728571D02*
X167111961Y-102633333D01*
X167111961Y-102633333D02*
X167016723Y-102585714D01*
X167016723Y-102585714D02*
X166826247Y-102538095D01*
X166826247Y-102538095D02*
X166683390Y-102538095D01*
X166683390Y-102538095D02*
X166492914Y-102585714D01*
X166492914Y-102585714D02*
X166397676Y-102633333D01*
X166397676Y-102633333D02*
X166302438Y-102728571D01*
X166302438Y-102728571D02*
X166254819Y-102871428D01*
X166254819Y-102871428D02*
X166254819Y-102966666D01*
X166254819Y-102966666D02*
X166302438Y-103109523D01*
X166302438Y-103109523D02*
X166350057Y-103157142D01*
X167254819Y-104109523D02*
X167254819Y-103538095D01*
X167254819Y-103823809D02*
X166254819Y-103823809D01*
X166254819Y-103823809D02*
X166397676Y-103728571D01*
X166397676Y-103728571D02*
X166492914Y-103633333D01*
X166492914Y-103633333D02*
X166540533Y-103538095D01*
X167254819Y-105061904D02*
X167254819Y-104490476D01*
X167254819Y-104776190D02*
X166254819Y-104776190D01*
X166254819Y-104776190D02*
X166397676Y-104680952D01*
X166397676Y-104680952D02*
X166492914Y-104585714D01*
X166492914Y-104585714D02*
X166540533Y-104490476D01*
X141176190Y-81778628D02*
X141176190Y-82254819D01*
X141509523Y-81254819D02*
X141176190Y-81778628D01*
X141176190Y-81778628D02*
X140842857Y-81254819D01*
X139985714Y-82254819D02*
X140557142Y-82254819D01*
X140271428Y-82254819D02*
X140271428Y-81254819D01*
X140271428Y-81254819D02*
X140366666Y-81397676D01*
X140366666Y-81397676D02*
X140461904Y-81492914D01*
X140461904Y-81492914D02*
X140557142Y-81540533D01*
X144717200Y-73349405D02*
X144764819Y-73492262D01*
X144764819Y-73492262D02*
X144764819Y-73730357D01*
X144764819Y-73730357D02*
X144717200Y-73825595D01*
X144717200Y-73825595D02*
X144669580Y-73873214D01*
X144669580Y-73873214D02*
X144574342Y-73920833D01*
X144574342Y-73920833D02*
X144479104Y-73920833D01*
X144479104Y-73920833D02*
X144383866Y-73873214D01*
X144383866Y-73873214D02*
X144336247Y-73825595D01*
X144336247Y-73825595D02*
X144288628Y-73730357D01*
X144288628Y-73730357D02*
X144241009Y-73539881D01*
X144241009Y-73539881D02*
X144193390Y-73444643D01*
X144193390Y-73444643D02*
X144145771Y-73397024D01*
X144145771Y-73397024D02*
X144050533Y-73349405D01*
X144050533Y-73349405D02*
X143955295Y-73349405D01*
X143955295Y-73349405D02*
X143860057Y-73397024D01*
X143860057Y-73397024D02*
X143812438Y-73444643D01*
X143812438Y-73444643D02*
X143764819Y-73539881D01*
X143764819Y-73539881D02*
X143764819Y-73777976D01*
X143764819Y-73777976D02*
X143812438Y-73920833D01*
X144241009Y-74682738D02*
X144288628Y-74825595D01*
X144288628Y-74825595D02*
X144336247Y-74873214D01*
X144336247Y-74873214D02*
X144431485Y-74920833D01*
X144431485Y-74920833D02*
X144574342Y-74920833D01*
X144574342Y-74920833D02*
X144669580Y-74873214D01*
X144669580Y-74873214D02*
X144717200Y-74825595D01*
X144717200Y-74825595D02*
X144764819Y-74730357D01*
X144764819Y-74730357D02*
X144764819Y-74349405D01*
X144764819Y-74349405D02*
X143764819Y-74349405D01*
X143764819Y-74349405D02*
X143764819Y-74682738D01*
X143764819Y-74682738D02*
X143812438Y-74777976D01*
X143812438Y-74777976D02*
X143860057Y-74825595D01*
X143860057Y-74825595D02*
X143955295Y-74873214D01*
X143955295Y-74873214D02*
X144050533Y-74873214D01*
X144050533Y-74873214D02*
X144145771Y-74825595D01*
X144145771Y-74825595D02*
X144193390Y-74777976D01*
X144193390Y-74777976D02*
X144241009Y-74682738D01*
X144241009Y-74682738D02*
X144241009Y-74349405D01*
X144764819Y-75873214D02*
X144764819Y-75301786D01*
X144764819Y-75587500D02*
X143764819Y-75587500D01*
X143764819Y-75587500D02*
X143907676Y-75492262D01*
X143907676Y-75492262D02*
X144002914Y-75397024D01*
X144002914Y-75397024D02*
X144050533Y-75301786D01*
X143764819Y-76206548D02*
X143764819Y-76825595D01*
X143764819Y-76825595D02*
X144145771Y-76492262D01*
X144145771Y-76492262D02*
X144145771Y-76635119D01*
X144145771Y-76635119D02*
X144193390Y-76730357D01*
X144193390Y-76730357D02*
X144241009Y-76777976D01*
X144241009Y-76777976D02*
X144336247Y-76825595D01*
X144336247Y-76825595D02*
X144574342Y-76825595D01*
X144574342Y-76825595D02*
X144669580Y-76777976D01*
X144669580Y-76777976D02*
X144717200Y-76730357D01*
X144717200Y-76730357D02*
X144764819Y-76635119D01*
X144764819Y-76635119D02*
X144764819Y-76349405D01*
X144764819Y-76349405D02*
X144717200Y-76254167D01*
X144717200Y-76254167D02*
X144669580Y-76206548D01*
X154559580Y-103233333D02*
X154607200Y-103185714D01*
X154607200Y-103185714D02*
X154654819Y-103042857D01*
X154654819Y-103042857D02*
X154654819Y-102947619D01*
X154654819Y-102947619D02*
X154607200Y-102804762D01*
X154607200Y-102804762D02*
X154511961Y-102709524D01*
X154511961Y-102709524D02*
X154416723Y-102661905D01*
X154416723Y-102661905D02*
X154226247Y-102614286D01*
X154226247Y-102614286D02*
X154083390Y-102614286D01*
X154083390Y-102614286D02*
X153892914Y-102661905D01*
X153892914Y-102661905D02*
X153797676Y-102709524D01*
X153797676Y-102709524D02*
X153702438Y-102804762D01*
X153702438Y-102804762D02*
X153654819Y-102947619D01*
X153654819Y-102947619D02*
X153654819Y-103042857D01*
X153654819Y-103042857D02*
X153702438Y-103185714D01*
X153702438Y-103185714D02*
X153750057Y-103233333D01*
X154654819Y-103709524D02*
X154654819Y-103900000D01*
X154654819Y-103900000D02*
X154607200Y-103995238D01*
X154607200Y-103995238D02*
X154559580Y-104042857D01*
X154559580Y-104042857D02*
X154416723Y-104138095D01*
X154416723Y-104138095D02*
X154226247Y-104185714D01*
X154226247Y-104185714D02*
X153845295Y-104185714D01*
X153845295Y-104185714D02*
X153750057Y-104138095D01*
X153750057Y-104138095D02*
X153702438Y-104090476D01*
X153702438Y-104090476D02*
X153654819Y-103995238D01*
X153654819Y-103995238D02*
X153654819Y-103804762D01*
X153654819Y-103804762D02*
X153702438Y-103709524D01*
X153702438Y-103709524D02*
X153750057Y-103661905D01*
X153750057Y-103661905D02*
X153845295Y-103614286D01*
X153845295Y-103614286D02*
X154083390Y-103614286D01*
X154083390Y-103614286D02*
X154178628Y-103661905D01*
X154178628Y-103661905D02*
X154226247Y-103709524D01*
X154226247Y-103709524D02*
X154273866Y-103804762D01*
X154273866Y-103804762D02*
X154273866Y-103995238D01*
X154273866Y-103995238D02*
X154226247Y-104090476D01*
X154226247Y-104090476D02*
X154178628Y-104138095D01*
X154178628Y-104138095D02*
X154083390Y-104185714D01*
D11*
%TO.C,C5*%
X136153733Y-93290000D02*
X136446267Y-93290000D01*
X136153733Y-94310000D02*
X136446267Y-94310000D01*
%TO.C,SB9*%
X147354724Y-89877500D02*
X146845276Y-89877500D01*
X147354724Y-90922500D02*
X146845276Y-90922500D01*
%TO.C,C7*%
X171246267Y-84090000D02*
X170953733Y-84090000D01*
X171246267Y-85110000D02*
X170953733Y-85110000D01*
%TO.C,Y2*%
X138300000Y-88550000D02*
X138300000Y-94300000D01*
X141900000Y-88550000D02*
X138300000Y-88550000D01*
X141900000Y-94300000D02*
X141900000Y-88550000D01*
%TO.C,C1*%
X137553733Y-83290000D02*
X137846267Y-83290000D01*
X137553733Y-84310000D02*
X137846267Y-84310000D01*
%TO.C,SB11*%
X147077500Y-78345276D02*
X147077500Y-78854724D01*
X148122500Y-78345276D02*
X148122500Y-78854724D01*
%TO.C,C2*%
X137553733Y-86490000D02*
X137846267Y-86490000D01*
X137553733Y-87510000D02*
X137846267Y-87510000D01*
%TO.C,SB8*%
X147354724Y-88277500D02*
X146845276Y-88277500D01*
X147354724Y-89322500D02*
X146845276Y-89322500D01*
%TO.C,C13*%
X152890000Y-78453733D02*
X152890000Y-78746267D01*
X153910000Y-78453733D02*
X153910000Y-78746267D01*
%TO.C,C6*%
X164390000Y-100746267D02*
X164390000Y-100453733D01*
X165410000Y-100746267D02*
X165410000Y-100453733D01*
%TO.C,SB12*%
X145477500Y-78345276D02*
X145477500Y-78854724D01*
X146522500Y-78345276D02*
X146522500Y-78854724D01*
%TO.C,C4*%
X136153733Y-89490000D02*
X136446267Y-89490000D01*
X136153733Y-90510000D02*
X136446267Y-90510000D01*
%TO.C,SB6*%
X147354724Y-85077500D02*
X146845276Y-85077500D01*
X147354724Y-86122500D02*
X146845276Y-86122500D01*
%TO.C,SB15*%
X140677501Y-78345276D02*
X140677501Y-78854724D01*
X141722501Y-78345276D02*
X141722501Y-78854724D01*
%TO.C,SB14*%
X142277499Y-78345276D02*
X142277499Y-78854724D01*
X143322499Y-78345276D02*
X143322499Y-78854724D01*
%TO.C,C15*%
X171346267Y-82090000D02*
X171053733Y-82090000D01*
X171346267Y-83110000D02*
X171053733Y-83110000D01*
%TO.C,C17*%
X139090000Y-78746267D02*
X139090000Y-78453733D01*
X140110000Y-78746267D02*
X140110000Y-78453733D01*
%TO.C,SB7*%
X147354724Y-86677500D02*
X146845276Y-86677500D01*
X147354724Y-87722500D02*
X146845276Y-87722500D01*
%TO.C,C11*%
X166290000Y-100746267D02*
X166290000Y-100453733D01*
X167310000Y-100746267D02*
X167310000Y-100453733D01*
%TO.C,Y1*%
X139750000Y-85924999D02*
X139750000Y-84824999D01*
X141600000Y-82674999D02*
X139800000Y-82674999D01*
X141650000Y-85924999D02*
X141650000Y-84824999D01*
%TO.C,SB13*%
X143877500Y-78345276D02*
X143877500Y-78854724D01*
X144922500Y-78345276D02*
X144922500Y-78854724D01*
%TO.C,C9*%
X153690000Y-100746267D02*
X153690000Y-100453733D01*
X154710000Y-100746267D02*
X154710000Y-100453733D01*
%TD*%
M02*
