%TF.GenerationSoftware,KiCad,Pcbnew,8.0.0*%
%TF.CreationDate,2024-11-17T17:13:44+03:00*%
%TF.ProjectId,box_bottom,626f785f-626f-4747-946f-6d2e6b696361,rev?*%
%TF.SameCoordinates,Original*%
%TF.FileFunction,Soldermask,Top*%
%TF.FilePolarity,Negative*%
%FSLAX46Y46*%
G04 Gerber Fmt 4.6, Leading zero omitted, Abs format (unit mm)*
G04 Created by KiCad (PCBNEW 8.0.0) date 2024-11-17 17:13:44*
%MOMM*%
%LPD*%
G01*
G04 APERTURE LIST*
G04 Aperture macros list*
%AMRoundRect*
0 Rectangle with rounded corners*
0 $1 Rounding radius*
0 $2 $3 $4 $5 $6 $7 $8 $9 X,Y pos of 4 corners*
0 Add a 4 corners polygon primitive as box body*
4,1,4,$2,$3,$4,$5,$6,$7,$8,$9,$2,$3,0*
0 Add four circle primitives for the rounded corners*
1,1,$1+$1,$2,$3*
1,1,$1+$1,$4,$5*
1,1,$1+$1,$6,$7*
1,1,$1+$1,$8,$9*
0 Add four rect primitives between the rounded corners*
20,1,$1+$1,$2,$3,$4,$5,0*
20,1,$1+$1,$4,$5,$6,$7,0*
20,1,$1+$1,$6,$7,$8,$9,0*
20,1,$1+$1,$8,$9,$2,$3,0*%
G04 Aperture macros list end*
%ADD10C,0.100000*%
%ADD11R,1.700000X1.700000*%
%ADD12O,1.700000X1.700000*%
%ADD13RoundRect,0.250000X0.450000X-0.325000X0.450000X0.325000X-0.450000X0.325000X-0.450000X-0.325000X0*%
%ADD14RoundRect,0.250000X0.325000X0.450000X-0.325000X0.450000X-0.325000X-0.450000X0.325000X-0.450000X0*%
%ADD15R,1.000000X1.300000*%
%ADD16RoundRect,0.150000X0.512500X0.150000X-0.512500X0.150000X-0.512500X-0.150000X0.512500X-0.150000X0*%
%ADD17RoundRect,0.075000X-0.662500X-0.075000X0.662500X-0.075000X0.662500X0.075000X-0.662500X0.075000X0*%
%ADD18RoundRect,0.075000X-0.075000X-0.662500X0.075000X-0.662500X0.075000X0.662500X-0.075000X0.662500X0*%
%ADD19RoundRect,0.150000X0.150000X-0.512500X0.150000X0.512500X-0.150000X0.512500X-0.150000X-0.512500X0*%
%ADD20RoundRect,0.150000X0.825000X0.150000X-0.825000X0.150000X-0.825000X-0.150000X0.825000X-0.150000X0*%
%ADD21R,1.300000X1.550000*%
%ADD22RoundRect,0.237500X0.237500X-0.250000X0.237500X0.250000X-0.237500X0.250000X-0.237500X-0.250000X0*%
%ADD23RoundRect,0.237500X-0.237500X0.250000X-0.237500X-0.250000X0.237500X-0.250000X0.237500X0.250000X0*%
%ADD24RoundRect,0.237500X0.250000X0.237500X-0.250000X0.237500X-0.250000X-0.237500X0.250000X-0.237500X0*%
%ADD25RoundRect,0.237500X-0.250000X-0.237500X0.250000X-0.237500X0.250000X0.237500X-0.250000X0.237500X0*%
%ADD26RoundRect,0.112500X0.237500X-0.112500X0.237500X0.112500X-0.237500X0.112500X-0.237500X-0.112500X0*%
%ADD27RoundRect,0.237500X-0.237500X0.300000X-0.237500X-0.300000X0.237500X-0.300000X0.237500X0.300000X0*%
%ADD28RoundRect,0.237500X0.300000X0.237500X-0.300000X0.237500X-0.300000X-0.237500X0.300000X-0.237500X0*%
%ADD29RoundRect,0.237500X-0.300000X-0.237500X0.300000X-0.237500X0.300000X0.237500X-0.300000X0.237500X0*%
%ADD30RoundRect,0.237500X0.237500X-0.300000X0.237500X0.300000X-0.237500X0.300000X-0.237500X-0.300000X0*%
G04 APERTURE END LIST*
D10*
X198000000Y-68000000D02*
X207000000Y-68000000D01*
X207000000Y-71000000D01*
X198000000Y-71000000D01*
X198000000Y-68000000D01*
G36*
X198000000Y-68000000D02*
G01*
X207000000Y-68000000D01*
X207000000Y-71000000D01*
X198000000Y-71000000D01*
X198000000Y-68000000D01*
G37*
X228000000Y-68000000D02*
X237000000Y-68000000D01*
X237000000Y-71000000D01*
X228000000Y-71000000D01*
X228000000Y-68000000D01*
G36*
X228000000Y-68000000D02*
G01*
X237000000Y-68000000D01*
X237000000Y-71000000D01*
X228000000Y-71000000D01*
X228000000Y-68000000D01*
G37*
X228000000Y-140000000D02*
X237000000Y-140000000D01*
X237000000Y-143000000D01*
X228000000Y-143000000D01*
X228000000Y-140000000D01*
G36*
X228000000Y-140000000D02*
G01*
X237000000Y-140000000D01*
X237000000Y-143000000D01*
X228000000Y-143000000D01*
X228000000Y-140000000D01*
G37*
X198000000Y-140000000D02*
X207000000Y-140000000D01*
X207000000Y-143000000D01*
X198000000Y-143000000D01*
X198000000Y-140000000D01*
G36*
X198000000Y-140000000D02*
G01*
X207000000Y-140000000D01*
X207000000Y-143000000D01*
X198000000Y-143000000D01*
X198000000Y-140000000D01*
G37*
X183000000Y-125000000D02*
X180000000Y-125000000D01*
X180000000Y-116000000D01*
X183000000Y-116000000D01*
X183000000Y-125000000D01*
G36*
X183000000Y-125000000D02*
G01*
X180000000Y-125000000D01*
X180000000Y-116000000D01*
X183000000Y-116000000D01*
X183000000Y-125000000D01*
G37*
X183000000Y-95000000D02*
X180000000Y-95000000D01*
X180000000Y-86000000D01*
X183000000Y-86000000D01*
X183000000Y-95000000D01*
G36*
X183000000Y-95000000D02*
G01*
X180000000Y-95000000D01*
X180000000Y-86000000D01*
X183000000Y-86000000D01*
X183000000Y-95000000D01*
G37*
X255000000Y-95000000D02*
X252000000Y-95000000D01*
X252000000Y-86000000D01*
X255000000Y-86000000D01*
X255000000Y-95000000D01*
G36*
X255000000Y-95000000D02*
G01*
X252000000Y-95000000D01*
X252000000Y-86000000D01*
X255000000Y-86000000D01*
X255000000Y-95000000D01*
G37*
X255000000Y-125000000D02*
X252000000Y-125000000D01*
X252000000Y-116000000D01*
X255000000Y-116000000D01*
X255000000Y-125000000D01*
G36*
X255000000Y-125000000D02*
G01*
X252000000Y-125000000D01*
X252000000Y-116000000D01*
X255000000Y-116000000D01*
X255000000Y-125000000D01*
G37*
D11*
%TO.C,X1*%
X245060000Y-111340000D03*
D12*
X247600000Y-111340000D03*
X245060000Y-108800000D03*
X247600000Y-108800000D03*
X245060000Y-106260001D03*
X247600000Y-106260000D03*
%TD*%
D13*
%TO.C,D4*%
X221400000Y-133175001D03*
X221400000Y-135224999D03*
%TD*%
%TO.C,D3*%
X218359999Y-133175001D03*
X218359999Y-135224999D03*
%TD*%
%TO.C,D2*%
X215319998Y-133175001D03*
X215319998Y-135224999D03*
%TD*%
D14*
%TO.C,D1*%
X245713604Y-101956064D03*
X247763602Y-101956064D03*
%TD*%
D15*
%TO.C,Y1*%
X209499999Y-106000000D03*
X209499999Y-108200000D03*
X211300001Y-108200000D03*
X211300001Y-106000000D03*
%TD*%
D11*
%TO.C,X5*%
X228000000Y-92000000D03*
D12*
X228000000Y-89460000D03*
X225460000Y-92000000D03*
X225460000Y-89460000D03*
X222920001Y-92000000D03*
X222920000Y-89460000D03*
%TD*%
D11*
%TO.C,X4*%
X190090000Y-99650000D03*
D12*
X187550000Y-99650000D03*
X190090000Y-102190000D03*
X187550000Y-102190000D03*
X190090000Y-104730000D03*
X187550000Y-104730000D03*
X190090000Y-107270000D03*
X187550000Y-107270000D03*
X190090000Y-109810000D03*
X187550000Y-109810000D03*
%TD*%
D11*
%TO.C,X3*%
X190200000Y-79100000D03*
D12*
X187660000Y-79100000D03*
X190200000Y-81640000D03*
X187660000Y-81640000D03*
X190200000Y-84180000D03*
X187660000Y-84180000D03*
X190200000Y-86720000D03*
X187660000Y-86720000D03*
X190200000Y-89260000D03*
X187660000Y-89260000D03*
X190200000Y-91800000D03*
X187660000Y-91800000D03*
%TD*%
D11*
%TO.C,X2*%
X190068464Y-123554037D03*
D12*
X190068464Y-121014037D03*
X190068464Y-118474038D03*
X190068464Y-115934037D03*
%TD*%
D16*
%TO.C,U7*%
X244242498Y-117155001D03*
X244242498Y-116205002D03*
X244242498Y-115255003D03*
X241967498Y-115255003D03*
X241967498Y-117155001D03*
%TD*%
D17*
%TO.C,U6*%
X217237500Y-104850000D03*
X217237500Y-105350000D03*
X217237500Y-105850000D03*
X217237500Y-106350000D03*
X217237500Y-106850000D03*
X217237500Y-107350000D03*
X217237500Y-107850000D03*
X217237500Y-108350000D03*
X217237500Y-108850000D03*
X217237500Y-109350000D03*
X217237500Y-109850000D03*
X217237500Y-110350000D03*
D18*
X218650000Y-111762500D03*
X219150000Y-111762500D03*
X219650000Y-111762500D03*
X220150000Y-111762500D03*
X220650000Y-111762500D03*
X221150000Y-111762500D03*
X221650000Y-111762500D03*
X222150000Y-111762500D03*
X222650000Y-111762500D03*
X223150000Y-111762500D03*
X223650000Y-111762500D03*
X224150000Y-111762500D03*
D17*
X225562500Y-110350000D03*
X225562500Y-109850000D03*
X225562500Y-109350000D03*
X225562500Y-108850000D03*
X225562500Y-108350000D03*
X225562500Y-107850000D03*
X225562500Y-107350000D03*
X225562500Y-106850000D03*
X225562500Y-106350000D03*
X225562500Y-105850000D03*
X225562500Y-105350000D03*
X225562500Y-104850000D03*
D18*
X224150000Y-103437500D03*
X223650000Y-103437500D03*
X223150000Y-103437500D03*
X222650000Y-103437500D03*
X222150000Y-103437500D03*
X221650000Y-103437500D03*
X221150000Y-103437500D03*
X220650000Y-103437500D03*
X220150000Y-103437500D03*
X219650000Y-103437500D03*
X219150000Y-103437500D03*
X218650000Y-103437500D03*
%TD*%
D19*
%TO.C,U5*%
X238650001Y-109600000D03*
X239600000Y-109600000D03*
X240549999Y-109600000D03*
X240549999Y-107325000D03*
X239600000Y-107325000D03*
X238650001Y-107325000D03*
%TD*%
D20*
%TO.C,U4*%
X206600000Y-100670000D03*
X206600000Y-99400000D03*
X206600000Y-98130000D03*
X206600000Y-96860000D03*
X201650000Y-96860000D03*
X201650000Y-98130000D03*
X201650000Y-99400000D03*
X201650000Y-100670000D03*
%TD*%
%TO.C,U3*%
X206362500Y-110305000D03*
X206362500Y-109035000D03*
X206362500Y-107765000D03*
X206362500Y-106495000D03*
X201412500Y-106495000D03*
X201412500Y-107765000D03*
X201412500Y-109035000D03*
X201412500Y-110305000D03*
%TD*%
%TO.C,U2*%
X206800000Y-91070000D03*
X206800000Y-89800000D03*
X206800000Y-88530000D03*
X206800000Y-87260000D03*
X201850000Y-87260000D03*
X201850000Y-88530000D03*
X201850000Y-89800000D03*
X201850000Y-91070000D03*
%TD*%
%TO.C,U1*%
X205368463Y-121459038D03*
X205368463Y-120189038D03*
X205368463Y-118919038D03*
X205368463Y-117649038D03*
X200418463Y-117649038D03*
X200418463Y-118919038D03*
X200418463Y-120189038D03*
X200418463Y-121459038D03*
%TD*%
D21*
%TO.C,SW1*%
X231450000Y-116220000D03*
X231450000Y-124180000D03*
X226950000Y-116220000D03*
X226950000Y-124180000D03*
%TD*%
D22*
%TO.C,SB13*%
X210864234Y-91969314D03*
X210864234Y-90144314D03*
%TD*%
D23*
%TO.C,SB12*%
X212464235Y-90144314D03*
X212464235Y-91969314D03*
%TD*%
D22*
%TO.C,SB11*%
X214258347Y-92188185D03*
X214258347Y-90363185D03*
%TD*%
D23*
%TO.C,SB10*%
X215858347Y-90363185D03*
X215858347Y-92188185D03*
%TD*%
D22*
%TO.C,SB9*%
X219676724Y-91763921D03*
X219676724Y-89938921D03*
%TD*%
D23*
%TO.C,SB8*%
X218121089Y-90080342D03*
X218121089Y-91905342D03*
%TD*%
D22*
%TO.C,SB7*%
X220200000Y-99912500D03*
X220200000Y-98087500D03*
%TD*%
D24*
%TO.C,SB6*%
X204637500Y-102365000D03*
X202812500Y-102365000D03*
%TD*%
%TO.C,SB5*%
X202975000Y-104799999D03*
X204800000Y-104799999D03*
%TD*%
%TO.C,SB4*%
X202775000Y-112000000D03*
X204600000Y-112000000D03*
%TD*%
%TO.C,SB3*%
X205362500Y-85460000D03*
X203537500Y-85460000D03*
%TD*%
%TO.C,SB2*%
X204962500Y-92860000D03*
X203137500Y-92860000D03*
%TD*%
%TO.C,SB1*%
X203425000Y-123400000D03*
X201600000Y-123400000D03*
%TD*%
%TO.C,R20*%
X235512500Y-124200000D03*
X233687500Y-124200000D03*
%TD*%
D22*
%TO.C,R19*%
X221259137Y-130799149D03*
X221259137Y-128974149D03*
%TD*%
%TO.C,R18*%
X218430710Y-130799149D03*
X218430710Y-128974149D03*
%TD*%
%TO.C,R17*%
X215531572Y-130869860D03*
X215531572Y-129044860D03*
%TD*%
D24*
%TO.C,R16*%
X243408463Y-101815761D03*
X241583463Y-101815761D03*
%TD*%
D22*
%TO.C,R15*%
X205200000Y-131287500D03*
X205200000Y-133112500D03*
%TD*%
D25*
%TO.C,R14*%
X190775000Y-76200000D03*
X192600000Y-76200000D03*
%TD*%
%TO.C,R13*%
X186975000Y-76200000D03*
X188800000Y-76200000D03*
%TD*%
D22*
%TO.C,R12*%
X234912499Y-109138756D03*
X234912499Y-107313756D03*
%TD*%
%TO.C,R11*%
X233112500Y-109138756D03*
X233112500Y-107313756D03*
%TD*%
D24*
%TO.C,R10*%
X238512500Y-111800000D03*
X236687500Y-111800000D03*
%TD*%
D25*
%TO.C,R9*%
X197012500Y-99165000D03*
X198837500Y-99165000D03*
%TD*%
%TO.C,R8*%
X197175000Y-107200000D03*
X199000000Y-107200000D03*
%TD*%
%TO.C,R7*%
X197175000Y-108800000D03*
X199000000Y-108800000D03*
%TD*%
%TO.C,R6*%
X197537500Y-88060000D03*
X199362500Y-88060000D03*
%TD*%
%TO.C,R5*%
X197537500Y-89660000D03*
X199362500Y-89660000D03*
%TD*%
%TO.C,R4*%
X196000001Y-119999999D03*
X197825001Y-119999999D03*
%TD*%
D23*
%TO.C,R3*%
X205200000Y-127775000D03*
X205200000Y-129600000D03*
%TD*%
D25*
%TO.C,R2*%
X237799999Y-105226256D03*
X239624999Y-105226256D03*
%TD*%
D22*
%TO.C,R1*%
X242312500Y-109538756D03*
X242312500Y-107713756D03*
%TD*%
D26*
%TO.C,Q4*%
X198335919Y-132789038D03*
X198335919Y-131489038D03*
X196335919Y-132139038D03*
%TD*%
%TO.C,Q3*%
X200800000Y-132200000D03*
X202800000Y-131550000D03*
X202800000Y-132850000D03*
%TD*%
%TO.C,Q2*%
X198400000Y-129337500D03*
X198400000Y-128037500D03*
X196400000Y-128687500D03*
%TD*%
%TO.C,Q1*%
X202800000Y-129337500D03*
X202800000Y-128037500D03*
X200800000Y-128687500D03*
%TD*%
D27*
%TO.C,C14*%
X238000000Y-117137499D03*
X238000000Y-118862501D03*
%TD*%
%TO.C,C13*%
X239800003Y-117137499D03*
X239800003Y-118862501D03*
%TD*%
D28*
%TO.C,C12*%
X242137499Y-113525003D03*
X240412497Y-113525003D03*
%TD*%
D27*
%TO.C,C11*%
X246400000Y-115137499D03*
X246400000Y-116862501D03*
%TD*%
D29*
%TO.C,C10*%
X227737500Y-104500000D03*
X229462500Y-104500000D03*
%TD*%
D30*
%TO.C,C9*%
X218000000Y-99762501D03*
X218000000Y-98037499D03*
%TD*%
D28*
%TO.C,C8*%
X214462501Y-103300000D03*
X212737499Y-103300000D03*
%TD*%
D27*
%TO.C,C7*%
X224200000Y-114037499D03*
X224200000Y-115762501D03*
%TD*%
D28*
%TO.C,C6*%
X214462501Y-111900000D03*
X212737499Y-111900000D03*
%TD*%
D29*
%TO.C,C5*%
X190799999Y-74600000D03*
X192525001Y-74600000D03*
%TD*%
D28*
%TO.C,C4*%
X214462501Y-110100000D03*
X212737499Y-110100000D03*
%TD*%
D29*
%TO.C,C3*%
X197062499Y-100765000D03*
X198787501Y-100765000D03*
%TD*%
%TO.C,C2*%
X197224999Y-110400000D03*
X198950001Y-110400000D03*
%TD*%
%TO.C,C1*%
X196050000Y-121600000D03*
X197775002Y-121600000D03*
%TD*%
M02*
