%TF.GenerationSoftware,KiCad,Pcbnew,8.0.0*%
%TF.CreationDate,2024-11-18T17:54:36+03:00*%
%TF.ProjectId,box_bottom,626f785f-626f-4747-946f-6d2e6b696361,rev?*%
%TF.SameCoordinates,Original*%
%TF.FileFunction,Legend,Top*%
%TF.FilePolarity,Positive*%
%FSLAX46Y46*%
G04 Gerber Fmt 4.6, Leading zero omitted, Abs format (unit mm)*
G04 Created by KiCad (PCBNEW 8.0.0) date 2024-11-18 17:54:36*
%MOMM*%
%LPD*%
G01*
G04 APERTURE LIST*
%ADD10C,0.100000*%
%ADD11C,0.150000*%
%ADD12C,0.120000*%
%ADD13C,0.000000*%
G04 APERTURE END LIST*
D10*
G36*
X221593510Y-75206936D02*
G01*
X221772662Y-75206936D01*
X222325139Y-76705000D01*
X222098360Y-76705000D01*
X221683269Y-75496364D01*
X221267812Y-76705000D01*
X221041399Y-76705000D01*
X221593510Y-75206936D01*
G37*
G36*
X221295655Y-76176336D02*
G01*
X222084071Y-76176336D01*
X222084071Y-76376371D01*
X221295655Y-76376371D01*
X221295655Y-76176336D01*
G37*
G36*
X222837683Y-76090973D02*
G01*
X223128210Y-75635582D01*
X223381734Y-75635582D01*
X222933304Y-76275254D01*
X222837683Y-76090973D01*
G37*
G36*
X222523342Y-75635582D02*
G01*
X222733635Y-75635582D01*
X222733635Y-76705000D01*
X222523342Y-76705000D01*
X222523342Y-75635582D01*
G37*
G36*
X222846842Y-76253639D02*
G01*
X223010607Y-76145561D01*
X223444382Y-76705000D01*
X223163381Y-76705000D01*
X222846842Y-76253639D01*
G37*
G36*
X222625191Y-76069357D02*
G01*
X223011706Y-76069357D01*
X223011706Y-76269026D01*
X222625191Y-76269026D01*
X222625191Y-76069357D01*
G37*
G36*
X224207152Y-76026859D02*
G01*
X224197901Y-75949228D01*
X224164236Y-75879037D01*
X224151099Y-75863827D01*
X224088164Y-75822015D01*
X224010686Y-75806087D01*
X223991730Y-75805575D01*
X223916805Y-75812550D01*
X223866434Y-75825359D01*
X223798687Y-75853842D01*
X223757990Y-75879581D01*
X223604483Y-75774434D01*
X223660245Y-75720519D01*
X223722988Y-75680196D01*
X223764584Y-75660861D01*
X223835649Y-75637500D01*
X223911821Y-75623836D01*
X223985502Y-75619829D01*
X224064900Y-75624408D01*
X224143643Y-75640024D01*
X224213381Y-75666723D01*
X224278158Y-75707870D01*
X224330159Y-75760970D01*
X224357728Y-75803011D01*
X224387867Y-75874933D01*
X224403275Y-75949913D01*
X224407187Y-76017700D01*
X224407187Y-76705000D01*
X224207152Y-76705000D01*
X224207152Y-76026859D01*
G37*
G36*
X223945568Y-76720387D02*
G01*
X223863783Y-76716477D01*
X223781992Y-76702435D01*
X223712658Y-76678181D01*
X223649546Y-76638688D01*
X223597962Y-76579096D01*
X223567871Y-76511270D01*
X223553255Y-76429997D01*
X223551727Y-76389560D01*
X223557337Y-76315211D01*
X223577059Y-76243447D01*
X223615628Y-76178460D01*
X223641486Y-76151789D01*
X223706530Y-76109865D01*
X223780364Y-76085409D01*
X223858160Y-76074229D01*
X223912595Y-76072288D01*
X224216311Y-76072288D01*
X224230966Y-76241182D01*
X223913695Y-76241182D01*
X223837795Y-76251522D01*
X223790230Y-76277819D01*
X223754369Y-76342471D01*
X223749563Y-76389560D01*
X223764866Y-76464371D01*
X223803785Y-76510460D01*
X223872021Y-76539586D01*
X223948099Y-76548953D01*
X223968283Y-76549295D01*
X224043877Y-76546264D01*
X224119050Y-76533642D01*
X224147801Y-76523649D01*
X224202458Y-76471832D01*
X224207152Y-76443415D01*
X224228768Y-76593625D01*
X224179789Y-76649816D01*
X224160258Y-76664699D01*
X224092045Y-76698634D01*
X224066102Y-76706465D01*
X223990060Y-76718742D01*
X223945568Y-76720387D01*
G37*
G36*
X224685990Y-76515223D02*
G01*
X224710903Y-76515223D01*
X224784010Y-76498772D01*
X224807623Y-76480418D01*
X224842917Y-76414915D01*
X224852320Y-76373806D01*
X224860584Y-76300666D01*
X224863985Y-76221566D01*
X224864410Y-76176336D01*
X224864410Y-75635582D01*
X225074703Y-75635582D01*
X225074703Y-76246311D01*
X225071074Y-76323245D01*
X225058039Y-76400565D01*
X225032044Y-76474030D01*
X224998866Y-76527313D01*
X224945206Y-76577545D01*
X224879024Y-76609172D01*
X224800320Y-76622195D01*
X224783077Y-76622568D01*
X224758164Y-76622568D01*
X224685990Y-76515223D01*
G37*
G36*
X224647889Y-76515223D02*
G01*
X224858182Y-76515223D01*
X224858182Y-76973911D01*
X224647889Y-76973911D01*
X224647889Y-76515223D01*
G37*
G36*
X224647889Y-76515223D02*
G01*
X225677372Y-76515223D01*
X225677372Y-76705000D01*
X224647889Y-76705000D01*
X224647889Y-76515223D01*
G37*
G36*
X225591643Y-76515223D02*
G01*
X225801936Y-76515223D01*
X225801936Y-76973911D01*
X225591643Y-76973911D01*
X225591643Y-76515223D01*
G37*
G36*
X225401133Y-75635582D02*
G01*
X225611427Y-75635582D01*
X225611427Y-76705000D01*
X225401133Y-76705000D01*
X225401133Y-75635582D01*
G37*
G36*
X224995202Y-75635582D02*
G01*
X225471109Y-75635582D01*
X225471109Y-75824993D01*
X224995202Y-75824993D01*
X224995202Y-75635582D01*
G37*
G36*
X226448935Y-76720387D02*
G01*
X226368893Y-76715982D01*
X226295689Y-76702767D01*
X226222373Y-76677751D01*
X226195411Y-76664699D01*
X226129219Y-76620310D01*
X226074716Y-76563713D01*
X226035310Y-76501667D01*
X226006330Y-76429947D01*
X225989425Y-76357874D01*
X225981214Y-76278672D01*
X225980355Y-76241182D01*
X225980355Y-76120648D01*
X225983653Y-76044239D01*
X225995245Y-75965230D01*
X226015183Y-75893581D01*
X226033112Y-75849905D01*
X226071001Y-75784868D01*
X226123505Y-75725477D01*
X226187351Y-75678813D01*
X226254556Y-75647708D01*
X226329775Y-75628123D01*
X226404325Y-75620347D01*
X226430617Y-75619829D01*
X226510401Y-75626376D01*
X226582601Y-75646018D01*
X226653260Y-75682748D01*
X226659228Y-75686873D01*
X226719139Y-75740023D01*
X226764362Y-75800587D01*
X226800784Y-75872816D01*
X226803942Y-75880680D01*
X226828205Y-75955983D01*
X226843106Y-76029633D01*
X226851732Y-76109604D01*
X226854134Y-76184762D01*
X226854134Y-76254738D01*
X226132763Y-76254738D01*
X226132763Y-76085844D01*
X226654099Y-76085844D01*
X226643581Y-76009594D01*
X226620935Y-75938943D01*
X226586688Y-75882145D01*
X226528144Y-75832557D01*
X226454454Y-75810739D01*
X226430617Y-75809605D01*
X226354661Y-75818870D01*
X226286414Y-75850108D01*
X226245237Y-75888007D01*
X226205498Y-75955704D01*
X226185182Y-76033872D01*
X226180024Y-76109291D01*
X226180024Y-76245579D01*
X226186857Y-76322494D01*
X226210160Y-76393298D01*
X226250000Y-76449644D01*
X226310948Y-76492955D01*
X226381209Y-76515096D01*
X226448935Y-76520718D01*
X226524554Y-76511677D01*
X226575697Y-76495073D01*
X226642300Y-76459318D01*
X226688171Y-76422533D01*
X226826290Y-76560652D01*
X226769339Y-76608973D01*
X226707799Y-76649155D01*
X226647871Y-76678621D01*
X226573528Y-76704072D01*
X226498875Y-76717776D01*
X226448935Y-76720387D01*
G37*
G36*
X227955792Y-75635582D02*
G01*
X228142271Y-75635582D01*
X228142271Y-76705000D01*
X227952861Y-76705000D01*
X227952861Y-75949556D01*
X227963119Y-76015502D01*
X227702267Y-76496905D01*
X227576605Y-76496905D01*
X227315753Y-76015502D01*
X227326378Y-75949556D01*
X227326378Y-76705000D01*
X227136601Y-76705000D01*
X227136601Y-75635582D01*
X227323080Y-75635582D01*
X227639619Y-76226894D01*
X227955792Y-75635582D01*
G37*
G36*
X229136217Y-76703900D02*
G01*
X229136217Y-75944427D01*
X229160764Y-75971172D01*
X228646755Y-76703900D01*
X228464305Y-76703900D01*
X228464305Y-75635582D01*
X228672400Y-75635582D01*
X228672400Y-76412274D01*
X228647854Y-76385530D01*
X229164061Y-75635582D01*
X229344312Y-75635582D01*
X229344312Y-76703900D01*
X229136217Y-76703900D01*
G37*
G36*
X229989846Y-76328743D02*
G01*
X229910746Y-76322664D01*
X229838858Y-76304426D01*
X229794940Y-76285512D01*
X229732643Y-76244643D01*
X229679349Y-76187782D01*
X229663782Y-76164246D01*
X229633419Y-76096312D01*
X229618536Y-76019913D01*
X229616887Y-75981796D01*
X229623379Y-75907865D01*
X229645062Y-75835796D01*
X229663049Y-75800446D01*
X229711054Y-75738576D01*
X229768691Y-75693182D01*
X229794207Y-75678813D01*
X229867323Y-75650823D01*
X229942542Y-75637651D01*
X229989846Y-75635582D01*
X230369033Y-75635582D01*
X230369033Y-75835251D01*
X229981786Y-75835251D01*
X229908681Y-75852607D01*
X229879204Y-75875551D01*
X229844492Y-75943085D01*
X229840736Y-75981796D01*
X229855870Y-76054933D01*
X229857955Y-76059099D01*
X229907414Y-76110757D01*
X229979162Y-76129057D01*
X229981786Y-76129075D01*
X230369033Y-76129075D01*
X230369033Y-76328743D01*
X229989846Y-76328743D01*
G37*
G36*
X230260956Y-76705000D02*
G01*
X230260956Y-75635582D01*
X230471249Y-75635582D01*
X230471249Y-76705000D01*
X230260956Y-76705000D01*
G37*
G36*
X229595272Y-76705000D02*
G01*
X229896057Y-76234954D01*
X230105251Y-76282581D01*
X229844766Y-76705000D01*
X229595272Y-76705000D01*
G37*
G36*
X232033060Y-75635582D02*
G01*
X232243353Y-75635582D01*
X232243353Y-76705000D01*
X232033060Y-76705000D01*
X232033060Y-75635582D01*
G37*
G36*
X231357117Y-75635582D02*
G01*
X231567411Y-75635582D01*
X231567411Y-76705000D01*
X231357117Y-76705000D01*
X231357117Y-75635582D01*
G37*
G36*
X231487909Y-75635582D02*
G01*
X232144434Y-75635582D01*
X232144434Y-75835251D01*
X231487909Y-75835251D01*
X231487909Y-75635582D01*
G37*
G36*
X232566120Y-75635582D02*
G01*
X232776413Y-75635582D01*
X232776413Y-77139874D01*
X232566120Y-77139874D01*
X232566120Y-75635582D01*
G37*
G36*
X233045324Y-76720387D02*
G01*
X232968292Y-76712526D01*
X232894802Y-76686480D01*
X232870935Y-76672759D01*
X232813613Y-76623192D01*
X232771158Y-76558477D01*
X232761758Y-76537205D01*
X232776413Y-76313356D01*
X232785066Y-76388220D01*
X232800959Y-76430959D01*
X232848127Y-76488932D01*
X232872766Y-76505331D01*
X232942994Y-76527946D01*
X232986706Y-76530976D01*
X233063505Y-76520516D01*
X233128901Y-76485855D01*
X233147906Y-76467595D01*
X233186975Y-76402179D01*
X233203050Y-76330258D01*
X233205059Y-76288810D01*
X233205059Y-76056901D01*
X233198305Y-75982283D01*
X233172910Y-75910172D01*
X233147906Y-75874452D01*
X233088921Y-75830123D01*
X233018076Y-75811188D01*
X232986706Y-75809605D01*
X232910771Y-75819337D01*
X232872766Y-75834518D01*
X232816711Y-75881916D01*
X232800959Y-75907058D01*
X232779313Y-75977931D01*
X232776413Y-76021730D01*
X232754797Y-75815833D01*
X232795240Y-75751519D01*
X232848472Y-75695450D01*
X232881193Y-75671120D01*
X232947797Y-75637911D01*
X233020205Y-75621632D01*
X233055582Y-75619829D01*
X233129602Y-75625889D01*
X233201661Y-75646326D01*
X233249755Y-75671120D01*
X233309131Y-75720235D01*
X233352563Y-75779311D01*
X233372854Y-75819863D01*
X233397049Y-75891876D01*
X233410330Y-75965607D01*
X233415310Y-76047209D01*
X233415352Y-76055802D01*
X233415352Y-76288810D01*
X233411903Y-76362193D01*
X233399982Y-76436525D01*
X233377034Y-76509530D01*
X233371755Y-76521817D01*
X233333664Y-76587917D01*
X233279609Y-76644991D01*
X233244993Y-76669462D01*
X233177931Y-76700494D01*
X233101492Y-76717204D01*
X233045324Y-76720387D01*
G37*
G36*
X234192795Y-75624118D02*
G01*
X234268787Y-75638944D01*
X234343287Y-75667485D01*
X234355809Y-75674050D01*
X234418274Y-75717172D01*
X234469657Y-75771983D01*
X234506751Y-75831953D01*
X234534185Y-75900640D01*
X234551459Y-75977555D01*
X234558318Y-76053814D01*
X234558775Y-76080715D01*
X234558775Y-76257669D01*
X234554660Y-76336710D01*
X234542314Y-76408970D01*
X234518944Y-76481305D01*
X234506751Y-76507896D01*
X234465443Y-76573167D01*
X234413053Y-76626922D01*
X234355809Y-76665799D01*
X234283041Y-76696878D01*
X234208623Y-76713936D01*
X234134917Y-76720174D01*
X234117672Y-76720387D01*
X234042727Y-76716069D01*
X233966864Y-76701142D01*
X233892423Y-76672409D01*
X233879902Y-76665799D01*
X233817437Y-76622381D01*
X233766054Y-76567189D01*
X233728960Y-76506796D01*
X233701525Y-76437159D01*
X233684252Y-76359220D01*
X233677393Y-76281979D01*
X233676985Y-76257669D01*
X233886863Y-76257669D01*
X233893962Y-76336978D01*
X233917902Y-76408488D01*
X233946946Y-76451842D01*
X234009377Y-76498925D01*
X234084428Y-76519037D01*
X234117672Y-76520718D01*
X234193321Y-76511033D01*
X234259343Y-76478679D01*
X234288032Y-76451842D01*
X234327171Y-76386391D01*
X234345589Y-76309661D01*
X234348482Y-76257669D01*
X234348482Y-76080715D01*
X234341339Y-76001579D01*
X234317253Y-75930653D01*
X234288032Y-75888007D01*
X234225851Y-75841425D01*
X234150908Y-75821527D01*
X234117672Y-75819863D01*
X234041972Y-75829446D01*
X233975778Y-75861455D01*
X233946946Y-75888007D01*
X233908045Y-75952509D01*
X233889738Y-76028793D01*
X233886863Y-76080715D01*
X233886863Y-76257669D01*
X233676985Y-76257669D01*
X233676936Y-76254738D01*
X233676936Y-76080715D01*
X233681051Y-76002234D01*
X233695276Y-75922850D01*
X233719663Y-75851695D01*
X233728960Y-75831953D01*
X233770267Y-75766517D01*
X233822657Y-75712769D01*
X233879902Y-75674050D01*
X233952627Y-75643180D01*
X234026930Y-75626236D01*
X234100472Y-75620040D01*
X234117672Y-75619829D01*
X234192795Y-75624118D01*
G37*
G36*
X234850767Y-75635582D02*
G01*
X235061060Y-75635582D01*
X235061060Y-76705000D01*
X234850767Y-76705000D01*
X234850767Y-75635582D01*
G37*
G36*
X234953715Y-75635582D02*
G01*
X235535868Y-75635582D01*
X235535868Y-75835251D01*
X234953715Y-75835251D01*
X234953715Y-75635582D01*
G37*
G36*
X235747627Y-75635582D02*
G01*
X235957920Y-75635582D01*
X235957920Y-77139874D01*
X235747627Y-77139874D01*
X235747627Y-75635582D01*
G37*
G36*
X236226831Y-76720387D02*
G01*
X236149800Y-76712526D01*
X236076309Y-76686480D01*
X236052442Y-76672759D01*
X235995120Y-76623192D01*
X235952665Y-76558477D01*
X235943265Y-76537205D01*
X235957920Y-76313356D01*
X235966574Y-76388220D01*
X235982466Y-76430959D01*
X236029634Y-76488932D01*
X236054274Y-76505331D01*
X236124501Y-76527946D01*
X236168213Y-76530976D01*
X236245012Y-76520516D01*
X236310408Y-76485855D01*
X236329413Y-76467595D01*
X236368483Y-76402179D01*
X236384557Y-76330258D01*
X236386566Y-76288810D01*
X236386566Y-76056901D01*
X236379813Y-75982283D01*
X236354418Y-75910172D01*
X236329413Y-75874452D01*
X236270429Y-75830123D01*
X236199583Y-75811188D01*
X236168213Y-75809605D01*
X236092278Y-75819337D01*
X236054274Y-75834518D01*
X235998219Y-75881916D01*
X235982466Y-75907058D01*
X235960820Y-75977931D01*
X235957920Y-76021730D01*
X235936304Y-75815833D01*
X235976748Y-75751519D01*
X236029980Y-75695450D01*
X236062700Y-75671120D01*
X236129304Y-75637911D01*
X236201712Y-75621632D01*
X236237090Y-75619829D01*
X236311109Y-75625889D01*
X236383169Y-75646326D01*
X236431263Y-75671120D01*
X236490639Y-75720235D01*
X236534070Y-75779311D01*
X236554361Y-75819863D01*
X236578557Y-75891876D01*
X236591837Y-75965607D01*
X236596818Y-76047209D01*
X236596859Y-76055802D01*
X236596859Y-76288810D01*
X236593411Y-76362193D01*
X236581489Y-76436525D01*
X236558541Y-76509530D01*
X236553262Y-76521817D01*
X236515171Y-76587917D01*
X236461116Y-76644991D01*
X236426500Y-76669462D01*
X236359438Y-76700494D01*
X236283000Y-76717204D01*
X236226831Y-76720387D01*
G37*
G36*
X237492986Y-76026859D02*
G01*
X237483735Y-75949228D01*
X237450070Y-75879037D01*
X237436933Y-75863827D01*
X237373998Y-75822015D01*
X237296520Y-75806087D01*
X237277564Y-75805575D01*
X237202639Y-75812550D01*
X237152267Y-75825359D01*
X237084521Y-75853842D01*
X237043824Y-75879581D01*
X236890317Y-75774434D01*
X236946079Y-75720519D01*
X237008822Y-75680196D01*
X237050418Y-75660861D01*
X237121482Y-75637500D01*
X237197655Y-75623836D01*
X237271336Y-75619829D01*
X237350734Y-75624408D01*
X237429476Y-75640024D01*
X237499214Y-75666723D01*
X237563992Y-75707870D01*
X237615993Y-75760970D01*
X237643562Y-75803011D01*
X237673701Y-75874933D01*
X237689109Y-75949913D01*
X237693021Y-76017700D01*
X237693021Y-76705000D01*
X237492986Y-76705000D01*
X237492986Y-76026859D01*
G37*
G36*
X237231402Y-76720387D02*
G01*
X237149617Y-76716477D01*
X237067826Y-76702435D01*
X236998492Y-76678181D01*
X236935380Y-76638688D01*
X236883795Y-76579096D01*
X236853705Y-76511270D01*
X236839089Y-76429997D01*
X236837561Y-76389560D01*
X236843171Y-76315211D01*
X236862893Y-76243447D01*
X236901461Y-76178460D01*
X236927320Y-76151789D01*
X236992364Y-76109865D01*
X237066198Y-76085409D01*
X237143994Y-76074229D01*
X237198429Y-76072288D01*
X237502145Y-76072288D01*
X237516800Y-76241182D01*
X237199528Y-76241182D01*
X237123628Y-76251522D01*
X237076064Y-76277819D01*
X237040203Y-76342471D01*
X237035397Y-76389560D01*
X237050700Y-76464371D01*
X237089619Y-76510460D01*
X237157855Y-76539586D01*
X237233933Y-76548953D01*
X237254117Y-76549295D01*
X237329711Y-76546264D01*
X237404884Y-76533642D01*
X237433635Y-76523649D01*
X237488291Y-76471832D01*
X237492986Y-76443415D01*
X237514602Y-76593625D01*
X237465623Y-76649816D01*
X237446092Y-76664699D01*
X237377879Y-76698634D01*
X237351936Y-76706465D01*
X237275894Y-76718742D01*
X237231402Y-76720387D01*
G37*
G36*
X238825087Y-75635582D02*
G01*
X239011566Y-75635582D01*
X239011566Y-76705000D01*
X238822156Y-76705000D01*
X238822156Y-75949556D01*
X238832414Y-76015502D01*
X238571563Y-76496905D01*
X238445900Y-76496905D01*
X238185048Y-76015502D01*
X238195673Y-75949556D01*
X238195673Y-76705000D01*
X238005896Y-76705000D01*
X238005896Y-75635582D01*
X238192376Y-75635582D01*
X238508914Y-76226894D01*
X238825087Y-75635582D01*
G37*
G36*
X240152791Y-75635582D02*
G01*
X240339270Y-75635582D01*
X240339270Y-76705000D01*
X240149860Y-76705000D01*
X240149860Y-75949556D01*
X240160118Y-76015502D01*
X239899267Y-76496905D01*
X239773604Y-76496905D01*
X239512752Y-76015502D01*
X239523377Y-75949556D01*
X239523377Y-76705000D01*
X239333600Y-76705000D01*
X239333600Y-75635582D01*
X239520080Y-75635582D01*
X239836618Y-76226894D01*
X240152791Y-75635582D01*
G37*
G36*
X241333217Y-76703900D02*
G01*
X241333217Y-75944427D01*
X241357763Y-75971172D01*
X240843754Y-76703900D01*
X240661304Y-76703900D01*
X240661304Y-75635582D01*
X240869399Y-75635582D01*
X240869399Y-76412274D01*
X240844853Y-76385530D01*
X241361060Y-75635582D01*
X241541311Y-75635582D01*
X241541311Y-76703900D01*
X241333217Y-76703900D01*
G37*
G36*
X241864445Y-75635582D02*
G01*
X242074738Y-75635582D01*
X242074738Y-77139874D01*
X241864445Y-77139874D01*
X241864445Y-75635582D01*
G37*
G36*
X242343649Y-76720387D02*
G01*
X242266618Y-76712526D01*
X242193127Y-76686480D01*
X242169260Y-76672759D01*
X242111938Y-76623192D01*
X242069483Y-76558477D01*
X242060083Y-76537205D01*
X242074738Y-76313356D01*
X242083391Y-76388220D01*
X242099284Y-76430959D01*
X242146452Y-76488932D01*
X242171092Y-76505331D01*
X242241319Y-76527946D01*
X242285031Y-76530976D01*
X242361830Y-76520516D01*
X242427226Y-76485855D01*
X242446231Y-76467595D01*
X242485300Y-76402179D01*
X242501375Y-76330258D01*
X242503384Y-76288810D01*
X242503384Y-76056901D01*
X242496631Y-75982283D01*
X242471236Y-75910172D01*
X242446231Y-75874452D01*
X242387247Y-75830123D01*
X242316401Y-75811188D01*
X242285031Y-75809605D01*
X242209096Y-75819337D01*
X242171092Y-75834518D01*
X242115036Y-75881916D01*
X242099284Y-75907058D01*
X242077638Y-75977931D01*
X242074738Y-76021730D01*
X242053122Y-75815833D01*
X242093566Y-75751519D01*
X242146797Y-75695450D01*
X242179518Y-75671120D01*
X242246122Y-75637911D01*
X242318530Y-75621632D01*
X242353907Y-75619829D01*
X242427927Y-75625889D01*
X242499987Y-75646326D01*
X242548080Y-75671120D01*
X242607457Y-75720235D01*
X242650888Y-75779311D01*
X242671179Y-75819863D01*
X242695375Y-75891876D01*
X242708655Y-75965607D01*
X242713636Y-76047209D01*
X242713677Y-76055802D01*
X242713677Y-76288810D01*
X242710228Y-76362193D01*
X242698307Y-76436525D01*
X242675359Y-76509530D01*
X242670080Y-76521817D01*
X242631989Y-76587917D01*
X242577934Y-76644991D01*
X242543318Y-76669462D01*
X242476256Y-76700494D01*
X242399817Y-76717204D01*
X242343649Y-76720387D01*
G37*
G36*
X243491120Y-75624118D02*
G01*
X243567112Y-75638944D01*
X243641612Y-75667485D01*
X243654134Y-75674050D01*
X243716599Y-75717172D01*
X243767982Y-75771983D01*
X243805076Y-75831953D01*
X243832511Y-75900640D01*
X243849784Y-75977555D01*
X243856643Y-76053814D01*
X243857100Y-76080715D01*
X243857100Y-76257669D01*
X243852985Y-76336710D01*
X243840639Y-76408970D01*
X243817269Y-76481305D01*
X243805076Y-76507896D01*
X243763769Y-76573167D01*
X243711379Y-76626922D01*
X243654134Y-76665799D01*
X243581366Y-76696878D01*
X243506948Y-76713936D01*
X243433242Y-76720174D01*
X243415997Y-76720387D01*
X243341052Y-76716069D01*
X243265189Y-76701142D01*
X243190748Y-76672409D01*
X243178227Y-76665799D01*
X243115762Y-76622381D01*
X243064379Y-76567189D01*
X243027285Y-76506796D01*
X242999851Y-76437159D01*
X242982577Y-76359220D01*
X242975718Y-76281979D01*
X242975310Y-76257669D01*
X243185188Y-76257669D01*
X243192288Y-76336978D01*
X243216227Y-76408488D01*
X243245272Y-76451842D01*
X243307702Y-76498925D01*
X243382753Y-76519037D01*
X243415997Y-76520718D01*
X243491646Y-76511033D01*
X243557668Y-76478679D01*
X243586357Y-76451842D01*
X243625496Y-76386391D01*
X243643914Y-76309661D01*
X243646807Y-76257669D01*
X243646807Y-76080715D01*
X243639664Y-76001579D01*
X243615578Y-75930653D01*
X243586357Y-75888007D01*
X243524176Y-75841425D01*
X243449233Y-75821527D01*
X243415997Y-75819863D01*
X243340297Y-75829446D01*
X243274103Y-75861455D01*
X243245272Y-75888007D01*
X243206370Y-75952509D01*
X243188063Y-76028793D01*
X243185188Y-76080715D01*
X243185188Y-76257669D01*
X242975310Y-76257669D01*
X242975261Y-76254738D01*
X242975261Y-76080715D01*
X242979376Y-76002234D01*
X242993602Y-75922850D01*
X243017988Y-75851695D01*
X243027285Y-75831953D01*
X243068592Y-75766517D01*
X243120983Y-75712769D01*
X243178227Y-75674050D01*
X243250952Y-75643180D01*
X243325255Y-75626236D01*
X243398797Y-75620040D01*
X243415997Y-75619829D01*
X243491120Y-75624118D01*
G37*
G36*
X244272923Y-76515223D02*
G01*
X244668597Y-76515223D01*
X244741231Y-76498772D01*
X244765317Y-76480418D01*
X244797259Y-76411588D01*
X244799389Y-76381500D01*
X244799389Y-76378203D01*
X244784715Y-76303467D01*
X244765317Y-76274521D01*
X244698135Y-76239488D01*
X244668597Y-76237152D01*
X244272923Y-76237152D01*
X244272923Y-76047742D01*
X244668597Y-76047742D01*
X244741124Y-76028702D01*
X244750662Y-76020997D01*
X244779351Y-75953504D01*
X244779605Y-75944427D01*
X244761940Y-75871476D01*
X244750662Y-75856500D01*
X244682982Y-75825485D01*
X244670429Y-75824993D01*
X244272923Y-75824993D01*
X244272923Y-75635582D01*
X244677756Y-75635582D01*
X244756533Y-75641088D01*
X244831624Y-75660122D01*
X244899099Y-75696762D01*
X244909665Y-75705191D01*
X244959897Y-75765212D01*
X244985576Y-75834443D01*
X244992096Y-75901196D01*
X244982059Y-75974991D01*
X244948800Y-76041749D01*
X244931280Y-76062397D01*
X244868599Y-76109089D01*
X244799802Y-76135159D01*
X244760188Y-76143363D01*
X244835979Y-76165127D01*
X244904243Y-76202891D01*
X244945568Y-76240816D01*
X244985754Y-76302125D01*
X245007392Y-76373944D01*
X245011514Y-76427662D01*
X245011514Y-76430959D01*
X245002891Y-76506944D01*
X244973489Y-76577221D01*
X244923220Y-76633558D01*
X244854155Y-76674232D01*
X244776417Y-76696558D01*
X244694278Y-76704720D01*
X244674459Y-76705000D01*
X244272923Y-76705000D01*
X244272923Y-76515223D01*
G37*
G36*
X244149092Y-75635582D02*
G01*
X244358286Y-75635582D01*
X244358286Y-76705000D01*
X244149092Y-76705000D01*
X244149092Y-75635582D01*
G37*
G36*
X245887124Y-76026859D02*
G01*
X245877873Y-75949228D01*
X245844208Y-75879037D01*
X245831071Y-75863827D01*
X245768136Y-75822015D01*
X245690658Y-75806087D01*
X245671702Y-75805575D01*
X245596777Y-75812550D01*
X245546406Y-75825359D01*
X245478659Y-75853842D01*
X245437962Y-75879581D01*
X245284455Y-75774434D01*
X245340217Y-75720519D01*
X245402960Y-75680196D01*
X245444556Y-75660861D01*
X245515621Y-75637500D01*
X245591793Y-75623836D01*
X245665474Y-75619829D01*
X245744872Y-75624408D01*
X245823615Y-75640024D01*
X245893353Y-75666723D01*
X245958130Y-75707870D01*
X246010131Y-75760970D01*
X246037700Y-75803011D01*
X246067839Y-75874933D01*
X246083247Y-75949913D01*
X246087159Y-76017700D01*
X246087159Y-76705000D01*
X245887124Y-76705000D01*
X245887124Y-76026859D01*
G37*
G36*
X245625540Y-76720387D02*
G01*
X245543755Y-76716477D01*
X245461964Y-76702435D01*
X245392630Y-76678181D01*
X245329518Y-76638688D01*
X245277934Y-76579096D01*
X245247843Y-76511270D01*
X245233227Y-76429997D01*
X245231699Y-76389560D01*
X245237309Y-76315211D01*
X245257031Y-76243447D01*
X245295600Y-76178460D01*
X245321458Y-76151789D01*
X245386502Y-76109865D01*
X245460337Y-76085409D01*
X245538132Y-76074229D01*
X245592568Y-76072288D01*
X245896284Y-76072288D01*
X245910938Y-76241182D01*
X245593667Y-76241182D01*
X245517767Y-76251522D01*
X245470202Y-76277819D01*
X245434341Y-76342471D01*
X245429535Y-76389560D01*
X245444838Y-76464371D01*
X245483757Y-76510460D01*
X245551993Y-76539586D01*
X245628071Y-76548953D01*
X245648255Y-76549295D01*
X245723849Y-76546264D01*
X245799022Y-76533642D01*
X245827773Y-76523649D01*
X245882430Y-76471832D01*
X245887124Y-76443415D01*
X245908740Y-76593625D01*
X245859762Y-76649816D01*
X245840230Y-76664699D01*
X245772017Y-76698634D01*
X245746074Y-76706465D01*
X245670032Y-76718742D01*
X245625540Y-76720387D01*
G37*
G36*
X247075976Y-75635582D02*
G01*
X247286270Y-75635582D01*
X247286270Y-76705000D01*
X247075976Y-76705000D01*
X247075976Y-75635582D01*
G37*
G36*
X246400034Y-75635582D02*
G01*
X246610327Y-75635582D01*
X246610327Y-76705000D01*
X246400034Y-76705000D01*
X246400034Y-75635582D01*
G37*
G36*
X246530826Y-76084745D02*
G01*
X247187351Y-76084745D01*
X247187351Y-76274155D01*
X246530826Y-76274155D01*
X246530826Y-76084745D01*
G37*
G36*
X248280949Y-76703900D02*
G01*
X248280949Y-75944427D01*
X248305495Y-75971172D01*
X247791486Y-76703900D01*
X247609036Y-76703900D01*
X247609036Y-75635582D01*
X247817131Y-75635582D01*
X247817131Y-76412274D01*
X247792585Y-76385530D01*
X248308792Y-75635582D01*
X248489043Y-75635582D01*
X248489043Y-76703900D01*
X248280949Y-76703900D01*
G37*
G36*
X249134577Y-76328743D02*
G01*
X249055477Y-76322664D01*
X248983589Y-76304426D01*
X248939672Y-76285512D01*
X248877375Y-76244643D01*
X248824080Y-76187782D01*
X248808513Y-76164246D01*
X248778151Y-76096312D01*
X248763267Y-76019913D01*
X248761618Y-75981796D01*
X248768110Y-75907865D01*
X248789793Y-75835796D01*
X248807780Y-75800446D01*
X248855786Y-75738576D01*
X248913422Y-75693182D01*
X248938939Y-75678813D01*
X249012054Y-75650823D01*
X249087273Y-75637651D01*
X249134577Y-75635582D01*
X249513764Y-75635582D01*
X249513764Y-75835251D01*
X249126517Y-75835251D01*
X249053413Y-75852607D01*
X249023935Y-75875551D01*
X248989224Y-75943085D01*
X248985467Y-75981796D01*
X249000601Y-76054933D01*
X249002686Y-76059099D01*
X249052145Y-76110757D01*
X249123894Y-76129057D01*
X249126517Y-76129075D01*
X249513764Y-76129075D01*
X249513764Y-76328743D01*
X249134577Y-76328743D01*
G37*
G36*
X249405687Y-76705000D02*
G01*
X249405687Y-75635582D01*
X249615980Y-75635582D01*
X249615980Y-76705000D01*
X249405687Y-76705000D01*
G37*
G36*
X248740003Y-76705000D02*
G01*
X249040788Y-76234954D01*
X249249982Y-76282581D01*
X248989497Y-76705000D01*
X248740003Y-76705000D01*
G37*
G36*
X221243265Y-78779867D02*
G01*
X221243265Y-78600715D01*
X221763503Y-78600715D01*
X221763503Y-78779867D01*
X221243265Y-78779867D01*
G37*
G36*
X221454291Y-79240387D02*
G01*
X221378943Y-79236120D01*
X221302831Y-79222164D01*
X221298220Y-79220969D01*
X221228336Y-79196789D01*
X221165963Y-79163817D01*
X221105813Y-79116380D01*
X221067044Y-79072592D01*
X221218353Y-78936304D01*
X221273440Y-78990246D01*
X221323499Y-79021301D01*
X221393888Y-79045296D01*
X221451360Y-79050976D01*
X221528489Y-79042535D01*
X221597818Y-79014070D01*
X221639672Y-78979535D01*
X221680527Y-78917231D01*
X221701413Y-78845273D01*
X221706716Y-78775837D01*
X221706716Y-78599616D01*
X221698794Y-78521105D01*
X221672081Y-78450566D01*
X221639672Y-78408007D01*
X221576426Y-78363887D01*
X221501945Y-78343124D01*
X221451360Y-78339863D01*
X221374858Y-78349679D01*
X221324598Y-78367707D01*
X221261048Y-78406566D01*
X221218353Y-78447208D01*
X221067044Y-78310921D01*
X221117289Y-78254725D01*
X221164863Y-78218230D01*
X221231385Y-78182814D01*
X221297121Y-78159979D01*
X221373416Y-78144866D01*
X221449102Y-78139848D01*
X221454291Y-78139829D01*
X221533304Y-78144118D01*
X221605477Y-78156985D01*
X221677647Y-78181342D01*
X221704152Y-78194050D01*
X221769631Y-78237086D01*
X221823509Y-78291636D01*
X221862421Y-78351221D01*
X221891208Y-78419714D01*
X221909333Y-78496507D01*
X221916529Y-78572718D01*
X221917009Y-78599616D01*
X221917009Y-78775837D01*
X221912691Y-78855261D01*
X221899737Y-78927847D01*
X221875215Y-79000475D01*
X221862421Y-79027163D01*
X221819091Y-79092851D01*
X221764158Y-79146851D01*
X221704152Y-79185799D01*
X221635358Y-79214585D01*
X221558121Y-79232710D01*
X221481389Y-79239907D01*
X221454291Y-79240387D01*
G37*
G36*
X222086270Y-79034490D02*
G01*
X222159542Y-79015714D01*
X222211599Y-78964006D01*
X222214497Y-78959385D01*
X222244148Y-78887907D01*
X222257430Y-78811557D01*
X222260293Y-78746894D01*
X222260293Y-78155582D01*
X222470586Y-78155582D01*
X222470586Y-78775837D01*
X222467195Y-78854141D01*
X222455474Y-78933396D01*
X222435381Y-79004493D01*
X222427721Y-79024232D01*
X222390335Y-79094488D01*
X222341923Y-79150834D01*
X222303524Y-79180669D01*
X222237733Y-79213264D01*
X222162359Y-79230816D01*
X222106786Y-79234159D01*
X222086270Y-79234159D01*
X222086270Y-79034490D01*
G37*
G36*
X222804344Y-78155582D02*
G01*
X223014637Y-78155582D01*
X223014637Y-79225000D01*
X222804344Y-79225000D01*
X222804344Y-78155582D01*
G37*
G36*
X222391451Y-78155582D02*
G01*
X222915718Y-78155582D01*
X222915718Y-78355251D01*
X222391451Y-78355251D01*
X222391451Y-78155582D01*
G37*
G36*
X223775942Y-79240387D02*
G01*
X223695899Y-79235982D01*
X223622695Y-79222767D01*
X223549380Y-79197751D01*
X223522418Y-79184699D01*
X223456225Y-79140310D01*
X223401722Y-79083713D01*
X223362316Y-79021667D01*
X223333336Y-78949947D01*
X223316431Y-78877874D01*
X223308220Y-78798672D01*
X223307362Y-78761182D01*
X223307362Y-78640648D01*
X223310659Y-78564239D01*
X223322251Y-78485230D01*
X223342189Y-78413581D01*
X223360118Y-78369905D01*
X223398007Y-78304868D01*
X223450511Y-78245477D01*
X223514357Y-78198813D01*
X223581562Y-78167708D01*
X223656782Y-78148123D01*
X223731331Y-78140347D01*
X223757623Y-78139829D01*
X223837408Y-78146376D01*
X223909607Y-78166018D01*
X223980266Y-78202748D01*
X223986235Y-78206873D01*
X224046146Y-78260023D01*
X224091369Y-78320587D01*
X224127790Y-78392816D01*
X224130949Y-78400680D01*
X224155211Y-78475983D01*
X224170112Y-78549633D01*
X224178739Y-78629604D01*
X224181140Y-78704762D01*
X224181140Y-78774738D01*
X223459769Y-78774738D01*
X223459769Y-78605844D01*
X223981106Y-78605844D01*
X223970587Y-78529594D01*
X223947942Y-78458943D01*
X223913695Y-78402145D01*
X223855151Y-78352557D01*
X223781460Y-78330739D01*
X223757623Y-78329605D01*
X223681667Y-78338870D01*
X223613420Y-78370108D01*
X223572243Y-78408007D01*
X223532504Y-78475704D01*
X223512189Y-78553872D01*
X223507030Y-78629291D01*
X223507030Y-78765579D01*
X223513864Y-78842494D01*
X223537166Y-78913298D01*
X223577006Y-78969644D01*
X223637954Y-79012955D01*
X223708215Y-79035096D01*
X223775942Y-79040718D01*
X223851560Y-79031677D01*
X223902704Y-79015073D01*
X223969306Y-78979318D01*
X224015177Y-78942533D01*
X224153297Y-79080652D01*
X224096345Y-79128973D01*
X224034805Y-79169155D01*
X223974877Y-79198621D01*
X223900534Y-79224072D01*
X223825882Y-79237776D01*
X223775942Y-79240387D01*
G37*
G36*
X224777948Y-78610973D02*
G01*
X225068475Y-78155582D01*
X225321999Y-78155582D01*
X224873569Y-78795254D01*
X224777948Y-78610973D01*
G37*
G36*
X224463607Y-78155582D02*
G01*
X224673900Y-78155582D01*
X224673900Y-79225000D01*
X224463607Y-79225000D01*
X224463607Y-78155582D01*
G37*
G36*
X224787107Y-78773639D02*
G01*
X224950872Y-78665561D01*
X225384647Y-79225000D01*
X225103646Y-79225000D01*
X224787107Y-78773639D01*
G37*
G36*
X224565457Y-78589357D02*
G01*
X224951971Y-78589357D01*
X224951971Y-78789026D01*
X224565457Y-78789026D01*
X224565457Y-78589357D01*
G37*
G36*
X225802302Y-78267690D02*
G01*
X226012595Y-78267690D01*
X226012595Y-79225000D01*
X225802302Y-79225000D01*
X225802302Y-78267690D01*
G37*
G36*
X225491992Y-78155582D02*
G01*
X226322540Y-78155582D01*
X226322540Y-78344993D01*
X225491992Y-78344993D01*
X225491992Y-78155582D01*
G37*
G36*
X226595847Y-78155582D02*
G01*
X226806140Y-78155582D01*
X226806140Y-79659874D01*
X226595847Y-79659874D01*
X226595847Y-78155582D01*
G37*
G36*
X227075052Y-79240387D02*
G01*
X226998020Y-79232526D01*
X226924530Y-79206480D01*
X226900662Y-79192759D01*
X226843341Y-79143192D01*
X226800885Y-79078477D01*
X226791486Y-79057205D01*
X226806140Y-78833356D01*
X226814794Y-78908220D01*
X226830687Y-78950959D01*
X226877855Y-79008932D01*
X226902494Y-79025331D01*
X226972721Y-79047946D01*
X227016434Y-79050976D01*
X227093233Y-79040516D01*
X227158629Y-79005855D01*
X227177634Y-78987595D01*
X227216703Y-78922179D01*
X227232777Y-78850258D01*
X227234787Y-78808810D01*
X227234787Y-78576901D01*
X227228033Y-78502283D01*
X227202638Y-78430172D01*
X227177634Y-78394452D01*
X227118649Y-78350123D01*
X227047803Y-78331188D01*
X227016434Y-78329605D01*
X226940499Y-78339337D01*
X226902494Y-78354518D01*
X226846439Y-78401916D01*
X226830687Y-78427058D01*
X226809041Y-78497931D01*
X226806140Y-78541730D01*
X226784525Y-78335833D01*
X226824968Y-78271519D01*
X226878200Y-78215450D01*
X226910921Y-78191120D01*
X226977525Y-78157911D01*
X227049933Y-78141632D01*
X227085310Y-78139829D01*
X227159330Y-78145889D01*
X227231389Y-78166326D01*
X227279483Y-78191120D01*
X227338859Y-78240235D01*
X227382290Y-78299311D01*
X227402581Y-78339863D01*
X227426777Y-78411876D01*
X227440058Y-78485607D01*
X227445038Y-78567209D01*
X227445080Y-78575802D01*
X227445080Y-78808810D01*
X227441631Y-78882193D01*
X227429710Y-78956525D01*
X227406762Y-79029530D01*
X227401482Y-79041817D01*
X227363392Y-79107917D01*
X227309337Y-79164991D01*
X227274720Y-79189462D01*
X227207659Y-79220494D01*
X227131220Y-79237204D01*
X227075052Y-79240387D01*
G37*
G36*
X228222523Y-78144118D02*
G01*
X228298515Y-78158944D01*
X228373015Y-78187485D01*
X228385537Y-78194050D01*
X228448002Y-78237172D01*
X228499385Y-78291983D01*
X228536479Y-78351953D01*
X228563913Y-78420640D01*
X228581187Y-78497555D01*
X228588045Y-78573814D01*
X228588503Y-78600715D01*
X228588503Y-78777669D01*
X228584387Y-78856710D01*
X228572042Y-78928970D01*
X228548672Y-79001305D01*
X228536479Y-79027896D01*
X228495171Y-79093167D01*
X228442781Y-79146922D01*
X228385537Y-79185799D01*
X228312768Y-79216878D01*
X228238351Y-79233936D01*
X228164645Y-79240174D01*
X228147400Y-79240387D01*
X228072455Y-79236069D01*
X227996591Y-79221142D01*
X227922150Y-79192409D01*
X227909630Y-79185799D01*
X227847165Y-79142381D01*
X227795782Y-79087189D01*
X227758688Y-79026796D01*
X227731253Y-78957159D01*
X227713980Y-78879220D01*
X227707121Y-78801979D01*
X227706713Y-78777669D01*
X227916591Y-78777669D01*
X227923690Y-78856978D01*
X227947630Y-78928488D01*
X227976674Y-78971842D01*
X228039105Y-79018925D01*
X228114155Y-79039037D01*
X228147400Y-79040718D01*
X228223049Y-79031033D01*
X228289071Y-78998679D01*
X228317759Y-78971842D01*
X228356899Y-78906391D01*
X228375317Y-78829661D01*
X228378210Y-78777669D01*
X228378210Y-78600715D01*
X228371067Y-78521579D01*
X228346981Y-78450653D01*
X228317759Y-78408007D01*
X228255579Y-78361425D01*
X228180636Y-78341527D01*
X228147400Y-78339863D01*
X228071700Y-78349446D01*
X228005505Y-78381455D01*
X227976674Y-78408007D01*
X227937772Y-78472509D01*
X227919466Y-78548793D01*
X227916591Y-78600715D01*
X227916591Y-78777669D01*
X227706713Y-78777669D01*
X227706664Y-78774738D01*
X227706664Y-78600715D01*
X227710779Y-78522234D01*
X227725004Y-78442850D01*
X227749390Y-78371695D01*
X227758688Y-78351953D01*
X227799995Y-78286517D01*
X227852385Y-78232769D01*
X227909630Y-78194050D01*
X227982355Y-78163180D01*
X228056658Y-78146236D01*
X228130200Y-78140040D01*
X228147400Y-78139829D01*
X228222523Y-78144118D01*
G37*
G36*
X229556437Y-78155582D02*
G01*
X229766730Y-78155582D01*
X229766730Y-79225000D01*
X229556437Y-79225000D01*
X229556437Y-78155582D01*
G37*
G36*
X228880495Y-78155582D02*
G01*
X229090788Y-78155582D01*
X229090788Y-79225000D01*
X228880495Y-79225000D01*
X228880495Y-78155582D01*
G37*
G36*
X229011287Y-78604745D02*
G01*
X229667812Y-78604745D01*
X229667812Y-78794155D01*
X229011287Y-78794155D01*
X229011287Y-78604745D01*
G37*
G36*
X230765439Y-78155582D02*
G01*
X230975732Y-78155582D01*
X230975732Y-79225000D01*
X230765439Y-79225000D01*
X230765439Y-78155582D01*
G37*
G36*
X230089497Y-78155582D02*
G01*
X230299790Y-78155582D01*
X230299790Y-79225000D01*
X230089497Y-79225000D01*
X230089497Y-78155582D01*
G37*
G36*
X230220289Y-78604745D02*
G01*
X230876814Y-78604745D01*
X230876814Y-78794155D01*
X230220289Y-78794155D01*
X230220289Y-78604745D01*
G37*
G36*
X232246650Y-78155582D02*
G01*
X232456577Y-78155582D01*
X232456577Y-79225000D01*
X232246650Y-79225000D01*
X232246650Y-78155582D01*
G37*
G36*
X231400348Y-79024965D02*
G01*
X231726046Y-79024965D01*
X231799151Y-79007767D01*
X231828628Y-78985031D01*
X231863670Y-78917497D01*
X231867463Y-78878785D01*
X231852007Y-78805648D01*
X231849877Y-78801482D01*
X231800418Y-78750191D01*
X231728692Y-78731525D01*
X231726046Y-78731507D01*
X231400348Y-78731507D01*
X231400348Y-78531472D01*
X231717986Y-78531472D01*
X231797035Y-78537551D01*
X231868768Y-78555789D01*
X231912526Y-78574703D01*
X231975060Y-78615633D01*
X232028475Y-78672694D01*
X232044050Y-78696336D01*
X232074413Y-78764270D01*
X232089296Y-78840669D01*
X232090945Y-78878785D01*
X232084402Y-78952545D01*
X232062546Y-79024660D01*
X232044417Y-79060136D01*
X231996662Y-79122005D01*
X231939133Y-79167400D01*
X231913625Y-79181769D01*
X231840509Y-79209759D01*
X231765290Y-79222931D01*
X231717986Y-79225000D01*
X231400348Y-79225000D01*
X231400348Y-79024965D01*
G37*
G36*
X231298499Y-78155582D02*
G01*
X231508792Y-78155582D01*
X231508792Y-79225000D01*
X231298499Y-79225000D01*
X231298499Y-78155582D01*
G37*
G36*
X233044591Y-78738468D02*
G01*
X232651116Y-78155582D01*
X232884856Y-78155582D01*
X233191870Y-78634420D01*
X233597069Y-79225000D01*
X233364061Y-79225000D01*
X233044591Y-78738468D01*
G37*
G36*
X233038363Y-78634420D02*
G01*
X233139480Y-78828227D01*
X232867271Y-79225000D01*
X232634630Y-79225000D01*
X233038363Y-78634420D01*
G37*
G36*
X233112735Y-78534769D02*
G01*
X233346475Y-78155582D01*
X233580582Y-78155582D01*
X233201395Y-78732606D01*
X233112735Y-78534769D01*
G37*
G36*
X235219696Y-78155582D02*
G01*
X234764305Y-79475226D01*
X234733778Y-79544497D01*
X234699459Y-79591364D01*
X234638676Y-79637052D01*
X234600540Y-79652547D01*
X234526017Y-79667655D01*
X234456193Y-79671231D01*
X234414061Y-79671231D01*
X234414061Y-79469364D01*
X234456193Y-79469364D01*
X234530862Y-79455969D01*
X234549616Y-79445551D01*
X234598059Y-79387770D01*
X234609699Y-79364218D01*
X235005373Y-78155582D01*
X235219696Y-78155582D01*
G37*
G36*
X234273011Y-78155582D02*
G01*
X234487334Y-78155582D01*
X234815963Y-79084682D01*
X234699459Y-79312561D01*
X234273011Y-78155582D01*
G37*
G36*
X235811374Y-79240387D02*
G01*
X235732510Y-79236069D01*
X235660369Y-79223115D01*
X235588098Y-79198593D01*
X235561514Y-79185799D01*
X235496243Y-79142425D01*
X235442487Y-79087362D01*
X235403611Y-79027163D01*
X235374824Y-78957911D01*
X235356699Y-78880216D01*
X235349502Y-78803072D01*
X235349023Y-78775837D01*
X235349023Y-78599616D01*
X235353341Y-78521164D01*
X235368267Y-78441880D01*
X235393855Y-78370897D01*
X235403611Y-78351221D01*
X235446898Y-78286201D01*
X235501701Y-78232698D01*
X235561514Y-78194050D01*
X235630465Y-78165457D01*
X235707716Y-78147453D01*
X235784339Y-78140305D01*
X235811374Y-78139829D01*
X235887511Y-78144256D01*
X235963932Y-78158739D01*
X235968545Y-78159979D01*
X236038428Y-78184617D01*
X236100802Y-78218230D01*
X236160900Y-78266312D01*
X236198988Y-78310921D01*
X236047679Y-78447208D01*
X235991703Y-78396628D01*
X235941434Y-78367707D01*
X235871392Y-78345193D01*
X235814672Y-78339863D01*
X235737499Y-78347916D01*
X235668025Y-78375067D01*
X235625994Y-78408007D01*
X235582585Y-78472327D01*
X235562157Y-78548122D01*
X235558949Y-78599616D01*
X235558949Y-78775837D01*
X235565425Y-78849446D01*
X235590292Y-78922948D01*
X235625261Y-78971842D01*
X235688688Y-79016437D01*
X235763659Y-79037422D01*
X235814672Y-79040718D01*
X235888126Y-79031213D01*
X235942533Y-79010676D01*
X236005735Y-78969113D01*
X236047679Y-78926046D01*
X236198988Y-79072592D01*
X236147854Y-79127783D01*
X236100069Y-79163817D01*
X236033445Y-79198558D01*
X235967445Y-79220969D01*
X235891608Y-79235532D01*
X235816518Y-79240368D01*
X235811374Y-79240387D01*
G37*
G36*
X236601256Y-78267690D02*
G01*
X236811549Y-78267690D01*
X236811549Y-79225000D01*
X236601256Y-79225000D01*
X236601256Y-78267690D01*
G37*
G36*
X236290945Y-78155582D02*
G01*
X237121493Y-78155582D01*
X237121493Y-78344993D01*
X236290945Y-78344993D01*
X236290945Y-78155582D01*
G37*
G36*
X237394801Y-78155582D02*
G01*
X237605094Y-78155582D01*
X237605094Y-79659874D01*
X237394801Y-79659874D01*
X237394801Y-78155582D01*
G37*
G36*
X237874005Y-79240387D02*
G01*
X237796973Y-79232526D01*
X237723483Y-79206480D01*
X237699616Y-79192759D01*
X237642294Y-79143192D01*
X237599839Y-79078477D01*
X237590439Y-79057205D01*
X237605094Y-78833356D01*
X237613747Y-78908220D01*
X237629640Y-78950959D01*
X237676808Y-79008932D01*
X237701448Y-79025331D01*
X237771675Y-79047946D01*
X237815387Y-79050976D01*
X237892186Y-79040516D01*
X237957582Y-79005855D01*
X237976587Y-78987595D01*
X238015656Y-78922179D01*
X238031731Y-78850258D01*
X238033740Y-78808810D01*
X238033740Y-78576901D01*
X238026986Y-78502283D01*
X238001591Y-78430172D01*
X237976587Y-78394452D01*
X237917602Y-78350123D01*
X237846757Y-78331188D01*
X237815387Y-78329605D01*
X237739452Y-78339337D01*
X237701448Y-78354518D01*
X237645392Y-78401916D01*
X237629640Y-78427058D01*
X237607994Y-78497931D01*
X237605094Y-78541730D01*
X237583478Y-78335833D01*
X237623921Y-78271519D01*
X237677153Y-78215450D01*
X237709874Y-78191120D01*
X237776478Y-78157911D01*
X237848886Y-78141632D01*
X237884263Y-78139829D01*
X237958283Y-78145889D01*
X238030342Y-78166326D01*
X238078436Y-78191120D01*
X238137812Y-78240235D01*
X238181244Y-78299311D01*
X238201535Y-78339863D01*
X238225731Y-78411876D01*
X238239011Y-78485607D01*
X238243991Y-78567209D01*
X238244033Y-78575802D01*
X238244033Y-78808810D01*
X238240584Y-78882193D01*
X238228663Y-78956525D01*
X238205715Y-79029530D01*
X238200436Y-79041817D01*
X238162345Y-79107917D01*
X238108290Y-79164991D01*
X238073674Y-79189462D01*
X238006612Y-79220494D01*
X237930173Y-79237204D01*
X237874005Y-79240387D01*
G37*
G36*
X239021476Y-78144118D02*
G01*
X239097468Y-78158944D01*
X239171968Y-78187485D01*
X239184490Y-78194050D01*
X239246955Y-78237172D01*
X239298338Y-78291983D01*
X239335432Y-78351953D01*
X239362867Y-78420640D01*
X239380140Y-78497555D01*
X239386999Y-78573814D01*
X239387456Y-78600715D01*
X239387456Y-78777669D01*
X239383341Y-78856710D01*
X239370995Y-78928970D01*
X239347625Y-79001305D01*
X239335432Y-79027896D01*
X239294125Y-79093167D01*
X239241734Y-79146922D01*
X239184490Y-79185799D01*
X239111722Y-79216878D01*
X239037304Y-79233936D01*
X238963598Y-79240174D01*
X238946353Y-79240387D01*
X238871408Y-79236069D01*
X238795545Y-79221142D01*
X238721104Y-79192409D01*
X238708583Y-79185799D01*
X238646118Y-79142381D01*
X238594735Y-79087189D01*
X238557641Y-79026796D01*
X238530206Y-78957159D01*
X238512933Y-78879220D01*
X238506074Y-78801979D01*
X238505666Y-78777669D01*
X238715544Y-78777669D01*
X238722644Y-78856978D01*
X238746583Y-78928488D01*
X238775628Y-78971842D01*
X238838058Y-79018925D01*
X238913109Y-79039037D01*
X238946353Y-79040718D01*
X239022002Y-79031033D01*
X239088024Y-78998679D01*
X239116713Y-78971842D01*
X239155852Y-78906391D01*
X239174270Y-78829661D01*
X239177163Y-78777669D01*
X239177163Y-78600715D01*
X239170020Y-78521579D01*
X239145934Y-78450653D01*
X239116713Y-78408007D01*
X239054532Y-78361425D01*
X238979589Y-78341527D01*
X238946353Y-78339863D01*
X238870653Y-78349446D01*
X238804459Y-78381455D01*
X238775628Y-78408007D01*
X238736726Y-78472509D01*
X238718419Y-78548793D01*
X238715544Y-78600715D01*
X238715544Y-78777669D01*
X238505666Y-78777669D01*
X238505617Y-78774738D01*
X238505617Y-78600715D01*
X238509732Y-78522234D01*
X238523957Y-78442850D01*
X238548344Y-78371695D01*
X238557641Y-78351953D01*
X238598948Y-78286517D01*
X238651338Y-78232769D01*
X238708583Y-78194050D01*
X238781308Y-78163180D01*
X238855611Y-78146236D01*
X238929153Y-78140040D01*
X238946353Y-78139829D01*
X239021476Y-78144118D01*
G37*
G36*
X240351360Y-79223900D02*
G01*
X240351360Y-78464427D01*
X240375907Y-78491172D01*
X239861898Y-79223900D01*
X239679448Y-79223900D01*
X239679448Y-78155582D01*
X239887543Y-78155582D01*
X239887543Y-78932274D01*
X239862997Y-78905530D01*
X240379204Y-78155582D01*
X240559455Y-78155582D01*
X240559455Y-79223900D01*
X240351360Y-79223900D01*
G37*
G36*
X240109926Y-77952616D02*
G01*
X240029636Y-77945313D01*
X239954631Y-77920069D01*
X239894582Y-77876792D01*
X239879483Y-77860293D01*
X239839104Y-77793610D01*
X239815550Y-77718239D01*
X239804782Y-77639030D01*
X239802913Y-77583688D01*
X239972173Y-77583688D01*
X239977857Y-77658747D01*
X240002441Y-77730992D01*
X240006612Y-77737561D01*
X240066643Y-77782468D01*
X240109926Y-77788485D01*
X240128611Y-77788485D01*
X240201569Y-77768593D01*
X240232292Y-77737561D01*
X240259163Y-77668771D01*
X240266697Y-77590071D01*
X240266730Y-77583688D01*
X240435624Y-77583688D01*
X240431943Y-77659910D01*
X240418719Y-77736246D01*
X240392347Y-77808383D01*
X240358688Y-77860293D01*
X240303318Y-77908979D01*
X240232922Y-77939633D01*
X240156717Y-77951805D01*
X240128611Y-77952616D01*
X240109926Y-77952616D01*
G37*
G36*
X241314166Y-79240387D02*
G01*
X241235301Y-79236069D01*
X241163161Y-79223115D01*
X241090889Y-79198593D01*
X241064305Y-79185799D01*
X240999034Y-79142425D01*
X240945278Y-79087362D01*
X240906402Y-79027163D01*
X240877615Y-78957911D01*
X240859490Y-78880216D01*
X240852294Y-78803072D01*
X240851814Y-78775837D01*
X240851814Y-78599616D01*
X240856132Y-78521164D01*
X240871058Y-78441880D01*
X240896647Y-78370897D01*
X240906402Y-78351221D01*
X240949689Y-78286201D01*
X241004492Y-78232698D01*
X241064305Y-78194050D01*
X241133256Y-78165457D01*
X241210507Y-78147453D01*
X241287130Y-78140305D01*
X241314166Y-78139829D01*
X241390302Y-78144256D01*
X241466724Y-78158739D01*
X241471336Y-78159979D01*
X241541220Y-78184617D01*
X241603593Y-78218230D01*
X241663691Y-78266312D01*
X241701779Y-78310921D01*
X241550471Y-78447208D01*
X241494494Y-78396628D01*
X241444225Y-78367707D01*
X241374183Y-78345193D01*
X241317463Y-78339863D01*
X241240291Y-78347916D01*
X241170816Y-78375067D01*
X241128785Y-78408007D01*
X241085376Y-78472327D01*
X241064949Y-78548122D01*
X241061741Y-78599616D01*
X241061741Y-78775837D01*
X241068216Y-78849446D01*
X241093083Y-78922948D01*
X241128053Y-78971842D01*
X241191480Y-79016437D01*
X241266450Y-79037422D01*
X241317463Y-79040718D01*
X241390917Y-79031213D01*
X241445324Y-79010676D01*
X241508526Y-78969113D01*
X241550471Y-78926046D01*
X241701779Y-79072592D01*
X241650645Y-79127783D01*
X241602861Y-79163817D01*
X241536236Y-79198558D01*
X241470237Y-79220969D01*
X241394399Y-79235532D01*
X241319309Y-79240368D01*
X241314166Y-79240387D01*
G37*
G36*
X242104047Y-78267690D02*
G01*
X242314340Y-78267690D01*
X242314340Y-79225000D01*
X242104047Y-79225000D01*
X242104047Y-78267690D01*
G37*
G36*
X241793736Y-78155582D02*
G01*
X242624284Y-78155582D01*
X242624284Y-78344993D01*
X241793736Y-78344993D01*
X241793736Y-78155582D01*
G37*
G36*
X243021423Y-79035223D02*
G01*
X243417096Y-79035223D01*
X243489731Y-79018772D01*
X243513817Y-79000418D01*
X243545759Y-78931588D01*
X243547889Y-78901500D01*
X243547889Y-78898203D01*
X243533215Y-78823467D01*
X243513817Y-78794521D01*
X243446635Y-78759488D01*
X243417096Y-78757152D01*
X243021423Y-78757152D01*
X243021423Y-78567742D01*
X243417096Y-78567742D01*
X243489624Y-78548702D01*
X243499162Y-78540997D01*
X243527850Y-78473504D01*
X243528105Y-78464427D01*
X243510440Y-78391476D01*
X243499162Y-78376500D01*
X243431482Y-78345485D01*
X243418928Y-78344993D01*
X243021423Y-78344993D01*
X243021423Y-78155582D01*
X243426256Y-78155582D01*
X243505033Y-78161088D01*
X243580123Y-78180122D01*
X243647598Y-78216762D01*
X243658164Y-78225191D01*
X243708396Y-78285212D01*
X243734076Y-78354443D01*
X243740596Y-78421196D01*
X243730559Y-78494991D01*
X243697300Y-78561749D01*
X243679780Y-78582397D01*
X243617098Y-78629089D01*
X243548302Y-78655159D01*
X243508688Y-78663363D01*
X243584478Y-78685127D01*
X243652742Y-78722891D01*
X243694068Y-78760816D01*
X243734253Y-78822125D01*
X243755892Y-78893944D01*
X243760013Y-78947662D01*
X243760013Y-78950959D01*
X243751391Y-79026944D01*
X243721988Y-79097221D01*
X243671720Y-79153558D01*
X243602655Y-79194232D01*
X243524917Y-79216558D01*
X243442778Y-79224720D01*
X243422958Y-79225000D01*
X243021423Y-79225000D01*
X243021423Y-79035223D01*
G37*
G36*
X242897592Y-78155582D02*
G01*
X243106786Y-78155582D01*
X243106786Y-79225000D01*
X242897592Y-79225000D01*
X242897592Y-78155582D01*
G37*
G36*
X221164863Y-80675582D02*
G01*
X221375157Y-80675582D01*
X221375157Y-82179874D01*
X221164863Y-82179874D01*
X221164863Y-80675582D01*
G37*
G36*
X221644068Y-81760387D02*
G01*
X221567036Y-81752526D01*
X221493546Y-81726480D01*
X221469678Y-81712759D01*
X221412357Y-81663192D01*
X221369901Y-81598477D01*
X221360502Y-81577205D01*
X221375157Y-81353356D01*
X221383810Y-81428220D01*
X221399703Y-81470959D01*
X221446871Y-81528932D01*
X221471510Y-81545331D01*
X221541737Y-81567946D01*
X221585450Y-81570976D01*
X221662249Y-81560516D01*
X221727645Y-81525855D01*
X221746650Y-81507595D01*
X221785719Y-81442179D01*
X221801793Y-81370258D01*
X221803803Y-81328810D01*
X221803803Y-81096901D01*
X221797049Y-81022283D01*
X221771654Y-80950172D01*
X221746650Y-80914452D01*
X221687665Y-80870123D01*
X221616820Y-80851188D01*
X221585450Y-80849605D01*
X221509515Y-80859337D01*
X221471510Y-80874518D01*
X221415455Y-80921916D01*
X221399703Y-80947058D01*
X221378057Y-81017931D01*
X221375157Y-81061730D01*
X221353541Y-80855833D01*
X221393984Y-80791519D01*
X221447216Y-80735450D01*
X221479937Y-80711120D01*
X221546541Y-80677911D01*
X221618949Y-80661632D01*
X221654326Y-80659829D01*
X221728346Y-80665889D01*
X221800405Y-80686326D01*
X221848499Y-80711120D01*
X221907875Y-80760235D01*
X221951307Y-80819311D01*
X221971598Y-80859863D01*
X221995793Y-80931876D01*
X222009074Y-81005607D01*
X222014054Y-81087209D01*
X222014096Y-81095802D01*
X222014096Y-81328810D01*
X222010647Y-81402193D01*
X221998726Y-81476525D01*
X221975778Y-81549530D01*
X221970498Y-81561817D01*
X221932408Y-81627917D01*
X221878353Y-81684991D01*
X221843736Y-81709462D01*
X221776675Y-81740494D01*
X221700236Y-81757204D01*
X221644068Y-81760387D01*
G37*
G36*
X222738032Y-81760387D02*
G01*
X222659167Y-81756069D01*
X222587027Y-81743115D01*
X222514755Y-81718593D01*
X222488171Y-81705799D01*
X222422900Y-81662425D01*
X222369144Y-81607362D01*
X222330268Y-81547163D01*
X222301481Y-81477911D01*
X222283356Y-81400216D01*
X222276160Y-81323072D01*
X222275680Y-81295837D01*
X222275680Y-81119616D01*
X222279998Y-81041164D01*
X222294924Y-80961880D01*
X222320513Y-80890897D01*
X222330268Y-80871221D01*
X222373555Y-80806201D01*
X222428358Y-80752698D01*
X222488171Y-80714050D01*
X222557122Y-80685457D01*
X222634373Y-80667453D01*
X222710996Y-80660305D01*
X222738032Y-80659829D01*
X222814168Y-80664256D01*
X222890590Y-80678739D01*
X222895202Y-80679979D01*
X222965086Y-80704617D01*
X223027459Y-80738230D01*
X223087557Y-80786312D01*
X223125645Y-80830921D01*
X222974337Y-80967208D01*
X222918360Y-80916628D01*
X222868091Y-80887707D01*
X222798050Y-80865193D01*
X222741329Y-80859863D01*
X222664157Y-80867916D01*
X222594682Y-80895067D01*
X222552651Y-80928007D01*
X222509242Y-80992327D01*
X222488815Y-81068122D01*
X222485607Y-81119616D01*
X222485607Y-81295837D01*
X222492082Y-81369446D01*
X222516949Y-81442948D01*
X222551919Y-81491842D01*
X222615346Y-81536437D01*
X222690316Y-81557422D01*
X222741329Y-81560718D01*
X222814783Y-81551213D01*
X222869190Y-81530676D01*
X222932392Y-81489113D01*
X222974337Y-81446046D01*
X223125645Y-81592592D01*
X223074511Y-81647783D01*
X223026727Y-81683817D01*
X222960102Y-81718558D01*
X222894103Y-81740969D01*
X222818265Y-81755532D01*
X222743175Y-81760368D01*
X222738032Y-81760387D01*
G37*
G36*
X223830530Y-81760387D02*
G01*
X223753498Y-81752526D01*
X223680008Y-81726480D01*
X223656140Y-81712759D01*
X223598819Y-81663192D01*
X223556363Y-81598477D01*
X223546964Y-81577205D01*
X223561618Y-81353356D01*
X223570272Y-81428220D01*
X223586165Y-81470959D01*
X223633333Y-81528932D01*
X223657972Y-81545331D01*
X223728199Y-81567946D01*
X223771912Y-81570976D01*
X223848711Y-81560516D01*
X223914107Y-81525855D01*
X223933112Y-81507595D01*
X223972181Y-81442179D01*
X223988255Y-81370258D01*
X223990265Y-81328810D01*
X223990265Y-81096901D01*
X223983511Y-81022283D01*
X223958116Y-80950172D01*
X223933112Y-80914452D01*
X223874127Y-80870123D01*
X223803282Y-80851188D01*
X223771912Y-80849605D01*
X223695977Y-80859337D01*
X223657972Y-80874518D01*
X223601917Y-80921916D01*
X223586165Y-80947058D01*
X223564519Y-81017931D01*
X223561618Y-81061730D01*
X223540003Y-80855833D01*
X223580446Y-80791519D01*
X223633678Y-80735450D01*
X223666399Y-80711120D01*
X223733003Y-80677911D01*
X223805411Y-80661632D01*
X223840788Y-80659829D01*
X223914808Y-80665889D01*
X223986867Y-80686326D01*
X224034961Y-80711120D01*
X224094337Y-80760235D01*
X224137769Y-80819311D01*
X224158060Y-80859863D01*
X224182255Y-80931876D01*
X224195536Y-81005607D01*
X224200516Y-81087209D01*
X224200558Y-81095802D01*
X224200558Y-81328810D01*
X224197109Y-81402193D01*
X224185188Y-81476525D01*
X224162240Y-81549530D01*
X224156960Y-81561817D01*
X224118870Y-81627917D01*
X224064815Y-81684991D01*
X224030198Y-81709462D01*
X223963137Y-81740494D01*
X223886698Y-81757204D01*
X223830530Y-81760387D01*
G37*
G36*
X223351325Y-80246936D02*
G01*
X223561618Y-80246936D01*
X223561618Y-81745000D01*
X223351325Y-81745000D01*
X223351325Y-80246936D01*
G37*
G36*
X224770987Y-81750129D02*
G01*
X224696691Y-81743152D01*
X224625387Y-81716362D01*
X224580844Y-81678688D01*
X224541942Y-81609098D01*
X224524515Y-81532646D01*
X224520760Y-81466929D01*
X224520760Y-80364173D01*
X224731053Y-80364173D01*
X224731053Y-81468761D01*
X224746441Y-81529211D01*
X224791870Y-81550094D01*
X224892620Y-81550094D01*
X224892620Y-81750129D01*
X224770987Y-81750129D01*
G37*
G36*
X224410484Y-80675582D02*
G01*
X224892620Y-80675582D01*
X224892620Y-80864993D01*
X224410484Y-80864993D01*
X224410484Y-80675582D01*
G37*
G36*
X225615090Y-81760387D02*
G01*
X225535047Y-81755982D01*
X225461844Y-81742767D01*
X225388528Y-81717751D01*
X225361566Y-81704699D01*
X225295374Y-81660310D01*
X225240871Y-81603713D01*
X225201465Y-81541667D01*
X225172485Y-81469947D01*
X225155580Y-81397874D01*
X225147369Y-81318672D01*
X225146510Y-81281182D01*
X225146510Y-81160648D01*
X225149808Y-81084239D01*
X225161400Y-81005230D01*
X225181338Y-80933581D01*
X225199267Y-80889905D01*
X225237155Y-80824868D01*
X225289660Y-80765477D01*
X225353506Y-80718813D01*
X225420711Y-80687708D01*
X225495930Y-80668123D01*
X225570480Y-80660347D01*
X225596772Y-80659829D01*
X225676556Y-80666376D01*
X225748756Y-80686018D01*
X225819415Y-80722748D01*
X225825383Y-80726873D01*
X225885294Y-80780023D01*
X225930517Y-80840587D01*
X225966939Y-80912816D01*
X225970097Y-80920680D01*
X225994360Y-80995983D01*
X226009261Y-81069633D01*
X226017887Y-81149604D01*
X226020289Y-81224762D01*
X226020289Y-81294738D01*
X225298918Y-81294738D01*
X225298918Y-81125844D01*
X225820254Y-81125844D01*
X225809736Y-81049594D01*
X225787090Y-80978943D01*
X225752843Y-80922145D01*
X225694299Y-80872557D01*
X225620609Y-80850739D01*
X225596772Y-80849605D01*
X225520816Y-80858870D01*
X225452569Y-80890108D01*
X225411392Y-80928007D01*
X225371653Y-80995704D01*
X225351337Y-81073872D01*
X225346179Y-81149291D01*
X225346179Y-81285579D01*
X225353012Y-81362494D01*
X225376315Y-81433298D01*
X225416154Y-81489644D01*
X225477103Y-81532955D01*
X225547364Y-81555096D01*
X225615090Y-81560718D01*
X225690709Y-81551677D01*
X225741852Y-81535073D01*
X225808455Y-81499318D01*
X225854326Y-81462533D01*
X225992445Y-81600652D01*
X225935494Y-81648973D01*
X225873954Y-81689155D01*
X225814026Y-81718621D01*
X225739683Y-81744072D01*
X225665030Y-81757776D01*
X225615090Y-81760387D01*
G37*
G36*
X226906524Y-81066859D02*
G01*
X226897273Y-80989228D01*
X226863608Y-80919037D01*
X226850471Y-80903827D01*
X226787536Y-80862015D01*
X226710058Y-80846087D01*
X226691102Y-80845575D01*
X226616177Y-80852550D01*
X226565806Y-80865359D01*
X226498059Y-80893842D01*
X226457362Y-80919581D01*
X226303855Y-80814434D01*
X226359617Y-80760519D01*
X226422360Y-80720196D01*
X226463956Y-80700861D01*
X226535021Y-80677500D01*
X226611193Y-80663836D01*
X226684874Y-80659829D01*
X226764272Y-80664408D01*
X226843014Y-80680024D01*
X226912752Y-80706723D01*
X226977530Y-80747870D01*
X227029531Y-80800970D01*
X227057100Y-80843011D01*
X227087239Y-80914933D01*
X227102647Y-80989913D01*
X227106559Y-81057700D01*
X227106559Y-81745000D01*
X226906524Y-81745000D01*
X226906524Y-81066859D01*
G37*
G36*
X226644940Y-81760387D02*
G01*
X226563155Y-81756477D01*
X226481364Y-81742435D01*
X226412030Y-81718181D01*
X226348918Y-81678688D01*
X226297333Y-81619096D01*
X226267243Y-81551270D01*
X226252627Y-81469997D01*
X226251099Y-81429560D01*
X226256709Y-81355211D01*
X226276431Y-81283447D01*
X226314999Y-81218460D01*
X226340858Y-81191789D01*
X226405902Y-81149865D01*
X226479736Y-81125409D01*
X226557532Y-81114229D01*
X226611967Y-81112288D01*
X226915683Y-81112288D01*
X226930338Y-81281182D01*
X226613066Y-81281182D01*
X226537166Y-81291522D01*
X226489602Y-81317819D01*
X226453741Y-81382471D01*
X226448935Y-81429560D01*
X226464238Y-81504371D01*
X226503157Y-81550460D01*
X226571393Y-81579586D01*
X226647471Y-81588953D01*
X226667655Y-81589295D01*
X226743249Y-81586264D01*
X226818422Y-81573642D01*
X226847173Y-81563649D01*
X226901830Y-81511832D01*
X226906524Y-81483415D01*
X226928140Y-81633625D01*
X226879161Y-81689816D01*
X226859630Y-81704699D01*
X226791417Y-81738634D01*
X226765474Y-81746465D01*
X226689432Y-81758742D01*
X226644940Y-81760387D01*
G37*
G36*
X227851011Y-81760387D02*
G01*
X227772147Y-81756069D01*
X227700006Y-81743115D01*
X227627735Y-81718593D01*
X227601151Y-81705799D01*
X227535880Y-81662425D01*
X227482124Y-81607362D01*
X227443248Y-81547163D01*
X227414461Y-81477911D01*
X227396336Y-81400216D01*
X227389139Y-81323072D01*
X227388660Y-81295837D01*
X227388660Y-81119616D01*
X227392978Y-81041164D01*
X227407904Y-80961880D01*
X227433492Y-80890897D01*
X227443248Y-80871221D01*
X227486535Y-80806201D01*
X227541338Y-80752698D01*
X227601151Y-80714050D01*
X227670102Y-80685457D01*
X227747353Y-80667453D01*
X227823976Y-80660305D01*
X227851011Y-80659829D01*
X227927148Y-80664256D01*
X228003570Y-80678739D01*
X228008182Y-80679979D01*
X228078066Y-80704617D01*
X228140439Y-80738230D01*
X228200537Y-80786312D01*
X228238625Y-80830921D01*
X228087316Y-80967208D01*
X228031340Y-80916628D01*
X227981071Y-80887707D01*
X227911029Y-80865193D01*
X227854309Y-80859863D01*
X227777136Y-80867916D01*
X227707662Y-80895067D01*
X227665631Y-80928007D01*
X227622222Y-80992327D01*
X227601795Y-81068122D01*
X227598586Y-81119616D01*
X227598586Y-81295837D01*
X227605062Y-81369446D01*
X227629929Y-81442948D01*
X227664898Y-81491842D01*
X227728325Y-81536437D01*
X227803296Y-81557422D01*
X227854309Y-81560718D01*
X227927763Y-81551213D01*
X227982170Y-81530676D01*
X228045372Y-81489113D01*
X228087316Y-81446046D01*
X228238625Y-81592592D01*
X228187491Y-81647783D01*
X228139706Y-81683817D01*
X228073082Y-81718558D01*
X228007083Y-81740969D01*
X227931245Y-81755532D01*
X227856155Y-81760368D01*
X227851011Y-81760387D01*
G37*
G36*
X228464305Y-80246936D02*
G01*
X228674598Y-80246936D01*
X228674598Y-81745000D01*
X228464305Y-81745000D01*
X228464305Y-80246936D01*
G37*
G36*
X229113503Y-81096901D02*
G01*
X229105208Y-81019209D01*
X229077501Y-80951321D01*
X229054518Y-80921779D01*
X228994181Y-80879454D01*
X228921954Y-80861375D01*
X228890020Y-80859863D01*
X228813877Y-80868752D01*
X228745404Y-80901097D01*
X228730652Y-80913719D01*
X228688612Y-80978291D01*
X228674817Y-81052973D01*
X228674598Y-81065027D01*
X228652983Y-80858764D01*
X228694353Y-80793626D01*
X228748822Y-80736664D01*
X228782309Y-80711852D01*
X228849983Y-80678169D01*
X228923219Y-80661657D01*
X228958897Y-80659829D01*
X229040985Y-80666950D01*
X229113228Y-80688313D01*
X229182732Y-80729372D01*
X229228175Y-80773768D01*
X229270009Y-80836622D01*
X229299890Y-80911246D01*
X229316232Y-80986196D01*
X229323422Y-81070158D01*
X229323796Y-81095802D01*
X229323796Y-81745000D01*
X229113503Y-81745000D01*
X229113503Y-81096901D01*
G37*
G36*
X229600767Y-81524448D02*
G01*
X229820952Y-81524448D01*
X229820952Y-81745000D01*
X229600767Y-81745000D01*
X229600767Y-81524448D01*
G37*
G36*
X230111479Y-80675582D02*
G01*
X230321772Y-80675582D01*
X230321772Y-81745000D01*
X230111479Y-81745000D01*
X230111479Y-80675582D01*
G37*
G36*
X230699860Y-80928740D02*
G01*
X230639914Y-80882097D01*
X230629518Y-80877449D01*
X230555637Y-80860705D01*
X230532065Y-80859863D01*
X230458178Y-80868994D01*
X230391255Y-80902219D01*
X230376727Y-80915184D01*
X230335511Y-80980855D01*
X230321987Y-81055898D01*
X230321772Y-81067958D01*
X230300157Y-80862062D01*
X230341269Y-80796099D01*
X230394878Y-80738244D01*
X230427651Y-80712951D01*
X230494074Y-80678556D01*
X230565938Y-80661696D01*
X230600942Y-80659829D01*
X230674761Y-80665826D01*
X230733199Y-80681078D01*
X230801520Y-80715367D01*
X230836880Y-80743360D01*
X230699860Y-80928740D01*
G37*
G36*
X231652041Y-80675582D02*
G01*
X231861235Y-80675582D01*
X231861235Y-81745000D01*
X231652041Y-81745000D01*
X231652041Y-80675582D01*
G37*
G36*
X231217166Y-81325512D02*
G01*
X231225203Y-81402707D01*
X231254896Y-81474664D01*
X231274319Y-81499535D01*
X231338204Y-81543451D01*
X231410240Y-81559762D01*
X231435519Y-81560718D01*
X231511546Y-81551709D01*
X231580336Y-81518924D01*
X231595254Y-81506130D01*
X231636014Y-81444548D01*
X231651542Y-81368913D01*
X231652041Y-81350425D01*
X231666329Y-81573907D01*
X231629554Y-81638492D01*
X231576930Y-81693119D01*
X231558984Y-81706898D01*
X231493231Y-81741530D01*
X231416232Y-81758506D01*
X231376901Y-81760387D01*
X231303198Y-81754952D01*
X231228454Y-81735432D01*
X231156464Y-81696502D01*
X231103227Y-81646814D01*
X231061072Y-81584005D01*
X231030962Y-81509519D01*
X231014495Y-81434764D01*
X231007250Y-81351068D01*
X231006873Y-81325512D01*
X231006873Y-80675582D01*
X231217166Y-80675582D01*
X231217166Y-81325512D01*
G37*
D11*
X201754761Y-135000057D02*
X201659523Y-134952438D01*
X201659523Y-134952438D02*
X201564285Y-134857200D01*
X201564285Y-134857200D02*
X201421428Y-134714342D01*
X201421428Y-134714342D02*
X201326190Y-134666723D01*
X201326190Y-134666723D02*
X201230952Y-134666723D01*
X201278571Y-134904819D02*
X201183333Y-134857200D01*
X201183333Y-134857200D02*
X201088095Y-134761961D01*
X201088095Y-134761961D02*
X201040476Y-134571485D01*
X201040476Y-134571485D02*
X201040476Y-134238152D01*
X201040476Y-134238152D02*
X201088095Y-134047676D01*
X201088095Y-134047676D02*
X201183333Y-133952438D01*
X201183333Y-133952438D02*
X201278571Y-133904819D01*
X201278571Y-133904819D02*
X201469047Y-133904819D01*
X201469047Y-133904819D02*
X201564285Y-133952438D01*
X201564285Y-133952438D02*
X201659523Y-134047676D01*
X201659523Y-134047676D02*
X201707142Y-134238152D01*
X201707142Y-134238152D02*
X201707142Y-134571485D01*
X201707142Y-134571485D02*
X201659523Y-134761961D01*
X201659523Y-134761961D02*
X201564285Y-134857200D01*
X201564285Y-134857200D02*
X201469047Y-134904819D01*
X201469047Y-134904819D02*
X201278571Y-134904819D01*
X202040476Y-133904819D02*
X202659523Y-133904819D01*
X202659523Y-133904819D02*
X202326190Y-134285771D01*
X202326190Y-134285771D02*
X202469047Y-134285771D01*
X202469047Y-134285771D02*
X202564285Y-134333390D01*
X202564285Y-134333390D02*
X202611904Y-134381009D01*
X202611904Y-134381009D02*
X202659523Y-134476247D01*
X202659523Y-134476247D02*
X202659523Y-134714342D01*
X202659523Y-134714342D02*
X202611904Y-134809580D01*
X202611904Y-134809580D02*
X202564285Y-134857200D01*
X202564285Y-134857200D02*
X202469047Y-134904819D01*
X202469047Y-134904819D02*
X202183333Y-134904819D01*
X202183333Y-134904819D02*
X202088095Y-134857200D01*
X202088095Y-134857200D02*
X202040476Y-134809580D01*
X236367320Y-109224404D02*
X237176843Y-109224404D01*
X237176843Y-109224404D02*
X237272081Y-109176785D01*
X237272081Y-109176785D02*
X237319701Y-109129166D01*
X237319701Y-109129166D02*
X237367320Y-109033928D01*
X237367320Y-109033928D02*
X237367320Y-108843452D01*
X237367320Y-108843452D02*
X237319701Y-108748214D01*
X237319701Y-108748214D02*
X237272081Y-108700595D01*
X237272081Y-108700595D02*
X237176843Y-108652976D01*
X237176843Y-108652976D02*
X236367320Y-108652976D01*
X236367320Y-107700595D02*
X236367320Y-108176785D01*
X236367320Y-108176785D02*
X236843510Y-108224404D01*
X236843510Y-108224404D02*
X236795891Y-108176785D01*
X236795891Y-108176785D02*
X236748272Y-108081547D01*
X236748272Y-108081547D02*
X236748272Y-107843452D01*
X236748272Y-107843452D02*
X236795891Y-107748214D01*
X236795891Y-107748214D02*
X236843510Y-107700595D01*
X236843510Y-107700595D02*
X236938748Y-107652976D01*
X236938748Y-107652976D02*
X237176843Y-107652976D01*
X237176843Y-107652976D02*
X237272081Y-107700595D01*
X237272081Y-107700595D02*
X237319701Y-107748214D01*
X237319701Y-107748214D02*
X237367320Y-107843452D01*
X237367320Y-107843452D02*
X237367320Y-108081547D01*
X237367320Y-108081547D02*
X237319701Y-108176785D01*
X237319701Y-108176785D02*
X237272081Y-108224404D01*
X227957142Y-103429580D02*
X227909523Y-103477200D01*
X227909523Y-103477200D02*
X227766666Y-103524819D01*
X227766666Y-103524819D02*
X227671428Y-103524819D01*
X227671428Y-103524819D02*
X227528571Y-103477200D01*
X227528571Y-103477200D02*
X227433333Y-103381961D01*
X227433333Y-103381961D02*
X227385714Y-103286723D01*
X227385714Y-103286723D02*
X227338095Y-103096247D01*
X227338095Y-103096247D02*
X227338095Y-102953390D01*
X227338095Y-102953390D02*
X227385714Y-102762914D01*
X227385714Y-102762914D02*
X227433333Y-102667676D01*
X227433333Y-102667676D02*
X227528571Y-102572438D01*
X227528571Y-102572438D02*
X227671428Y-102524819D01*
X227671428Y-102524819D02*
X227766666Y-102524819D01*
X227766666Y-102524819D02*
X227909523Y-102572438D01*
X227909523Y-102572438D02*
X227957142Y-102620057D01*
X228909523Y-103524819D02*
X228338095Y-103524819D01*
X228623809Y-103524819D02*
X228623809Y-102524819D01*
X228623809Y-102524819D02*
X228528571Y-102667676D01*
X228528571Y-102667676D02*
X228433333Y-102762914D01*
X228433333Y-102762914D02*
X228338095Y-102810533D01*
X229528571Y-102524819D02*
X229623809Y-102524819D01*
X229623809Y-102524819D02*
X229719047Y-102572438D01*
X229719047Y-102572438D02*
X229766666Y-102620057D01*
X229766666Y-102620057D02*
X229814285Y-102715295D01*
X229814285Y-102715295D02*
X229861904Y-102905771D01*
X229861904Y-102905771D02*
X229861904Y-103143866D01*
X229861904Y-103143866D02*
X229814285Y-103334342D01*
X229814285Y-103334342D02*
X229766666Y-103429580D01*
X229766666Y-103429580D02*
X229719047Y-103477200D01*
X229719047Y-103477200D02*
X229623809Y-103524819D01*
X229623809Y-103524819D02*
X229528571Y-103524819D01*
X229528571Y-103524819D02*
X229433333Y-103477200D01*
X229433333Y-103477200D02*
X229385714Y-103429580D01*
X229385714Y-103429580D02*
X229338095Y-103334342D01*
X229338095Y-103334342D02*
X229290476Y-103143866D01*
X229290476Y-103143866D02*
X229290476Y-102905771D01*
X229290476Y-102905771D02*
X229338095Y-102715295D01*
X229338095Y-102715295D02*
X229385714Y-102620057D01*
X229385714Y-102620057D02*
X229433333Y-102572438D01*
X229433333Y-102572438D02*
X229528571Y-102524819D01*
X199338095Y-105407200D02*
X199480952Y-105454819D01*
X199480952Y-105454819D02*
X199719047Y-105454819D01*
X199719047Y-105454819D02*
X199814285Y-105407200D01*
X199814285Y-105407200D02*
X199861904Y-105359580D01*
X199861904Y-105359580D02*
X199909523Y-105264342D01*
X199909523Y-105264342D02*
X199909523Y-105169104D01*
X199909523Y-105169104D02*
X199861904Y-105073866D01*
X199861904Y-105073866D02*
X199814285Y-105026247D01*
X199814285Y-105026247D02*
X199719047Y-104978628D01*
X199719047Y-104978628D02*
X199528571Y-104931009D01*
X199528571Y-104931009D02*
X199433333Y-104883390D01*
X199433333Y-104883390D02*
X199385714Y-104835771D01*
X199385714Y-104835771D02*
X199338095Y-104740533D01*
X199338095Y-104740533D02*
X199338095Y-104645295D01*
X199338095Y-104645295D02*
X199385714Y-104550057D01*
X199385714Y-104550057D02*
X199433333Y-104502438D01*
X199433333Y-104502438D02*
X199528571Y-104454819D01*
X199528571Y-104454819D02*
X199766666Y-104454819D01*
X199766666Y-104454819D02*
X199909523Y-104502438D01*
X200671428Y-104931009D02*
X200814285Y-104978628D01*
X200814285Y-104978628D02*
X200861904Y-105026247D01*
X200861904Y-105026247D02*
X200909523Y-105121485D01*
X200909523Y-105121485D02*
X200909523Y-105264342D01*
X200909523Y-105264342D02*
X200861904Y-105359580D01*
X200861904Y-105359580D02*
X200814285Y-105407200D01*
X200814285Y-105407200D02*
X200719047Y-105454819D01*
X200719047Y-105454819D02*
X200338095Y-105454819D01*
X200338095Y-105454819D02*
X200338095Y-104454819D01*
X200338095Y-104454819D02*
X200671428Y-104454819D01*
X200671428Y-104454819D02*
X200766666Y-104502438D01*
X200766666Y-104502438D02*
X200814285Y-104550057D01*
X200814285Y-104550057D02*
X200861904Y-104645295D01*
X200861904Y-104645295D02*
X200861904Y-104740533D01*
X200861904Y-104740533D02*
X200814285Y-104835771D01*
X200814285Y-104835771D02*
X200766666Y-104883390D01*
X200766666Y-104883390D02*
X200671428Y-104931009D01*
X200671428Y-104931009D02*
X200338095Y-104931009D01*
X201814285Y-104454819D02*
X201338095Y-104454819D01*
X201338095Y-104454819D02*
X201290476Y-104931009D01*
X201290476Y-104931009D02*
X201338095Y-104883390D01*
X201338095Y-104883390D02*
X201433333Y-104835771D01*
X201433333Y-104835771D02*
X201671428Y-104835771D01*
X201671428Y-104835771D02*
X201766666Y-104883390D01*
X201766666Y-104883390D02*
X201814285Y-104931009D01*
X201814285Y-104931009D02*
X201861904Y-105026247D01*
X201861904Y-105026247D02*
X201861904Y-105264342D01*
X201861904Y-105264342D02*
X201814285Y-105359580D01*
X201814285Y-105359580D02*
X201766666Y-105407200D01*
X201766666Y-105407200D02*
X201671428Y-105454819D01*
X201671428Y-105454819D02*
X201433333Y-105454819D01*
X201433333Y-105454819D02*
X201338095Y-105407200D01*
X201338095Y-105407200D02*
X201290476Y-105359580D01*
X188190476Y-96454819D02*
X188857142Y-97454819D01*
X188857142Y-96454819D02*
X188190476Y-97454819D01*
X189666666Y-96788152D02*
X189666666Y-97454819D01*
X189428571Y-96407200D02*
X189190476Y-97121485D01*
X189190476Y-97121485D02*
X189809523Y-97121485D01*
X233567319Y-105642857D02*
X233091128Y-105976190D01*
X233567319Y-106214285D02*
X232567319Y-106214285D01*
X232567319Y-106214285D02*
X232567319Y-105833333D01*
X232567319Y-105833333D02*
X232614938Y-105738095D01*
X232614938Y-105738095D02*
X232662557Y-105690476D01*
X232662557Y-105690476D02*
X232757795Y-105642857D01*
X232757795Y-105642857D02*
X232900652Y-105642857D01*
X232900652Y-105642857D02*
X232995890Y-105690476D01*
X232995890Y-105690476D02*
X233043509Y-105738095D01*
X233043509Y-105738095D02*
X233091128Y-105833333D01*
X233091128Y-105833333D02*
X233091128Y-106214285D01*
X233567319Y-104690476D02*
X233567319Y-105261904D01*
X233567319Y-104976190D02*
X232567319Y-104976190D01*
X232567319Y-104976190D02*
X232710176Y-105071428D01*
X232710176Y-105071428D02*
X232805414Y-105166666D01*
X232805414Y-105166666D02*
X232853033Y-105261904D01*
X233567319Y-103738095D02*
X233567319Y-104309523D01*
X233567319Y-104023809D02*
X232567319Y-104023809D01*
X232567319Y-104023809D02*
X232710176Y-104119047D01*
X232710176Y-104119047D02*
X232805414Y-104214285D01*
X232805414Y-104214285D02*
X232853033Y-104309523D01*
X202104761Y-127087557D02*
X202009523Y-127039938D01*
X202009523Y-127039938D02*
X201914285Y-126944700D01*
X201914285Y-126944700D02*
X201771428Y-126801842D01*
X201771428Y-126801842D02*
X201676190Y-126754223D01*
X201676190Y-126754223D02*
X201580952Y-126754223D01*
X201628571Y-126992319D02*
X201533333Y-126944700D01*
X201533333Y-126944700D02*
X201438095Y-126849461D01*
X201438095Y-126849461D02*
X201390476Y-126658985D01*
X201390476Y-126658985D02*
X201390476Y-126325652D01*
X201390476Y-126325652D02*
X201438095Y-126135176D01*
X201438095Y-126135176D02*
X201533333Y-126039938D01*
X201533333Y-126039938D02*
X201628571Y-125992319D01*
X201628571Y-125992319D02*
X201819047Y-125992319D01*
X201819047Y-125992319D02*
X201914285Y-126039938D01*
X201914285Y-126039938D02*
X202009523Y-126135176D01*
X202009523Y-126135176D02*
X202057142Y-126325652D01*
X202057142Y-126325652D02*
X202057142Y-126658985D01*
X202057142Y-126658985D02*
X202009523Y-126849461D01*
X202009523Y-126849461D02*
X201914285Y-126944700D01*
X201914285Y-126944700D02*
X201819047Y-126992319D01*
X201819047Y-126992319D02*
X201628571Y-126992319D01*
X203009523Y-126992319D02*
X202438095Y-126992319D01*
X202723809Y-126992319D02*
X202723809Y-125992319D01*
X202723809Y-125992319D02*
X202628571Y-126135176D01*
X202628571Y-126135176D02*
X202533333Y-126230414D01*
X202533333Y-126230414D02*
X202438095Y-126278033D01*
X213071435Y-89194908D02*
X213119054Y-89052051D01*
X213119054Y-89052051D02*
X213119054Y-88813956D01*
X213119054Y-88813956D02*
X213071435Y-88718718D01*
X213071435Y-88718718D02*
X213023815Y-88671099D01*
X213023815Y-88671099D02*
X212928577Y-88623480D01*
X212928577Y-88623480D02*
X212833339Y-88623480D01*
X212833339Y-88623480D02*
X212738101Y-88671099D01*
X212738101Y-88671099D02*
X212690482Y-88718718D01*
X212690482Y-88718718D02*
X212642863Y-88813956D01*
X212642863Y-88813956D02*
X212595244Y-89004432D01*
X212595244Y-89004432D02*
X212547625Y-89099670D01*
X212547625Y-89099670D02*
X212500006Y-89147289D01*
X212500006Y-89147289D02*
X212404768Y-89194908D01*
X212404768Y-89194908D02*
X212309530Y-89194908D01*
X212309530Y-89194908D02*
X212214292Y-89147289D01*
X212214292Y-89147289D02*
X212166673Y-89099670D01*
X212166673Y-89099670D02*
X212119054Y-89004432D01*
X212119054Y-89004432D02*
X212119054Y-88766337D01*
X212119054Y-88766337D02*
X212166673Y-88623480D01*
X212595244Y-87861575D02*
X212642863Y-87718718D01*
X212642863Y-87718718D02*
X212690482Y-87671099D01*
X212690482Y-87671099D02*
X212785720Y-87623480D01*
X212785720Y-87623480D02*
X212928577Y-87623480D01*
X212928577Y-87623480D02*
X213023815Y-87671099D01*
X213023815Y-87671099D02*
X213071435Y-87718718D01*
X213071435Y-87718718D02*
X213119054Y-87813956D01*
X213119054Y-87813956D02*
X213119054Y-88194908D01*
X213119054Y-88194908D02*
X212119054Y-88194908D01*
X212119054Y-88194908D02*
X212119054Y-87861575D01*
X212119054Y-87861575D02*
X212166673Y-87766337D01*
X212166673Y-87766337D02*
X212214292Y-87718718D01*
X212214292Y-87718718D02*
X212309530Y-87671099D01*
X212309530Y-87671099D02*
X212404768Y-87671099D01*
X212404768Y-87671099D02*
X212500006Y-87718718D01*
X212500006Y-87718718D02*
X212547625Y-87766337D01*
X212547625Y-87766337D02*
X212595244Y-87861575D01*
X212595244Y-87861575D02*
X212595244Y-88194908D01*
X213119054Y-86671099D02*
X213119054Y-87242527D01*
X213119054Y-86956813D02*
X212119054Y-86956813D01*
X212119054Y-86956813D02*
X212261911Y-87052051D01*
X212261911Y-87052051D02*
X212357149Y-87147289D01*
X212357149Y-87147289D02*
X212404768Y-87242527D01*
X212214292Y-86290146D02*
X212166673Y-86242527D01*
X212166673Y-86242527D02*
X212119054Y-86147289D01*
X212119054Y-86147289D02*
X212119054Y-85909194D01*
X212119054Y-85909194D02*
X212166673Y-85813956D01*
X212166673Y-85813956D02*
X212214292Y-85766337D01*
X212214292Y-85766337D02*
X212309530Y-85718718D01*
X212309530Y-85718718D02*
X212404768Y-85718718D01*
X212404768Y-85718718D02*
X212547625Y-85766337D01*
X212547625Y-85766337D02*
X213119054Y-86337765D01*
X213119054Y-86337765D02*
X213119054Y-85718718D01*
X201250595Y-125207200D02*
X201393452Y-125254819D01*
X201393452Y-125254819D02*
X201631547Y-125254819D01*
X201631547Y-125254819D02*
X201726785Y-125207200D01*
X201726785Y-125207200D02*
X201774404Y-125159580D01*
X201774404Y-125159580D02*
X201822023Y-125064342D01*
X201822023Y-125064342D02*
X201822023Y-124969104D01*
X201822023Y-124969104D02*
X201774404Y-124873866D01*
X201774404Y-124873866D02*
X201726785Y-124826247D01*
X201726785Y-124826247D02*
X201631547Y-124778628D01*
X201631547Y-124778628D02*
X201441071Y-124731009D01*
X201441071Y-124731009D02*
X201345833Y-124683390D01*
X201345833Y-124683390D02*
X201298214Y-124635771D01*
X201298214Y-124635771D02*
X201250595Y-124540533D01*
X201250595Y-124540533D02*
X201250595Y-124445295D01*
X201250595Y-124445295D02*
X201298214Y-124350057D01*
X201298214Y-124350057D02*
X201345833Y-124302438D01*
X201345833Y-124302438D02*
X201441071Y-124254819D01*
X201441071Y-124254819D02*
X201679166Y-124254819D01*
X201679166Y-124254819D02*
X201822023Y-124302438D01*
X202583928Y-124731009D02*
X202726785Y-124778628D01*
X202726785Y-124778628D02*
X202774404Y-124826247D01*
X202774404Y-124826247D02*
X202822023Y-124921485D01*
X202822023Y-124921485D02*
X202822023Y-125064342D01*
X202822023Y-125064342D02*
X202774404Y-125159580D01*
X202774404Y-125159580D02*
X202726785Y-125207200D01*
X202726785Y-125207200D02*
X202631547Y-125254819D01*
X202631547Y-125254819D02*
X202250595Y-125254819D01*
X202250595Y-125254819D02*
X202250595Y-124254819D01*
X202250595Y-124254819D02*
X202583928Y-124254819D01*
X202583928Y-124254819D02*
X202679166Y-124302438D01*
X202679166Y-124302438D02*
X202726785Y-124350057D01*
X202726785Y-124350057D02*
X202774404Y-124445295D01*
X202774404Y-124445295D02*
X202774404Y-124540533D01*
X202774404Y-124540533D02*
X202726785Y-124635771D01*
X202726785Y-124635771D02*
X202679166Y-124683390D01*
X202679166Y-124683390D02*
X202583928Y-124731009D01*
X202583928Y-124731009D02*
X202250595Y-124731009D01*
X203774404Y-125254819D02*
X203202976Y-125254819D01*
X203488690Y-125254819D02*
X203488690Y-124254819D01*
X203488690Y-124254819D02*
X203393452Y-124397676D01*
X203393452Y-124397676D02*
X203298214Y-124492914D01*
X203298214Y-124492914D02*
X203202976Y-124540533D01*
X229607200Y-121533332D02*
X229654819Y-121390475D01*
X229654819Y-121390475D02*
X229654819Y-121152380D01*
X229654819Y-121152380D02*
X229607200Y-121057142D01*
X229607200Y-121057142D02*
X229559580Y-121009523D01*
X229559580Y-121009523D02*
X229464342Y-120961904D01*
X229464342Y-120961904D02*
X229369104Y-120961904D01*
X229369104Y-120961904D02*
X229273866Y-121009523D01*
X229273866Y-121009523D02*
X229226247Y-121057142D01*
X229226247Y-121057142D02*
X229178628Y-121152380D01*
X229178628Y-121152380D02*
X229131009Y-121342856D01*
X229131009Y-121342856D02*
X229083390Y-121438094D01*
X229083390Y-121438094D02*
X229035771Y-121485713D01*
X229035771Y-121485713D02*
X228940533Y-121533332D01*
X228940533Y-121533332D02*
X228845295Y-121533332D01*
X228845295Y-121533332D02*
X228750057Y-121485713D01*
X228750057Y-121485713D02*
X228702438Y-121438094D01*
X228702438Y-121438094D02*
X228654819Y-121342856D01*
X228654819Y-121342856D02*
X228654819Y-121104761D01*
X228654819Y-121104761D02*
X228702438Y-120961904D01*
X228654819Y-120628570D02*
X229654819Y-120390475D01*
X229654819Y-120390475D02*
X228940533Y-120199999D01*
X228940533Y-120199999D02*
X229654819Y-120009523D01*
X229654819Y-120009523D02*
X228654819Y-119771428D01*
X229654819Y-118866666D02*
X229654819Y-119438094D01*
X229654819Y-119152380D02*
X228654819Y-119152380D01*
X228654819Y-119152380D02*
X228797676Y-119247618D01*
X228797676Y-119247618D02*
X228892914Y-119342856D01*
X228892914Y-119342856D02*
X228940533Y-119438094D01*
X195120833Y-109054820D02*
X194787500Y-108578629D01*
X194549405Y-109054820D02*
X194549405Y-108054820D01*
X194549405Y-108054820D02*
X194930357Y-108054820D01*
X194930357Y-108054820D02*
X195025595Y-108102439D01*
X195025595Y-108102439D02*
X195073214Y-108150058D01*
X195073214Y-108150058D02*
X195120833Y-108245296D01*
X195120833Y-108245296D02*
X195120833Y-108388153D01*
X195120833Y-108388153D02*
X195073214Y-108483391D01*
X195073214Y-108483391D02*
X195025595Y-108531010D01*
X195025595Y-108531010D02*
X194930357Y-108578629D01*
X194930357Y-108578629D02*
X194549405Y-108578629D01*
X195454167Y-108054820D02*
X196120833Y-108054820D01*
X196120833Y-108054820D02*
X195692262Y-109054820D01*
X237632140Y-113884583D02*
X237584521Y-113932203D01*
X237584521Y-113932203D02*
X237441664Y-113979822D01*
X237441664Y-113979822D02*
X237346426Y-113979822D01*
X237346426Y-113979822D02*
X237203569Y-113932203D01*
X237203569Y-113932203D02*
X237108331Y-113836964D01*
X237108331Y-113836964D02*
X237060712Y-113741726D01*
X237060712Y-113741726D02*
X237013093Y-113551250D01*
X237013093Y-113551250D02*
X237013093Y-113408393D01*
X237013093Y-113408393D02*
X237060712Y-113217917D01*
X237060712Y-113217917D02*
X237108331Y-113122679D01*
X237108331Y-113122679D02*
X237203569Y-113027441D01*
X237203569Y-113027441D02*
X237346426Y-112979822D01*
X237346426Y-112979822D02*
X237441664Y-112979822D01*
X237441664Y-112979822D02*
X237584521Y-113027441D01*
X237584521Y-113027441D02*
X237632140Y-113075060D01*
X238584521Y-113979822D02*
X238013093Y-113979822D01*
X238298807Y-113979822D02*
X238298807Y-112979822D01*
X238298807Y-112979822D02*
X238203569Y-113122679D01*
X238203569Y-113122679D02*
X238108331Y-113217917D01*
X238108331Y-113217917D02*
X238013093Y-113265536D01*
X238965474Y-113075060D02*
X239013093Y-113027441D01*
X239013093Y-113027441D02*
X239108331Y-112979822D01*
X239108331Y-112979822D02*
X239346426Y-112979822D01*
X239346426Y-112979822D02*
X239441664Y-113027441D01*
X239441664Y-113027441D02*
X239489283Y-113075060D01*
X239489283Y-113075060D02*
X239536902Y-113170298D01*
X239536902Y-113170298D02*
X239536902Y-113265536D01*
X239536902Y-113265536D02*
X239489283Y-113408393D01*
X239489283Y-113408393D02*
X238917855Y-113979822D01*
X238917855Y-113979822D02*
X239536902Y-113979822D01*
X203563095Y-88619819D02*
X203563095Y-89429342D01*
X203563095Y-89429342D02*
X203610714Y-89524580D01*
X203610714Y-89524580D02*
X203658333Y-89572200D01*
X203658333Y-89572200D02*
X203753571Y-89619819D01*
X203753571Y-89619819D02*
X203944047Y-89619819D01*
X203944047Y-89619819D02*
X204039285Y-89572200D01*
X204039285Y-89572200D02*
X204086904Y-89524580D01*
X204086904Y-89524580D02*
X204134523Y-89429342D01*
X204134523Y-89429342D02*
X204134523Y-88619819D01*
X204563095Y-88715057D02*
X204610714Y-88667438D01*
X204610714Y-88667438D02*
X204705952Y-88619819D01*
X204705952Y-88619819D02*
X204944047Y-88619819D01*
X204944047Y-88619819D02*
X205039285Y-88667438D01*
X205039285Y-88667438D02*
X205086904Y-88715057D01*
X205086904Y-88715057D02*
X205134523Y-88810295D01*
X205134523Y-88810295D02*
X205134523Y-88905533D01*
X205134523Y-88905533D02*
X205086904Y-89048390D01*
X205086904Y-89048390D02*
X204515476Y-89619819D01*
X204515476Y-89619819D02*
X205134523Y-89619819D01*
X203125595Y-107854819D02*
X203125595Y-108664342D01*
X203125595Y-108664342D02*
X203173214Y-108759580D01*
X203173214Y-108759580D02*
X203220833Y-108807200D01*
X203220833Y-108807200D02*
X203316071Y-108854819D01*
X203316071Y-108854819D02*
X203506547Y-108854819D01*
X203506547Y-108854819D02*
X203601785Y-108807200D01*
X203601785Y-108807200D02*
X203649404Y-108759580D01*
X203649404Y-108759580D02*
X203697023Y-108664342D01*
X203697023Y-108664342D02*
X203697023Y-107854819D01*
X204077976Y-107854819D02*
X204697023Y-107854819D01*
X204697023Y-107854819D02*
X204363690Y-108235771D01*
X204363690Y-108235771D02*
X204506547Y-108235771D01*
X204506547Y-108235771D02*
X204601785Y-108283390D01*
X204601785Y-108283390D02*
X204649404Y-108331009D01*
X204649404Y-108331009D02*
X204697023Y-108426247D01*
X204697023Y-108426247D02*
X204697023Y-108664342D01*
X204697023Y-108664342D02*
X204649404Y-108759580D01*
X204649404Y-108759580D02*
X204601785Y-108807200D01*
X204601785Y-108807200D02*
X204506547Y-108854819D01*
X204506547Y-108854819D02*
X204220833Y-108854819D01*
X204220833Y-108854819D02*
X204125595Y-108807200D01*
X204125595Y-108807200D02*
X204077976Y-108759580D01*
X214556391Y-130600217D02*
X214080200Y-130933550D01*
X214556391Y-131171645D02*
X213556391Y-131171645D01*
X213556391Y-131171645D02*
X213556391Y-130790693D01*
X213556391Y-130790693D02*
X213604010Y-130695455D01*
X213604010Y-130695455D02*
X213651629Y-130647836D01*
X213651629Y-130647836D02*
X213746867Y-130600217D01*
X213746867Y-130600217D02*
X213889724Y-130600217D01*
X213889724Y-130600217D02*
X213984962Y-130647836D01*
X213984962Y-130647836D02*
X214032581Y-130695455D01*
X214032581Y-130695455D02*
X214080200Y-130790693D01*
X214080200Y-130790693D02*
X214080200Y-131171645D01*
X214556391Y-129647836D02*
X214556391Y-130219264D01*
X214556391Y-129933550D02*
X213556391Y-129933550D01*
X213556391Y-129933550D02*
X213699248Y-130028788D01*
X213699248Y-130028788D02*
X213794486Y-130124026D01*
X213794486Y-130124026D02*
X213842105Y-130219264D01*
X213556391Y-129314502D02*
X213556391Y-128647836D01*
X213556391Y-128647836D02*
X214556391Y-129076407D01*
X194145834Y-120254818D02*
X193812501Y-119778627D01*
X193574406Y-120254818D02*
X193574406Y-119254818D01*
X193574406Y-119254818D02*
X193955358Y-119254818D01*
X193955358Y-119254818D02*
X194050596Y-119302437D01*
X194050596Y-119302437D02*
X194098215Y-119350056D01*
X194098215Y-119350056D02*
X194145834Y-119445294D01*
X194145834Y-119445294D02*
X194145834Y-119588151D01*
X194145834Y-119588151D02*
X194098215Y-119683389D01*
X194098215Y-119683389D02*
X194050596Y-119731008D01*
X194050596Y-119731008D02*
X193955358Y-119778627D01*
X193955358Y-119778627D02*
X193574406Y-119778627D01*
X195002977Y-119588151D02*
X195002977Y-120254818D01*
X194764882Y-119207199D02*
X194526787Y-119921484D01*
X194526787Y-119921484D02*
X195145834Y-119921484D01*
X218359580Y-96266666D02*
X218407200Y-96314285D01*
X218407200Y-96314285D02*
X218454819Y-96457142D01*
X218454819Y-96457142D02*
X218454819Y-96552380D01*
X218454819Y-96552380D02*
X218407200Y-96695237D01*
X218407200Y-96695237D02*
X218311961Y-96790475D01*
X218311961Y-96790475D02*
X218216723Y-96838094D01*
X218216723Y-96838094D02*
X218026247Y-96885713D01*
X218026247Y-96885713D02*
X217883390Y-96885713D01*
X217883390Y-96885713D02*
X217692914Y-96838094D01*
X217692914Y-96838094D02*
X217597676Y-96790475D01*
X217597676Y-96790475D02*
X217502438Y-96695237D01*
X217502438Y-96695237D02*
X217454819Y-96552380D01*
X217454819Y-96552380D02*
X217454819Y-96457142D01*
X217454819Y-96457142D02*
X217502438Y-96314285D01*
X217502438Y-96314285D02*
X217550057Y-96266666D01*
X218454819Y-95790475D02*
X218454819Y-95599999D01*
X218454819Y-95599999D02*
X218407200Y-95504761D01*
X218407200Y-95504761D02*
X218359580Y-95457142D01*
X218359580Y-95457142D02*
X218216723Y-95361904D01*
X218216723Y-95361904D02*
X218026247Y-95314285D01*
X218026247Y-95314285D02*
X217645295Y-95314285D01*
X217645295Y-95314285D02*
X217550057Y-95361904D01*
X217550057Y-95361904D02*
X217502438Y-95409523D01*
X217502438Y-95409523D02*
X217454819Y-95504761D01*
X217454819Y-95504761D02*
X217454819Y-95695237D01*
X217454819Y-95695237D02*
X217502438Y-95790475D01*
X217502438Y-95790475D02*
X217550057Y-95838094D01*
X217550057Y-95838094D02*
X217645295Y-95885713D01*
X217645295Y-95885713D02*
X217883390Y-95885713D01*
X217883390Y-95885713D02*
X217978628Y-95838094D01*
X217978628Y-95838094D02*
X218026247Y-95790475D01*
X218026247Y-95790475D02*
X218073866Y-95695237D01*
X218073866Y-95695237D02*
X218073866Y-95504761D01*
X218073866Y-95504761D02*
X218026247Y-95409523D01*
X218026247Y-95409523D02*
X217978628Y-95361904D01*
X217978628Y-95361904D02*
X217883390Y-95314285D01*
X220283956Y-130529506D02*
X219807765Y-130862839D01*
X220283956Y-131100934D02*
X219283956Y-131100934D01*
X219283956Y-131100934D02*
X219283956Y-130719982D01*
X219283956Y-130719982D02*
X219331575Y-130624744D01*
X219331575Y-130624744D02*
X219379194Y-130577125D01*
X219379194Y-130577125D02*
X219474432Y-130529506D01*
X219474432Y-130529506D02*
X219617289Y-130529506D01*
X219617289Y-130529506D02*
X219712527Y-130577125D01*
X219712527Y-130577125D02*
X219760146Y-130624744D01*
X219760146Y-130624744D02*
X219807765Y-130719982D01*
X219807765Y-130719982D02*
X219807765Y-131100934D01*
X220283956Y-129577125D02*
X220283956Y-130148553D01*
X220283956Y-129862839D02*
X219283956Y-129862839D01*
X219283956Y-129862839D02*
X219426813Y-129958077D01*
X219426813Y-129958077D02*
X219522051Y-130053315D01*
X219522051Y-130053315D02*
X219569670Y-130148553D01*
X220283956Y-129100934D02*
X220283956Y-128910458D01*
X220283956Y-128910458D02*
X220236337Y-128815220D01*
X220236337Y-128815220D02*
X220188717Y-128767601D01*
X220188717Y-128767601D02*
X220045860Y-128672363D01*
X220045860Y-128672363D02*
X219855384Y-128624744D01*
X219855384Y-128624744D02*
X219474432Y-128624744D01*
X219474432Y-128624744D02*
X219379194Y-128672363D01*
X219379194Y-128672363D02*
X219331575Y-128719982D01*
X219331575Y-128719982D02*
X219283956Y-128815220D01*
X219283956Y-128815220D02*
X219283956Y-129005696D01*
X219283956Y-129005696D02*
X219331575Y-129100934D01*
X219331575Y-129100934D02*
X219379194Y-129148553D01*
X219379194Y-129148553D02*
X219474432Y-129196172D01*
X219474432Y-129196172D02*
X219712527Y-129196172D01*
X219712527Y-129196172D02*
X219807765Y-129148553D01*
X219807765Y-129148553D02*
X219855384Y-129100934D01*
X219855384Y-129100934D02*
X219903003Y-129005696D01*
X219903003Y-129005696D02*
X219903003Y-128815220D01*
X219903003Y-128815220D02*
X219855384Y-128719982D01*
X219855384Y-128719982D02*
X219807765Y-128672363D01*
X219807765Y-128672363D02*
X219712527Y-128624744D01*
X195120833Y-107654819D02*
X194787500Y-107178628D01*
X194549405Y-107654819D02*
X194549405Y-106654819D01*
X194549405Y-106654819D02*
X194930357Y-106654819D01*
X194930357Y-106654819D02*
X195025595Y-106702438D01*
X195025595Y-106702438D02*
X195073214Y-106750057D01*
X195073214Y-106750057D02*
X195120833Y-106845295D01*
X195120833Y-106845295D02*
X195120833Y-106988152D01*
X195120833Y-106988152D02*
X195073214Y-107083390D01*
X195073214Y-107083390D02*
X195025595Y-107131009D01*
X195025595Y-107131009D02*
X194930357Y-107178628D01*
X194930357Y-107178628D02*
X194549405Y-107178628D01*
X195692262Y-107083390D02*
X195597024Y-107035771D01*
X195597024Y-107035771D02*
X195549405Y-106988152D01*
X195549405Y-106988152D02*
X195501786Y-106892914D01*
X195501786Y-106892914D02*
X195501786Y-106845295D01*
X195501786Y-106845295D02*
X195549405Y-106750057D01*
X195549405Y-106750057D02*
X195597024Y-106702438D01*
X195597024Y-106702438D02*
X195692262Y-106654819D01*
X195692262Y-106654819D02*
X195882738Y-106654819D01*
X195882738Y-106654819D02*
X195977976Y-106702438D01*
X195977976Y-106702438D02*
X196025595Y-106750057D01*
X196025595Y-106750057D02*
X196073214Y-106845295D01*
X196073214Y-106845295D02*
X196073214Y-106892914D01*
X196073214Y-106892914D02*
X196025595Y-106988152D01*
X196025595Y-106988152D02*
X195977976Y-107035771D01*
X195977976Y-107035771D02*
X195882738Y-107083390D01*
X195882738Y-107083390D02*
X195692262Y-107083390D01*
X195692262Y-107083390D02*
X195597024Y-107131009D01*
X195597024Y-107131009D02*
X195549405Y-107178628D01*
X195549405Y-107178628D02*
X195501786Y-107273866D01*
X195501786Y-107273866D02*
X195501786Y-107464342D01*
X195501786Y-107464342D02*
X195549405Y-107559580D01*
X195549405Y-107559580D02*
X195597024Y-107607200D01*
X195597024Y-107607200D02*
X195692262Y-107654819D01*
X195692262Y-107654819D02*
X195882738Y-107654819D01*
X195882738Y-107654819D02*
X195977976Y-107607200D01*
X195977976Y-107607200D02*
X196025595Y-107559580D01*
X196025595Y-107559580D02*
X196073214Y-107464342D01*
X196073214Y-107464342D02*
X196073214Y-107273866D01*
X196073214Y-107273866D02*
X196025595Y-107178628D01*
X196025595Y-107178628D02*
X195977976Y-107131009D01*
X195977976Y-107131009D02*
X195882738Y-107083390D01*
X207054818Y-128854166D02*
X206578627Y-129187499D01*
X207054818Y-129425594D02*
X206054818Y-129425594D01*
X206054818Y-129425594D02*
X206054818Y-129044642D01*
X206054818Y-129044642D02*
X206102437Y-128949404D01*
X206102437Y-128949404D02*
X206150056Y-128901785D01*
X206150056Y-128901785D02*
X206245294Y-128854166D01*
X206245294Y-128854166D02*
X206388151Y-128854166D01*
X206388151Y-128854166D02*
X206483389Y-128901785D01*
X206483389Y-128901785D02*
X206531008Y-128949404D01*
X206531008Y-128949404D02*
X206578627Y-129044642D01*
X206578627Y-129044642D02*
X206578627Y-129425594D01*
X206054818Y-128520832D02*
X206054818Y-127901785D01*
X206054818Y-127901785D02*
X206435770Y-128235118D01*
X206435770Y-128235118D02*
X206435770Y-128092261D01*
X206435770Y-128092261D02*
X206483389Y-127997023D01*
X206483389Y-127997023D02*
X206531008Y-127949404D01*
X206531008Y-127949404D02*
X206626246Y-127901785D01*
X206626246Y-127901785D02*
X206864341Y-127901785D01*
X206864341Y-127901785D02*
X206959579Y-127949404D01*
X206959579Y-127949404D02*
X207007199Y-127997023D01*
X207007199Y-127997023D02*
X207054818Y-128092261D01*
X207054818Y-128092261D02*
X207054818Y-128377975D01*
X207054818Y-128377975D02*
X207007199Y-128473213D01*
X207007199Y-128473213D02*
X206959579Y-128520832D01*
X210833333Y-112259580D02*
X210785714Y-112307200D01*
X210785714Y-112307200D02*
X210642857Y-112354819D01*
X210642857Y-112354819D02*
X210547619Y-112354819D01*
X210547619Y-112354819D02*
X210404762Y-112307200D01*
X210404762Y-112307200D02*
X210309524Y-112211961D01*
X210309524Y-112211961D02*
X210261905Y-112116723D01*
X210261905Y-112116723D02*
X210214286Y-111926247D01*
X210214286Y-111926247D02*
X210214286Y-111783390D01*
X210214286Y-111783390D02*
X210261905Y-111592914D01*
X210261905Y-111592914D02*
X210309524Y-111497676D01*
X210309524Y-111497676D02*
X210404762Y-111402438D01*
X210404762Y-111402438D02*
X210547619Y-111354819D01*
X210547619Y-111354819D02*
X210642857Y-111354819D01*
X210642857Y-111354819D02*
X210785714Y-111402438D01*
X210785714Y-111402438D02*
X210833333Y-111450057D01*
X211690476Y-111354819D02*
X211500000Y-111354819D01*
X211500000Y-111354819D02*
X211404762Y-111402438D01*
X211404762Y-111402438D02*
X211357143Y-111450057D01*
X211357143Y-111450057D02*
X211261905Y-111592914D01*
X211261905Y-111592914D02*
X211214286Y-111783390D01*
X211214286Y-111783390D02*
X211214286Y-112164342D01*
X211214286Y-112164342D02*
X211261905Y-112259580D01*
X211261905Y-112259580D02*
X211309524Y-112307200D01*
X211309524Y-112307200D02*
X211404762Y-112354819D01*
X211404762Y-112354819D02*
X211595238Y-112354819D01*
X211595238Y-112354819D02*
X211690476Y-112307200D01*
X211690476Y-112307200D02*
X211738095Y-112259580D01*
X211738095Y-112259580D02*
X211785714Y-112164342D01*
X211785714Y-112164342D02*
X211785714Y-111926247D01*
X211785714Y-111926247D02*
X211738095Y-111831009D01*
X211738095Y-111831009D02*
X211690476Y-111783390D01*
X211690476Y-111783390D02*
X211595238Y-111735771D01*
X211595238Y-111735771D02*
X211404762Y-111735771D01*
X211404762Y-111735771D02*
X211309524Y-111783390D01*
X211309524Y-111783390D02*
X211261905Y-111831009D01*
X211261905Y-111831009D02*
X211214286Y-111926247D01*
X213033333Y-102059580D02*
X212985714Y-102107200D01*
X212985714Y-102107200D02*
X212842857Y-102154819D01*
X212842857Y-102154819D02*
X212747619Y-102154819D01*
X212747619Y-102154819D02*
X212604762Y-102107200D01*
X212604762Y-102107200D02*
X212509524Y-102011961D01*
X212509524Y-102011961D02*
X212461905Y-101916723D01*
X212461905Y-101916723D02*
X212414286Y-101726247D01*
X212414286Y-101726247D02*
X212414286Y-101583390D01*
X212414286Y-101583390D02*
X212461905Y-101392914D01*
X212461905Y-101392914D02*
X212509524Y-101297676D01*
X212509524Y-101297676D02*
X212604762Y-101202438D01*
X212604762Y-101202438D02*
X212747619Y-101154819D01*
X212747619Y-101154819D02*
X212842857Y-101154819D01*
X212842857Y-101154819D02*
X212985714Y-101202438D01*
X212985714Y-101202438D02*
X213033333Y-101250057D01*
X213604762Y-101583390D02*
X213509524Y-101535771D01*
X213509524Y-101535771D02*
X213461905Y-101488152D01*
X213461905Y-101488152D02*
X213414286Y-101392914D01*
X213414286Y-101392914D02*
X213414286Y-101345295D01*
X213414286Y-101345295D02*
X213461905Y-101250057D01*
X213461905Y-101250057D02*
X213509524Y-101202438D01*
X213509524Y-101202438D02*
X213604762Y-101154819D01*
X213604762Y-101154819D02*
X213795238Y-101154819D01*
X213795238Y-101154819D02*
X213890476Y-101202438D01*
X213890476Y-101202438D02*
X213938095Y-101250057D01*
X213938095Y-101250057D02*
X213985714Y-101345295D01*
X213985714Y-101345295D02*
X213985714Y-101392914D01*
X213985714Y-101392914D02*
X213938095Y-101488152D01*
X213938095Y-101488152D02*
X213890476Y-101535771D01*
X213890476Y-101535771D02*
X213795238Y-101583390D01*
X213795238Y-101583390D02*
X213604762Y-101583390D01*
X213604762Y-101583390D02*
X213509524Y-101631009D01*
X213509524Y-101631009D02*
X213461905Y-101678628D01*
X213461905Y-101678628D02*
X213414286Y-101773866D01*
X213414286Y-101773866D02*
X213414286Y-101964342D01*
X213414286Y-101964342D02*
X213461905Y-102059580D01*
X213461905Y-102059580D02*
X213509524Y-102107200D01*
X213509524Y-102107200D02*
X213604762Y-102154819D01*
X213604762Y-102154819D02*
X213795238Y-102154819D01*
X213795238Y-102154819D02*
X213890476Y-102107200D01*
X213890476Y-102107200D02*
X213938095Y-102059580D01*
X213938095Y-102059580D02*
X213985714Y-101964342D01*
X213985714Y-101964342D02*
X213985714Y-101773866D01*
X213985714Y-101773866D02*
X213938095Y-101678628D01*
X213938095Y-101678628D02*
X213890476Y-101631009D01*
X213890476Y-101631009D02*
X213795238Y-101583390D01*
X202425595Y-113837200D02*
X202568452Y-113884819D01*
X202568452Y-113884819D02*
X202806547Y-113884819D01*
X202806547Y-113884819D02*
X202901785Y-113837200D01*
X202901785Y-113837200D02*
X202949404Y-113789580D01*
X202949404Y-113789580D02*
X202997023Y-113694342D01*
X202997023Y-113694342D02*
X202997023Y-113599104D01*
X202997023Y-113599104D02*
X202949404Y-113503866D01*
X202949404Y-113503866D02*
X202901785Y-113456247D01*
X202901785Y-113456247D02*
X202806547Y-113408628D01*
X202806547Y-113408628D02*
X202616071Y-113361009D01*
X202616071Y-113361009D02*
X202520833Y-113313390D01*
X202520833Y-113313390D02*
X202473214Y-113265771D01*
X202473214Y-113265771D02*
X202425595Y-113170533D01*
X202425595Y-113170533D02*
X202425595Y-113075295D01*
X202425595Y-113075295D02*
X202473214Y-112980057D01*
X202473214Y-112980057D02*
X202520833Y-112932438D01*
X202520833Y-112932438D02*
X202616071Y-112884819D01*
X202616071Y-112884819D02*
X202854166Y-112884819D01*
X202854166Y-112884819D02*
X202997023Y-112932438D01*
X203758928Y-113361009D02*
X203901785Y-113408628D01*
X203901785Y-113408628D02*
X203949404Y-113456247D01*
X203949404Y-113456247D02*
X203997023Y-113551485D01*
X203997023Y-113551485D02*
X203997023Y-113694342D01*
X203997023Y-113694342D02*
X203949404Y-113789580D01*
X203949404Y-113789580D02*
X203901785Y-113837200D01*
X203901785Y-113837200D02*
X203806547Y-113884819D01*
X203806547Y-113884819D02*
X203425595Y-113884819D01*
X203425595Y-113884819D02*
X203425595Y-112884819D01*
X203425595Y-112884819D02*
X203758928Y-112884819D01*
X203758928Y-112884819D02*
X203854166Y-112932438D01*
X203854166Y-112932438D02*
X203901785Y-112980057D01*
X203901785Y-112980057D02*
X203949404Y-113075295D01*
X203949404Y-113075295D02*
X203949404Y-113170533D01*
X203949404Y-113170533D02*
X203901785Y-113265771D01*
X203901785Y-113265771D02*
X203854166Y-113313390D01*
X203854166Y-113313390D02*
X203758928Y-113361009D01*
X203758928Y-113361009D02*
X203425595Y-113361009D01*
X204854166Y-113218152D02*
X204854166Y-113884819D01*
X204616071Y-112837200D02*
X204377976Y-113551485D01*
X204377976Y-113551485D02*
X204997023Y-113551485D01*
X194958333Y-101124580D02*
X194910714Y-101172200D01*
X194910714Y-101172200D02*
X194767857Y-101219819D01*
X194767857Y-101219819D02*
X194672619Y-101219819D01*
X194672619Y-101219819D02*
X194529762Y-101172200D01*
X194529762Y-101172200D02*
X194434524Y-101076961D01*
X194434524Y-101076961D02*
X194386905Y-100981723D01*
X194386905Y-100981723D02*
X194339286Y-100791247D01*
X194339286Y-100791247D02*
X194339286Y-100648390D01*
X194339286Y-100648390D02*
X194386905Y-100457914D01*
X194386905Y-100457914D02*
X194434524Y-100362676D01*
X194434524Y-100362676D02*
X194529762Y-100267438D01*
X194529762Y-100267438D02*
X194672619Y-100219819D01*
X194672619Y-100219819D02*
X194767857Y-100219819D01*
X194767857Y-100219819D02*
X194910714Y-100267438D01*
X194910714Y-100267438D02*
X194958333Y-100315057D01*
X195291667Y-100219819D02*
X195910714Y-100219819D01*
X195910714Y-100219819D02*
X195577381Y-100600771D01*
X195577381Y-100600771D02*
X195720238Y-100600771D01*
X195720238Y-100600771D02*
X195815476Y-100648390D01*
X195815476Y-100648390D02*
X195863095Y-100696009D01*
X195863095Y-100696009D02*
X195910714Y-100791247D01*
X195910714Y-100791247D02*
X195910714Y-101029342D01*
X195910714Y-101029342D02*
X195863095Y-101124580D01*
X195863095Y-101124580D02*
X195815476Y-101172200D01*
X195815476Y-101172200D02*
X195720238Y-101219819D01*
X195720238Y-101219819D02*
X195434524Y-101219819D01*
X195434524Y-101219819D02*
X195339286Y-101172200D01*
X195339286Y-101172200D02*
X195291667Y-101124580D01*
X202131558Y-119008857D02*
X202131558Y-119818380D01*
X202131558Y-119818380D02*
X202179177Y-119913618D01*
X202179177Y-119913618D02*
X202226796Y-119961238D01*
X202226796Y-119961238D02*
X202322034Y-120008857D01*
X202322034Y-120008857D02*
X202512510Y-120008857D01*
X202512510Y-120008857D02*
X202607748Y-119961238D01*
X202607748Y-119961238D02*
X202655367Y-119913618D01*
X202655367Y-119913618D02*
X202702986Y-119818380D01*
X202702986Y-119818380D02*
X202702986Y-119008857D01*
X203702986Y-120008857D02*
X203131558Y-120008857D01*
X203417272Y-120008857D02*
X203417272Y-119008857D01*
X203417272Y-119008857D02*
X203322034Y-119151714D01*
X203322034Y-119151714D02*
X203226796Y-119246952D01*
X203226796Y-119246952D02*
X203131558Y-119294571D01*
X238359580Y-121842857D02*
X238407200Y-121890476D01*
X238407200Y-121890476D02*
X238454819Y-122033333D01*
X238454819Y-122033333D02*
X238454819Y-122128571D01*
X238454819Y-122128571D02*
X238407200Y-122271428D01*
X238407200Y-122271428D02*
X238311961Y-122366666D01*
X238311961Y-122366666D02*
X238216723Y-122414285D01*
X238216723Y-122414285D02*
X238026247Y-122461904D01*
X238026247Y-122461904D02*
X237883390Y-122461904D01*
X237883390Y-122461904D02*
X237692914Y-122414285D01*
X237692914Y-122414285D02*
X237597676Y-122366666D01*
X237597676Y-122366666D02*
X237502438Y-122271428D01*
X237502438Y-122271428D02*
X237454819Y-122128571D01*
X237454819Y-122128571D02*
X237454819Y-122033333D01*
X237454819Y-122033333D02*
X237502438Y-121890476D01*
X237502438Y-121890476D02*
X237550057Y-121842857D01*
X238454819Y-120890476D02*
X238454819Y-121461904D01*
X238454819Y-121176190D02*
X237454819Y-121176190D01*
X237454819Y-121176190D02*
X237597676Y-121271428D01*
X237597676Y-121271428D02*
X237692914Y-121366666D01*
X237692914Y-121366666D02*
X237740533Y-121461904D01*
X237788152Y-120033333D02*
X238454819Y-120033333D01*
X237407200Y-120271428D02*
X238121485Y-120509523D01*
X238121485Y-120509523D02*
X238121485Y-119890476D01*
X220225345Y-89143477D02*
X220272964Y-89000620D01*
X220272964Y-89000620D02*
X220272964Y-88762525D01*
X220272964Y-88762525D02*
X220225345Y-88667287D01*
X220225345Y-88667287D02*
X220177725Y-88619668D01*
X220177725Y-88619668D02*
X220082487Y-88572049D01*
X220082487Y-88572049D02*
X219987249Y-88572049D01*
X219987249Y-88572049D02*
X219892011Y-88619668D01*
X219892011Y-88619668D02*
X219844392Y-88667287D01*
X219844392Y-88667287D02*
X219796773Y-88762525D01*
X219796773Y-88762525D02*
X219749154Y-88953001D01*
X219749154Y-88953001D02*
X219701535Y-89048239D01*
X219701535Y-89048239D02*
X219653916Y-89095858D01*
X219653916Y-89095858D02*
X219558678Y-89143477D01*
X219558678Y-89143477D02*
X219463440Y-89143477D01*
X219463440Y-89143477D02*
X219368202Y-89095858D01*
X219368202Y-89095858D02*
X219320583Y-89048239D01*
X219320583Y-89048239D02*
X219272964Y-88953001D01*
X219272964Y-88953001D02*
X219272964Y-88714906D01*
X219272964Y-88714906D02*
X219320583Y-88572049D01*
X219749154Y-87810144D02*
X219796773Y-87667287D01*
X219796773Y-87667287D02*
X219844392Y-87619668D01*
X219844392Y-87619668D02*
X219939630Y-87572049D01*
X219939630Y-87572049D02*
X220082487Y-87572049D01*
X220082487Y-87572049D02*
X220177725Y-87619668D01*
X220177725Y-87619668D02*
X220225345Y-87667287D01*
X220225345Y-87667287D02*
X220272964Y-87762525D01*
X220272964Y-87762525D02*
X220272964Y-88143477D01*
X220272964Y-88143477D02*
X219272964Y-88143477D01*
X219272964Y-88143477D02*
X219272964Y-87810144D01*
X219272964Y-87810144D02*
X219320583Y-87714906D01*
X219320583Y-87714906D02*
X219368202Y-87667287D01*
X219368202Y-87667287D02*
X219463440Y-87619668D01*
X219463440Y-87619668D02*
X219558678Y-87619668D01*
X219558678Y-87619668D02*
X219653916Y-87667287D01*
X219653916Y-87667287D02*
X219701535Y-87714906D01*
X219701535Y-87714906D02*
X219749154Y-87810144D01*
X219749154Y-87810144D02*
X219749154Y-88143477D01*
X220272964Y-87095858D02*
X220272964Y-86905382D01*
X220272964Y-86905382D02*
X220225345Y-86810144D01*
X220225345Y-86810144D02*
X220177725Y-86762525D01*
X220177725Y-86762525D02*
X220034868Y-86667287D01*
X220034868Y-86667287D02*
X219844392Y-86619668D01*
X219844392Y-86619668D02*
X219463440Y-86619668D01*
X219463440Y-86619668D02*
X219368202Y-86667287D01*
X219368202Y-86667287D02*
X219320583Y-86714906D01*
X219320583Y-86714906D02*
X219272964Y-86810144D01*
X219272964Y-86810144D02*
X219272964Y-87000620D01*
X219272964Y-87000620D02*
X219320583Y-87095858D01*
X219320583Y-87095858D02*
X219368202Y-87143477D01*
X219368202Y-87143477D02*
X219463440Y-87191096D01*
X219463440Y-87191096D02*
X219701535Y-87191096D01*
X219701535Y-87191096D02*
X219796773Y-87143477D01*
X219796773Y-87143477D02*
X219844392Y-87095858D01*
X219844392Y-87095858D02*
X219892011Y-87000620D01*
X219892011Y-87000620D02*
X219892011Y-86810144D01*
X219892011Y-86810144D02*
X219844392Y-86714906D01*
X219844392Y-86714906D02*
X219796773Y-86667287D01*
X219796773Y-86667287D02*
X219701535Y-86619668D01*
X214851334Y-89336824D02*
X214898953Y-89193967D01*
X214898953Y-89193967D02*
X214898953Y-88955872D01*
X214898953Y-88955872D02*
X214851334Y-88860634D01*
X214851334Y-88860634D02*
X214803714Y-88813015D01*
X214803714Y-88813015D02*
X214708476Y-88765396D01*
X214708476Y-88765396D02*
X214613238Y-88765396D01*
X214613238Y-88765396D02*
X214518000Y-88813015D01*
X214518000Y-88813015D02*
X214470381Y-88860634D01*
X214470381Y-88860634D02*
X214422762Y-88955872D01*
X214422762Y-88955872D02*
X214375143Y-89146348D01*
X214375143Y-89146348D02*
X214327524Y-89241586D01*
X214327524Y-89241586D02*
X214279905Y-89289205D01*
X214279905Y-89289205D02*
X214184667Y-89336824D01*
X214184667Y-89336824D02*
X214089429Y-89336824D01*
X214089429Y-89336824D02*
X213994191Y-89289205D01*
X213994191Y-89289205D02*
X213946572Y-89241586D01*
X213946572Y-89241586D02*
X213898953Y-89146348D01*
X213898953Y-89146348D02*
X213898953Y-88908253D01*
X213898953Y-88908253D02*
X213946572Y-88765396D01*
X214375143Y-88003491D02*
X214422762Y-87860634D01*
X214422762Y-87860634D02*
X214470381Y-87813015D01*
X214470381Y-87813015D02*
X214565619Y-87765396D01*
X214565619Y-87765396D02*
X214708476Y-87765396D01*
X214708476Y-87765396D02*
X214803714Y-87813015D01*
X214803714Y-87813015D02*
X214851334Y-87860634D01*
X214851334Y-87860634D02*
X214898953Y-87955872D01*
X214898953Y-87955872D02*
X214898953Y-88336824D01*
X214898953Y-88336824D02*
X213898953Y-88336824D01*
X213898953Y-88336824D02*
X213898953Y-88003491D01*
X213898953Y-88003491D02*
X213946572Y-87908253D01*
X213946572Y-87908253D02*
X213994191Y-87860634D01*
X213994191Y-87860634D02*
X214089429Y-87813015D01*
X214089429Y-87813015D02*
X214184667Y-87813015D01*
X214184667Y-87813015D02*
X214279905Y-87860634D01*
X214279905Y-87860634D02*
X214327524Y-87908253D01*
X214327524Y-87908253D02*
X214375143Y-88003491D01*
X214375143Y-88003491D02*
X214375143Y-88336824D01*
X214898953Y-86813015D02*
X214898953Y-87384443D01*
X214898953Y-87098729D02*
X213898953Y-87098729D01*
X213898953Y-87098729D02*
X214041810Y-87193967D01*
X214041810Y-87193967D02*
X214137048Y-87289205D01*
X214137048Y-87289205D02*
X214184667Y-87384443D01*
X214898953Y-85860634D02*
X214898953Y-86432062D01*
X214898953Y-86146348D02*
X213898953Y-86146348D01*
X213898953Y-86146348D02*
X214041810Y-86241586D01*
X214041810Y-86241586D02*
X214137048Y-86336824D01*
X214137048Y-86336824D02*
X214184667Y-86432062D01*
X248159579Y-116642857D02*
X248207199Y-116690476D01*
X248207199Y-116690476D02*
X248254818Y-116833333D01*
X248254818Y-116833333D02*
X248254818Y-116928571D01*
X248254818Y-116928571D02*
X248207199Y-117071428D01*
X248207199Y-117071428D02*
X248111960Y-117166666D01*
X248111960Y-117166666D02*
X248016722Y-117214285D01*
X248016722Y-117214285D02*
X247826246Y-117261904D01*
X247826246Y-117261904D02*
X247683389Y-117261904D01*
X247683389Y-117261904D02*
X247492913Y-117214285D01*
X247492913Y-117214285D02*
X247397675Y-117166666D01*
X247397675Y-117166666D02*
X247302437Y-117071428D01*
X247302437Y-117071428D02*
X247254818Y-116928571D01*
X247254818Y-116928571D02*
X247254818Y-116833333D01*
X247254818Y-116833333D02*
X247302437Y-116690476D01*
X247302437Y-116690476D02*
X247350056Y-116642857D01*
X248254818Y-115690476D02*
X248254818Y-116261904D01*
X248254818Y-115976190D02*
X247254818Y-115976190D01*
X247254818Y-115976190D02*
X247397675Y-116071428D01*
X247397675Y-116071428D02*
X247492913Y-116166666D01*
X247492913Y-116166666D02*
X247540532Y-116261904D01*
X248254818Y-114738095D02*
X248254818Y-115309523D01*
X248254818Y-115023809D02*
X247254818Y-115023809D01*
X247254818Y-115023809D02*
X247397675Y-115119047D01*
X247397675Y-115119047D02*
X247492913Y-115214285D01*
X247492913Y-115214285D02*
X247540532Y-115309523D01*
X246190476Y-103454819D02*
X246857142Y-104454819D01*
X246857142Y-103454819D02*
X246190476Y-104454819D01*
X247761904Y-104454819D02*
X247190476Y-104454819D01*
X247476190Y-104454819D02*
X247476190Y-103454819D01*
X247476190Y-103454819D02*
X247380952Y-103597676D01*
X247380952Y-103597676D02*
X247285714Y-103692914D01*
X247285714Y-103692914D02*
X247190476Y-103740533D01*
X195483333Y-88514819D02*
X195150000Y-88038628D01*
X194911905Y-88514819D02*
X194911905Y-87514819D01*
X194911905Y-87514819D02*
X195292857Y-87514819D01*
X195292857Y-87514819D02*
X195388095Y-87562438D01*
X195388095Y-87562438D02*
X195435714Y-87610057D01*
X195435714Y-87610057D02*
X195483333Y-87705295D01*
X195483333Y-87705295D02*
X195483333Y-87848152D01*
X195483333Y-87848152D02*
X195435714Y-87943390D01*
X195435714Y-87943390D02*
X195388095Y-87991009D01*
X195388095Y-87991009D02*
X195292857Y-88038628D01*
X195292857Y-88038628D02*
X194911905Y-88038628D01*
X196340476Y-87514819D02*
X196150000Y-87514819D01*
X196150000Y-87514819D02*
X196054762Y-87562438D01*
X196054762Y-87562438D02*
X196007143Y-87610057D01*
X196007143Y-87610057D02*
X195911905Y-87752914D01*
X195911905Y-87752914D02*
X195864286Y-87943390D01*
X195864286Y-87943390D02*
X195864286Y-88324342D01*
X195864286Y-88324342D02*
X195911905Y-88419580D01*
X195911905Y-88419580D02*
X195959524Y-88467200D01*
X195959524Y-88467200D02*
X196054762Y-88514819D01*
X196054762Y-88514819D02*
X196245238Y-88514819D01*
X196245238Y-88514819D02*
X196340476Y-88467200D01*
X196340476Y-88467200D02*
X196388095Y-88419580D01*
X196388095Y-88419580D02*
X196435714Y-88324342D01*
X196435714Y-88324342D02*
X196435714Y-88086247D01*
X196435714Y-88086247D02*
X196388095Y-87991009D01*
X196388095Y-87991009D02*
X196340476Y-87943390D01*
X196340476Y-87943390D02*
X196245238Y-87895771D01*
X196245238Y-87895771D02*
X196054762Y-87895771D01*
X196054762Y-87895771D02*
X195959524Y-87943390D01*
X195959524Y-87943390D02*
X195911905Y-87991009D01*
X195911905Y-87991009D02*
X195864286Y-88086247D01*
X197704761Y-127037557D02*
X197609523Y-126989938D01*
X197609523Y-126989938D02*
X197514285Y-126894700D01*
X197514285Y-126894700D02*
X197371428Y-126751842D01*
X197371428Y-126751842D02*
X197276190Y-126704223D01*
X197276190Y-126704223D02*
X197180952Y-126704223D01*
X197228571Y-126942319D02*
X197133333Y-126894700D01*
X197133333Y-126894700D02*
X197038095Y-126799461D01*
X197038095Y-126799461D02*
X196990476Y-126608985D01*
X196990476Y-126608985D02*
X196990476Y-126275652D01*
X196990476Y-126275652D02*
X197038095Y-126085176D01*
X197038095Y-126085176D02*
X197133333Y-125989938D01*
X197133333Y-125989938D02*
X197228571Y-125942319D01*
X197228571Y-125942319D02*
X197419047Y-125942319D01*
X197419047Y-125942319D02*
X197514285Y-125989938D01*
X197514285Y-125989938D02*
X197609523Y-126085176D01*
X197609523Y-126085176D02*
X197657142Y-126275652D01*
X197657142Y-126275652D02*
X197657142Y-126608985D01*
X197657142Y-126608985D02*
X197609523Y-126799461D01*
X197609523Y-126799461D02*
X197514285Y-126894700D01*
X197514285Y-126894700D02*
X197419047Y-126942319D01*
X197419047Y-126942319D02*
X197228571Y-126942319D01*
X198038095Y-126037557D02*
X198085714Y-125989938D01*
X198085714Y-125989938D02*
X198180952Y-125942319D01*
X198180952Y-125942319D02*
X198419047Y-125942319D01*
X198419047Y-125942319D02*
X198514285Y-125989938D01*
X198514285Y-125989938D02*
X198561904Y-126037557D01*
X198561904Y-126037557D02*
X198609523Y-126132795D01*
X198609523Y-126132795D02*
X198609523Y-126228033D01*
X198609523Y-126228033D02*
X198561904Y-126370890D01*
X198561904Y-126370890D02*
X197990476Y-126942319D01*
X197990476Y-126942319D02*
X198609523Y-126942319D01*
X242238095Y-118254819D02*
X242238095Y-119064342D01*
X242238095Y-119064342D02*
X242285714Y-119159580D01*
X242285714Y-119159580D02*
X242333333Y-119207200D01*
X242333333Y-119207200D02*
X242428571Y-119254819D01*
X242428571Y-119254819D02*
X242619047Y-119254819D01*
X242619047Y-119254819D02*
X242714285Y-119207200D01*
X242714285Y-119207200D02*
X242761904Y-119159580D01*
X242761904Y-119159580D02*
X242809523Y-119064342D01*
X242809523Y-119064342D02*
X242809523Y-118254819D01*
X243190476Y-118254819D02*
X243857142Y-118254819D01*
X243857142Y-118254819D02*
X243428571Y-119254819D01*
X191408333Y-73559580D02*
X191360714Y-73607200D01*
X191360714Y-73607200D02*
X191217857Y-73654819D01*
X191217857Y-73654819D02*
X191122619Y-73654819D01*
X191122619Y-73654819D02*
X190979762Y-73607200D01*
X190979762Y-73607200D02*
X190884524Y-73511961D01*
X190884524Y-73511961D02*
X190836905Y-73416723D01*
X190836905Y-73416723D02*
X190789286Y-73226247D01*
X190789286Y-73226247D02*
X190789286Y-73083390D01*
X190789286Y-73083390D02*
X190836905Y-72892914D01*
X190836905Y-72892914D02*
X190884524Y-72797676D01*
X190884524Y-72797676D02*
X190979762Y-72702438D01*
X190979762Y-72702438D02*
X191122619Y-72654819D01*
X191122619Y-72654819D02*
X191217857Y-72654819D01*
X191217857Y-72654819D02*
X191360714Y-72702438D01*
X191360714Y-72702438D02*
X191408333Y-72750057D01*
X192313095Y-72654819D02*
X191836905Y-72654819D01*
X191836905Y-72654819D02*
X191789286Y-73131009D01*
X191789286Y-73131009D02*
X191836905Y-73083390D01*
X191836905Y-73083390D02*
X191932143Y-73035771D01*
X191932143Y-73035771D02*
X192170238Y-73035771D01*
X192170238Y-73035771D02*
X192265476Y-73083390D01*
X192265476Y-73083390D02*
X192313095Y-73131009D01*
X192313095Y-73131009D02*
X192360714Y-73226247D01*
X192360714Y-73226247D02*
X192360714Y-73464342D01*
X192360714Y-73464342D02*
X192313095Y-73559580D01*
X192313095Y-73559580D02*
X192265476Y-73607200D01*
X192265476Y-73607200D02*
X192170238Y-73654819D01*
X192170238Y-73654819D02*
X191932143Y-73654819D01*
X191932143Y-73654819D02*
X191836905Y-73607200D01*
X191836905Y-73607200D02*
X191789286Y-73559580D01*
X195045833Y-99619819D02*
X194712500Y-99143628D01*
X194474405Y-99619819D02*
X194474405Y-98619819D01*
X194474405Y-98619819D02*
X194855357Y-98619819D01*
X194855357Y-98619819D02*
X194950595Y-98667438D01*
X194950595Y-98667438D02*
X194998214Y-98715057D01*
X194998214Y-98715057D02*
X195045833Y-98810295D01*
X195045833Y-98810295D02*
X195045833Y-98953152D01*
X195045833Y-98953152D02*
X194998214Y-99048390D01*
X194998214Y-99048390D02*
X194950595Y-99096009D01*
X194950595Y-99096009D02*
X194855357Y-99143628D01*
X194855357Y-99143628D02*
X194474405Y-99143628D01*
X195522024Y-99619819D02*
X195712500Y-99619819D01*
X195712500Y-99619819D02*
X195807738Y-99572200D01*
X195807738Y-99572200D02*
X195855357Y-99524580D01*
X195855357Y-99524580D02*
X195950595Y-99381723D01*
X195950595Y-99381723D02*
X195998214Y-99191247D01*
X195998214Y-99191247D02*
X195998214Y-98810295D01*
X195998214Y-98810295D02*
X195950595Y-98715057D01*
X195950595Y-98715057D02*
X195902976Y-98667438D01*
X195902976Y-98667438D02*
X195807738Y-98619819D01*
X195807738Y-98619819D02*
X195617262Y-98619819D01*
X195617262Y-98619819D02*
X195522024Y-98667438D01*
X195522024Y-98667438D02*
X195474405Y-98715057D01*
X195474405Y-98715057D02*
X195426786Y-98810295D01*
X195426786Y-98810295D02*
X195426786Y-99048390D01*
X195426786Y-99048390D02*
X195474405Y-99143628D01*
X195474405Y-99143628D02*
X195522024Y-99191247D01*
X195522024Y-99191247D02*
X195617262Y-99238866D01*
X195617262Y-99238866D02*
X195807738Y-99238866D01*
X195807738Y-99238866D02*
X195902976Y-99191247D01*
X195902976Y-99191247D02*
X195950595Y-99143628D01*
X195950595Y-99143628D02*
X195998214Y-99048390D01*
X194145833Y-121959580D02*
X194098214Y-122007200D01*
X194098214Y-122007200D02*
X193955357Y-122054819D01*
X193955357Y-122054819D02*
X193860119Y-122054819D01*
X193860119Y-122054819D02*
X193717262Y-122007200D01*
X193717262Y-122007200D02*
X193622024Y-121911961D01*
X193622024Y-121911961D02*
X193574405Y-121816723D01*
X193574405Y-121816723D02*
X193526786Y-121626247D01*
X193526786Y-121626247D02*
X193526786Y-121483390D01*
X193526786Y-121483390D02*
X193574405Y-121292914D01*
X193574405Y-121292914D02*
X193622024Y-121197676D01*
X193622024Y-121197676D02*
X193717262Y-121102438D01*
X193717262Y-121102438D02*
X193860119Y-121054819D01*
X193860119Y-121054819D02*
X193955357Y-121054819D01*
X193955357Y-121054819D02*
X194098214Y-121102438D01*
X194098214Y-121102438D02*
X194145833Y-121150057D01*
X195098214Y-122054819D02*
X194526786Y-122054819D01*
X194812500Y-122054819D02*
X194812500Y-121054819D01*
X194812500Y-121054819D02*
X194717262Y-121197676D01*
X194717262Y-121197676D02*
X194622024Y-121292914D01*
X194622024Y-121292914D02*
X194526786Y-121340533D01*
X217455529Y-130529506D02*
X216979338Y-130862839D01*
X217455529Y-131100934D02*
X216455529Y-131100934D01*
X216455529Y-131100934D02*
X216455529Y-130719982D01*
X216455529Y-130719982D02*
X216503148Y-130624744D01*
X216503148Y-130624744D02*
X216550767Y-130577125D01*
X216550767Y-130577125D02*
X216646005Y-130529506D01*
X216646005Y-130529506D02*
X216788862Y-130529506D01*
X216788862Y-130529506D02*
X216884100Y-130577125D01*
X216884100Y-130577125D02*
X216931719Y-130624744D01*
X216931719Y-130624744D02*
X216979338Y-130719982D01*
X216979338Y-130719982D02*
X216979338Y-131100934D01*
X217455529Y-129577125D02*
X217455529Y-130148553D01*
X217455529Y-129862839D02*
X216455529Y-129862839D01*
X216455529Y-129862839D02*
X216598386Y-129958077D01*
X216598386Y-129958077D02*
X216693624Y-130053315D01*
X216693624Y-130053315D02*
X216741243Y-130148553D01*
X216884100Y-129005696D02*
X216836481Y-129100934D01*
X216836481Y-129100934D02*
X216788862Y-129148553D01*
X216788862Y-129148553D02*
X216693624Y-129196172D01*
X216693624Y-129196172D02*
X216646005Y-129196172D01*
X216646005Y-129196172D02*
X216550767Y-129148553D01*
X216550767Y-129148553D02*
X216503148Y-129100934D01*
X216503148Y-129100934D02*
X216455529Y-129005696D01*
X216455529Y-129005696D02*
X216455529Y-128815220D01*
X216455529Y-128815220D02*
X216503148Y-128719982D01*
X216503148Y-128719982D02*
X216550767Y-128672363D01*
X216550767Y-128672363D02*
X216646005Y-128624744D01*
X216646005Y-128624744D02*
X216693624Y-128624744D01*
X216693624Y-128624744D02*
X216788862Y-128672363D01*
X216788862Y-128672363D02*
X216836481Y-128719982D01*
X216836481Y-128719982D02*
X216884100Y-128815220D01*
X216884100Y-128815220D02*
X216884100Y-129005696D01*
X216884100Y-129005696D02*
X216931719Y-129100934D01*
X216931719Y-129100934D02*
X216979338Y-129148553D01*
X216979338Y-129148553D02*
X217074576Y-129196172D01*
X217074576Y-129196172D02*
X217265052Y-129196172D01*
X217265052Y-129196172D02*
X217360290Y-129148553D01*
X217360290Y-129148553D02*
X217407910Y-129100934D01*
X217407910Y-129100934D02*
X217455529Y-129005696D01*
X217455529Y-129005696D02*
X217455529Y-128815220D01*
X217455529Y-128815220D02*
X217407910Y-128719982D01*
X217407910Y-128719982D02*
X217360290Y-128672363D01*
X217360290Y-128672363D02*
X217265052Y-128624744D01*
X217265052Y-128624744D02*
X217074576Y-128624744D01*
X217074576Y-128624744D02*
X216979338Y-128672363D01*
X216979338Y-128672363D02*
X216931719Y-128719982D01*
X216931719Y-128719982D02*
X216884100Y-128815220D01*
X240159580Y-121842857D02*
X240207200Y-121890476D01*
X240207200Y-121890476D02*
X240254819Y-122033333D01*
X240254819Y-122033333D02*
X240254819Y-122128571D01*
X240254819Y-122128571D02*
X240207200Y-122271428D01*
X240207200Y-122271428D02*
X240111961Y-122366666D01*
X240111961Y-122366666D02*
X240016723Y-122414285D01*
X240016723Y-122414285D02*
X239826247Y-122461904D01*
X239826247Y-122461904D02*
X239683390Y-122461904D01*
X239683390Y-122461904D02*
X239492914Y-122414285D01*
X239492914Y-122414285D02*
X239397676Y-122366666D01*
X239397676Y-122366666D02*
X239302438Y-122271428D01*
X239302438Y-122271428D02*
X239254819Y-122128571D01*
X239254819Y-122128571D02*
X239254819Y-122033333D01*
X239254819Y-122033333D02*
X239302438Y-121890476D01*
X239302438Y-121890476D02*
X239350057Y-121842857D01*
X240254819Y-120890476D02*
X240254819Y-121461904D01*
X240254819Y-121176190D02*
X239254819Y-121176190D01*
X239254819Y-121176190D02*
X239397676Y-121271428D01*
X239397676Y-121271428D02*
X239492914Y-121366666D01*
X239492914Y-121366666D02*
X239540533Y-121461904D01*
X239254819Y-120557142D02*
X239254819Y-119938095D01*
X239254819Y-119938095D02*
X239635771Y-120271428D01*
X239635771Y-120271428D02*
X239635771Y-120128571D01*
X239635771Y-120128571D02*
X239683390Y-120033333D01*
X239683390Y-120033333D02*
X239731009Y-119985714D01*
X239731009Y-119985714D02*
X239826247Y-119938095D01*
X239826247Y-119938095D02*
X240064342Y-119938095D01*
X240064342Y-119938095D02*
X240159580Y-119985714D01*
X240159580Y-119985714D02*
X240207200Y-120033333D01*
X240207200Y-120033333D02*
X240254819Y-120128571D01*
X240254819Y-120128571D02*
X240254819Y-120414285D01*
X240254819Y-120414285D02*
X240207200Y-120509523D01*
X240207200Y-120509523D02*
X240159580Y-120557142D01*
X216548390Y-89336824D02*
X216596009Y-89193967D01*
X216596009Y-89193967D02*
X216596009Y-88955872D01*
X216596009Y-88955872D02*
X216548390Y-88860634D01*
X216548390Y-88860634D02*
X216500770Y-88813015D01*
X216500770Y-88813015D02*
X216405532Y-88765396D01*
X216405532Y-88765396D02*
X216310294Y-88765396D01*
X216310294Y-88765396D02*
X216215056Y-88813015D01*
X216215056Y-88813015D02*
X216167437Y-88860634D01*
X216167437Y-88860634D02*
X216119818Y-88955872D01*
X216119818Y-88955872D02*
X216072199Y-89146348D01*
X216072199Y-89146348D02*
X216024580Y-89241586D01*
X216024580Y-89241586D02*
X215976961Y-89289205D01*
X215976961Y-89289205D02*
X215881723Y-89336824D01*
X215881723Y-89336824D02*
X215786485Y-89336824D01*
X215786485Y-89336824D02*
X215691247Y-89289205D01*
X215691247Y-89289205D02*
X215643628Y-89241586D01*
X215643628Y-89241586D02*
X215596009Y-89146348D01*
X215596009Y-89146348D02*
X215596009Y-88908253D01*
X215596009Y-88908253D02*
X215643628Y-88765396D01*
X216072199Y-88003491D02*
X216119818Y-87860634D01*
X216119818Y-87860634D02*
X216167437Y-87813015D01*
X216167437Y-87813015D02*
X216262675Y-87765396D01*
X216262675Y-87765396D02*
X216405532Y-87765396D01*
X216405532Y-87765396D02*
X216500770Y-87813015D01*
X216500770Y-87813015D02*
X216548390Y-87860634D01*
X216548390Y-87860634D02*
X216596009Y-87955872D01*
X216596009Y-87955872D02*
X216596009Y-88336824D01*
X216596009Y-88336824D02*
X215596009Y-88336824D01*
X215596009Y-88336824D02*
X215596009Y-88003491D01*
X215596009Y-88003491D02*
X215643628Y-87908253D01*
X215643628Y-87908253D02*
X215691247Y-87860634D01*
X215691247Y-87860634D02*
X215786485Y-87813015D01*
X215786485Y-87813015D02*
X215881723Y-87813015D01*
X215881723Y-87813015D02*
X215976961Y-87860634D01*
X215976961Y-87860634D02*
X216024580Y-87908253D01*
X216024580Y-87908253D02*
X216072199Y-88003491D01*
X216072199Y-88003491D02*
X216072199Y-88336824D01*
X216596009Y-86813015D02*
X216596009Y-87384443D01*
X216596009Y-87098729D02*
X215596009Y-87098729D01*
X215596009Y-87098729D02*
X215738866Y-87193967D01*
X215738866Y-87193967D02*
X215834104Y-87289205D01*
X215834104Y-87289205D02*
X215881723Y-87384443D01*
X215596009Y-86193967D02*
X215596009Y-86098729D01*
X215596009Y-86098729D02*
X215643628Y-86003491D01*
X215643628Y-86003491D02*
X215691247Y-85955872D01*
X215691247Y-85955872D02*
X215786485Y-85908253D01*
X215786485Y-85908253D02*
X215976961Y-85860634D01*
X215976961Y-85860634D02*
X216215056Y-85860634D01*
X216215056Y-85860634D02*
X216405532Y-85908253D01*
X216405532Y-85908253D02*
X216500770Y-85955872D01*
X216500770Y-85955872D02*
X216548390Y-86003491D01*
X216548390Y-86003491D02*
X216596009Y-86098729D01*
X216596009Y-86098729D02*
X216596009Y-86193967D01*
X216596009Y-86193967D02*
X216548390Y-86289205D01*
X216548390Y-86289205D02*
X216500770Y-86336824D01*
X216500770Y-86336824D02*
X216405532Y-86384443D01*
X216405532Y-86384443D02*
X216215056Y-86432062D01*
X216215056Y-86432062D02*
X215976961Y-86432062D01*
X215976961Y-86432062D02*
X215786485Y-86384443D01*
X215786485Y-86384443D02*
X215691247Y-86336824D01*
X215691247Y-86336824D02*
X215643628Y-86289205D01*
X215643628Y-86289205D02*
X215596009Y-86193967D01*
X217164818Y-134938094D02*
X216164818Y-134938094D01*
X216164818Y-134938094D02*
X216164818Y-134699999D01*
X216164818Y-134699999D02*
X216212437Y-134557142D01*
X216212437Y-134557142D02*
X216307675Y-134461904D01*
X216307675Y-134461904D02*
X216402913Y-134414285D01*
X216402913Y-134414285D02*
X216593389Y-134366666D01*
X216593389Y-134366666D02*
X216736246Y-134366666D01*
X216736246Y-134366666D02*
X216926722Y-134414285D01*
X216926722Y-134414285D02*
X217021960Y-134461904D01*
X217021960Y-134461904D02*
X217117199Y-134557142D01*
X217117199Y-134557142D02*
X217164818Y-134699999D01*
X217164818Y-134699999D02*
X217164818Y-134938094D01*
X216164818Y-134033332D02*
X216164818Y-133414285D01*
X216164818Y-133414285D02*
X216545770Y-133747618D01*
X216545770Y-133747618D02*
X216545770Y-133604761D01*
X216545770Y-133604761D02*
X216593389Y-133509523D01*
X216593389Y-133509523D02*
X216641008Y-133461904D01*
X216641008Y-133461904D02*
X216736246Y-133414285D01*
X216736246Y-133414285D02*
X216974341Y-133414285D01*
X216974341Y-133414285D02*
X217069579Y-133461904D01*
X217069579Y-133461904D02*
X217117199Y-133509523D01*
X217117199Y-133509523D02*
X217164818Y-133604761D01*
X217164818Y-133604761D02*
X217164818Y-133890475D01*
X217164818Y-133890475D02*
X217117199Y-133985713D01*
X217117199Y-133985713D02*
X217069579Y-134033332D01*
X197397217Y-134385057D02*
X197301979Y-134337438D01*
X197301979Y-134337438D02*
X197206741Y-134242200D01*
X197206741Y-134242200D02*
X197063884Y-134099342D01*
X197063884Y-134099342D02*
X196968646Y-134051723D01*
X196968646Y-134051723D02*
X196873408Y-134051723D01*
X196921027Y-134289819D02*
X196825789Y-134242200D01*
X196825789Y-134242200D02*
X196730551Y-134146961D01*
X196730551Y-134146961D02*
X196682932Y-133956485D01*
X196682932Y-133956485D02*
X196682932Y-133623152D01*
X196682932Y-133623152D02*
X196730551Y-133432676D01*
X196730551Y-133432676D02*
X196825789Y-133337438D01*
X196825789Y-133337438D02*
X196921027Y-133289819D01*
X196921027Y-133289819D02*
X197111503Y-133289819D01*
X197111503Y-133289819D02*
X197206741Y-133337438D01*
X197206741Y-133337438D02*
X197301979Y-133432676D01*
X197301979Y-133432676D02*
X197349598Y-133623152D01*
X197349598Y-133623152D02*
X197349598Y-133956485D01*
X197349598Y-133956485D02*
X197301979Y-134146961D01*
X197301979Y-134146961D02*
X197206741Y-134242200D01*
X197206741Y-134242200D02*
X197111503Y-134289819D01*
X197111503Y-134289819D02*
X196921027Y-134289819D01*
X198206741Y-133623152D02*
X198206741Y-134289819D01*
X197968646Y-133242200D02*
X197730551Y-133956485D01*
X197730551Y-133956485D02*
X198349598Y-133956485D01*
X220607200Y-97061904D02*
X220654819Y-96919047D01*
X220654819Y-96919047D02*
X220654819Y-96680952D01*
X220654819Y-96680952D02*
X220607200Y-96585714D01*
X220607200Y-96585714D02*
X220559580Y-96538095D01*
X220559580Y-96538095D02*
X220464342Y-96490476D01*
X220464342Y-96490476D02*
X220369104Y-96490476D01*
X220369104Y-96490476D02*
X220273866Y-96538095D01*
X220273866Y-96538095D02*
X220226247Y-96585714D01*
X220226247Y-96585714D02*
X220178628Y-96680952D01*
X220178628Y-96680952D02*
X220131009Y-96871428D01*
X220131009Y-96871428D02*
X220083390Y-96966666D01*
X220083390Y-96966666D02*
X220035771Y-97014285D01*
X220035771Y-97014285D02*
X219940533Y-97061904D01*
X219940533Y-97061904D02*
X219845295Y-97061904D01*
X219845295Y-97061904D02*
X219750057Y-97014285D01*
X219750057Y-97014285D02*
X219702438Y-96966666D01*
X219702438Y-96966666D02*
X219654819Y-96871428D01*
X219654819Y-96871428D02*
X219654819Y-96633333D01*
X219654819Y-96633333D02*
X219702438Y-96490476D01*
X220131009Y-95728571D02*
X220178628Y-95585714D01*
X220178628Y-95585714D02*
X220226247Y-95538095D01*
X220226247Y-95538095D02*
X220321485Y-95490476D01*
X220321485Y-95490476D02*
X220464342Y-95490476D01*
X220464342Y-95490476D02*
X220559580Y-95538095D01*
X220559580Y-95538095D02*
X220607200Y-95585714D01*
X220607200Y-95585714D02*
X220654819Y-95680952D01*
X220654819Y-95680952D02*
X220654819Y-96061904D01*
X220654819Y-96061904D02*
X219654819Y-96061904D01*
X219654819Y-96061904D02*
X219654819Y-95728571D01*
X219654819Y-95728571D02*
X219702438Y-95633333D01*
X219702438Y-95633333D02*
X219750057Y-95585714D01*
X219750057Y-95585714D02*
X219845295Y-95538095D01*
X219845295Y-95538095D02*
X219940533Y-95538095D01*
X219940533Y-95538095D02*
X220035771Y-95585714D01*
X220035771Y-95585714D02*
X220083390Y-95633333D01*
X220083390Y-95633333D02*
X220131009Y-95728571D01*
X220131009Y-95728571D02*
X220131009Y-96061904D01*
X219654819Y-95157142D02*
X219654819Y-94490476D01*
X219654819Y-94490476D02*
X220654819Y-94919047D01*
X214124817Y-134938094D02*
X213124817Y-134938094D01*
X213124817Y-134938094D02*
X213124817Y-134699999D01*
X213124817Y-134699999D02*
X213172436Y-134557142D01*
X213172436Y-134557142D02*
X213267674Y-134461904D01*
X213267674Y-134461904D02*
X213362912Y-134414285D01*
X213362912Y-134414285D02*
X213553388Y-134366666D01*
X213553388Y-134366666D02*
X213696245Y-134366666D01*
X213696245Y-134366666D02*
X213886721Y-134414285D01*
X213886721Y-134414285D02*
X213981959Y-134461904D01*
X213981959Y-134461904D02*
X214077198Y-134557142D01*
X214077198Y-134557142D02*
X214124817Y-134699999D01*
X214124817Y-134699999D02*
X214124817Y-134938094D01*
X213220055Y-133985713D02*
X213172436Y-133938094D01*
X213172436Y-133938094D02*
X213124817Y-133842856D01*
X213124817Y-133842856D02*
X213124817Y-133604761D01*
X213124817Y-133604761D02*
X213172436Y-133509523D01*
X213172436Y-133509523D02*
X213220055Y-133461904D01*
X213220055Y-133461904D02*
X213315293Y-133414285D01*
X213315293Y-133414285D02*
X213410531Y-133414285D01*
X213410531Y-133414285D02*
X213553388Y-133461904D01*
X213553388Y-133461904D02*
X214124817Y-134033332D01*
X214124817Y-134033332D02*
X214124817Y-133414285D01*
X203363095Y-98219819D02*
X203363095Y-99029342D01*
X203363095Y-99029342D02*
X203410714Y-99124580D01*
X203410714Y-99124580D02*
X203458333Y-99172200D01*
X203458333Y-99172200D02*
X203553571Y-99219819D01*
X203553571Y-99219819D02*
X203744047Y-99219819D01*
X203744047Y-99219819D02*
X203839285Y-99172200D01*
X203839285Y-99172200D02*
X203886904Y-99124580D01*
X203886904Y-99124580D02*
X203934523Y-99029342D01*
X203934523Y-99029342D02*
X203934523Y-98219819D01*
X204839285Y-98553152D02*
X204839285Y-99219819D01*
X204601190Y-98172200D02*
X204363095Y-98886485D01*
X204363095Y-98886485D02*
X204982142Y-98886485D01*
X188190476Y-93454819D02*
X188857142Y-94454819D01*
X188857142Y-93454819D02*
X188190476Y-94454819D01*
X189142857Y-93454819D02*
X189761904Y-93454819D01*
X189761904Y-93454819D02*
X189428571Y-93835771D01*
X189428571Y-93835771D02*
X189571428Y-93835771D01*
X189571428Y-93835771D02*
X189666666Y-93883390D01*
X189666666Y-93883390D02*
X189714285Y-93931009D01*
X189714285Y-93931009D02*
X189761904Y-94026247D01*
X189761904Y-94026247D02*
X189761904Y-94264342D01*
X189761904Y-94264342D02*
X189714285Y-94359580D01*
X189714285Y-94359580D02*
X189666666Y-94407200D01*
X189666666Y-94407200D02*
X189571428Y-94454819D01*
X189571428Y-94454819D02*
X189285714Y-94454819D01*
X189285714Y-94454819D02*
X189190476Y-94407200D01*
X189190476Y-94407200D02*
X189142857Y-94359580D01*
X220204819Y-134938094D02*
X219204819Y-134938094D01*
X219204819Y-134938094D02*
X219204819Y-134699999D01*
X219204819Y-134699999D02*
X219252438Y-134557142D01*
X219252438Y-134557142D02*
X219347676Y-134461904D01*
X219347676Y-134461904D02*
X219442914Y-134414285D01*
X219442914Y-134414285D02*
X219633390Y-134366666D01*
X219633390Y-134366666D02*
X219776247Y-134366666D01*
X219776247Y-134366666D02*
X219966723Y-134414285D01*
X219966723Y-134414285D02*
X220061961Y-134461904D01*
X220061961Y-134461904D02*
X220157200Y-134557142D01*
X220157200Y-134557142D02*
X220204819Y-134699999D01*
X220204819Y-134699999D02*
X220204819Y-134938094D01*
X219538152Y-133509523D02*
X220204819Y-133509523D01*
X219157200Y-133747618D02*
X219871485Y-133985713D01*
X219871485Y-133985713D02*
X219871485Y-133366666D01*
X207054819Y-132842857D02*
X206578628Y-133176190D01*
X207054819Y-133414285D02*
X206054819Y-133414285D01*
X206054819Y-133414285D02*
X206054819Y-133033333D01*
X206054819Y-133033333D02*
X206102438Y-132938095D01*
X206102438Y-132938095D02*
X206150057Y-132890476D01*
X206150057Y-132890476D02*
X206245295Y-132842857D01*
X206245295Y-132842857D02*
X206388152Y-132842857D01*
X206388152Y-132842857D02*
X206483390Y-132890476D01*
X206483390Y-132890476D02*
X206531009Y-132938095D01*
X206531009Y-132938095D02*
X206578628Y-133033333D01*
X206578628Y-133033333D02*
X206578628Y-133414285D01*
X207054819Y-131890476D02*
X207054819Y-132461904D01*
X207054819Y-132176190D02*
X206054819Y-132176190D01*
X206054819Y-132176190D02*
X206197676Y-132271428D01*
X206197676Y-132271428D02*
X206292914Y-132366666D01*
X206292914Y-132366666D02*
X206340533Y-132461904D01*
X206054819Y-130985714D02*
X206054819Y-131461904D01*
X206054819Y-131461904D02*
X206531009Y-131509523D01*
X206531009Y-131509523D02*
X206483390Y-131461904D01*
X206483390Y-131461904D02*
X206435771Y-131366666D01*
X206435771Y-131366666D02*
X206435771Y-131128571D01*
X206435771Y-131128571D02*
X206483390Y-131033333D01*
X206483390Y-131033333D02*
X206531009Y-130985714D01*
X206531009Y-130985714D02*
X206626247Y-130938095D01*
X206626247Y-130938095D02*
X206864342Y-130938095D01*
X206864342Y-130938095D02*
X206959580Y-130985714D01*
X206959580Y-130985714D02*
X207007200Y-131033333D01*
X207007200Y-131033333D02*
X207054819Y-131128571D01*
X207054819Y-131128571D02*
X207054819Y-131366666D01*
X207054819Y-131366666D02*
X207007200Y-131461904D01*
X207007200Y-131461904D02*
X206959580Y-131509523D01*
X242767319Y-111392923D02*
X242291128Y-111726256D01*
X242767319Y-111964351D02*
X241767319Y-111964351D01*
X241767319Y-111964351D02*
X241767319Y-111583399D01*
X241767319Y-111583399D02*
X241814938Y-111488161D01*
X241814938Y-111488161D02*
X241862557Y-111440542D01*
X241862557Y-111440542D02*
X241957795Y-111392923D01*
X241957795Y-111392923D02*
X242100652Y-111392923D01*
X242100652Y-111392923D02*
X242195890Y-111440542D01*
X242195890Y-111440542D02*
X242243509Y-111488161D01*
X242243509Y-111488161D02*
X242291128Y-111583399D01*
X242291128Y-111583399D02*
X242291128Y-111964351D01*
X242767319Y-110440542D02*
X242767319Y-111011970D01*
X242767319Y-110726256D02*
X241767319Y-110726256D01*
X241767319Y-110726256D02*
X241910176Y-110821494D01*
X241910176Y-110821494D02*
X242005414Y-110916732D01*
X242005414Y-110916732D02*
X242053033Y-111011970D01*
X211271434Y-89194909D02*
X211319053Y-89052052D01*
X211319053Y-89052052D02*
X211319053Y-88813957D01*
X211319053Y-88813957D02*
X211271434Y-88718719D01*
X211271434Y-88718719D02*
X211223814Y-88671100D01*
X211223814Y-88671100D02*
X211128576Y-88623481D01*
X211128576Y-88623481D02*
X211033338Y-88623481D01*
X211033338Y-88623481D02*
X210938100Y-88671100D01*
X210938100Y-88671100D02*
X210890481Y-88718719D01*
X210890481Y-88718719D02*
X210842862Y-88813957D01*
X210842862Y-88813957D02*
X210795243Y-89004433D01*
X210795243Y-89004433D02*
X210747624Y-89099671D01*
X210747624Y-89099671D02*
X210700005Y-89147290D01*
X210700005Y-89147290D02*
X210604767Y-89194909D01*
X210604767Y-89194909D02*
X210509529Y-89194909D01*
X210509529Y-89194909D02*
X210414291Y-89147290D01*
X210414291Y-89147290D02*
X210366672Y-89099671D01*
X210366672Y-89099671D02*
X210319053Y-89004433D01*
X210319053Y-89004433D02*
X210319053Y-88766338D01*
X210319053Y-88766338D02*
X210366672Y-88623481D01*
X210795243Y-87861576D02*
X210842862Y-87718719D01*
X210842862Y-87718719D02*
X210890481Y-87671100D01*
X210890481Y-87671100D02*
X210985719Y-87623481D01*
X210985719Y-87623481D02*
X211128576Y-87623481D01*
X211128576Y-87623481D02*
X211223814Y-87671100D01*
X211223814Y-87671100D02*
X211271434Y-87718719D01*
X211271434Y-87718719D02*
X211319053Y-87813957D01*
X211319053Y-87813957D02*
X211319053Y-88194909D01*
X211319053Y-88194909D02*
X210319053Y-88194909D01*
X210319053Y-88194909D02*
X210319053Y-87861576D01*
X210319053Y-87861576D02*
X210366672Y-87766338D01*
X210366672Y-87766338D02*
X210414291Y-87718719D01*
X210414291Y-87718719D02*
X210509529Y-87671100D01*
X210509529Y-87671100D02*
X210604767Y-87671100D01*
X210604767Y-87671100D02*
X210700005Y-87718719D01*
X210700005Y-87718719D02*
X210747624Y-87766338D01*
X210747624Y-87766338D02*
X210795243Y-87861576D01*
X210795243Y-87861576D02*
X210795243Y-88194909D01*
X211319053Y-86671100D02*
X211319053Y-87242528D01*
X211319053Y-86956814D02*
X210319053Y-86956814D01*
X210319053Y-86956814D02*
X210461910Y-87052052D01*
X210461910Y-87052052D02*
X210557148Y-87147290D01*
X210557148Y-87147290D02*
X210604767Y-87242528D01*
X210319053Y-86337766D02*
X210319053Y-85718719D01*
X210319053Y-85718719D02*
X210700005Y-86052052D01*
X210700005Y-86052052D02*
X210700005Y-85909195D01*
X210700005Y-85909195D02*
X210747624Y-85813957D01*
X210747624Y-85813957D02*
X210795243Y-85766338D01*
X210795243Y-85766338D02*
X210890481Y-85718719D01*
X210890481Y-85718719D02*
X211128576Y-85718719D01*
X211128576Y-85718719D02*
X211223814Y-85766338D01*
X211223814Y-85766338D02*
X211271434Y-85813957D01*
X211271434Y-85813957D02*
X211319053Y-85909195D01*
X211319053Y-85909195D02*
X211319053Y-86194909D01*
X211319053Y-86194909D02*
X211271434Y-86290147D01*
X211271434Y-86290147D02*
X211223814Y-86337766D01*
X224759580Y-117866666D02*
X224807200Y-117914285D01*
X224807200Y-117914285D02*
X224854819Y-118057142D01*
X224854819Y-118057142D02*
X224854819Y-118152380D01*
X224854819Y-118152380D02*
X224807200Y-118295237D01*
X224807200Y-118295237D02*
X224711961Y-118390475D01*
X224711961Y-118390475D02*
X224616723Y-118438094D01*
X224616723Y-118438094D02*
X224426247Y-118485713D01*
X224426247Y-118485713D02*
X224283390Y-118485713D01*
X224283390Y-118485713D02*
X224092914Y-118438094D01*
X224092914Y-118438094D02*
X223997676Y-118390475D01*
X223997676Y-118390475D02*
X223902438Y-118295237D01*
X223902438Y-118295237D02*
X223854819Y-118152380D01*
X223854819Y-118152380D02*
X223854819Y-118057142D01*
X223854819Y-118057142D02*
X223902438Y-117914285D01*
X223902438Y-117914285D02*
X223950057Y-117866666D01*
X223854819Y-117533332D02*
X223854819Y-116866666D01*
X223854819Y-116866666D02*
X224854819Y-117295237D01*
X238545832Y-104251075D02*
X238212499Y-103774884D01*
X237974404Y-104251075D02*
X237974404Y-103251075D01*
X237974404Y-103251075D02*
X238355356Y-103251075D01*
X238355356Y-103251075D02*
X238450594Y-103298694D01*
X238450594Y-103298694D02*
X238498213Y-103346313D01*
X238498213Y-103346313D02*
X238545832Y-103441551D01*
X238545832Y-103441551D02*
X238545832Y-103584408D01*
X238545832Y-103584408D02*
X238498213Y-103679646D01*
X238498213Y-103679646D02*
X238450594Y-103727265D01*
X238450594Y-103727265D02*
X238355356Y-103774884D01*
X238355356Y-103774884D02*
X237974404Y-103774884D01*
X238926785Y-103346313D02*
X238974404Y-103298694D01*
X238974404Y-103298694D02*
X239069642Y-103251075D01*
X239069642Y-103251075D02*
X239307737Y-103251075D01*
X239307737Y-103251075D02*
X239402975Y-103298694D01*
X239402975Y-103298694D02*
X239450594Y-103346313D01*
X239450594Y-103346313D02*
X239498213Y-103441551D01*
X239498213Y-103441551D02*
X239498213Y-103536789D01*
X239498213Y-103536789D02*
X239450594Y-103679646D01*
X239450594Y-103679646D02*
X238879166Y-104251075D01*
X238879166Y-104251075D02*
X239498213Y-104251075D01*
X187132142Y-75054819D02*
X186798809Y-74578628D01*
X186560714Y-75054819D02*
X186560714Y-74054819D01*
X186560714Y-74054819D02*
X186941666Y-74054819D01*
X186941666Y-74054819D02*
X187036904Y-74102438D01*
X187036904Y-74102438D02*
X187084523Y-74150057D01*
X187084523Y-74150057D02*
X187132142Y-74245295D01*
X187132142Y-74245295D02*
X187132142Y-74388152D01*
X187132142Y-74388152D02*
X187084523Y-74483390D01*
X187084523Y-74483390D02*
X187036904Y-74531009D01*
X187036904Y-74531009D02*
X186941666Y-74578628D01*
X186941666Y-74578628D02*
X186560714Y-74578628D01*
X188084523Y-75054819D02*
X187513095Y-75054819D01*
X187798809Y-75054819D02*
X187798809Y-74054819D01*
X187798809Y-74054819D02*
X187703571Y-74197676D01*
X187703571Y-74197676D02*
X187608333Y-74292914D01*
X187608333Y-74292914D02*
X187513095Y-74340533D01*
X188417857Y-74054819D02*
X189036904Y-74054819D01*
X189036904Y-74054819D02*
X188703571Y-74435771D01*
X188703571Y-74435771D02*
X188846428Y-74435771D01*
X188846428Y-74435771D02*
X188941666Y-74483390D01*
X188941666Y-74483390D02*
X188989285Y-74531009D01*
X188989285Y-74531009D02*
X189036904Y-74626247D01*
X189036904Y-74626247D02*
X189036904Y-74864342D01*
X189036904Y-74864342D02*
X188989285Y-74959580D01*
X188989285Y-74959580D02*
X188941666Y-75007200D01*
X188941666Y-75007200D02*
X188846428Y-75054819D01*
X188846428Y-75054819D02*
X188560714Y-75054819D01*
X188560714Y-75054819D02*
X188465476Y-75007200D01*
X188465476Y-75007200D02*
X188417857Y-74959580D01*
X195683332Y-90114819D02*
X195349999Y-89638628D01*
X195111904Y-90114819D02*
X195111904Y-89114819D01*
X195111904Y-89114819D02*
X195492856Y-89114819D01*
X195492856Y-89114819D02*
X195588094Y-89162438D01*
X195588094Y-89162438D02*
X195635713Y-89210057D01*
X195635713Y-89210057D02*
X195683332Y-89305295D01*
X195683332Y-89305295D02*
X195683332Y-89448152D01*
X195683332Y-89448152D02*
X195635713Y-89543390D01*
X195635713Y-89543390D02*
X195588094Y-89591009D01*
X195588094Y-89591009D02*
X195492856Y-89638628D01*
X195492856Y-89638628D02*
X195111904Y-89638628D01*
X196588094Y-89114819D02*
X196111904Y-89114819D01*
X196111904Y-89114819D02*
X196064285Y-89591009D01*
X196064285Y-89591009D02*
X196111904Y-89543390D01*
X196111904Y-89543390D02*
X196207142Y-89495771D01*
X196207142Y-89495771D02*
X196445237Y-89495771D01*
X196445237Y-89495771D02*
X196540475Y-89543390D01*
X196540475Y-89543390D02*
X196588094Y-89591009D01*
X196588094Y-89591009D02*
X196635713Y-89686247D01*
X196635713Y-89686247D02*
X196635713Y-89924342D01*
X196635713Y-89924342D02*
X196588094Y-90019580D01*
X196588094Y-90019580D02*
X196540475Y-90067200D01*
X196540475Y-90067200D02*
X196445237Y-90114819D01*
X196445237Y-90114819D02*
X196207142Y-90114819D01*
X196207142Y-90114819D02*
X196111904Y-90067200D01*
X196111904Y-90067200D02*
X196064285Y-90019580D01*
X233557142Y-112054819D02*
X233223809Y-111578628D01*
X232985714Y-112054819D02*
X232985714Y-111054819D01*
X232985714Y-111054819D02*
X233366666Y-111054819D01*
X233366666Y-111054819D02*
X233461904Y-111102438D01*
X233461904Y-111102438D02*
X233509523Y-111150057D01*
X233509523Y-111150057D02*
X233557142Y-111245295D01*
X233557142Y-111245295D02*
X233557142Y-111388152D01*
X233557142Y-111388152D02*
X233509523Y-111483390D01*
X233509523Y-111483390D02*
X233461904Y-111531009D01*
X233461904Y-111531009D02*
X233366666Y-111578628D01*
X233366666Y-111578628D02*
X232985714Y-111578628D01*
X234509523Y-112054819D02*
X233938095Y-112054819D01*
X234223809Y-112054819D02*
X234223809Y-111054819D01*
X234223809Y-111054819D02*
X234128571Y-111197676D01*
X234128571Y-111197676D02*
X234033333Y-111292914D01*
X234033333Y-111292914D02*
X233938095Y-111340533D01*
X235128571Y-111054819D02*
X235223809Y-111054819D01*
X235223809Y-111054819D02*
X235319047Y-111102438D01*
X235319047Y-111102438D02*
X235366666Y-111150057D01*
X235366666Y-111150057D02*
X235414285Y-111245295D01*
X235414285Y-111245295D02*
X235461904Y-111435771D01*
X235461904Y-111435771D02*
X235461904Y-111673866D01*
X235461904Y-111673866D02*
X235414285Y-111864342D01*
X235414285Y-111864342D02*
X235366666Y-111959580D01*
X235366666Y-111959580D02*
X235319047Y-112007200D01*
X235319047Y-112007200D02*
X235223809Y-112054819D01*
X235223809Y-112054819D02*
X235128571Y-112054819D01*
X235128571Y-112054819D02*
X235033333Y-112007200D01*
X235033333Y-112007200D02*
X234985714Y-111959580D01*
X234985714Y-111959580D02*
X234938095Y-111864342D01*
X234938095Y-111864342D02*
X234890476Y-111673866D01*
X234890476Y-111673866D02*
X234890476Y-111435771D01*
X234890476Y-111435771D02*
X234938095Y-111245295D01*
X234938095Y-111245295D02*
X234985714Y-111150057D01*
X234985714Y-111150057D02*
X235033333Y-111102438D01*
X235033333Y-111102438D02*
X235128571Y-111054819D01*
X241957142Y-100854819D02*
X241623809Y-100378628D01*
X241385714Y-100854819D02*
X241385714Y-99854819D01*
X241385714Y-99854819D02*
X241766666Y-99854819D01*
X241766666Y-99854819D02*
X241861904Y-99902438D01*
X241861904Y-99902438D02*
X241909523Y-99950057D01*
X241909523Y-99950057D02*
X241957142Y-100045295D01*
X241957142Y-100045295D02*
X241957142Y-100188152D01*
X241957142Y-100188152D02*
X241909523Y-100283390D01*
X241909523Y-100283390D02*
X241861904Y-100331009D01*
X241861904Y-100331009D02*
X241766666Y-100378628D01*
X241766666Y-100378628D02*
X241385714Y-100378628D01*
X242909523Y-100854819D02*
X242338095Y-100854819D01*
X242623809Y-100854819D02*
X242623809Y-99854819D01*
X242623809Y-99854819D02*
X242528571Y-99997676D01*
X242528571Y-99997676D02*
X242433333Y-100092914D01*
X242433333Y-100092914D02*
X242338095Y-100140533D01*
X243766666Y-99854819D02*
X243576190Y-99854819D01*
X243576190Y-99854819D02*
X243480952Y-99902438D01*
X243480952Y-99902438D02*
X243433333Y-99950057D01*
X243433333Y-99950057D02*
X243338095Y-100092914D01*
X243338095Y-100092914D02*
X243290476Y-100283390D01*
X243290476Y-100283390D02*
X243290476Y-100664342D01*
X243290476Y-100664342D02*
X243338095Y-100759580D01*
X243338095Y-100759580D02*
X243385714Y-100807200D01*
X243385714Y-100807200D02*
X243480952Y-100854819D01*
X243480952Y-100854819D02*
X243671428Y-100854819D01*
X243671428Y-100854819D02*
X243766666Y-100807200D01*
X243766666Y-100807200D02*
X243814285Y-100759580D01*
X243814285Y-100759580D02*
X243861904Y-100664342D01*
X243861904Y-100664342D02*
X243861904Y-100426247D01*
X243861904Y-100426247D02*
X243814285Y-100331009D01*
X243814285Y-100331009D02*
X243766666Y-100283390D01*
X243766666Y-100283390D02*
X243671428Y-100235771D01*
X243671428Y-100235771D02*
X243480952Y-100235771D01*
X243480952Y-100235771D02*
X243385714Y-100283390D01*
X243385714Y-100283390D02*
X243338095Y-100331009D01*
X243338095Y-100331009D02*
X243290476Y-100426247D01*
X199338095Y-102807200D02*
X199480952Y-102854819D01*
X199480952Y-102854819D02*
X199719047Y-102854819D01*
X199719047Y-102854819D02*
X199814285Y-102807200D01*
X199814285Y-102807200D02*
X199861904Y-102759580D01*
X199861904Y-102759580D02*
X199909523Y-102664342D01*
X199909523Y-102664342D02*
X199909523Y-102569104D01*
X199909523Y-102569104D02*
X199861904Y-102473866D01*
X199861904Y-102473866D02*
X199814285Y-102426247D01*
X199814285Y-102426247D02*
X199719047Y-102378628D01*
X199719047Y-102378628D02*
X199528571Y-102331009D01*
X199528571Y-102331009D02*
X199433333Y-102283390D01*
X199433333Y-102283390D02*
X199385714Y-102235771D01*
X199385714Y-102235771D02*
X199338095Y-102140533D01*
X199338095Y-102140533D02*
X199338095Y-102045295D01*
X199338095Y-102045295D02*
X199385714Y-101950057D01*
X199385714Y-101950057D02*
X199433333Y-101902438D01*
X199433333Y-101902438D02*
X199528571Y-101854819D01*
X199528571Y-101854819D02*
X199766666Y-101854819D01*
X199766666Y-101854819D02*
X199909523Y-101902438D01*
X200671428Y-102331009D02*
X200814285Y-102378628D01*
X200814285Y-102378628D02*
X200861904Y-102426247D01*
X200861904Y-102426247D02*
X200909523Y-102521485D01*
X200909523Y-102521485D02*
X200909523Y-102664342D01*
X200909523Y-102664342D02*
X200861904Y-102759580D01*
X200861904Y-102759580D02*
X200814285Y-102807200D01*
X200814285Y-102807200D02*
X200719047Y-102854819D01*
X200719047Y-102854819D02*
X200338095Y-102854819D01*
X200338095Y-102854819D02*
X200338095Y-101854819D01*
X200338095Y-101854819D02*
X200671428Y-101854819D01*
X200671428Y-101854819D02*
X200766666Y-101902438D01*
X200766666Y-101902438D02*
X200814285Y-101950057D01*
X200814285Y-101950057D02*
X200861904Y-102045295D01*
X200861904Y-102045295D02*
X200861904Y-102140533D01*
X200861904Y-102140533D02*
X200814285Y-102235771D01*
X200814285Y-102235771D02*
X200766666Y-102283390D01*
X200766666Y-102283390D02*
X200671428Y-102331009D01*
X200671428Y-102331009D02*
X200338095Y-102331009D01*
X201766666Y-101854819D02*
X201576190Y-101854819D01*
X201576190Y-101854819D02*
X201480952Y-101902438D01*
X201480952Y-101902438D02*
X201433333Y-101950057D01*
X201433333Y-101950057D02*
X201338095Y-102092914D01*
X201338095Y-102092914D02*
X201290476Y-102283390D01*
X201290476Y-102283390D02*
X201290476Y-102664342D01*
X201290476Y-102664342D02*
X201338095Y-102759580D01*
X201338095Y-102759580D02*
X201385714Y-102807200D01*
X201385714Y-102807200D02*
X201480952Y-102854819D01*
X201480952Y-102854819D02*
X201671428Y-102854819D01*
X201671428Y-102854819D02*
X201766666Y-102807200D01*
X201766666Y-102807200D02*
X201814285Y-102759580D01*
X201814285Y-102759580D02*
X201861904Y-102664342D01*
X201861904Y-102664342D02*
X201861904Y-102426247D01*
X201861904Y-102426247D02*
X201814285Y-102331009D01*
X201814285Y-102331009D02*
X201766666Y-102283390D01*
X201766666Y-102283390D02*
X201671428Y-102235771D01*
X201671428Y-102235771D02*
X201480952Y-102235771D01*
X201480952Y-102235771D02*
X201385714Y-102283390D01*
X201385714Y-102283390D02*
X201338095Y-102331009D01*
X201338095Y-102331009D02*
X201290476Y-102426247D01*
X195320832Y-110759580D02*
X195273213Y-110807200D01*
X195273213Y-110807200D02*
X195130356Y-110854819D01*
X195130356Y-110854819D02*
X195035118Y-110854819D01*
X195035118Y-110854819D02*
X194892261Y-110807200D01*
X194892261Y-110807200D02*
X194797023Y-110711961D01*
X194797023Y-110711961D02*
X194749404Y-110616723D01*
X194749404Y-110616723D02*
X194701785Y-110426247D01*
X194701785Y-110426247D02*
X194701785Y-110283390D01*
X194701785Y-110283390D02*
X194749404Y-110092914D01*
X194749404Y-110092914D02*
X194797023Y-109997676D01*
X194797023Y-109997676D02*
X194892261Y-109902438D01*
X194892261Y-109902438D02*
X195035118Y-109854819D01*
X195035118Y-109854819D02*
X195130356Y-109854819D01*
X195130356Y-109854819D02*
X195273213Y-109902438D01*
X195273213Y-109902438D02*
X195320832Y-109950057D01*
X195701785Y-109950057D02*
X195749404Y-109902438D01*
X195749404Y-109902438D02*
X195844642Y-109854819D01*
X195844642Y-109854819D02*
X196082737Y-109854819D01*
X196082737Y-109854819D02*
X196177975Y-109902438D01*
X196177975Y-109902438D02*
X196225594Y-109950057D01*
X196225594Y-109950057D02*
X196273213Y-110045295D01*
X196273213Y-110045295D02*
X196273213Y-110140533D01*
X196273213Y-110140533D02*
X196225594Y-110283390D01*
X196225594Y-110283390D02*
X195654166Y-110854819D01*
X195654166Y-110854819D02*
X196273213Y-110854819D01*
X230224819Y-91539523D02*
X231224819Y-90872857D01*
X230224819Y-90872857D02*
X231224819Y-91539523D01*
X230224819Y-90015714D02*
X230224819Y-90491904D01*
X230224819Y-90491904D02*
X230701009Y-90539523D01*
X230701009Y-90539523D02*
X230653390Y-90491904D01*
X230653390Y-90491904D02*
X230605771Y-90396666D01*
X230605771Y-90396666D02*
X230605771Y-90158571D01*
X230605771Y-90158571D02*
X230653390Y-90063333D01*
X230653390Y-90063333D02*
X230701009Y-90015714D01*
X230701009Y-90015714D02*
X230796247Y-89968095D01*
X230796247Y-89968095D02*
X231034342Y-89968095D01*
X231034342Y-89968095D02*
X231129580Y-90015714D01*
X231129580Y-90015714D02*
X231177200Y-90063333D01*
X231177200Y-90063333D02*
X231224819Y-90158571D01*
X231224819Y-90158571D02*
X231224819Y-90396666D01*
X231224819Y-90396666D02*
X231177200Y-90491904D01*
X231177200Y-90491904D02*
X231129580Y-90539523D01*
X220638095Y-107054819D02*
X220638095Y-107864342D01*
X220638095Y-107864342D02*
X220685714Y-107959580D01*
X220685714Y-107959580D02*
X220733333Y-108007200D01*
X220733333Y-108007200D02*
X220828571Y-108054819D01*
X220828571Y-108054819D02*
X221019047Y-108054819D01*
X221019047Y-108054819D02*
X221114285Y-108007200D01*
X221114285Y-108007200D02*
X221161904Y-107959580D01*
X221161904Y-107959580D02*
X221209523Y-107864342D01*
X221209523Y-107864342D02*
X221209523Y-107054819D01*
X222114285Y-107054819D02*
X221923809Y-107054819D01*
X221923809Y-107054819D02*
X221828571Y-107102438D01*
X221828571Y-107102438D02*
X221780952Y-107150057D01*
X221780952Y-107150057D02*
X221685714Y-107292914D01*
X221685714Y-107292914D02*
X221638095Y-107483390D01*
X221638095Y-107483390D02*
X221638095Y-107864342D01*
X221638095Y-107864342D02*
X221685714Y-107959580D01*
X221685714Y-107959580D02*
X221733333Y-108007200D01*
X221733333Y-108007200D02*
X221828571Y-108054819D01*
X221828571Y-108054819D02*
X222019047Y-108054819D01*
X222019047Y-108054819D02*
X222114285Y-108007200D01*
X222114285Y-108007200D02*
X222161904Y-107959580D01*
X222161904Y-107959580D02*
X222209523Y-107864342D01*
X222209523Y-107864342D02*
X222209523Y-107626247D01*
X222209523Y-107626247D02*
X222161904Y-107531009D01*
X222161904Y-107531009D02*
X222114285Y-107483390D01*
X222114285Y-107483390D02*
X222019047Y-107435771D01*
X222019047Y-107435771D02*
X221828571Y-107435771D01*
X221828571Y-107435771D02*
X221733333Y-107483390D01*
X221733333Y-107483390D02*
X221685714Y-107531009D01*
X221685714Y-107531009D02*
X221638095Y-107626247D01*
X194557142Y-76854819D02*
X194223809Y-76378628D01*
X193985714Y-76854819D02*
X193985714Y-75854819D01*
X193985714Y-75854819D02*
X194366666Y-75854819D01*
X194366666Y-75854819D02*
X194461904Y-75902438D01*
X194461904Y-75902438D02*
X194509523Y-75950057D01*
X194509523Y-75950057D02*
X194557142Y-76045295D01*
X194557142Y-76045295D02*
X194557142Y-76188152D01*
X194557142Y-76188152D02*
X194509523Y-76283390D01*
X194509523Y-76283390D02*
X194461904Y-76331009D01*
X194461904Y-76331009D02*
X194366666Y-76378628D01*
X194366666Y-76378628D02*
X193985714Y-76378628D01*
X195509523Y-76854819D02*
X194938095Y-76854819D01*
X195223809Y-76854819D02*
X195223809Y-75854819D01*
X195223809Y-75854819D02*
X195128571Y-75997676D01*
X195128571Y-75997676D02*
X195033333Y-76092914D01*
X195033333Y-76092914D02*
X194938095Y-76140533D01*
X196366666Y-76188152D02*
X196366666Y-76854819D01*
X196128571Y-75807200D02*
X195890476Y-76521485D01*
X195890476Y-76521485D02*
X196509523Y-76521485D01*
X202788095Y-94697200D02*
X202930952Y-94744819D01*
X202930952Y-94744819D02*
X203169047Y-94744819D01*
X203169047Y-94744819D02*
X203264285Y-94697200D01*
X203264285Y-94697200D02*
X203311904Y-94649580D01*
X203311904Y-94649580D02*
X203359523Y-94554342D01*
X203359523Y-94554342D02*
X203359523Y-94459104D01*
X203359523Y-94459104D02*
X203311904Y-94363866D01*
X203311904Y-94363866D02*
X203264285Y-94316247D01*
X203264285Y-94316247D02*
X203169047Y-94268628D01*
X203169047Y-94268628D02*
X202978571Y-94221009D01*
X202978571Y-94221009D02*
X202883333Y-94173390D01*
X202883333Y-94173390D02*
X202835714Y-94125771D01*
X202835714Y-94125771D02*
X202788095Y-94030533D01*
X202788095Y-94030533D02*
X202788095Y-93935295D01*
X202788095Y-93935295D02*
X202835714Y-93840057D01*
X202835714Y-93840057D02*
X202883333Y-93792438D01*
X202883333Y-93792438D02*
X202978571Y-93744819D01*
X202978571Y-93744819D02*
X203216666Y-93744819D01*
X203216666Y-93744819D02*
X203359523Y-93792438D01*
X204121428Y-94221009D02*
X204264285Y-94268628D01*
X204264285Y-94268628D02*
X204311904Y-94316247D01*
X204311904Y-94316247D02*
X204359523Y-94411485D01*
X204359523Y-94411485D02*
X204359523Y-94554342D01*
X204359523Y-94554342D02*
X204311904Y-94649580D01*
X204311904Y-94649580D02*
X204264285Y-94697200D01*
X204264285Y-94697200D02*
X204169047Y-94744819D01*
X204169047Y-94744819D02*
X203788095Y-94744819D01*
X203788095Y-94744819D02*
X203788095Y-93744819D01*
X203788095Y-93744819D02*
X204121428Y-93744819D01*
X204121428Y-93744819D02*
X204216666Y-93792438D01*
X204216666Y-93792438D02*
X204264285Y-93840057D01*
X204264285Y-93840057D02*
X204311904Y-93935295D01*
X204311904Y-93935295D02*
X204311904Y-94030533D01*
X204311904Y-94030533D02*
X204264285Y-94125771D01*
X204264285Y-94125771D02*
X204216666Y-94173390D01*
X204216666Y-94173390D02*
X204121428Y-94221009D01*
X204121428Y-94221009D02*
X203788095Y-94221009D01*
X204740476Y-93840057D02*
X204788095Y-93792438D01*
X204788095Y-93792438D02*
X204883333Y-93744819D01*
X204883333Y-93744819D02*
X205121428Y-93744819D01*
X205121428Y-93744819D02*
X205216666Y-93792438D01*
X205216666Y-93792438D02*
X205264285Y-93840057D01*
X205264285Y-93840057D02*
X205311904Y-93935295D01*
X205311904Y-93935295D02*
X205311904Y-94030533D01*
X205311904Y-94030533D02*
X205264285Y-94173390D01*
X205264285Y-94173390D02*
X204692857Y-94744819D01*
X204692857Y-94744819D02*
X205311904Y-94744819D01*
X210833333Y-110459580D02*
X210785714Y-110507200D01*
X210785714Y-110507200D02*
X210642857Y-110554819D01*
X210642857Y-110554819D02*
X210547619Y-110554819D01*
X210547619Y-110554819D02*
X210404762Y-110507200D01*
X210404762Y-110507200D02*
X210309524Y-110411961D01*
X210309524Y-110411961D02*
X210261905Y-110316723D01*
X210261905Y-110316723D02*
X210214286Y-110126247D01*
X210214286Y-110126247D02*
X210214286Y-109983390D01*
X210214286Y-109983390D02*
X210261905Y-109792914D01*
X210261905Y-109792914D02*
X210309524Y-109697676D01*
X210309524Y-109697676D02*
X210404762Y-109602438D01*
X210404762Y-109602438D02*
X210547619Y-109554819D01*
X210547619Y-109554819D02*
X210642857Y-109554819D01*
X210642857Y-109554819D02*
X210785714Y-109602438D01*
X210785714Y-109602438D02*
X210833333Y-109650057D01*
X211690476Y-109888152D02*
X211690476Y-110554819D01*
X211452381Y-109507200D02*
X211214286Y-110221485D01*
X211214286Y-110221485D02*
X211833333Y-110221485D01*
X235357318Y-105642857D02*
X234881127Y-105976190D01*
X235357318Y-106214285D02*
X234357318Y-106214285D01*
X234357318Y-106214285D02*
X234357318Y-105833333D01*
X234357318Y-105833333D02*
X234404937Y-105738095D01*
X234404937Y-105738095D02*
X234452556Y-105690476D01*
X234452556Y-105690476D02*
X234547794Y-105642857D01*
X234547794Y-105642857D02*
X234690651Y-105642857D01*
X234690651Y-105642857D02*
X234785889Y-105690476D01*
X234785889Y-105690476D02*
X234833508Y-105738095D01*
X234833508Y-105738095D02*
X234881127Y-105833333D01*
X234881127Y-105833333D02*
X234881127Y-106214285D01*
X235357318Y-104690476D02*
X235357318Y-105261904D01*
X235357318Y-104976190D02*
X234357318Y-104976190D01*
X234357318Y-104976190D02*
X234500175Y-105071428D01*
X234500175Y-105071428D02*
X234595413Y-105166666D01*
X234595413Y-105166666D02*
X234643032Y-105261904D01*
X234452556Y-104309523D02*
X234404937Y-104261904D01*
X234404937Y-104261904D02*
X234357318Y-104166666D01*
X234357318Y-104166666D02*
X234357318Y-103928571D01*
X234357318Y-103928571D02*
X234404937Y-103833333D01*
X234404937Y-103833333D02*
X234452556Y-103785714D01*
X234452556Y-103785714D02*
X234547794Y-103738095D01*
X234547794Y-103738095D02*
X234643032Y-103738095D01*
X234643032Y-103738095D02*
X234785889Y-103785714D01*
X234785889Y-103785714D02*
X235357318Y-104357142D01*
X235357318Y-104357142D02*
X235357318Y-103738095D01*
X218669710Y-89002055D02*
X218717329Y-88859198D01*
X218717329Y-88859198D02*
X218717329Y-88621103D01*
X218717329Y-88621103D02*
X218669710Y-88525865D01*
X218669710Y-88525865D02*
X218622090Y-88478246D01*
X218622090Y-88478246D02*
X218526852Y-88430627D01*
X218526852Y-88430627D02*
X218431614Y-88430627D01*
X218431614Y-88430627D02*
X218336376Y-88478246D01*
X218336376Y-88478246D02*
X218288757Y-88525865D01*
X218288757Y-88525865D02*
X218241138Y-88621103D01*
X218241138Y-88621103D02*
X218193519Y-88811579D01*
X218193519Y-88811579D02*
X218145900Y-88906817D01*
X218145900Y-88906817D02*
X218098281Y-88954436D01*
X218098281Y-88954436D02*
X218003043Y-89002055D01*
X218003043Y-89002055D02*
X217907805Y-89002055D01*
X217907805Y-89002055D02*
X217812567Y-88954436D01*
X217812567Y-88954436D02*
X217764948Y-88906817D01*
X217764948Y-88906817D02*
X217717329Y-88811579D01*
X217717329Y-88811579D02*
X217717329Y-88573484D01*
X217717329Y-88573484D02*
X217764948Y-88430627D01*
X218193519Y-87668722D02*
X218241138Y-87525865D01*
X218241138Y-87525865D02*
X218288757Y-87478246D01*
X218288757Y-87478246D02*
X218383995Y-87430627D01*
X218383995Y-87430627D02*
X218526852Y-87430627D01*
X218526852Y-87430627D02*
X218622090Y-87478246D01*
X218622090Y-87478246D02*
X218669710Y-87525865D01*
X218669710Y-87525865D02*
X218717329Y-87621103D01*
X218717329Y-87621103D02*
X218717329Y-88002055D01*
X218717329Y-88002055D02*
X217717329Y-88002055D01*
X217717329Y-88002055D02*
X217717329Y-87668722D01*
X217717329Y-87668722D02*
X217764948Y-87573484D01*
X217764948Y-87573484D02*
X217812567Y-87525865D01*
X217812567Y-87525865D02*
X217907805Y-87478246D01*
X217907805Y-87478246D02*
X218003043Y-87478246D01*
X218003043Y-87478246D02*
X218098281Y-87525865D01*
X218098281Y-87525865D02*
X218145900Y-87573484D01*
X218145900Y-87573484D02*
X218193519Y-87668722D01*
X218193519Y-87668722D02*
X218193519Y-88002055D01*
X218145900Y-86859198D02*
X218098281Y-86954436D01*
X218098281Y-86954436D02*
X218050662Y-87002055D01*
X218050662Y-87002055D02*
X217955424Y-87049674D01*
X217955424Y-87049674D02*
X217907805Y-87049674D01*
X217907805Y-87049674D02*
X217812567Y-87002055D01*
X217812567Y-87002055D02*
X217764948Y-86954436D01*
X217764948Y-86954436D02*
X217717329Y-86859198D01*
X217717329Y-86859198D02*
X217717329Y-86668722D01*
X217717329Y-86668722D02*
X217764948Y-86573484D01*
X217764948Y-86573484D02*
X217812567Y-86525865D01*
X217812567Y-86525865D02*
X217907805Y-86478246D01*
X217907805Y-86478246D02*
X217955424Y-86478246D01*
X217955424Y-86478246D02*
X218050662Y-86525865D01*
X218050662Y-86525865D02*
X218098281Y-86573484D01*
X218098281Y-86573484D02*
X218145900Y-86668722D01*
X218145900Y-86668722D02*
X218145900Y-86859198D01*
X218145900Y-86859198D02*
X218193519Y-86954436D01*
X218193519Y-86954436D02*
X218241138Y-87002055D01*
X218241138Y-87002055D02*
X218336376Y-87049674D01*
X218336376Y-87049674D02*
X218526852Y-87049674D01*
X218526852Y-87049674D02*
X218622090Y-87002055D01*
X218622090Y-87002055D02*
X218669710Y-86954436D01*
X218669710Y-86954436D02*
X218717329Y-86859198D01*
X218717329Y-86859198D02*
X218717329Y-86668722D01*
X218717329Y-86668722D02*
X218669710Y-86573484D01*
X218669710Y-86573484D02*
X218622090Y-86525865D01*
X218622090Y-86525865D02*
X218526852Y-86478246D01*
X218526852Y-86478246D02*
X218336376Y-86478246D01*
X218336376Y-86478246D02*
X218241138Y-86525865D01*
X218241138Y-86525865D02*
X218193519Y-86573484D01*
X218193519Y-86573484D02*
X218145900Y-86668722D01*
X189258940Y-125778856D02*
X189925606Y-126778856D01*
X189925606Y-125778856D02*
X189258940Y-126778856D01*
X190258940Y-125874094D02*
X190306559Y-125826475D01*
X190306559Y-125826475D02*
X190401797Y-125778856D01*
X190401797Y-125778856D02*
X190639892Y-125778856D01*
X190639892Y-125778856D02*
X190735130Y-125826475D01*
X190735130Y-125826475D02*
X190782749Y-125874094D01*
X190782749Y-125874094D02*
X190830368Y-125969332D01*
X190830368Y-125969332D02*
X190830368Y-126064570D01*
X190830368Y-126064570D02*
X190782749Y-126207427D01*
X190782749Y-126207427D02*
X190211321Y-126778856D01*
X190211321Y-126778856D02*
X190830368Y-126778856D01*
X233957142Y-126084819D02*
X233623809Y-125608628D01*
X233385714Y-126084819D02*
X233385714Y-125084819D01*
X233385714Y-125084819D02*
X233766666Y-125084819D01*
X233766666Y-125084819D02*
X233861904Y-125132438D01*
X233861904Y-125132438D02*
X233909523Y-125180057D01*
X233909523Y-125180057D02*
X233957142Y-125275295D01*
X233957142Y-125275295D02*
X233957142Y-125418152D01*
X233957142Y-125418152D02*
X233909523Y-125513390D01*
X233909523Y-125513390D02*
X233861904Y-125561009D01*
X233861904Y-125561009D02*
X233766666Y-125608628D01*
X233766666Y-125608628D02*
X233385714Y-125608628D01*
X234338095Y-125180057D02*
X234385714Y-125132438D01*
X234385714Y-125132438D02*
X234480952Y-125084819D01*
X234480952Y-125084819D02*
X234719047Y-125084819D01*
X234719047Y-125084819D02*
X234814285Y-125132438D01*
X234814285Y-125132438D02*
X234861904Y-125180057D01*
X234861904Y-125180057D02*
X234909523Y-125275295D01*
X234909523Y-125275295D02*
X234909523Y-125370533D01*
X234909523Y-125370533D02*
X234861904Y-125513390D01*
X234861904Y-125513390D02*
X234290476Y-126084819D01*
X234290476Y-126084819D02*
X234909523Y-126084819D01*
X235528571Y-125084819D02*
X235623809Y-125084819D01*
X235623809Y-125084819D02*
X235719047Y-125132438D01*
X235719047Y-125132438D02*
X235766666Y-125180057D01*
X235766666Y-125180057D02*
X235814285Y-125275295D01*
X235814285Y-125275295D02*
X235861904Y-125465771D01*
X235861904Y-125465771D02*
X235861904Y-125703866D01*
X235861904Y-125703866D02*
X235814285Y-125894342D01*
X235814285Y-125894342D02*
X235766666Y-125989580D01*
X235766666Y-125989580D02*
X235719047Y-126037200D01*
X235719047Y-126037200D02*
X235623809Y-126084819D01*
X235623809Y-126084819D02*
X235528571Y-126084819D01*
X235528571Y-126084819D02*
X235433333Y-126037200D01*
X235433333Y-126037200D02*
X235385714Y-125989580D01*
X235385714Y-125989580D02*
X235338095Y-125894342D01*
X235338095Y-125894342D02*
X235290476Y-125703866D01*
X235290476Y-125703866D02*
X235290476Y-125465771D01*
X235290476Y-125465771D02*
X235338095Y-125275295D01*
X235338095Y-125275295D02*
X235385714Y-125180057D01*
X235385714Y-125180057D02*
X235433333Y-125132438D01*
X235433333Y-125132438D02*
X235528571Y-125084819D01*
X209923809Y-104278628D02*
X209923809Y-104754819D01*
X209590476Y-103754819D02*
X209923809Y-104278628D01*
X209923809Y-104278628D02*
X210257142Y-103754819D01*
X211114285Y-104754819D02*
X210542857Y-104754819D01*
X210828571Y-104754819D02*
X210828571Y-103754819D01*
X210828571Y-103754819D02*
X210733333Y-103897676D01*
X210733333Y-103897676D02*
X210638095Y-103992914D01*
X210638095Y-103992914D02*
X210542857Y-104040533D01*
X203388095Y-84467200D02*
X203530952Y-84514819D01*
X203530952Y-84514819D02*
X203769047Y-84514819D01*
X203769047Y-84514819D02*
X203864285Y-84467200D01*
X203864285Y-84467200D02*
X203911904Y-84419580D01*
X203911904Y-84419580D02*
X203959523Y-84324342D01*
X203959523Y-84324342D02*
X203959523Y-84229104D01*
X203959523Y-84229104D02*
X203911904Y-84133866D01*
X203911904Y-84133866D02*
X203864285Y-84086247D01*
X203864285Y-84086247D02*
X203769047Y-84038628D01*
X203769047Y-84038628D02*
X203578571Y-83991009D01*
X203578571Y-83991009D02*
X203483333Y-83943390D01*
X203483333Y-83943390D02*
X203435714Y-83895771D01*
X203435714Y-83895771D02*
X203388095Y-83800533D01*
X203388095Y-83800533D02*
X203388095Y-83705295D01*
X203388095Y-83705295D02*
X203435714Y-83610057D01*
X203435714Y-83610057D02*
X203483333Y-83562438D01*
X203483333Y-83562438D02*
X203578571Y-83514819D01*
X203578571Y-83514819D02*
X203816666Y-83514819D01*
X203816666Y-83514819D02*
X203959523Y-83562438D01*
X204721428Y-83991009D02*
X204864285Y-84038628D01*
X204864285Y-84038628D02*
X204911904Y-84086247D01*
X204911904Y-84086247D02*
X204959523Y-84181485D01*
X204959523Y-84181485D02*
X204959523Y-84324342D01*
X204959523Y-84324342D02*
X204911904Y-84419580D01*
X204911904Y-84419580D02*
X204864285Y-84467200D01*
X204864285Y-84467200D02*
X204769047Y-84514819D01*
X204769047Y-84514819D02*
X204388095Y-84514819D01*
X204388095Y-84514819D02*
X204388095Y-83514819D01*
X204388095Y-83514819D02*
X204721428Y-83514819D01*
X204721428Y-83514819D02*
X204816666Y-83562438D01*
X204816666Y-83562438D02*
X204864285Y-83610057D01*
X204864285Y-83610057D02*
X204911904Y-83705295D01*
X204911904Y-83705295D02*
X204911904Y-83800533D01*
X204911904Y-83800533D02*
X204864285Y-83895771D01*
X204864285Y-83895771D02*
X204816666Y-83943390D01*
X204816666Y-83943390D02*
X204721428Y-83991009D01*
X204721428Y-83991009D02*
X204388095Y-83991009D01*
X205292857Y-83514819D02*
X205911904Y-83514819D01*
X205911904Y-83514819D02*
X205578571Y-83895771D01*
X205578571Y-83895771D02*
X205721428Y-83895771D01*
X205721428Y-83895771D02*
X205816666Y-83943390D01*
X205816666Y-83943390D02*
X205864285Y-83991009D01*
X205864285Y-83991009D02*
X205911904Y-84086247D01*
X205911904Y-84086247D02*
X205911904Y-84324342D01*
X205911904Y-84324342D02*
X205864285Y-84419580D01*
X205864285Y-84419580D02*
X205816666Y-84467200D01*
X205816666Y-84467200D02*
X205721428Y-84514819D01*
X205721428Y-84514819D02*
X205435714Y-84514819D01*
X205435714Y-84514819D02*
X205340476Y-84467200D01*
X205340476Y-84467200D02*
X205292857Y-84419580D01*
X246261905Y-100654819D02*
X246261905Y-99654819D01*
X246261905Y-99654819D02*
X246500000Y-99654819D01*
X246500000Y-99654819D02*
X246642857Y-99702438D01*
X246642857Y-99702438D02*
X246738095Y-99797676D01*
X246738095Y-99797676D02*
X246785714Y-99892914D01*
X246785714Y-99892914D02*
X246833333Y-100083390D01*
X246833333Y-100083390D02*
X246833333Y-100226247D01*
X246833333Y-100226247D02*
X246785714Y-100416723D01*
X246785714Y-100416723D02*
X246738095Y-100511961D01*
X246738095Y-100511961D02*
X246642857Y-100607200D01*
X246642857Y-100607200D02*
X246500000Y-100654819D01*
X246500000Y-100654819D02*
X246261905Y-100654819D01*
X247785714Y-100654819D02*
X247214286Y-100654819D01*
X247500000Y-100654819D02*
X247500000Y-99654819D01*
X247500000Y-99654819D02*
X247404762Y-99797676D01*
X247404762Y-99797676D02*
X247309524Y-99892914D01*
X247309524Y-99892914D02*
X247214286Y-99940533D01*
D12*
%TO.C,Q3*%
X201070000Y-131700001D02*
X201070000Y-131040000D01*
X201070000Y-133360000D02*
X201070000Y-132699999D01*
X202480000Y-131040001D02*
X201070000Y-131040000D01*
X202480000Y-133359999D02*
X201070000Y-133360000D01*
X203090000Y-133670000D02*
X202610000Y-133669999D01*
X202850000Y-133340000D01*
X203090000Y-133670000D01*
G36*
X203090000Y-133670000D02*
G01*
X202610000Y-133669999D01*
X202850000Y-133340000D01*
X203090000Y-133670000D01*
G37*
%TO.C,U5*%
X238039999Y-108462500D02*
X238040000Y-107662500D01*
X238039999Y-108462500D02*
X238040000Y-109262500D01*
X241160001Y-108462500D02*
X241160000Y-107662500D01*
X241160001Y-108462500D02*
X241160000Y-109262500D01*
X238090000Y-109762500D02*
X237760000Y-110002500D01*
X237760000Y-109522500D01*
X238090000Y-109762500D01*
G36*
X238090000Y-109762500D02*
G01*
X237760000Y-110002500D01*
X237760000Y-109522500D01*
X238090000Y-109762500D01*
G37*
%TO.C,C10*%
X228453733Y-103990000D02*
X228746267Y-103990000D01*
X228453733Y-105010000D02*
X228746267Y-105010000D01*
%TO.C,SB5*%
X204142224Y-104277499D02*
X203632776Y-104277499D01*
X204142224Y-105322499D02*
X203632776Y-105322499D01*
%TO.C,X4*%
X186220000Y-98320000D02*
X186220000Y-111140000D01*
X186220000Y-98320000D02*
X188820000Y-98320000D01*
X186220000Y-111140000D02*
X191420000Y-111140000D01*
X188820000Y-98320000D02*
X188820000Y-100920000D01*
X188820000Y-100920000D02*
X191420000Y-100920000D01*
X190090000Y-98320000D02*
X191420000Y-98320000D01*
X191420000Y-98320000D02*
X191420000Y-99650000D01*
X191420000Y-100920000D02*
X191420000Y-111140000D01*
%TO.C,R11*%
X232590000Y-108480980D02*
X232590000Y-107971532D01*
X233635000Y-108480980D02*
X233635000Y-107971532D01*
%TO.C,Q1*%
X201070000Y-128187501D02*
X201070000Y-127527500D01*
X201070000Y-129847500D02*
X201070000Y-129187499D01*
X202480000Y-127527501D02*
X201070000Y-127527500D01*
X202480000Y-129847499D02*
X201070000Y-129847500D01*
X203090000Y-130157500D02*
X202610000Y-130157499D01*
X202850000Y-129827500D01*
X203090000Y-130157500D01*
G36*
X203090000Y-130157500D02*
G01*
X202610000Y-130157499D01*
X202850000Y-129827500D01*
X203090000Y-130157500D01*
G37*
%TO.C,SB12*%
X211941735Y-90802090D02*
X211941735Y-91311538D01*
X212986735Y-90802090D02*
X212986735Y-91311538D01*
%TO.C,SB1*%
X202767224Y-122877500D02*
X202257776Y-122877500D01*
X202767224Y-123922500D02*
X202257776Y-123922500D01*
%TO.C,SW1*%
X225970000Y-116970000D02*
X225970000Y-123430000D01*
X225970000Y-116970000D02*
X226000000Y-116970000D01*
X225970000Y-123430000D02*
X226000000Y-123430000D01*
X230500000Y-116970000D02*
X227900000Y-116970000D01*
X230500000Y-123430000D02*
X227900000Y-123430000D01*
X232400000Y-116970000D02*
X232430000Y-116970000D01*
X232430000Y-116970000D02*
X232430000Y-123430000D01*
X232430000Y-123430000D02*
X232400000Y-123430000D01*
%TO.C,R7*%
X197832776Y-108277500D02*
X198342224Y-108277500D01*
X197832776Y-109322500D02*
X198342224Y-109322500D01*
%TO.C,C12*%
X241421265Y-113015003D02*
X241128731Y-113015003D01*
X241421265Y-114035003D02*
X241128731Y-114035003D01*
%TO.C,U2*%
X204325000Y-86605001D02*
X202375000Y-86605000D01*
X204325000Y-86605001D02*
X206275000Y-86605000D01*
X204325000Y-91724999D02*
X202375000Y-91725000D01*
X204325000Y-91724999D02*
X206275000Y-91725000D01*
X207264999Y-91960000D02*
X206785000Y-91960000D01*
X207025000Y-91630000D01*
X207264999Y-91960000D01*
G36*
X207264999Y-91960000D02*
G01*
X206785000Y-91960000D01*
X207025000Y-91630000D01*
X207264999Y-91960000D01*
G37*
%TO.C,U3*%
X203887500Y-105840001D02*
X201937500Y-105840000D01*
X203887500Y-105840001D02*
X205837500Y-105840000D01*
X203887500Y-110959999D02*
X201937500Y-110960000D01*
X203887500Y-110959999D02*
X205837500Y-110960000D01*
X206827499Y-111195000D02*
X206347500Y-111195000D01*
X206587500Y-110865000D01*
X206827499Y-111195000D01*
G36*
X206827499Y-111195000D02*
G01*
X206347500Y-111195000D01*
X206587500Y-110865000D01*
X206827499Y-111195000D01*
G37*
%TO.C,R17*%
X215009072Y-130212084D02*
X215009072Y-129702636D01*
X216054072Y-130212084D02*
X216054072Y-129702636D01*
%TO.C,R4*%
X196657777Y-119477499D02*
X197167225Y-119477499D01*
X196657777Y-120522499D02*
X197167225Y-120522499D01*
%TO.C,C9*%
X217490000Y-99046267D02*
X217490000Y-98753733D01*
X218510000Y-99046267D02*
X218510000Y-98753733D01*
%TO.C,R19*%
X220736637Y-130141373D02*
X220736637Y-129631925D01*
X221781637Y-130141373D02*
X221781637Y-129631925D01*
D13*
%TO.C,G\u002A\u002A\u002A*%
G36*
X219121978Y-78028454D02*
G01*
X219266681Y-78057051D01*
X219321903Y-78133862D01*
X219330794Y-78282736D01*
X219330796Y-78292930D01*
X219330796Y-78561639D01*
X218836222Y-78534626D01*
X218535893Y-78499791D01*
X218344135Y-78439701D01*
X218299483Y-78397751D01*
X218277950Y-78205432D01*
X218397586Y-78085237D01*
X218668996Y-78029900D01*
X218844647Y-78024222D01*
X219121978Y-78028454D01*
G37*
G36*
X216165333Y-74091217D02*
G01*
X216228522Y-74177682D01*
X216261850Y-74387654D01*
X216268268Y-74462711D01*
X216270759Y-74823040D01*
X216219996Y-75074554D01*
X216126090Y-75198429D01*
X215999148Y-75175845D01*
X215924972Y-75101903D01*
X215875898Y-74954446D01*
X215849601Y-74703058D01*
X215848293Y-74552595D01*
X215865334Y-74285903D01*
X215912537Y-74148226D01*
X216009769Y-74093103D01*
X216047681Y-74086275D01*
X216165333Y-74091217D01*
G37*
G36*
X211485483Y-78062799D02*
G01*
X211779205Y-78075246D01*
X211939916Y-78113597D01*
X212009941Y-78191327D01*
X212021466Y-78233413D01*
X212012978Y-78382865D01*
X211899749Y-78475485D01*
X211655427Y-78524589D01*
X211415877Y-78539405D01*
X211157654Y-78542673D01*
X211029482Y-78512244D01*
X210985879Y-78423700D01*
X210981315Y-78306109D01*
X210989824Y-78166218D01*
X211043582Y-78092609D01*
X211184931Y-78064846D01*
X211456218Y-78062495D01*
X211485483Y-78062799D01*
G37*
G36*
X216181581Y-81473914D02*
G01*
X216231990Y-81566354D01*
X216252021Y-81768835D01*
X216254671Y-81979239D01*
X216250019Y-82271495D01*
X216224597Y-82429284D01*
X216161206Y-82493882D01*
X216042650Y-82506563D01*
X216034948Y-82506574D01*
X215898444Y-82489776D01*
X215834380Y-82407736D01*
X215815899Y-82212988D01*
X215815225Y-82118261D01*
X215834276Y-81760675D01*
X215898447Y-81549745D01*
X216018263Y-81459789D01*
X216088296Y-81451903D01*
X216181581Y-81473914D01*
G37*
G36*
X215275682Y-74079686D02*
G01*
X215341470Y-74138035D01*
X215369468Y-74284610D01*
X215375723Y-74559769D01*
X215375779Y-74621781D01*
X215369080Y-74927273D01*
X215341136Y-75097029D01*
X215280172Y-75170836D01*
X215208543Y-75186956D01*
X215043000Y-75173173D01*
X214988819Y-75147066D01*
X214960511Y-75037248D01*
X214941454Y-74807270D01*
X214936332Y-74581892D01*
X214941302Y-74294705D01*
X214968165Y-74141419D01*
X215034850Y-74080197D01*
X215156055Y-74069204D01*
X215275682Y-74079686D01*
G37*
G36*
X219091334Y-78999707D02*
G01*
X219257761Y-79034649D01*
X219336090Y-79109079D01*
X219354931Y-79161693D01*
X219374786Y-79300396D01*
X219322556Y-79381201D01*
X219166067Y-79419385D01*
X218873144Y-79430219D01*
X218788812Y-79430450D01*
X218501626Y-79425480D01*
X218348339Y-79398617D01*
X218287117Y-79331932D01*
X218276125Y-79210727D01*
X218287589Y-79088044D01*
X218349759Y-79022332D01*
X218504299Y-78995887D01*
X218792874Y-78991004D01*
X218793210Y-78991004D01*
X219091334Y-78999707D01*
G37*
G36*
X219115439Y-77152261D02*
G01*
X219298680Y-77183242D01*
X219370711Y-77253546D01*
X219363705Y-77378446D01*
X219354931Y-77414086D01*
X219303027Y-77511745D01*
X219183596Y-77563666D01*
X218953037Y-77583098D01*
X218793210Y-77584775D01*
X218504495Y-77579904D01*
X218349852Y-77553486D01*
X218287616Y-77487818D01*
X218276125Y-77365195D01*
X218276125Y-77365052D01*
X218287722Y-77241972D01*
X218350402Y-77176278D01*
X218506000Y-77150040D01*
X218788812Y-77145329D01*
X219115439Y-77152261D01*
G37*
G36*
X214402966Y-74078019D02*
G01*
X214467408Y-74131438D01*
X214489249Y-74269922D01*
X214483054Y-74533933D01*
X214479107Y-74618512D01*
X214458221Y-74921942D01*
X214421284Y-75091707D01*
X214351967Y-75169921D01*
X214255190Y-75195905D01*
X214149339Y-75199525D01*
X214090075Y-75147538D01*
X214063957Y-75002604D01*
X214057542Y-74727385D01*
X214057440Y-74646597D01*
X214061075Y-74337542D01*
X214082203Y-74164721D01*
X214136154Y-74088601D01*
X214238257Y-74069651D01*
X214281357Y-74069204D01*
X214402966Y-74078019D01*
G37*
G36*
X211800907Y-77149981D02*
G01*
X211958696Y-77175404D01*
X212023293Y-77238794D01*
X212035975Y-77357351D01*
X212035986Y-77365052D01*
X212024821Y-77486825D01*
X211963807Y-77552571D01*
X211811670Y-77579487D01*
X211527134Y-77584770D01*
X211508651Y-77584775D01*
X211216394Y-77580123D01*
X211058605Y-77554700D01*
X210994008Y-77491310D01*
X210981327Y-77372753D01*
X210981315Y-77365052D01*
X210992481Y-77243279D01*
X211053494Y-77177533D01*
X211205631Y-77150617D01*
X211490167Y-77145334D01*
X211508651Y-77145329D01*
X211800907Y-77149981D01*
G37*
G36*
X211800907Y-78995656D02*
G01*
X211958696Y-79021078D01*
X212023293Y-79084469D01*
X212035975Y-79203025D01*
X212035986Y-79210727D01*
X212024821Y-79332500D01*
X211963807Y-79398246D01*
X211811670Y-79425161D01*
X211527134Y-79430445D01*
X211508651Y-79430450D01*
X211216394Y-79425798D01*
X211058605Y-79400375D01*
X210994008Y-79336985D01*
X210981327Y-79218428D01*
X210981315Y-79210727D01*
X210992481Y-79088953D01*
X211053494Y-79023208D01*
X211205631Y-78996292D01*
X211490167Y-78991008D01*
X211508651Y-78991004D01*
X211800907Y-78995656D01*
G37*
G36*
X214398936Y-81463069D02*
G01*
X214464682Y-81524083D01*
X214491597Y-81676220D01*
X214496881Y-81960755D01*
X214496886Y-81979239D01*
X214492234Y-82271495D01*
X214466811Y-82429284D01*
X214403421Y-82493882D01*
X214284864Y-82506563D01*
X214277163Y-82506574D01*
X214155389Y-82495409D01*
X214089644Y-82434395D01*
X214062728Y-82282258D01*
X214057444Y-81997722D01*
X214057440Y-81979239D01*
X214062092Y-81686983D01*
X214087514Y-81529194D01*
X214150905Y-81464596D01*
X214269461Y-81451915D01*
X214277163Y-81451903D01*
X214398936Y-81463069D01*
G37*
G36*
X215277829Y-81463069D02*
G01*
X215343574Y-81524083D01*
X215370490Y-81676220D01*
X215375774Y-81960755D01*
X215375779Y-81979239D01*
X215371126Y-82271495D01*
X215345704Y-82429284D01*
X215282313Y-82493882D01*
X215163757Y-82506563D01*
X215156055Y-82506574D01*
X215034282Y-82495409D01*
X214968537Y-82434395D01*
X214941621Y-82282258D01*
X214936337Y-81997722D01*
X214936332Y-81979239D01*
X214940985Y-81686983D01*
X214966407Y-81529194D01*
X215029797Y-81464596D01*
X215148354Y-81451915D01*
X215156055Y-81451903D01*
X215277829Y-81463069D01*
G37*
G36*
X217174193Y-74120538D02*
G01*
X217237313Y-74257693D01*
X217302101Y-74390677D01*
X217475213Y-74489235D01*
X217688754Y-74553213D01*
X218163374Y-74759314D01*
X218555266Y-75099357D01*
X218829362Y-75538427D01*
X218906683Y-75765789D01*
X219017372Y-76078225D01*
X219146038Y-76234569D01*
X219175087Y-76246218D01*
X219303171Y-76360954D01*
X219330796Y-76496410D01*
X219318228Y-76612605D01*
X219253086Y-76675350D01*
X219094210Y-76700992D01*
X218803460Y-76705882D01*
X218511204Y-76701230D01*
X218353415Y-76675808D01*
X218288817Y-76612417D01*
X218276136Y-76493861D01*
X218276125Y-76486159D01*
X218317322Y-76313861D01*
X218451903Y-76266436D01*
X218592133Y-76204120D01*
X218633114Y-76039964D01*
X218586929Y-75808155D01*
X218465662Y-75542878D01*
X218281395Y-75278321D01*
X218046211Y-75048670D01*
X218012457Y-75023110D01*
X217758277Y-74886140D01*
X217514453Y-74807764D01*
X217319289Y-74786739D01*
X217233516Y-74848248D01*
X217206841Y-74960555D01*
X217122402Y-75132514D01*
X217001730Y-75167820D01*
X216903789Y-75147030D01*
X216846350Y-75058570D01*
X216815023Y-74863302D01*
X216799785Y-74618512D01*
X216789286Y-74319100D01*
X216803433Y-74154724D01*
X216856328Y-74084958D01*
X216962076Y-74069376D01*
X216991424Y-74069204D01*
X217174193Y-74120538D01*
G37*
G36*
X219095716Y-79962438D02*
G01*
X219253506Y-79987860D01*
X219318103Y-80051251D01*
X219330784Y-80169807D01*
X219330796Y-80177509D01*
X219285579Y-80354081D01*
X219173246Y-80397232D01*
X219051635Y-80458091D01*
X218951014Y-80657546D01*
X218906518Y-80805436D01*
X218696219Y-81327792D01*
X218379076Y-81711688D01*
X217949678Y-81962221D01*
X217573010Y-82062051D01*
X217345930Y-82131767D01*
X217247626Y-82260707D01*
X217237313Y-82310007D01*
X217158545Y-82467673D01*
X216995617Y-82506574D01*
X216877174Y-82494598D01*
X216813221Y-82431195D01*
X216787063Y-82275153D01*
X216782008Y-81985260D01*
X216782007Y-81979239D01*
X216786659Y-81686983D01*
X216812082Y-81529194D01*
X216875472Y-81464596D01*
X216994029Y-81451915D01*
X217001730Y-81451903D01*
X217174029Y-81493101D01*
X217221453Y-81627682D01*
X217270843Y-81766249D01*
X217428254Y-81793305D01*
X217707551Y-81710237D01*
X217773584Y-81682953D01*
X218177812Y-81416899D01*
X218487713Y-81009226D01*
X218576057Y-80824670D01*
X218657657Y-80576383D01*
X218631679Y-80444301D01*
X218488450Y-80398641D01*
X218437255Y-80397232D01*
X218308509Y-80336856D01*
X218276125Y-80177509D01*
X218287290Y-80055735D01*
X218348304Y-79989990D01*
X218500441Y-79963074D01*
X218784977Y-79957790D01*
X218803460Y-79957786D01*
X219095716Y-79962438D01*
G37*
G36*
X213433105Y-74080563D02*
G01*
X213497087Y-74141587D01*
X213524153Y-74292692D01*
X213530017Y-74574299D01*
X213530042Y-74618512D01*
X213525515Y-74918752D01*
X213501222Y-75084684D01*
X213440961Y-75157743D01*
X213328533Y-75179364D01*
X213310319Y-75180495D01*
X213144850Y-75157286D01*
X213092282Y-75026935D01*
X213090658Y-74971758D01*
X213073274Y-74824282D01*
X212986107Y-74781142D01*
X212805017Y-74806292D01*
X212379106Y-74974045D01*
X212028124Y-75274993D01*
X211789086Y-75670689D01*
X211714580Y-75938912D01*
X211691133Y-76153534D01*
X211728928Y-76246346D01*
X211848066Y-76266436D01*
X211848708Y-76266436D01*
X211993996Y-76312700D01*
X212035957Y-76478970D01*
X212035986Y-76486159D01*
X212024821Y-76607933D01*
X211963807Y-76673678D01*
X211811670Y-76700594D01*
X211527134Y-76705878D01*
X211508651Y-76705882D01*
X211216135Y-76700890D01*
X211058180Y-76675014D01*
X210993626Y-76611904D01*
X210981315Y-76496410D01*
X211040841Y-76309233D01*
X211135128Y-76246714D01*
X211262953Y-76129790D01*
X211378313Y-75864850D01*
X211403760Y-75777195D01*
X211591956Y-75354668D01*
X211896629Y-74977275D01*
X212273365Y-74688668D01*
X212668326Y-74534310D01*
X212921718Y-74463327D01*
X213044103Y-74362012D01*
X213074798Y-74264509D01*
X213154245Y-74107643D01*
X213316493Y-74069204D01*
X213433105Y-74080563D01*
G37*
G36*
X211982215Y-79994551D02*
G01*
X212019852Y-80155536D01*
X212014372Y-80333400D01*
X211919097Y-80394411D01*
X211866046Y-80397232D01*
X211722543Y-80461333D01*
X211686395Y-80632778D01*
X211756884Y-80880280D01*
X211882180Y-81101240D01*
X212236637Y-81496908D01*
X212648397Y-81727988D01*
X212805017Y-81769487D01*
X213000558Y-81793183D01*
X213078645Y-81742552D01*
X213090658Y-81638668D01*
X213137130Y-81493717D01*
X213303869Y-81451928D01*
X213310381Y-81451903D01*
X213432154Y-81463069D01*
X213497900Y-81524083D01*
X213524815Y-81676220D01*
X213530099Y-81960755D01*
X213530104Y-81979239D01*
X213525452Y-82271495D01*
X213500029Y-82429284D01*
X213436639Y-82493882D01*
X213318082Y-82506563D01*
X213310381Y-82506574D01*
X213137768Y-82465078D01*
X213090658Y-82332470D01*
X213019489Y-82178043D01*
X212848962Y-82109134D01*
X212477305Y-81989756D01*
X212110745Y-81799966D01*
X211810784Y-81576140D01*
X211668412Y-81410889D01*
X211535566Y-81147274D01*
X211418118Y-80834333D01*
X211399388Y-80770761D01*
X211298406Y-80508727D01*
X211177045Y-80402040D01*
X211138865Y-80397232D01*
X211012256Y-80334172D01*
X210981315Y-80177509D01*
X210995563Y-80047105D01*
X211068274Y-79982050D01*
X211244401Y-79959867D01*
X211420761Y-79957786D01*
X211687432Y-79953701D01*
X211877304Y-79943294D01*
X211926125Y-79935813D01*
X211982215Y-79994551D01*
G37*
G36*
X215600880Y-76622915D02*
G01*
X215888975Y-76642890D01*
X216092406Y-76685730D01*
X216256656Y-76759249D01*
X216351536Y-76818787D01*
X216582888Y-77027869D01*
X216738203Y-77308867D01*
X216828199Y-77692971D01*
X216863595Y-78211367D01*
X216864936Y-78312685D01*
X216837902Y-78865273D01*
X216741198Y-79278974D01*
X216565148Y-79580125D01*
X216325877Y-79779754D01*
X216046787Y-79883811D01*
X215652634Y-79948222D01*
X215198799Y-79972830D01*
X214740660Y-79957477D01*
X214333596Y-79902006D01*
X214032985Y-79806259D01*
X213997132Y-79786381D01*
X213803633Y-79649444D01*
X213671656Y-79493162D01*
X213589836Y-79282173D01*
X213546809Y-78981119D01*
X213531210Y-78554640D01*
X213530104Y-78333247D01*
X213530951Y-78304688D01*
X213969550Y-78304688D01*
X213977942Y-78787398D01*
X214020539Y-79121691D01*
X214123471Y-79334745D01*
X214312868Y-79453734D01*
X214614861Y-79505835D01*
X215055582Y-79518226D01*
X215136500Y-79518339D01*
X215602593Y-79506555D01*
X215920330Y-79468935D01*
X216115697Y-79402074D01*
X216139419Y-79386990D01*
X216306418Y-79165385D01*
X216396075Y-78793566D01*
X216406962Y-78279864D01*
X216382317Y-77971454D01*
X216329244Y-77592533D01*
X216245644Y-77333150D01*
X216101772Y-77172479D01*
X215867887Y-77089694D01*
X215514245Y-77063971D01*
X215096919Y-77071425D01*
X214645821Y-77092479D01*
X214334658Y-77138442D01*
X214137449Y-77237731D01*
X214028218Y-77418766D01*
X213980986Y-77709965D01*
X213969774Y-78139747D01*
X213969550Y-78304688D01*
X213530951Y-78304688D01*
X213547670Y-77741190D01*
X213614281Y-77300979D01*
X213750804Y-76990955D01*
X213978106Y-76789458D01*
X214317054Y-76674829D01*
X214788516Y-76625409D01*
X215182638Y-76617993D01*
X215600880Y-76622915D01*
G37*
G36*
X215831545Y-75756704D02*
G01*
X216229562Y-75783238D01*
X216508761Y-75823559D01*
X216537582Y-75830857D01*
X216939094Y-76013704D01*
X217289018Y-76302436D01*
X217527786Y-76646826D01*
X217541017Y-76676984D01*
X217594067Y-76901570D01*
X217632596Y-77258669D01*
X217656618Y-77706364D01*
X217666148Y-78202739D01*
X217661200Y-78705876D01*
X217641789Y-79173858D01*
X217607930Y-79564769D01*
X217559638Y-79836692D01*
X217539890Y-79894691D01*
X217298747Y-80265376D01*
X216945703Y-80572449D01*
X216615086Y-80736830D01*
X216389337Y-80779343D01*
X216035599Y-80808598D01*
X215597295Y-80824841D01*
X215117848Y-80828317D01*
X214640680Y-80819272D01*
X214209215Y-80797950D01*
X213866876Y-80764598D01*
X213658801Y-80720130D01*
X213274246Y-80525255D01*
X212999394Y-80259159D01*
X212838897Y-80003032D01*
X212765484Y-79849449D01*
X212713970Y-79685688D01*
X212680571Y-79477856D01*
X212661505Y-79192063D01*
X212652987Y-78794416D01*
X212651248Y-78331834D01*
X213091123Y-78331834D01*
X213094431Y-78841994D01*
X213106609Y-79209800D01*
X213131311Y-79468603D01*
X213172191Y-79651750D01*
X213232904Y-79792589D01*
X213255470Y-79831476D01*
X213406935Y-80040166D01*
X213587656Y-80191583D01*
X213826013Y-80293458D01*
X214150382Y-80353524D01*
X214589144Y-80379513D01*
X215170675Y-80379157D01*
X215259663Y-80377552D01*
X215763712Y-80365182D01*
X216124770Y-80347860D01*
X216375622Y-80321011D01*
X216549056Y-80280060D01*
X216677857Y-80220430D01*
X216753781Y-80169036D01*
X216924388Y-80026398D01*
X217047757Y-79870641D01*
X217131404Y-79671438D01*
X217182842Y-79398459D01*
X217209584Y-79021373D01*
X217219146Y-78509852D01*
X217219829Y-78287889D01*
X217217636Y-77774840D01*
X217207643Y-77404115D01*
X217186085Y-77142307D01*
X217149197Y-76956009D01*
X217093215Y-76811811D01*
X217043422Y-76722566D01*
X216889012Y-76518734D01*
X216692924Y-76370984D01*
X216426840Y-76271242D01*
X216062441Y-76211432D01*
X215571408Y-76183481D01*
X215135535Y-76178547D01*
X214498249Y-76191584D01*
X214007990Y-76244017D01*
X213645785Y-76355827D01*
X213392663Y-76546996D01*
X213229653Y-76837508D01*
X213137783Y-77247342D01*
X213098080Y-77796483D01*
X213091123Y-78331834D01*
X212651248Y-78331834D01*
X212651211Y-78321897D01*
X212658010Y-77702298D01*
X212683149Y-77228774D01*
X212733742Y-76871979D01*
X212816902Y-76602567D01*
X212939743Y-76391195D01*
X213109378Y-76208516D01*
X213178061Y-76148498D01*
X213449927Y-75969434D01*
X213749752Y-75838149D01*
X213774529Y-75830857D01*
X214031494Y-75788451D01*
X214414687Y-75759832D01*
X214875099Y-75745001D01*
X215363722Y-75743959D01*
X215831545Y-75756704D01*
G37*
D12*
%TO.C,R8*%
X197832776Y-106677500D02*
X198342224Y-106677500D01*
X197832776Y-107722500D02*
X198342224Y-107722500D01*
%TO.C,R3*%
X204677500Y-128432776D02*
X204677500Y-128942224D01*
X205722500Y-128432776D02*
X205722500Y-128942224D01*
%TO.C,C6*%
X213746267Y-111390000D02*
X213453733Y-111390000D01*
X213746267Y-112410000D02*
X213453733Y-112410000D01*
%TO.C,C8*%
X213746267Y-102790000D02*
X213453733Y-102790000D01*
X213746267Y-103810000D02*
X213453733Y-103810000D01*
%TO.C,SB4*%
X203942224Y-111477500D02*
X203432776Y-111477500D01*
X203942224Y-112522500D02*
X203432776Y-112522500D01*
%TO.C,C3*%
X197778733Y-100255000D02*
X198071267Y-100255000D01*
X197778733Y-101275000D02*
X198071267Y-101275000D01*
%TO.C,U1*%
X202893463Y-116994039D02*
X200943463Y-116994038D01*
X202893463Y-116994039D02*
X204843463Y-116994038D01*
X202893463Y-122114037D02*
X200943463Y-122114038D01*
X202893463Y-122114037D02*
X204843463Y-122114038D01*
X205833462Y-122349038D02*
X205353463Y-122349038D01*
X205593463Y-122019038D01*
X205833462Y-122349038D01*
G36*
X205833462Y-122349038D02*
G01*
X205353463Y-122349038D01*
X205593463Y-122019038D01*
X205833462Y-122349038D01*
G37*
%TO.C,C14*%
X237490000Y-117853733D02*
X237490000Y-118146267D01*
X238510000Y-117853733D02*
X238510000Y-118146267D01*
%TO.C,SB9*%
X219154224Y-91106145D02*
X219154224Y-90596697D01*
X220199224Y-91106145D02*
X220199224Y-90596697D01*
%TO.C,SB11*%
X213735847Y-91530409D02*
X213735847Y-91020961D01*
X214780847Y-91530409D02*
X214780847Y-91020961D01*
%TO.C,C11*%
X245890000Y-115853733D02*
X245890000Y-116146267D01*
X246910000Y-115853733D02*
X246910000Y-116146267D01*
%TO.C,X1*%
X243730000Y-110069999D02*
X243730000Y-104930001D01*
X243730000Y-112670000D02*
X243730000Y-111340000D01*
X245060000Y-112670000D02*
X243730000Y-112670000D01*
X246330000Y-110070000D02*
X243730000Y-110069999D01*
X246330001Y-112670000D02*
X246330000Y-110070000D01*
X248930000Y-104930000D02*
X243730000Y-104930001D01*
X248930000Y-112670000D02*
X246330001Y-112670000D01*
X248930000Y-112670000D02*
X248930000Y-104930000D01*
%TO.C,R6*%
X198195276Y-87537500D02*
X198704724Y-87537500D01*
X198195276Y-88582500D02*
X198704724Y-88582500D01*
%TO.C,Q2*%
X196670000Y-128187501D02*
X196670000Y-127527500D01*
X196670000Y-129847500D02*
X196670000Y-129187499D01*
X198080000Y-127527501D02*
X196670000Y-127527500D01*
X198080000Y-129847499D02*
X196670000Y-129847500D01*
X198690000Y-130157500D02*
X198210000Y-130157499D01*
X198450000Y-129827500D01*
X198690000Y-130157500D01*
G36*
X198690000Y-130157500D02*
G01*
X198210000Y-130157499D01*
X198450000Y-129827500D01*
X198690000Y-130157500D01*
G37*
%TO.C,U7*%
X243104998Y-114645001D02*
X242304998Y-114645002D01*
X243104998Y-114645001D02*
X243904998Y-114645002D01*
X243104998Y-117765003D02*
X242304998Y-117765002D01*
X243104998Y-117765003D02*
X243904998Y-117765002D01*
X244644998Y-118045002D02*
X244164998Y-118045002D01*
X244404998Y-117715002D01*
X244644998Y-118045002D01*
G36*
X244644998Y-118045002D02*
G01*
X244164998Y-118045002D01*
X244404998Y-117715002D01*
X244644998Y-118045002D01*
G37*
%TO.C,C5*%
X191516233Y-74090000D02*
X191808767Y-74090000D01*
X191516233Y-75110000D02*
X191808767Y-75110000D01*
%TO.C,R9*%
X197670276Y-98642500D02*
X198179724Y-98642500D01*
X197670276Y-99687500D02*
X198179724Y-99687500D01*
%TO.C,C1*%
X196766234Y-121090000D02*
X197058768Y-121090000D01*
X196766234Y-122110000D02*
X197058768Y-122110000D01*
%TO.C,R18*%
X217908210Y-130141373D02*
X217908210Y-129631925D01*
X218953210Y-130141373D02*
X218953210Y-129631925D01*
%TO.C,C13*%
X239290003Y-117853733D02*
X239290003Y-118146267D01*
X240310003Y-117853733D02*
X240310003Y-118146267D01*
%TO.C,SB10*%
X215335847Y-91020961D02*
X215335847Y-91530409D01*
X216380847Y-91020961D02*
X216380847Y-91530409D01*
%TO.C,D3*%
X217399999Y-133200000D02*
X217399999Y-136060000D01*
X217399999Y-136060000D02*
X219319999Y-136060000D01*
X219319999Y-136060000D02*
X219319999Y-133200000D01*
%TO.C,Q4*%
X196605919Y-131639039D02*
X196605919Y-130979038D01*
X196605919Y-133299038D02*
X196605919Y-132639037D01*
X198015919Y-130979039D02*
X196605919Y-130979038D01*
X198015919Y-133299037D02*
X196605919Y-133299038D01*
X198625919Y-133609038D02*
X198145919Y-133609037D01*
X198385919Y-133279038D01*
X198625919Y-133609038D01*
G36*
X198625919Y-133609038D02*
G01*
X198145919Y-133609037D01*
X198385919Y-133279038D01*
X198625919Y-133609038D01*
G37*
%TO.C,SB7*%
X219677500Y-99254724D02*
X219677500Y-98745276D01*
X220722500Y-99254724D02*
X220722500Y-98745276D01*
%TO.C,D2*%
X214359998Y-133200000D02*
X214359998Y-136060000D01*
X214359998Y-136060000D02*
X216279998Y-136060000D01*
X216279998Y-136060000D02*
X216279998Y-133200000D01*
%TO.C,U4*%
X204125000Y-96205001D02*
X202175000Y-96205000D01*
X204125000Y-96205001D02*
X206075000Y-96205000D01*
X204125000Y-101324999D02*
X202175000Y-101325000D01*
X204125000Y-101324999D02*
X206075000Y-101325000D01*
X207064999Y-101560000D02*
X206585000Y-101560000D01*
X206825000Y-101230000D01*
X207064999Y-101560000D01*
G36*
X207064999Y-101560000D02*
G01*
X206585000Y-101560000D01*
X206825000Y-101230000D01*
X207064999Y-101560000D01*
G37*
%TO.C,X3*%
X186330000Y-77770000D02*
X186330000Y-93130000D01*
X186330000Y-77770000D02*
X188930000Y-77770000D01*
X186330000Y-93130000D02*
X191530000Y-93130000D01*
X188930000Y-77770000D02*
X188930000Y-80370000D01*
X188930000Y-80370000D02*
X191530000Y-80370000D01*
X190200000Y-77770000D02*
X191530000Y-77770000D01*
X191530000Y-77770000D02*
X191530000Y-79100000D01*
X191530000Y-80370000D02*
X191530000Y-93130000D01*
%TO.C,D4*%
X220440000Y-133200000D02*
X220440000Y-136060000D01*
X220440000Y-136060000D02*
X222360000Y-136060000D01*
X222360000Y-136060000D02*
X222360000Y-133200000D01*
%TO.C,R15*%
X204677500Y-132454724D02*
X204677500Y-131945276D01*
X205722500Y-132454724D02*
X205722500Y-131945276D01*
%TO.C,R1*%
X241790000Y-108880980D02*
X241790000Y-108371532D01*
X242835000Y-108880980D02*
X242835000Y-108371532D01*
%TO.C,SB13*%
X210341734Y-91311538D02*
X210341734Y-90802090D01*
X211386734Y-91311538D02*
X211386734Y-90802090D01*
%TO.C,C7*%
X223690000Y-114753733D02*
X223690000Y-115046267D01*
X224710000Y-114753733D02*
X224710000Y-115046267D01*
%TO.C,R2*%
X238457775Y-104703756D02*
X238967223Y-104703756D01*
X238457775Y-105748756D02*
X238967223Y-105748756D01*
%TO.C,R13*%
X187632776Y-75677500D02*
X188142224Y-75677500D01*
X187632776Y-76722500D02*
X188142224Y-76722500D01*
%TO.C,R5*%
X198195276Y-89137500D02*
X198704724Y-89137500D01*
X198195276Y-90182500D02*
X198704724Y-90182500D01*
%TO.C,R10*%
X237854724Y-111277500D02*
X237345276Y-111277500D01*
X237854724Y-112322500D02*
X237345276Y-112322500D01*
%TO.C,R16*%
X242750687Y-101293261D02*
X242241239Y-101293261D01*
X242750687Y-102338261D02*
X242241239Y-102338261D01*
%TO.C,SB6*%
X203979724Y-101842500D02*
X203470276Y-101842500D01*
X203979724Y-102887500D02*
X203470276Y-102887500D01*
%TO.C,C2*%
X197941233Y-109890000D02*
X198233767Y-109890000D01*
X197941233Y-110910000D02*
X198233767Y-110910000D01*
%TO.C,X5*%
X221590000Y-88130000D02*
X221590001Y-93330000D01*
X226729999Y-93330000D02*
X221590001Y-93330000D01*
X226730000Y-90730000D02*
X226729999Y-93330000D01*
X229330000Y-88130000D02*
X221590000Y-88130000D01*
X229330000Y-88130000D02*
X229330000Y-90729999D01*
X229330000Y-90729999D02*
X226730000Y-90730000D01*
X229330000Y-92000000D02*
X229330000Y-93330000D01*
X229330000Y-93330000D02*
X228000000Y-93330000D01*
%TO.C,U6*%
X217790000Y-103990000D02*
X217790000Y-104440000D01*
X217790000Y-111210000D02*
X217790000Y-110760000D01*
X218240000Y-103990000D02*
X217790000Y-103990000D01*
X218240000Y-111210000D02*
X217790000Y-111210000D01*
X224560000Y-103990000D02*
X225010000Y-103990000D01*
X224560000Y-111210000D02*
X225010000Y-111210000D01*
X225010000Y-103990000D02*
X225010000Y-104440000D01*
X225010000Y-111210000D02*
X225010000Y-110760000D01*
X217200000Y-104440000D02*
X216860000Y-103970000D01*
X217540000Y-103970000D01*
X217200000Y-104440000D01*
G36*
X217200000Y-104440000D02*
G01*
X216860000Y-103970000D01*
X217540000Y-103970000D01*
X217200000Y-104440000D01*
G37*
%TO.C,R14*%
X191432776Y-75677500D02*
X191942224Y-75677500D01*
X191432776Y-76722500D02*
X191942224Y-76722500D01*
%TO.C,SB2*%
X204304724Y-92337500D02*
X203795276Y-92337500D01*
X204304724Y-93382500D02*
X203795276Y-93382500D01*
%TO.C,C4*%
X213746267Y-109590000D02*
X213453733Y-109590000D01*
X213746267Y-110610000D02*
X213453733Y-110610000D01*
%TO.C,R12*%
X234389999Y-108480980D02*
X234389999Y-107971532D01*
X235434999Y-108480980D02*
X235434999Y-107971532D01*
%TO.C,SB8*%
X217598589Y-90738118D02*
X217598589Y-91247566D01*
X218643589Y-90738118D02*
X218643589Y-91247566D01*
%TO.C,X2*%
X188738464Y-122284036D02*
X188738464Y-114604037D01*
X188738464Y-124884037D02*
X188738464Y-123554037D01*
X190068464Y-124884037D02*
X188738464Y-124884037D01*
X191398464Y-114604037D02*
X188738464Y-114604037D01*
X191398464Y-122284036D02*
X188738464Y-122284036D01*
X191398464Y-122284036D02*
X191398464Y-114604037D01*
%TO.C,R20*%
X234854724Y-123677500D02*
X234345276Y-123677500D01*
X234854724Y-124722500D02*
X234345276Y-124722500D01*
%TO.C,Y1*%
X208800000Y-105150000D02*
X208800000Y-109050000D01*
X212000000Y-105150000D02*
X208800000Y-105150000D01*
%TO.C,SB3*%
X204704724Y-84937500D02*
X204195276Y-84937500D01*
X204704724Y-85982500D02*
X204195276Y-85982500D01*
%TO.C,D1*%
X245738603Y-102916064D02*
X248598603Y-102916064D01*
X248598603Y-100996064D02*
X245738603Y-100996064D01*
X248598603Y-102916064D02*
X248598603Y-100996064D01*
%TD*%
M02*
