%TF.GenerationSoftware,KiCad,Pcbnew,8.0.0*%
%TF.CreationDate,2024-11-17T17:13:44+03:00*%
%TF.ProjectId,box_bottom,626f785f-626f-4747-946f-6d2e6b696361,rev?*%
%TF.SameCoordinates,Original*%
%TF.FileFunction,Profile,NP*%
%FSLAX46Y46*%
G04 Gerber Fmt 4.6, Leading zero omitted, Abs format (unit mm)*
G04 Created by KiCad (PCBNEW 8.0.0) date 2024-11-17 17:13:44*
%MOMM*%
%LPD*%
G01*
G04 APERTURE LIST*
%TA.AperFunction,Profile*%
%ADD10C,0.050000*%
%TD*%
G04 APERTURE END LIST*
D10*
X180000000Y-93100000D02*
X180000000Y-117900000D01*
X255000000Y-93100000D02*
X255000000Y-117900000D01*
X229900000Y-68000000D02*
X205100000Y-68000000D01*
X229900000Y-143000000D02*
X205100000Y-143000000D01*
X199900000Y-143000000D02*
X180000000Y-143000000D01*
X255000000Y-143000000D02*
X235100000Y-143000000D01*
X180000000Y-123100000D02*
X180000000Y-143000000D01*
X181700000Y-93100000D02*
X180000000Y-93100000D01*
X180000000Y-117900000D02*
X181700000Y-117899999D01*
X181700000Y-87900000D02*
X181700000Y-93100000D01*
X179999999Y-68000000D02*
X179999999Y-87900000D01*
X181700000Y-123100001D02*
X180000000Y-123100000D01*
X181700000Y-117899999D02*
X181700000Y-123100001D01*
X179999999Y-87900000D02*
X181700000Y-87900000D01*
X255000000Y-93100000D02*
X253300000Y-93100001D01*
X253300000Y-123100000D02*
X253300000Y-117900000D01*
X255000001Y-123100000D02*
X253300000Y-123100000D01*
X253300000Y-117900000D02*
X255000000Y-117900000D01*
X253300000Y-87900000D02*
X255000000Y-87900000D01*
X253300000Y-93100001D02*
X253300000Y-87900000D01*
X205100000Y-68000000D02*
X205100001Y-69700000D01*
X235100000Y-69700000D02*
X229900000Y-69700000D01*
X235100000Y-67999999D02*
X235100000Y-69700000D01*
X229900000Y-69700000D02*
X229900000Y-68000000D01*
X199900000Y-69700000D02*
X199900000Y-68000000D01*
X205100001Y-69700000D02*
X199900000Y-69700000D01*
X255000000Y-68000000D02*
X235100000Y-68000000D01*
X180000000Y-68000000D02*
X199900000Y-68000000D01*
X255000000Y-68000000D02*
X255000000Y-87900000D01*
X255000000Y-143000000D02*
X255000000Y-123100000D01*
X199900000Y-143000000D02*
X199900000Y-141300000D01*
X205100000Y-141300000D02*
X205100000Y-143000000D01*
X199900000Y-141300000D02*
X205100000Y-141300000D01*
X235100000Y-141300000D02*
X235100000Y-143000000D01*
X229900000Y-141300000D02*
X235100000Y-141300000D01*
X229900000Y-143000000D02*
X229900000Y-141300000D01*
M02*
