M48
; DRILL file {KiCad 8.0.0} date 2024-11-18T13:00:36+0300
; FORMAT={-:-/ absolute / metric / decimal}
; #@! TF.CreationDate,2024-11-18T13:00:36+03:00
; #@! TF.GenerationSoftware,Kicad,Pcbnew,8.0.0
; #@! TF.FileFunction,MixedPlating,1,2
FMAT,2
METRIC
; #@! TA.AperFunction,Plated,PTH,ComponentDrill
T1C1.000
%
G90
G05
T1
X187.55Y-99.65
X187.55Y-102.19
X187.55Y-104.73
X187.55Y-107.27
X187.55Y-109.81
X187.66Y-79.1
X187.66Y-81.64
X187.66Y-84.18
X187.66Y-86.72
X187.66Y-89.26
X187.66Y-91.8
X190.068Y-115.934
X190.068Y-118.474
X190.068Y-121.014
X190.068Y-123.554
X190.09Y-99.65
X190.09Y-102.19
X190.09Y-104.73
X190.09Y-107.27
X190.09Y-109.81
X190.2Y-79.1
X190.2Y-81.64
X190.2Y-84.18
X190.2Y-86.72
X190.2Y-89.26
X190.2Y-91.8
X222.92Y-89.46
X222.92Y-92.0
X225.46Y-89.46
X225.46Y-92.0
X228.0Y-89.46
X228.0Y-92.0
X245.06Y-106.26
X245.06Y-108.8
X245.06Y-111.34
X247.6Y-106.26
X247.6Y-108.8
X247.6Y-111.34
M30
