%TF.GenerationSoftware,KiCad,Pcbnew,8.0.0*%
%TF.CreationDate,2024-11-20T18:04:27+03:00*%
%TF.ProjectId,box_side_red,626f785f-7369-4646-955f-7265642e6b69,rev?*%
%TF.SameCoordinates,Original*%
%TF.FileFunction,Soldermask,Bot*%
%TF.FilePolarity,Negative*%
%FSLAX46Y46*%
G04 Gerber Fmt 4.6, Leading zero omitted, Abs format (unit mm)*
G04 Created by KiCad (PCBNEW 8.0.0) date 2024-11-20 18:04:27*
%MOMM*%
%LPD*%
G01*
G04 APERTURE LIST*
G04 Aperture macros list*
%AMRoundRect*
0 Rectangle with rounded corners*
0 $1 Rounding radius*
0 $2 $3 $4 $5 $6 $7 $8 $9 X,Y pos of 4 corners*
0 Add a 4 corners polygon primitive as box body*
4,1,4,$2,$3,$4,$5,$6,$7,$8,$9,$2,$3,0*
0 Add four circle primitives for the rounded corners*
1,1,$1+$1,$2,$3*
1,1,$1+$1,$4,$5*
1,1,$1+$1,$6,$7*
1,1,$1+$1,$8,$9*
0 Add four rect primitives between the rounded corners*
20,1,$1+$1,$2,$3,$4,$5,0*
20,1,$1+$1,$4,$5,$6,$7,0*
20,1,$1+$1,$6,$7,$8,$9,0*
20,1,$1+$1,$8,$9,$2,$3,0*%
G04 Aperture macros list end*
%ADD10C,0.100000*%
%ADD11R,1.700000X1.700000*%
%ADD12O,1.700000X1.700000*%
%ADD13C,3.100000*%
%ADD14C,4.700000*%
%ADD15RoundRect,0.237500X0.300000X0.237500X-0.300000X0.237500X-0.300000X-0.237500X0.300000X-0.237500X0*%
%ADD16RoundRect,0.237500X-0.250000X-0.237500X0.250000X-0.237500X0.250000X0.237500X-0.250000X0.237500X0*%
%ADD17RoundRect,0.237500X-0.300000X-0.237500X0.300000X-0.237500X0.300000X0.237500X-0.300000X0.237500X0*%
%ADD18R,2.400000X2.000000*%
%ADD19RoundRect,0.237500X0.237500X-0.250000X0.237500X0.250000X-0.237500X0.250000X-0.237500X-0.250000X0*%
%ADD20RoundRect,0.237500X0.237500X-0.300000X0.237500X0.300000X-0.237500X0.300000X-0.237500X-0.300000X0*%
%ADD21RoundRect,0.237500X-0.237500X0.300000X-0.237500X-0.300000X0.237500X-0.300000X0.237500X0.300000X0*%
%ADD22R,1.800000X1.750000*%
G04 APERTURE END LIST*
D10*
X195500000Y-62000000D02*
X191500000Y-62000000D01*
X191500000Y-53000000D01*
X195500000Y-53000000D01*
X195500000Y-62000000D01*
G36*
X195500000Y-62000000D02*
G01*
X191500000Y-62000000D01*
X191500000Y-53000000D01*
X195500000Y-53000000D01*
X195500000Y-62000000D01*
G37*
X145500000Y-136500000D02*
X140500000Y-136500000D01*
X140500000Y-133500000D01*
X145500000Y-133500000D01*
X145500000Y-136500000D01*
G36*
X145500000Y-136500000D02*
G01*
X140500000Y-136500000D01*
X140500000Y-133500000D01*
X145500000Y-133500000D01*
X145500000Y-136500000D01*
G37*
X123500000Y-60000000D02*
X120500000Y-60000000D01*
X120500000Y-55000000D01*
X123500000Y-55000000D01*
X123500000Y-60000000D01*
G36*
X123500000Y-60000000D02*
G01*
X120500000Y-60000000D01*
X120500000Y-55000000D01*
X123500000Y-55000000D01*
X123500000Y-60000000D01*
G37*
X175500000Y-136500000D02*
X170500000Y-136500000D01*
X170500000Y-133500000D01*
X175500000Y-133500000D01*
X175500000Y-136500000D01*
G36*
X175500000Y-136500000D02*
G01*
X170500000Y-136500000D01*
X170500000Y-133500000D01*
X175500000Y-133500000D01*
X175500000Y-136500000D01*
G37*
D11*
%TO.C,X3*%
X180000000Y-111000000D03*
D12*
X180000000Y-108460000D03*
%TD*%
D11*
%TO.C,X6*%
X128400000Y-83475000D03*
D12*
X128400000Y-86015000D03*
X128400000Y-88554999D03*
X128400000Y-91095000D03*
X128400000Y-93635000D03*
X128400000Y-96175000D03*
%TD*%
D11*
%TO.C,X8*%
X190489999Y-117749999D03*
D12*
X187949999Y-117749999D03*
X190489999Y-120289999D03*
X187949999Y-120289999D03*
X190489999Y-122829998D03*
X187949999Y-122829999D03*
X190489999Y-125369999D03*
X187949999Y-125369999D03*
X190489999Y-127909999D03*
X187949999Y-127909999D03*
%TD*%
D13*
%TO.C,REF\u002A\u002A*%
X126500000Y-39000000D03*
D14*
X126500000Y-39000000D03*
%TD*%
D11*
%TO.C,X9*%
X190400000Y-78420000D03*
D12*
X190400000Y-80960000D03*
X190400000Y-83500000D03*
X190400000Y-86040000D03*
X190400000Y-88580000D03*
X190400000Y-91120000D03*
X190400000Y-93660000D03*
X190400000Y-96200000D03*
%TD*%
D11*
%TO.C,X1*%
X172850000Y-108610000D03*
D12*
X172850000Y-111150000D03*
%TD*%
D11*
%TO.C,X5*%
X128425000Y-46525000D03*
D12*
X128425000Y-49065000D03*
X128425000Y-51605000D03*
X128425000Y-54145000D03*
X128425000Y-56685000D03*
X128425000Y-59225000D03*
X128425000Y-61765000D03*
X128425000Y-64305000D03*
%TD*%
D11*
%TO.C,X7*%
X128075000Y-126975000D03*
D12*
X130615000Y-126975000D03*
X133154999Y-126975000D03*
%TD*%
D13*
%TO.C,REF\u002A\u002A*%
X190500000Y-39500000D03*
D14*
X190500000Y-39500000D03*
%TD*%
D11*
%TO.C,X2*%
X176425000Y-108610000D03*
D12*
X176425000Y-111150000D03*
%TD*%
D15*
%TO.C,C5*%
X137162501Y-93800000D03*
X135437499Y-93800000D03*
%TD*%
D16*
%TO.C,SB9*%
X146187500Y-90400000D03*
X148012500Y-90400000D03*
%TD*%
D17*
%TO.C,C7*%
X170237499Y-84600000D03*
X171962501Y-84600000D03*
%TD*%
D18*
%TO.C,Y2*%
X140100000Y-89749999D03*
X140100000Y-93450001D03*
%TD*%
D15*
%TO.C,C1*%
X138562501Y-83800000D03*
X136837499Y-83800000D03*
%TD*%
D19*
%TO.C,SB11*%
X147600000Y-79512500D03*
X147600000Y-77687500D03*
%TD*%
D15*
%TO.C,C2*%
X138562501Y-87000000D03*
X136837499Y-87000000D03*
%TD*%
D16*
%TO.C,SB8*%
X146187500Y-88800000D03*
X148012500Y-88800000D03*
%TD*%
D20*
%TO.C,C13*%
X153400000Y-79462501D03*
X153400000Y-77737499D03*
%TD*%
D21*
%TO.C,C6*%
X164900000Y-99737499D03*
X164900000Y-101462501D03*
%TD*%
D19*
%TO.C,SB12*%
X146000000Y-79512500D03*
X146000000Y-77687500D03*
%TD*%
D15*
%TO.C,C4*%
X137162501Y-90000000D03*
X135437499Y-90000000D03*
%TD*%
D16*
%TO.C,SB6*%
X146187500Y-85600000D03*
X148012500Y-85600000D03*
%TD*%
D19*
%TO.C,SB15*%
X141200001Y-79512500D03*
X141200001Y-77687500D03*
%TD*%
%TO.C,SB14*%
X142799999Y-79512500D03*
X142799999Y-77687500D03*
%TD*%
D17*
%TO.C,C15*%
X170337499Y-82600000D03*
X172062501Y-82600000D03*
%TD*%
D21*
%TO.C,C17*%
X139600000Y-77737499D03*
X139600000Y-79462501D03*
%TD*%
D16*
%TO.C,SB7*%
X146187500Y-87200000D03*
X148012500Y-87200000D03*
%TD*%
D21*
%TO.C,C11*%
X166800000Y-99737499D03*
X166800000Y-101462501D03*
%TD*%
D22*
%TO.C,Y1*%
X140700000Y-83749998D03*
X140700000Y-87000000D03*
%TD*%
D19*
%TO.C,SB13*%
X144400000Y-79512500D03*
X144400000Y-77687500D03*
%TD*%
D21*
%TO.C,C9*%
X154200000Y-99737499D03*
X154200000Y-101462501D03*
%TD*%
M02*
