M48
; DRILL file {KiCad 8.0.0} date 2024-11-20T18:04:34+0300
; FORMAT={-:-/ absolute / metric / decimal}
; #@! TF.CreationDate,2024-11-20T18:04:34+03:00
; #@! TF.GenerationSoftware,Kicad,Pcbnew,8.0.0
; #@! TF.FileFunction,MixedPlating,1,2
FMAT,2
METRIC
; #@! TA.AperFunction,Plated,PTH,ViaDrill
T1C0.300
; #@! TA.AperFunction,Plated,PTH,ComponentDrill
T2C1.000
; #@! TA.AperFunction,Plated,PTH,ComponentDrill
T3C2.700
%
G90
G05
T1
X128.0Y-79.0
X132.5Y-79.5
X132.82Y-63.62
X133.6Y-54.4
X135.912Y-103.312
X138.4Y-56.4
X138.4Y-78.8
X139.6Y-67.6
X140.78Y-63.42
X141.0Y-125.0
X141.0Y-130.0
X143.4Y-62.4
X144.2Y-91.4
X144.8Y-68.6
X145.2Y-59.8
X147.6Y-62.8
X147.8Y-106.6
X148.0Y-51.4
X148.344Y-69.56
X149.293Y-85.107
X149.499Y-86.299
X149.5Y-116.0
X149.6Y-87.8
X149.6Y-88.9
X150.0Y-51.4
X150.2Y-59.8
X150.334Y-94.334
X150.6Y-92.2
X150.825Y-93.35
X151.4Y-107.2
X151.8Y-79.0
X152.0Y-51.4
X152.6Y-107.2
X152.85Y-61.2
X153.2Y-81.0
X153.6Y-51.4
X154.0Y-85.8
X154.2Y-88.4
X154.4Y-60.2
X154.8Y-51.0
X154.991Y-93.579
X155.4Y-94.6
X156.0Y-117.4
X156.2Y-51.4
X156.29Y-129.69
X156.4Y-67.8
X156.479Y-94.816
X156.8Y-106.4
X157.6Y-51.4
X157.8Y-121.8
X157.8Y-131.0
X158.0Y-94.6
X158.4Y-106.6
X158.552Y-120.848
X158.6Y-84.2
X158.83Y-130.17
X159.2Y-51.4
X159.3Y-119.4
X159.8Y-84.0
X160.0Y-131.0
X160.85Y-119.4
X161.2Y-51.4
X161.4Y-129.8
X161.5Y-69.0
X161.6Y-79.0
X162.4Y-119.4
X162.64Y-130.96
X162.8Y-51.4
X163.2Y-62.6
X163.8Y-130.0
X164.0Y-119.4
X164.2Y-51.4
X164.2Y-94.6
X164.575Y-60.2
X164.6Y-86.6
X164.983Y-83.072
X165.0Y-87.75
X165.4Y-94.6
X165.6Y-51.4
X165.6Y-93.2
X165.8Y-88.8
X166.0Y-86.2
X166.2Y-84.4
X166.48Y-50.74
X166.5Y-130.0
X166.6Y-60.0
X167.5Y-61.5
X167.6Y-51.2
X168.0Y-131.0
X168.385Y-60.2
X168.8Y-51.0
X169.0Y-79.5
X169.0Y-129.8
X169.2Y-119.6
X169.655Y-62.2
X169.8Y-90.2
X170.43Y-51.83
X172.191Y-104.779
X172.5Y-130.0
X173.6Y-84.0
X173.8Y-82.2
X173.825Y-105.6
X174.0Y-130.5
X175.466Y-87.266
X175.8Y-37.6
X177.0Y-57.0
X179.5Y-98.5
X180.5Y-119.0
X183.5Y-94.0
X183.8Y-52.4
X185.6Y-66.2
X185.6Y-68.2
X186.0Y-73.0
X186.0Y-131.5
X187.0Y-111.0
X189.0Y-131.5
T2
X128.075Y-126.975
X128.4Y-83.475
X128.4Y-86.015
X128.4Y-88.555
X128.4Y-91.095
X128.4Y-93.635
X128.4Y-96.175
X128.425Y-46.525
X128.425Y-49.065
X128.425Y-51.605
X128.425Y-54.145
X128.425Y-56.685
X128.425Y-59.225
X128.425Y-61.765
X128.425Y-64.305
X130.615Y-126.975
X133.155Y-126.975
X172.85Y-108.61
X172.85Y-111.15
X176.425Y-108.61
X176.425Y-111.15
X180.0Y-108.46
X180.0Y-111.0
X187.95Y-117.75
X187.95Y-120.29
X187.95Y-122.83
X187.95Y-125.37
X187.95Y-127.91
X190.4Y-78.42
X190.4Y-80.96
X190.4Y-83.5
X190.4Y-86.04
X190.4Y-88.58
X190.4Y-91.12
X190.4Y-93.66
X190.4Y-96.2
X190.49Y-117.75
X190.49Y-120.29
X190.49Y-122.83
X190.49Y-125.37
X190.49Y-127.91
T3
X126.5Y-39.0
X190.5Y-39.5
M30
