M48
; DRILL file {KiCad 8.0.0} date 2024-11-17T13:36:54+0300
; FORMAT={-:-/ absolute / metric / decimal}
; #@! TF.CreationDate,2024-11-17T13:36:54+03:00
; #@! TF.GenerationSoftware,Kicad,Pcbnew,8.0.0
; #@! TF.FileFunction,MixedPlating,1,2
FMAT,2
METRIC
; #@! TA.AperFunction,Plated,PTH,ViaDrill
T1C0.300
; #@! TA.AperFunction,Plated,PTH,ComponentDrill
T2C1.000
%
G90
G05
T1
X85.15Y-121.437
X97.513Y-122.922
X145.8Y-125.4
X148.948Y-120.636
X153.012Y-127.494
X155.044Y-118.477
X155.044Y-124.954
X155.298Y-119.62
X160.759Y-122.287
X161.013Y-119.493
X163.807Y-124.7
T2
X72.0Y-122.287
X72.0Y-124.827
X105.38Y-127.087
X107.92Y-127.087
X110.46Y-127.087
X113.0Y-127.087
X115.54Y-127.087
X118.08Y-127.087
X181.46Y-126.587
X184.0Y-126.587
X186.54Y-126.587
X191.92Y-126.562
X194.46Y-126.562
X197.0Y-126.562
X199.54Y-126.562
X202.08Y-126.562
X204.62Y-126.562
X223.54Y-116.527
X223.54Y-119.067
X223.54Y-121.607
X223.54Y-124.147
X223.54Y-126.687
X226.08Y-116.527
X226.08Y-119.067
X226.08Y-121.607
X226.08Y-124.147
X226.08Y-126.687
M30
