%TF.GenerationSoftware,KiCad,Pcbnew,8.0.0*%
%TF.CreationDate,2024-11-17T13:36:44+03:00*%
%TF.ProjectId,scale_200,7363616c-655f-4323-9030-2e6b69636164,rev?*%
%TF.SameCoordinates,Original*%
%TF.FileFunction,Legend,Bot*%
%TF.FilePolarity,Positive*%
%FSLAX46Y46*%
G04 Gerber Fmt 4.6, Leading zero omitted, Abs format (unit mm)*
G04 Created by KiCad (PCBNEW 8.0.0) date 2024-11-17 13:36:44*
%MOMM*%
%LPD*%
G01*
G04 APERTURE LIST*
%ADD10C,0.203200*%
%ADD11C,0.100000*%
%ADD12C,0.150000*%
%ADD13C,0.000000*%
%ADD14C,0.120000*%
G04 APERTURE END LIST*
D10*
X126737500Y-110000000D02*
X126737500Y-113175000D01*
X210875000Y-110000000D02*
X210875000Y-113175000D01*
X217225000Y-110000000D02*
X217225000Y-113175000D01*
X117212500Y-110000000D02*
X117212500Y-116350000D01*
X150550000Y-110000000D02*
X150550000Y-113175000D01*
X234687500Y-110000000D02*
X234687500Y-113175000D01*
X163250000Y-110000000D02*
X163250000Y-113175000D01*
X80700000Y-110000000D02*
X80700000Y-113175000D01*
X142612500Y-110000000D02*
X142612500Y-116350000D01*
X147375000Y-110000000D02*
X147375000Y-113175000D01*
X87050000Y-110000000D02*
X87050000Y-113175000D01*
X136262500Y-110000000D02*
X136262500Y-113175000D01*
X87050000Y-110000000D02*
X87050000Y-113175000D01*
X129912500Y-110000000D02*
X129912500Y-114762500D01*
X179125000Y-110000000D02*
X179125000Y-113175000D01*
X172775000Y-110000000D02*
X172775000Y-113175000D01*
X198175000Y-110000000D02*
X198175000Y-113175000D01*
X263262500Y-110000000D02*
X263262500Y-113175000D01*
X137850000Y-110000000D02*
X137850000Y-113175000D01*
X150550000Y-110000000D02*
X150550000Y-113175000D01*
X153725000Y-110000000D02*
X153725000Y-113175000D01*
X121975000Y-110000000D02*
X121975000Y-113175000D01*
X188650000Y-110000000D02*
X188650000Y-113175000D01*
X264850000Y-110000000D02*
X264850000Y-113175000D01*
X201350000Y-110000000D02*
X201350000Y-113175000D01*
X164837500Y-110000000D02*
X164837500Y-113175000D01*
X91812500Y-110000000D02*
X91812500Y-116350000D01*
X258500000Y-110000000D02*
X258500000Y-113175000D01*
X183887500Y-110000000D02*
X183887500Y-113175000D01*
X241037500Y-110000000D02*
X241037500Y-113175000D01*
X233100000Y-110000000D02*
X233100000Y-113175000D01*
X128325000Y-110000000D02*
X128325000Y-113175000D01*
X158487500Y-110000000D02*
X158487500Y-113175000D01*
X112450000Y-110000000D02*
X112450000Y-113175000D01*
X168012500Y-110000000D02*
X168012500Y-116350000D01*
X237862500Y-110000000D02*
X237862500Y-113175000D01*
X228337500Y-110000000D02*
X228337500Y-113175000D01*
X82287500Y-110000000D02*
X82287500Y-113175000D01*
X190237500Y-110000000D02*
X190237500Y-113175000D01*
X163250000Y-110000000D02*
X163250000Y-113175000D01*
X107687500Y-110000000D02*
X107687500Y-113175000D01*
X145787500Y-110000000D02*
X145787500Y-113175000D01*
X225162500Y-110000000D02*
X225162500Y-113175000D01*
X171187500Y-110000000D02*
X171187500Y-113175000D01*
X244212500Y-110000000D02*
X244212500Y-116350000D01*
X144200000Y-110000000D02*
X144200000Y-113175000D01*
X93400000Y-110000000D02*
X93400000Y-113175000D01*
X96575000Y-110000000D02*
X96575000Y-113175000D01*
X112450000Y-110000000D02*
X112450000Y-113175000D01*
X202937500Y-110000000D02*
X202937500Y-113175000D01*
X221987500Y-110000000D02*
X221987500Y-113175000D01*
X98162500Y-110000000D02*
X98162500Y-113175000D01*
X148962500Y-110000000D02*
X148962500Y-113175000D01*
X239450000Y-110000000D02*
X239450000Y-113175000D01*
X266437500Y-110000000D02*
X266437500Y-113175000D01*
X244212500Y-110000000D02*
X244212500Y-116350000D01*
X102925000Y-110000000D02*
X102925000Y-113175000D01*
X223575000Y-110000000D02*
X223575000Y-113175000D01*
X91812500Y-110000000D02*
X91812500Y-116350000D01*
X196587500Y-110000000D02*
X196587500Y-113175000D01*
X268025000Y-110000000D02*
X268025000Y-113175000D01*
X169600000Y-110000000D02*
X169600000Y-113175000D01*
X239450000Y-110000000D02*
X239450000Y-113175000D01*
X123562500Y-110000000D02*
X123562500Y-113175000D01*
X236275000Y-110000000D02*
X236275000Y-113175000D01*
X101337500Y-110000000D02*
X101337500Y-113175000D01*
X245800000Y-110000000D02*
X245800000Y-113175000D01*
X191825000Y-110000000D02*
X191825000Y-113175000D01*
X252150000Y-110000000D02*
X252150000Y-113175000D01*
X201350000Y-110000000D02*
X201350000Y-113175000D01*
X88637500Y-110000000D02*
X88637500Y-113175000D01*
X134675000Y-110000000D02*
X134675000Y-113175000D01*
X226750000Y-110000000D02*
X226750000Y-113175000D01*
X118800000Y-110000000D02*
X118800000Y-113175000D01*
X214050000Y-110000000D02*
X214050000Y-113175000D01*
X85462500Y-110000000D02*
X85462500Y-113175000D01*
X264850000Y-110000000D02*
X264850000Y-113175000D01*
X212462500Y-110000000D02*
X212462500Y-113175000D01*
X175950000Y-110000000D02*
X175950000Y-113175000D01*
X247387500Y-110000000D02*
X247387500Y-113175000D01*
X193412500Y-110000000D02*
X193412500Y-116350000D01*
X114037500Y-110000000D02*
X114037500Y-113175000D01*
X79112500Y-110000000D02*
X79112500Y-114762500D01*
X218812500Y-110000000D02*
X218812500Y-116350000D01*
X182300000Y-110000000D02*
X182300000Y-113175000D01*
X109275000Y-110000000D02*
X109275000Y-113175000D01*
X269612500Y-110000000D02*
X269612500Y-116350000D01*
X256912500Y-110000000D02*
X256912500Y-114762500D01*
X204525000Y-110000000D02*
X204525000Y-113175000D01*
X94987500Y-110000000D02*
X94987500Y-113175000D01*
X125150000Y-110000000D02*
X125150000Y-113175000D01*
X207700000Y-110000000D02*
X207700000Y-113175000D01*
X187062500Y-110000000D02*
X187062500Y-113175000D01*
X155312500Y-110000000D02*
X155312500Y-114762500D01*
X253737500Y-110000000D02*
X253737500Y-113175000D01*
X137850000Y-110000000D02*
X137850000Y-113175000D01*
X177537500Y-110000000D02*
X177537500Y-113175000D01*
X120387500Y-110000000D02*
X120387500Y-113175000D01*
X185475000Y-110000000D02*
X185475000Y-113175000D01*
X110862500Y-110000000D02*
X110862500Y-113175000D01*
X168012500Y-110000000D02*
X168012500Y-116350000D01*
X209287500Y-110000000D02*
X209287500Y-113175000D01*
X226750000Y-110000000D02*
X226750000Y-113175000D01*
X220400000Y-110000000D02*
X220400000Y-113175000D01*
X261675000Y-110000000D02*
X261675000Y-113175000D01*
X175950000Y-110000000D02*
X175950000Y-113175000D01*
X174362500Y-110000000D02*
X174362500Y-113175000D01*
X214050000Y-110000000D02*
X214050000Y-113175000D01*
X231512500Y-110000000D02*
X231512500Y-114762500D01*
X218812500Y-110000000D02*
X218812500Y-116350000D01*
X115625000Y-110000000D02*
X115625000Y-113175000D01*
X156900000Y-110000000D02*
X156900000Y-113175000D01*
X160075000Y-110000000D02*
X160075000Y-113175000D01*
X106100000Y-110000000D02*
X106100000Y-113175000D01*
X248975000Y-110000000D02*
X248975000Y-113175000D01*
X166425000Y-110000000D02*
X166425000Y-113175000D01*
X125150000Y-110000000D02*
X125150000Y-113175000D01*
X161662500Y-110000000D02*
X161662500Y-113175000D01*
X255325000Y-110000000D02*
X255325000Y-113175000D01*
X215637500Y-110000000D02*
X215637500Y-113175000D01*
X99750000Y-110000000D02*
X99750000Y-113175000D01*
X133087500Y-110000000D02*
X133087500Y-113175000D01*
X139437500Y-110000000D02*
X139437500Y-113175000D01*
X117212500Y-110000000D02*
X117212500Y-116350000D01*
X131500000Y-110000000D02*
X131500000Y-113175000D01*
X91812500Y-110000000D02*
X91812500Y-116350000D01*
X252150000Y-110000000D02*
X252150000Y-113175000D01*
X260087500Y-110000000D02*
X260087500Y-113175000D01*
X199762500Y-110000000D02*
X199762500Y-113175000D01*
X152137500Y-110000000D02*
X152137500Y-113175000D01*
X141025000Y-110000000D02*
X141025000Y-113175000D01*
X83875000Y-110000000D02*
X83875000Y-113175000D01*
X269612500Y-110000000D02*
X269612500Y-116350000D01*
X104512500Y-110000000D02*
X104512500Y-114762500D01*
X195000000Y-110000000D02*
X195000000Y-113175000D01*
X90225000Y-110000000D02*
X90225000Y-113175000D01*
X188650000Y-110000000D02*
X188650000Y-113175000D01*
X206112500Y-110000000D02*
X206112500Y-114762500D01*
X242625000Y-110000000D02*
X242625000Y-113175000D01*
X99750000Y-110000000D02*
X99750000Y-113175000D01*
X142612500Y-110000000D02*
X142612500Y-116350000D01*
X229925000Y-110000000D02*
X229925000Y-113175000D01*
X193412500Y-110000000D02*
X193412500Y-116350000D01*
X250562500Y-110000000D02*
X250562500Y-113175000D01*
X180712500Y-110000000D02*
X180712500Y-114762500D01*
D11*
G36*
X259012909Y-116663900D02*
G01*
X259012909Y-116241849D01*
X258765736Y-116241849D01*
X258765736Y-116663900D01*
X259012909Y-116663900D01*
G37*
G36*
X259012909Y-119290000D02*
G01*
X259012909Y-117085952D01*
X258765736Y-117085952D01*
X258765736Y-119290000D01*
X259012909Y-119290000D01*
G37*
G36*
X258393021Y-119290000D02*
G01*
X258393021Y-117085952D01*
X258170760Y-117085952D01*
X258170760Y-117395163D01*
X258105461Y-117274143D01*
X258030099Y-117178161D01*
X257929457Y-117097829D01*
X257832291Y-117056098D01*
X257725060Y-117039405D01*
X257706210Y-117039057D01*
X257602596Y-117050908D01*
X257506076Y-117086462D01*
X257463921Y-117110865D01*
X257377648Y-117181751D01*
X257305383Y-117284058D01*
X257298325Y-117298443D01*
X257249051Y-117433858D01*
X257221144Y-117573949D01*
X257210472Y-117727769D01*
X257207587Y-117889387D01*
X257207466Y-117936650D01*
X257207466Y-119290000D01*
X257454640Y-119290000D01*
X257454640Y-117946175D01*
X257458693Y-117790997D01*
X257475158Y-117642813D01*
X257483461Y-117604724D01*
X257537042Y-117480790D01*
X257586043Y-117423740D01*
X257676666Y-117368639D01*
X257758478Y-117355596D01*
X257861873Y-117373519D01*
X257955109Y-117427286D01*
X258031053Y-117507271D01*
X258091589Y-117628758D01*
X258126902Y-117783736D01*
X258141812Y-117934168D01*
X258145847Y-118083928D01*
X258145847Y-119290000D01*
X258393021Y-119290000D01*
G37*
G36*
X255883670Y-118492791D02*
G01*
X255640404Y-118540418D01*
X255663866Y-118696160D01*
X255699202Y-118836403D01*
X255754126Y-118977705D01*
X255824560Y-119098766D01*
X255844591Y-119125868D01*
X255931359Y-119218192D01*
X256027529Y-119284138D01*
X256133103Y-119323705D01*
X256233194Y-119336688D01*
X256248080Y-119336894D01*
X256356250Y-119326539D01*
X256456175Y-119295472D01*
X256547858Y-119243694D01*
X256644403Y-119157111D01*
X256718225Y-119060459D01*
X256729727Y-119042337D01*
X256791483Y-118922613D01*
X256840461Y-118784909D01*
X256876662Y-118629224D01*
X256897070Y-118485752D01*
X256908605Y-118329793D01*
X256911444Y-118196036D01*
X256907704Y-118044517D01*
X256894271Y-117881828D01*
X256871068Y-117730314D01*
X256838095Y-117589973D01*
X256833286Y-117573217D01*
X256782634Y-117433385D01*
X256719152Y-117314767D01*
X256642843Y-117217362D01*
X256594905Y-117172414D01*
X256502577Y-117107950D01*
X256405844Y-117064583D01*
X256304706Y-117042313D01*
X256246615Y-117039057D01*
X256146698Y-117047718D01*
X256042696Y-117078824D01*
X255949563Y-117132554D01*
X255857780Y-117220041D01*
X255781217Y-117333843D01*
X255721888Y-117471639D01*
X255683618Y-117614269D01*
X255663852Y-117733684D01*
X255904187Y-117789371D01*
X255934265Y-117649809D01*
X255985886Y-117518582D01*
X256026308Y-117455980D01*
X256115874Y-117375512D01*
X256213995Y-117344858D01*
X256236845Y-117343872D01*
X256336519Y-117359869D01*
X256434216Y-117415168D01*
X256518175Y-117509964D01*
X256540683Y-117546106D01*
X256597119Y-117678467D01*
X256631779Y-117827360D01*
X256650135Y-117981758D01*
X256656975Y-118132016D01*
X256657431Y-118185778D01*
X256653464Y-118343764D01*
X256638808Y-118506527D01*
X256608835Y-118664121D01*
X256558256Y-118805176D01*
X256544591Y-118831311D01*
X256467388Y-118937185D01*
X256376827Y-119003846D01*
X256272909Y-119031295D01*
X256250523Y-119032079D01*
X256148147Y-119013532D01*
X256052588Y-118951579D01*
X256007745Y-118900188D01*
X255944502Y-118780730D01*
X255904149Y-118636107D01*
X255883670Y-118492791D01*
G37*
G36*
X255436706Y-119290000D02*
G01*
X255436706Y-116241849D01*
X255189532Y-116241849D01*
X255189532Y-117337278D01*
X255109530Y-117221077D01*
X255020833Y-117133416D01*
X254923440Y-117074296D01*
X254817352Y-117043717D01*
X254752826Y-117039057D01*
X254646351Y-117050486D01*
X254549919Y-117084773D01*
X254470969Y-117135778D01*
X254385017Y-117225981D01*
X254321638Y-117340612D01*
X254300000Y-117401758D01*
X254268446Y-117550788D01*
X254253277Y-117707881D01*
X254248422Y-117855091D01*
X254248220Y-117894884D01*
X254248220Y-119290000D01*
X254495882Y-119290000D01*
X254495882Y-117891953D01*
X254503753Y-117731512D01*
X254530594Y-117589572D01*
X254576482Y-117483824D01*
X254659389Y-117396168D01*
X254759314Y-117358727D01*
X254803628Y-117355596D01*
X254903770Y-117374594D01*
X254998116Y-117431588D01*
X255010258Y-117442058D01*
X255088804Y-117536114D01*
X255145850Y-117666609D01*
X255148499Y-117675799D01*
X255176549Y-117826125D01*
X255187568Y-117974346D01*
X255189532Y-118082463D01*
X255189532Y-119290000D01*
X255436706Y-119290000D01*
G37*
G36*
X269806531Y-117132072D02*
G01*
X269904763Y-117150619D01*
X270004106Y-117189221D01*
X270091625Y-117246601D01*
X270159494Y-117311997D01*
X270218510Y-117389972D01*
X270268671Y-117480525D01*
X270309979Y-117583656D01*
X270323073Y-117625825D01*
X270348619Y-117733770D01*
X270364933Y-117836936D01*
X270376096Y-117949925D01*
X270381463Y-118051586D01*
X270383251Y-118160069D01*
X270381500Y-118264074D01*
X270376245Y-118362497D01*
X270363788Y-118485046D01*
X270345104Y-118597672D01*
X270320191Y-118700376D01*
X270289050Y-118793158D01*
X270241365Y-118895182D01*
X270183949Y-118981702D01*
X270117271Y-119052920D01*
X270028367Y-119117384D01*
X269927494Y-119161793D01*
X269831507Y-119183895D01*
X269726727Y-119191263D01*
X269646424Y-119187072D01*
X269547689Y-119168449D01*
X269447998Y-119129689D01*
X269360362Y-119072072D01*
X269292341Y-119006279D01*
X269233356Y-118928091D01*
X269183408Y-118837507D01*
X269142498Y-118734528D01*
X269129490Y-118692294D01*
X269104115Y-118584395D01*
X269087909Y-118481493D01*
X269076821Y-118368973D01*
X269071490Y-118267861D01*
X269069713Y-118160069D01*
X269069717Y-118159581D01*
X269323726Y-118159581D01*
X269323839Y-118190337D01*
X269326564Y-118306883D01*
X269332922Y-118413063D01*
X269345979Y-118531213D01*
X269364712Y-118633168D01*
X269394685Y-118734136D01*
X269439986Y-118822456D01*
X269462261Y-118852050D01*
X269534805Y-118923366D01*
X269625471Y-118971881D01*
X269726727Y-118988053D01*
X269758128Y-118986601D01*
X269855978Y-118960803D01*
X269943333Y-118902757D01*
X270012979Y-118822944D01*
X270027058Y-118801004D01*
X270069179Y-118703719D01*
X270096427Y-118594954D01*
X270112890Y-118486424D01*
X270121973Y-118387887D01*
X270127422Y-118278939D01*
X270129239Y-118159581D01*
X270129114Y-118128746D01*
X270126114Y-118011520D01*
X270119115Y-117904080D01*
X270104742Y-117783540D01*
X270084120Y-117678289D01*
X270051124Y-117572170D01*
X270001256Y-117476189D01*
X269994838Y-117467263D01*
X269923263Y-117393590D01*
X269828994Y-117345277D01*
X269729169Y-117331109D01*
X269697244Y-117332556D01*
X269598020Y-117358278D01*
X269509864Y-117416152D01*
X269439986Y-117495729D01*
X269425907Y-117517556D01*
X269383786Y-117614598D01*
X269356537Y-117723340D01*
X269340075Y-117831982D01*
X269330992Y-117930695D01*
X269325543Y-118039894D01*
X269323726Y-118159581D01*
X269069717Y-118159581D01*
X269070113Y-118104827D01*
X269073307Y-118000860D01*
X269081071Y-117890547D01*
X269095267Y-117778959D01*
X269115143Y-117682819D01*
X269120955Y-117660866D01*
X269150416Y-117567318D01*
X269189494Y-117473437D01*
X269240195Y-117382400D01*
X269282693Y-117324240D01*
X269356516Y-117250623D01*
X269442428Y-117193356D01*
X269522666Y-117158838D01*
X269619963Y-117135634D01*
X269726727Y-117127899D01*
X269806531Y-117132072D01*
G37*
G36*
X143383251Y-118628527D02*
G01*
X143123377Y-118606545D01*
X143101138Y-118705974D01*
X143062288Y-118798958D01*
X143002362Y-118879973D01*
X142989532Y-118892309D01*
X142904650Y-118950653D01*
X142807540Y-118982069D01*
X142736008Y-118988053D01*
X142629915Y-118974600D01*
X142534508Y-118934243D01*
X142449786Y-118866981D01*
X142434124Y-118850300D01*
X142374146Y-118765742D01*
X142333797Y-118667043D01*
X142314410Y-118567438D01*
X142310048Y-118485401D01*
X142317498Y-118382910D01*
X142343687Y-118281257D01*
X142388733Y-118194055D01*
X142429239Y-118143949D01*
X142510631Y-118078004D01*
X142606429Y-118036482D01*
X142704966Y-118019996D01*
X142740404Y-118018897D01*
X142840301Y-118029743D01*
X142937581Y-118065435D01*
X142955826Y-118075561D01*
X143037028Y-118135739D01*
X143100197Y-118210944D01*
X143107257Y-118222107D01*
X143339288Y-118191821D01*
X143144382Y-117159162D01*
X142142498Y-117159162D01*
X142142498Y-117393635D01*
X142946545Y-117393635D01*
X143054989Y-117934877D01*
X142963062Y-117882732D01*
X142868998Y-117845484D01*
X142772797Y-117823136D01*
X142674459Y-117815687D01*
X142563004Y-117824476D01*
X142459451Y-117850843D01*
X142363798Y-117894787D01*
X142276045Y-117956310D01*
X142229448Y-117999357D01*
X142158643Y-118084549D01*
X142105228Y-118179838D01*
X142069204Y-118285225D01*
X142052168Y-118383593D01*
X142047732Y-118471235D01*
X142053330Y-118571556D01*
X142074013Y-118681955D01*
X142109937Y-118785201D01*
X142161101Y-118881295D01*
X142206978Y-118945554D01*
X142284664Y-119029057D01*
X142372277Y-119095283D01*
X142469816Y-119144232D01*
X142577281Y-119175906D01*
X142674417Y-119189103D01*
X142736008Y-119191263D01*
X142835585Y-119185853D01*
X142942771Y-119165868D01*
X143040281Y-119131156D01*
X143128114Y-119081718D01*
X143184926Y-119037390D01*
X143253688Y-118965065D01*
X143308238Y-118883156D01*
X143348577Y-118791664D01*
X143374703Y-118690588D01*
X143383251Y-118628527D01*
G37*
G36*
X168964340Y-118440949D02*
G01*
X168964340Y-118667606D01*
X168090439Y-118667606D01*
X168090439Y-119160000D01*
X167843265Y-119160000D01*
X167843265Y-118667606D01*
X167571179Y-118667606D01*
X167571179Y-118440949D01*
X167843265Y-118440949D01*
X167843265Y-117527480D01*
X168090439Y-117527480D01*
X168090439Y-118440949D01*
X168721074Y-118440949D01*
X168090439Y-117527480D01*
X167843265Y-117527480D01*
X167843265Y-117127899D01*
X168045010Y-117127899D01*
X168964340Y-118440949D01*
G37*
G36*
X218083391Y-118925526D02*
G01*
X218083391Y-119160000D01*
X219415003Y-119160000D01*
X219407086Y-119061596D01*
X219386182Y-118988053D01*
X219343762Y-118894874D01*
X219292777Y-118811069D01*
X219229960Y-118728121D01*
X219223028Y-118719874D01*
X219152222Y-118642165D01*
X219076049Y-118567640D01*
X218999180Y-118498224D01*
X218912773Y-118424880D01*
X218899651Y-118414082D01*
X218820913Y-118347945D01*
X218731850Y-118270234D01*
X218653187Y-118198032D01*
X218572518Y-118118662D01*
X218497331Y-118036093D01*
X218456106Y-117983726D01*
X218400142Y-117895777D01*
X218359441Y-117801228D01*
X218340787Y-117701082D01*
X218340334Y-117683307D01*
X218355172Y-117578527D01*
X218399685Y-117486936D01*
X218445847Y-117433203D01*
X218525555Y-117375077D01*
X218620271Y-117341079D01*
X218719399Y-117331109D01*
X218824176Y-117342033D01*
X218923341Y-117379285D01*
X219005652Y-117442972D01*
X219066732Y-117530095D01*
X219100620Y-117627029D01*
X219113500Y-117728708D01*
X219114096Y-117753161D01*
X219368108Y-117726294D01*
X219353316Y-117621645D01*
X219328358Y-117526786D01*
X219286390Y-117428488D01*
X219230584Y-117343514D01*
X219171737Y-117281284D01*
X219091565Y-117221517D01*
X219000219Y-117176431D01*
X218897701Y-117146024D01*
X218800935Y-117131644D01*
X218714026Y-117127899D01*
X218609641Y-117133583D01*
X218498580Y-117154584D01*
X218399067Y-117191059D01*
X218311101Y-117243008D01*
X218255338Y-117289588D01*
X218189481Y-117364020D01*
X218134023Y-117458130D01*
X218099691Y-117561887D01*
X218086982Y-117660589D01*
X218086322Y-117690146D01*
X218094464Y-117788328D01*
X218118892Y-117885220D01*
X218135659Y-117929504D01*
X218181867Y-118019217D01*
X218240396Y-118104593D01*
X218299790Y-118176678D01*
X218376379Y-118257418D01*
X218452564Y-118330795D01*
X218529438Y-118401057D01*
X218616993Y-118478119D01*
X218681297Y-118533272D01*
X218759064Y-118599888D01*
X218835683Y-118666796D01*
X218911868Y-118735717D01*
X218967062Y-118789727D01*
X219030998Y-118865874D01*
X219071109Y-118925526D01*
X218083391Y-118925526D01*
G37*
G36*
X92366643Y-117393635D02*
G01*
X92366643Y-117159162D01*
X91062875Y-117159162D01*
X91062875Y-117351625D01*
X91134928Y-117433703D01*
X91206741Y-117525328D01*
X91266402Y-117608976D01*
X91325896Y-117699256D01*
X91385222Y-117796166D01*
X91444382Y-117899706D01*
X91501218Y-118006899D01*
X91553881Y-118115069D01*
X91602369Y-118224218D01*
X91646684Y-118334344D01*
X91686824Y-118445448D01*
X91722790Y-118557531D01*
X91736008Y-118602637D01*
X91761962Y-118699775D01*
X91784139Y-118800314D01*
X91802537Y-118904252D01*
X91817158Y-119011591D01*
X91828000Y-119122331D01*
X91830774Y-119160000D01*
X92085275Y-119160000D01*
X92079308Y-119050298D01*
X92067756Y-118948678D01*
X92050262Y-118840051D01*
X92031145Y-118744176D01*
X92007901Y-118643435D01*
X91991974Y-118580655D01*
X91962143Y-118475018D01*
X91928519Y-118370597D01*
X91891103Y-118267393D01*
X91849894Y-118165404D01*
X91804892Y-118064633D01*
X91756099Y-117965078D01*
X91735519Y-117925596D01*
X91682800Y-117829404D01*
X91629054Y-117738054D01*
X91574283Y-117651546D01*
X91518487Y-117569879D01*
X91450177Y-117478271D01*
X91380390Y-117393635D01*
X92366643Y-117393635D01*
G37*
G36*
X193881786Y-118630481D02*
G01*
X193634612Y-118597264D01*
X193609638Y-118693831D01*
X193572638Y-118785172D01*
X193514613Y-118871938D01*
X193490020Y-118896706D01*
X193406833Y-118952370D01*
X193311143Y-118982343D01*
X193240404Y-118988053D01*
X193136448Y-118976222D01*
X193043178Y-118940730D01*
X192960594Y-118881578D01*
X192945359Y-118866908D01*
X192881989Y-118785564D01*
X192842090Y-118692961D01*
X192825661Y-118589101D01*
X192825191Y-118566978D01*
X192836068Y-118466294D01*
X192873157Y-118369097D01*
X192936566Y-118286099D01*
X193020236Y-118222967D01*
X193118105Y-118186041D01*
X193219399Y-118175212D01*
X193320684Y-118185898D01*
X193394277Y-118202568D01*
X193366434Y-117969560D01*
X193326866Y-117972002D01*
X193221866Y-117962421D01*
X193124484Y-117933675D01*
X193042568Y-117890914D01*
X192970536Y-117824775D01*
X192926057Y-117728925D01*
X192916050Y-117640809D01*
X192931287Y-117539638D01*
X192981776Y-117447635D01*
X193008374Y-117419036D01*
X193091858Y-117362107D01*
X193193078Y-117334200D01*
X193245778Y-117331109D01*
X193347123Y-117343749D01*
X193441720Y-117385968D01*
X193486113Y-117420990D01*
X193548601Y-117501041D01*
X193588864Y-117596628D01*
X193609699Y-117690635D01*
X193856873Y-117646671D01*
X193831672Y-117543862D01*
X193795391Y-117451712D01*
X193740360Y-117359449D01*
X193670857Y-117281108D01*
X193651221Y-117263698D01*
X193565949Y-117204286D01*
X193470847Y-117161849D01*
X193365915Y-117136386D01*
X193266034Y-117128032D01*
X193251151Y-117127899D01*
X193150792Y-117134768D01*
X193046237Y-117158193D01*
X192947801Y-117198241D01*
X192860159Y-117252720D01*
X192787986Y-117319435D01*
X192735799Y-117390704D01*
X192690850Y-117484059D01*
X192666647Y-117581672D01*
X192662037Y-117649113D01*
X192673566Y-117750898D01*
X192708151Y-117845105D01*
X192731891Y-117886029D01*
X192799853Y-117965377D01*
X192882479Y-118025884D01*
X192939497Y-118055533D01*
X192845267Y-118085960D01*
X192755431Y-118136354D01*
X192681243Y-118204208D01*
X192662037Y-118227969D01*
X192609744Y-118316230D01*
X192576819Y-118417371D01*
X192563746Y-118519411D01*
X192562875Y-118555743D01*
X192572084Y-118668145D01*
X192599713Y-118772835D01*
X192645762Y-118869810D01*
X192710229Y-118959072D01*
X192755338Y-119006615D01*
X192831067Y-119069366D01*
X192928403Y-119126167D01*
X193035416Y-119165297D01*
X193134844Y-119184771D01*
X193241381Y-119191263D01*
X193353126Y-119183806D01*
X193456269Y-119161436D01*
X193550810Y-119124154D01*
X193636749Y-119071958D01*
X193681995Y-119035436D01*
X193751328Y-118962630D01*
X193806309Y-118880988D01*
X193846938Y-118790511D01*
X193873215Y-118691198D01*
X193881786Y-118630481D01*
G37*
G36*
X258006489Y-120406936D02*
G01*
X257827337Y-120406936D01*
X257274860Y-121905000D01*
X257501639Y-121905000D01*
X257916730Y-120696364D01*
X258332187Y-121905000D01*
X258558600Y-121905000D01*
X258006489Y-120406936D01*
G37*
G36*
X258304344Y-121376336D02*
G01*
X257515928Y-121376336D01*
X257515928Y-121576371D01*
X258304344Y-121576371D01*
X258304344Y-121376336D01*
G37*
G36*
X256762316Y-121290973D02*
G01*
X256471789Y-120835582D01*
X256218265Y-120835582D01*
X256666695Y-121475254D01*
X256762316Y-121290973D01*
G37*
G36*
X257076657Y-120835582D02*
G01*
X256866364Y-120835582D01*
X256866364Y-121905000D01*
X257076657Y-121905000D01*
X257076657Y-120835582D01*
G37*
G36*
X256753157Y-121453639D02*
G01*
X256589392Y-121345561D01*
X256155617Y-121905000D01*
X256436618Y-121905000D01*
X256753157Y-121453639D01*
G37*
G36*
X256974808Y-121269357D02*
G01*
X256588293Y-121269357D01*
X256588293Y-121469026D01*
X256974808Y-121469026D01*
X256974808Y-121269357D01*
G37*
G36*
X255392847Y-121226859D02*
G01*
X255402098Y-121149228D01*
X255435763Y-121079037D01*
X255448900Y-121063827D01*
X255511835Y-121022015D01*
X255589313Y-121006087D01*
X255608269Y-121005575D01*
X255683194Y-121012550D01*
X255733565Y-121025359D01*
X255801312Y-121053842D01*
X255842009Y-121079581D01*
X255995516Y-120974434D01*
X255939754Y-120920519D01*
X255877011Y-120880196D01*
X255835415Y-120860861D01*
X255764350Y-120837500D01*
X255688178Y-120823836D01*
X255614497Y-120819829D01*
X255535099Y-120824408D01*
X255456356Y-120840024D01*
X255386618Y-120866723D01*
X255321841Y-120907870D01*
X255269840Y-120960970D01*
X255242271Y-121003011D01*
X255212132Y-121074933D01*
X255196724Y-121149913D01*
X255192812Y-121217700D01*
X255192812Y-121905000D01*
X255392847Y-121905000D01*
X255392847Y-121226859D01*
G37*
G36*
X255654431Y-121920387D02*
G01*
X255736216Y-121916477D01*
X255818007Y-121902435D01*
X255887341Y-121878181D01*
X255950453Y-121838688D01*
X256002037Y-121779096D01*
X256032128Y-121711270D01*
X256046744Y-121629997D01*
X256048272Y-121589560D01*
X256042662Y-121515211D01*
X256022940Y-121443447D01*
X255984371Y-121378460D01*
X255958513Y-121351789D01*
X255893469Y-121309865D01*
X255819635Y-121285409D01*
X255741839Y-121274229D01*
X255687404Y-121272288D01*
X255383688Y-121272288D01*
X255369033Y-121441182D01*
X255686304Y-121441182D01*
X255762204Y-121451522D01*
X255809769Y-121477819D01*
X255845630Y-121542471D01*
X255850436Y-121589560D01*
X255835133Y-121664371D01*
X255796214Y-121710460D01*
X255727978Y-121739586D01*
X255651900Y-121748953D01*
X255631716Y-121749295D01*
X255556122Y-121746264D01*
X255480949Y-121733642D01*
X255452198Y-121723649D01*
X255397541Y-121671832D01*
X255392847Y-121643415D01*
X255371231Y-121793625D01*
X255420210Y-121849816D01*
X255439741Y-121864699D01*
X255507954Y-121898634D01*
X255533897Y-121906465D01*
X255609939Y-121918742D01*
X255654431Y-121920387D01*
G37*
G36*
X254914009Y-121715223D02*
G01*
X254889096Y-121715223D01*
X254815989Y-121698772D01*
X254792376Y-121680418D01*
X254757082Y-121614915D01*
X254747679Y-121573806D01*
X254739415Y-121500666D01*
X254736014Y-121421566D01*
X254735589Y-121376336D01*
X254735589Y-120835582D01*
X254525296Y-120835582D01*
X254525296Y-121446311D01*
X254528925Y-121523245D01*
X254541960Y-121600565D01*
X254567955Y-121674030D01*
X254601133Y-121727313D01*
X254654793Y-121777545D01*
X254720975Y-121809172D01*
X254799679Y-121822195D01*
X254816922Y-121822568D01*
X254841835Y-121822568D01*
X254914009Y-121715223D01*
G37*
G36*
X254952110Y-121715223D02*
G01*
X254741817Y-121715223D01*
X254741817Y-122173911D01*
X254952110Y-122173911D01*
X254952110Y-121715223D01*
G37*
G36*
X254952110Y-121715223D02*
G01*
X253922627Y-121715223D01*
X253922627Y-121905000D01*
X254952110Y-121905000D01*
X254952110Y-121715223D01*
G37*
G36*
X254008356Y-121715223D02*
G01*
X253798063Y-121715223D01*
X253798063Y-122173911D01*
X254008356Y-122173911D01*
X254008356Y-121715223D01*
G37*
G36*
X254198866Y-120835582D02*
G01*
X253988572Y-120835582D01*
X253988572Y-121905000D01*
X254198866Y-121905000D01*
X254198866Y-120835582D01*
G37*
G36*
X254604797Y-120835582D02*
G01*
X254128890Y-120835582D01*
X254128890Y-121024993D01*
X254604797Y-121024993D01*
X254604797Y-120835582D01*
G37*
G36*
X253151064Y-121920387D02*
G01*
X253231106Y-121915982D01*
X253304310Y-121902767D01*
X253377626Y-121877751D01*
X253404588Y-121864699D01*
X253470780Y-121820310D01*
X253525283Y-121763713D01*
X253564689Y-121701667D01*
X253593669Y-121629947D01*
X253610574Y-121557874D01*
X253618785Y-121478672D01*
X253619644Y-121441182D01*
X253619644Y-121320648D01*
X253616346Y-121244239D01*
X253604754Y-121165230D01*
X253584816Y-121093581D01*
X253566887Y-121049905D01*
X253528998Y-120984868D01*
X253476494Y-120925477D01*
X253412648Y-120878813D01*
X253345443Y-120847708D01*
X253270224Y-120828123D01*
X253195674Y-120820347D01*
X253169382Y-120819829D01*
X253089598Y-120826376D01*
X253017398Y-120846018D01*
X252946739Y-120882748D01*
X252940771Y-120886873D01*
X252880860Y-120940023D01*
X252835637Y-121000587D01*
X252799215Y-121072816D01*
X252796057Y-121080680D01*
X252771794Y-121155983D01*
X252756893Y-121229633D01*
X252748267Y-121309604D01*
X252745865Y-121384762D01*
X252745865Y-121454738D01*
X253467236Y-121454738D01*
X253467236Y-121285844D01*
X252945900Y-121285844D01*
X252956418Y-121209594D01*
X252979064Y-121138943D01*
X253013311Y-121082145D01*
X253071855Y-121032557D01*
X253145545Y-121010739D01*
X253169382Y-121009605D01*
X253245338Y-121018870D01*
X253313585Y-121050108D01*
X253354762Y-121088007D01*
X253394501Y-121155704D01*
X253414817Y-121233872D01*
X253419975Y-121309291D01*
X253419975Y-121445579D01*
X253413142Y-121522494D01*
X253389839Y-121593298D01*
X253350000Y-121649644D01*
X253289051Y-121692955D01*
X253218790Y-121715096D01*
X253151064Y-121720718D01*
X253075445Y-121711677D01*
X253024302Y-121695073D01*
X252957699Y-121659318D01*
X252911828Y-121622533D01*
X252773709Y-121760652D01*
X252830660Y-121808973D01*
X252892200Y-121849155D01*
X252952128Y-121878621D01*
X253026471Y-121904072D01*
X253101124Y-121917776D01*
X253151064Y-121920387D01*
G37*
G36*
X251644207Y-120835582D02*
G01*
X251457728Y-120835582D01*
X251457728Y-121905000D01*
X251647138Y-121905000D01*
X251647138Y-121149556D01*
X251636880Y-121215502D01*
X251897732Y-121696905D01*
X252023394Y-121696905D01*
X252284246Y-121215502D01*
X252273621Y-121149556D01*
X252273621Y-121905000D01*
X252463398Y-121905000D01*
X252463398Y-120835582D01*
X252276919Y-120835582D01*
X251960380Y-121426894D01*
X251644207Y-120835582D01*
G37*
G36*
X250463782Y-121903900D02*
G01*
X250463782Y-121144427D01*
X250439235Y-121171172D01*
X250953244Y-121903900D01*
X251135694Y-121903900D01*
X251135694Y-120835582D01*
X250927599Y-120835582D01*
X250927599Y-121612274D01*
X250952145Y-121585530D01*
X250435938Y-120835582D01*
X250255687Y-120835582D01*
X250255687Y-121903900D01*
X250463782Y-121903900D01*
G37*
G36*
X249610153Y-121528743D02*
G01*
X249689253Y-121522664D01*
X249761141Y-121504426D01*
X249805059Y-121485512D01*
X249867356Y-121444643D01*
X249920650Y-121387782D01*
X249936217Y-121364246D01*
X249966580Y-121296312D01*
X249981463Y-121219913D01*
X249983112Y-121181796D01*
X249976620Y-121107865D01*
X249954937Y-121035796D01*
X249936950Y-121000446D01*
X249888945Y-120938576D01*
X249831308Y-120893182D01*
X249805792Y-120878813D01*
X249732676Y-120850823D01*
X249657457Y-120837651D01*
X249610153Y-120835582D01*
X249230966Y-120835582D01*
X249230966Y-121035251D01*
X249618213Y-121035251D01*
X249691318Y-121052607D01*
X249720795Y-121075551D01*
X249755507Y-121143085D01*
X249759263Y-121181796D01*
X249744129Y-121254933D01*
X249742044Y-121259099D01*
X249692585Y-121310757D01*
X249620837Y-121329057D01*
X249618213Y-121329075D01*
X249230966Y-121329075D01*
X249230966Y-121528743D01*
X249610153Y-121528743D01*
G37*
G36*
X249339043Y-121905000D02*
G01*
X249339043Y-120835582D01*
X249128750Y-120835582D01*
X249128750Y-121905000D01*
X249339043Y-121905000D01*
G37*
G36*
X250004727Y-121905000D02*
G01*
X249703942Y-121434954D01*
X249494748Y-121482581D01*
X249755233Y-121905000D01*
X250004727Y-121905000D01*
G37*
G36*
X247566939Y-120835582D02*
G01*
X247356646Y-120835582D01*
X247356646Y-121905000D01*
X247566939Y-121905000D01*
X247566939Y-120835582D01*
G37*
G36*
X248242882Y-120835582D02*
G01*
X248032588Y-120835582D01*
X248032588Y-121905000D01*
X248242882Y-121905000D01*
X248242882Y-120835582D01*
G37*
G36*
X248112090Y-120835582D02*
G01*
X247455565Y-120835582D01*
X247455565Y-121035251D01*
X248112090Y-121035251D01*
X248112090Y-120835582D01*
G37*
G36*
X247033879Y-120835582D02*
G01*
X246823586Y-120835582D01*
X246823586Y-122339874D01*
X247033879Y-122339874D01*
X247033879Y-120835582D01*
G37*
G36*
X246554675Y-121920387D02*
G01*
X246631707Y-121912526D01*
X246705197Y-121886480D01*
X246729064Y-121872759D01*
X246786386Y-121823192D01*
X246828841Y-121758477D01*
X246838241Y-121737205D01*
X246823586Y-121513356D01*
X246814933Y-121588220D01*
X246799040Y-121630959D01*
X246751872Y-121688932D01*
X246727233Y-121705331D01*
X246657005Y-121727946D01*
X246613293Y-121730976D01*
X246536494Y-121720516D01*
X246471098Y-121685855D01*
X246452093Y-121667595D01*
X246413024Y-121602179D01*
X246396949Y-121530258D01*
X246394940Y-121488810D01*
X246394940Y-121256901D01*
X246401694Y-121182283D01*
X246427089Y-121110172D01*
X246452093Y-121074452D01*
X246511078Y-121030123D01*
X246581923Y-121011188D01*
X246613293Y-121009605D01*
X246689228Y-121019337D01*
X246727233Y-121034518D01*
X246783288Y-121081916D01*
X246799040Y-121107058D01*
X246820686Y-121177931D01*
X246823586Y-121221730D01*
X246845202Y-121015833D01*
X246804759Y-120951519D01*
X246751527Y-120895450D01*
X246718806Y-120871120D01*
X246652202Y-120837911D01*
X246579794Y-120821632D01*
X246544417Y-120819829D01*
X246470397Y-120825889D01*
X246398338Y-120846326D01*
X246350244Y-120871120D01*
X246290868Y-120920235D01*
X246247436Y-120979311D01*
X246227145Y-121019863D01*
X246202950Y-121091876D01*
X246189669Y-121165607D01*
X246184689Y-121247209D01*
X246184647Y-121255802D01*
X246184647Y-121488810D01*
X246188096Y-121562193D01*
X246200017Y-121636525D01*
X246222965Y-121709530D01*
X246228244Y-121721817D01*
X246266335Y-121787917D01*
X246320390Y-121844991D01*
X246355006Y-121869462D01*
X246422068Y-121900494D01*
X246498507Y-121917204D01*
X246554675Y-121920387D01*
G37*
G36*
X245499527Y-120820040D02*
G01*
X245573069Y-120826236D01*
X245647372Y-120843180D01*
X245720097Y-120874050D01*
X245777342Y-120912769D01*
X245829732Y-120966517D01*
X245871039Y-121031953D01*
X245880336Y-121051695D01*
X245904723Y-121122850D01*
X245918948Y-121202234D01*
X245923063Y-121280715D01*
X245923063Y-121454738D01*
X245922606Y-121481979D01*
X245915747Y-121559220D01*
X245898474Y-121637159D01*
X245871039Y-121706796D01*
X245833945Y-121767189D01*
X245782562Y-121822381D01*
X245720097Y-121865799D01*
X245707576Y-121872409D01*
X245633135Y-121901142D01*
X245557272Y-121916069D01*
X245482327Y-121920387D01*
X245465082Y-121920174D01*
X245391376Y-121913936D01*
X245316958Y-121896878D01*
X245244190Y-121865799D01*
X245186946Y-121826922D01*
X245134556Y-121773167D01*
X245093248Y-121707896D01*
X245081055Y-121681305D01*
X245057685Y-121608970D01*
X245045339Y-121536710D01*
X245041224Y-121457669D01*
X245251517Y-121457669D01*
X245254410Y-121509661D01*
X245272828Y-121586391D01*
X245311967Y-121651842D01*
X245340656Y-121678679D01*
X245406678Y-121711033D01*
X245482327Y-121720718D01*
X245515571Y-121719037D01*
X245590622Y-121698925D01*
X245653053Y-121651842D01*
X245682097Y-121608488D01*
X245706037Y-121536978D01*
X245713136Y-121457669D01*
X245713136Y-121280715D01*
X245710261Y-121228793D01*
X245691954Y-121152509D01*
X245653053Y-121088007D01*
X245624221Y-121061455D01*
X245558027Y-121029446D01*
X245482327Y-121019863D01*
X245449091Y-121021527D01*
X245374148Y-121041425D01*
X245311967Y-121088007D01*
X245282746Y-121130653D01*
X245258660Y-121201579D01*
X245251517Y-121280715D01*
X245251517Y-121457669D01*
X245041224Y-121457669D01*
X245041224Y-121280715D01*
X245041681Y-121253814D01*
X245048540Y-121177555D01*
X245065814Y-121100640D01*
X245093248Y-121031953D01*
X245130342Y-120971983D01*
X245181725Y-120917172D01*
X245244190Y-120874050D01*
X245256712Y-120867485D01*
X245331212Y-120838944D01*
X245407204Y-120824118D01*
X245482327Y-120819829D01*
X245499527Y-120820040D01*
G37*
G36*
X244749232Y-120835582D02*
G01*
X244538939Y-120835582D01*
X244538939Y-121905000D01*
X244749232Y-121905000D01*
X244749232Y-120835582D01*
G37*
G36*
X244646284Y-120835582D02*
G01*
X244064131Y-120835582D01*
X244064131Y-121035251D01*
X244646284Y-121035251D01*
X244646284Y-120835582D01*
G37*
G36*
X243852372Y-120835582D02*
G01*
X243642079Y-120835582D01*
X243642079Y-122339874D01*
X243852372Y-122339874D01*
X243852372Y-120835582D01*
G37*
G36*
X243373168Y-121920387D02*
G01*
X243450199Y-121912526D01*
X243523690Y-121886480D01*
X243547557Y-121872759D01*
X243604879Y-121823192D01*
X243647334Y-121758477D01*
X243656734Y-121737205D01*
X243642079Y-121513356D01*
X243633425Y-121588220D01*
X243617533Y-121630959D01*
X243570365Y-121688932D01*
X243545725Y-121705331D01*
X243475498Y-121727946D01*
X243431786Y-121730976D01*
X243354987Y-121720516D01*
X243289591Y-121685855D01*
X243270586Y-121667595D01*
X243231516Y-121602179D01*
X243215442Y-121530258D01*
X243213433Y-121488810D01*
X243213433Y-121256901D01*
X243220186Y-121182283D01*
X243245581Y-121110172D01*
X243270586Y-121074452D01*
X243329570Y-121030123D01*
X243400416Y-121011188D01*
X243431786Y-121009605D01*
X243507721Y-121019337D01*
X243545725Y-121034518D01*
X243601780Y-121081916D01*
X243617533Y-121107058D01*
X243639179Y-121177931D01*
X243642079Y-121221730D01*
X243663695Y-121015833D01*
X243623251Y-120951519D01*
X243570019Y-120895450D01*
X243537299Y-120871120D01*
X243470695Y-120837911D01*
X243398287Y-120821632D01*
X243362909Y-120819829D01*
X243288890Y-120825889D01*
X243216830Y-120846326D01*
X243168736Y-120871120D01*
X243109360Y-120920235D01*
X243065929Y-120979311D01*
X243045638Y-121019863D01*
X243021442Y-121091876D01*
X243008162Y-121165607D01*
X243003181Y-121247209D01*
X243003140Y-121255802D01*
X243003140Y-121488810D01*
X243006588Y-121562193D01*
X243018510Y-121636525D01*
X243041458Y-121709530D01*
X243046737Y-121721817D01*
X243084828Y-121787917D01*
X243138883Y-121844991D01*
X243173499Y-121869462D01*
X243240561Y-121900494D01*
X243316999Y-121917204D01*
X243373168Y-121920387D01*
G37*
G36*
X242107013Y-121226859D02*
G01*
X242116264Y-121149228D01*
X242149929Y-121079037D01*
X242163066Y-121063827D01*
X242226001Y-121022015D01*
X242303479Y-121006087D01*
X242322435Y-121005575D01*
X242397360Y-121012550D01*
X242447732Y-121025359D01*
X242515478Y-121053842D01*
X242556175Y-121079581D01*
X242709682Y-120974434D01*
X242653920Y-120920519D01*
X242591177Y-120880196D01*
X242549581Y-120860861D01*
X242478517Y-120837500D01*
X242402344Y-120823836D01*
X242328663Y-120819829D01*
X242249265Y-120824408D01*
X242170523Y-120840024D01*
X242100785Y-120866723D01*
X242036007Y-120907870D01*
X241984006Y-120960970D01*
X241956437Y-121003011D01*
X241926298Y-121074933D01*
X241910890Y-121149913D01*
X241906978Y-121217700D01*
X241906978Y-121905000D01*
X242107013Y-121905000D01*
X242107013Y-121226859D01*
G37*
G36*
X242368597Y-121920387D02*
G01*
X242450382Y-121916477D01*
X242532173Y-121902435D01*
X242601507Y-121878181D01*
X242664619Y-121838688D01*
X242716204Y-121779096D01*
X242746294Y-121711270D01*
X242760910Y-121629997D01*
X242762438Y-121589560D01*
X242756828Y-121515211D01*
X242737106Y-121443447D01*
X242698538Y-121378460D01*
X242672679Y-121351789D01*
X242607635Y-121309865D01*
X242533801Y-121285409D01*
X242456005Y-121274229D01*
X242401570Y-121272288D01*
X242097854Y-121272288D01*
X242083199Y-121441182D01*
X242400471Y-121441182D01*
X242476371Y-121451522D01*
X242523935Y-121477819D01*
X242559796Y-121542471D01*
X242564602Y-121589560D01*
X242549299Y-121664371D01*
X242510380Y-121710460D01*
X242442144Y-121739586D01*
X242366066Y-121748953D01*
X242345882Y-121749295D01*
X242270288Y-121746264D01*
X242195115Y-121733642D01*
X242166364Y-121723649D01*
X242111708Y-121671832D01*
X242107013Y-121643415D01*
X242085397Y-121793625D01*
X242134376Y-121849816D01*
X242153907Y-121864699D01*
X242222120Y-121898634D01*
X242248063Y-121906465D01*
X242324105Y-121918742D01*
X242368597Y-121920387D01*
G37*
G36*
X240774912Y-120835582D02*
G01*
X240588433Y-120835582D01*
X240588433Y-121905000D01*
X240777843Y-121905000D01*
X240777843Y-121149556D01*
X240767585Y-121215502D01*
X241028436Y-121696905D01*
X241154099Y-121696905D01*
X241414951Y-121215502D01*
X241404326Y-121149556D01*
X241404326Y-121905000D01*
X241594103Y-121905000D01*
X241594103Y-120835582D01*
X241407623Y-120835582D01*
X241091085Y-121426894D01*
X240774912Y-120835582D01*
G37*
G36*
X239447208Y-120835582D02*
G01*
X239260729Y-120835582D01*
X239260729Y-121905000D01*
X239450139Y-121905000D01*
X239450139Y-121149556D01*
X239439881Y-121215502D01*
X239700732Y-121696905D01*
X239826395Y-121696905D01*
X240087247Y-121215502D01*
X240076622Y-121149556D01*
X240076622Y-121905000D01*
X240266399Y-121905000D01*
X240266399Y-120835582D01*
X240079919Y-120835582D01*
X239763381Y-121426894D01*
X239447208Y-120835582D01*
G37*
G36*
X238266782Y-121903900D02*
G01*
X238266782Y-121144427D01*
X238242236Y-121171172D01*
X238756245Y-121903900D01*
X238938695Y-121903900D01*
X238938695Y-120835582D01*
X238730600Y-120835582D01*
X238730600Y-121612274D01*
X238755146Y-121585530D01*
X238238939Y-120835582D01*
X238058688Y-120835582D01*
X238058688Y-121903900D01*
X238266782Y-121903900D01*
G37*
G36*
X237735554Y-120835582D02*
G01*
X237525261Y-120835582D01*
X237525261Y-122339874D01*
X237735554Y-122339874D01*
X237735554Y-120835582D01*
G37*
G36*
X237256350Y-121920387D02*
G01*
X237333381Y-121912526D01*
X237406872Y-121886480D01*
X237430739Y-121872759D01*
X237488061Y-121823192D01*
X237530516Y-121758477D01*
X237539916Y-121737205D01*
X237525261Y-121513356D01*
X237516608Y-121588220D01*
X237500715Y-121630959D01*
X237453547Y-121688932D01*
X237428907Y-121705331D01*
X237358680Y-121727946D01*
X237314968Y-121730976D01*
X237238169Y-121720516D01*
X237172773Y-121685855D01*
X237153768Y-121667595D01*
X237114699Y-121602179D01*
X237098624Y-121530258D01*
X237096615Y-121488810D01*
X237096615Y-121256901D01*
X237103368Y-121182283D01*
X237128763Y-121110172D01*
X237153768Y-121074452D01*
X237212752Y-121030123D01*
X237283598Y-121011188D01*
X237314968Y-121009605D01*
X237390903Y-121019337D01*
X237428907Y-121034518D01*
X237484963Y-121081916D01*
X237500715Y-121107058D01*
X237522361Y-121177931D01*
X237525261Y-121221730D01*
X237546877Y-121015833D01*
X237506433Y-120951519D01*
X237453202Y-120895450D01*
X237420481Y-120871120D01*
X237353877Y-120837911D01*
X237281469Y-120821632D01*
X237246092Y-120819829D01*
X237172072Y-120825889D01*
X237100012Y-120846326D01*
X237051919Y-120871120D01*
X236992542Y-120920235D01*
X236949111Y-120979311D01*
X236928820Y-121019863D01*
X236904624Y-121091876D01*
X236891344Y-121165607D01*
X236886363Y-121247209D01*
X236886322Y-121255802D01*
X236886322Y-121488810D01*
X236889771Y-121562193D01*
X236901692Y-121636525D01*
X236924640Y-121709530D01*
X236929919Y-121721817D01*
X236968010Y-121787917D01*
X237022065Y-121844991D01*
X237056681Y-121869462D01*
X237123743Y-121900494D01*
X237200182Y-121917204D01*
X237256350Y-121920387D01*
G37*
G36*
X236201202Y-120820040D02*
G01*
X236274744Y-120826236D01*
X236349047Y-120843180D01*
X236421772Y-120874050D01*
X236479016Y-120912769D01*
X236531407Y-120966517D01*
X236572714Y-121031953D01*
X236582011Y-121051695D01*
X236606397Y-121122850D01*
X236620623Y-121202234D01*
X236624738Y-121280715D01*
X236624738Y-121454738D01*
X236624281Y-121481979D01*
X236617422Y-121559220D01*
X236600148Y-121637159D01*
X236572714Y-121706796D01*
X236535620Y-121767189D01*
X236484237Y-121822381D01*
X236421772Y-121865799D01*
X236409251Y-121872409D01*
X236334810Y-121901142D01*
X236258947Y-121916069D01*
X236184002Y-121920387D01*
X236166757Y-121920174D01*
X236093051Y-121913936D01*
X236018633Y-121896878D01*
X235945865Y-121865799D01*
X235888620Y-121826922D01*
X235836230Y-121773167D01*
X235794923Y-121707896D01*
X235782730Y-121681305D01*
X235759360Y-121608970D01*
X235747014Y-121536710D01*
X235742899Y-121457669D01*
X235953192Y-121457669D01*
X235956085Y-121509661D01*
X235974503Y-121586391D01*
X236013642Y-121651842D01*
X236042331Y-121678679D01*
X236108353Y-121711033D01*
X236184002Y-121720718D01*
X236217246Y-121719037D01*
X236292297Y-121698925D01*
X236354727Y-121651842D01*
X236383772Y-121608488D01*
X236407711Y-121536978D01*
X236414811Y-121457669D01*
X236414811Y-121280715D01*
X236411936Y-121228793D01*
X236393629Y-121152509D01*
X236354727Y-121088007D01*
X236325896Y-121061455D01*
X236259702Y-121029446D01*
X236184002Y-121019863D01*
X236150766Y-121021527D01*
X236075823Y-121041425D01*
X236013642Y-121088007D01*
X235984421Y-121130653D01*
X235960335Y-121201579D01*
X235953192Y-121280715D01*
X235953192Y-121457669D01*
X235742899Y-121457669D01*
X235742899Y-121280715D01*
X235743356Y-121253814D01*
X235750215Y-121177555D01*
X235767488Y-121100640D01*
X235794923Y-121031953D01*
X235832017Y-120971983D01*
X235883400Y-120917172D01*
X235945865Y-120874050D01*
X235958387Y-120867485D01*
X236032887Y-120838944D01*
X236108879Y-120824118D01*
X236184002Y-120819829D01*
X236201202Y-120820040D01*
G37*
G36*
X235327076Y-121715223D02*
G01*
X234931402Y-121715223D01*
X234858768Y-121698772D01*
X234834682Y-121680418D01*
X234802740Y-121611588D01*
X234800610Y-121581500D01*
X234800610Y-121578203D01*
X234815284Y-121503467D01*
X234834682Y-121474521D01*
X234901864Y-121439488D01*
X234931402Y-121437152D01*
X235327076Y-121437152D01*
X235327076Y-121247742D01*
X234931402Y-121247742D01*
X234858875Y-121228702D01*
X234849337Y-121220997D01*
X234820648Y-121153504D01*
X234820394Y-121144427D01*
X234838059Y-121071476D01*
X234849337Y-121056500D01*
X234917017Y-121025485D01*
X234929570Y-121024993D01*
X235327076Y-121024993D01*
X235327076Y-120835582D01*
X234922243Y-120835582D01*
X234843466Y-120841088D01*
X234768375Y-120860122D01*
X234700900Y-120896762D01*
X234690334Y-120905191D01*
X234640102Y-120965212D01*
X234614423Y-121034443D01*
X234607903Y-121101196D01*
X234617940Y-121174991D01*
X234651199Y-121241749D01*
X234668719Y-121262397D01*
X234731400Y-121309089D01*
X234800197Y-121335159D01*
X234839811Y-121343363D01*
X234764020Y-121365127D01*
X234695756Y-121402891D01*
X234654431Y-121440816D01*
X234614245Y-121502125D01*
X234592607Y-121573944D01*
X234588485Y-121627662D01*
X234588485Y-121630959D01*
X234597108Y-121706944D01*
X234626510Y-121777221D01*
X234676779Y-121833558D01*
X234745844Y-121874232D01*
X234823582Y-121896558D01*
X234905721Y-121904720D01*
X234925540Y-121905000D01*
X235327076Y-121905000D01*
X235327076Y-121715223D01*
G37*
G36*
X235450907Y-120835582D02*
G01*
X235241713Y-120835582D01*
X235241713Y-121905000D01*
X235450907Y-121905000D01*
X235450907Y-120835582D01*
G37*
G36*
X233712875Y-121226859D02*
G01*
X233722126Y-121149228D01*
X233755791Y-121079037D01*
X233768928Y-121063827D01*
X233831863Y-121022015D01*
X233909341Y-121006087D01*
X233928297Y-121005575D01*
X234003222Y-121012550D01*
X234053593Y-121025359D01*
X234121340Y-121053842D01*
X234162037Y-121079581D01*
X234315544Y-120974434D01*
X234259782Y-120920519D01*
X234197039Y-120880196D01*
X234155443Y-120860861D01*
X234084378Y-120837500D01*
X234008206Y-120823836D01*
X233934525Y-120819829D01*
X233855127Y-120824408D01*
X233776384Y-120840024D01*
X233706646Y-120866723D01*
X233641869Y-120907870D01*
X233589868Y-120960970D01*
X233562299Y-121003011D01*
X233532160Y-121074933D01*
X233516752Y-121149913D01*
X233512840Y-121217700D01*
X233512840Y-121905000D01*
X233712875Y-121905000D01*
X233712875Y-121226859D01*
G37*
G36*
X233974459Y-121920387D02*
G01*
X234056244Y-121916477D01*
X234138035Y-121902435D01*
X234207369Y-121878181D01*
X234270481Y-121838688D01*
X234322065Y-121779096D01*
X234352156Y-121711270D01*
X234366772Y-121629997D01*
X234368300Y-121589560D01*
X234362690Y-121515211D01*
X234342968Y-121443447D01*
X234304399Y-121378460D01*
X234278541Y-121351789D01*
X234213497Y-121309865D01*
X234139662Y-121285409D01*
X234061867Y-121274229D01*
X234007431Y-121272288D01*
X233703715Y-121272288D01*
X233689061Y-121441182D01*
X234006332Y-121441182D01*
X234082232Y-121451522D01*
X234129797Y-121477819D01*
X234165658Y-121542471D01*
X234170464Y-121589560D01*
X234155161Y-121664371D01*
X234116242Y-121710460D01*
X234048006Y-121739586D01*
X233971928Y-121748953D01*
X233951744Y-121749295D01*
X233876150Y-121746264D01*
X233800977Y-121733642D01*
X233772226Y-121723649D01*
X233717569Y-121671832D01*
X233712875Y-121643415D01*
X233691259Y-121793625D01*
X233740237Y-121849816D01*
X233759769Y-121864699D01*
X233827982Y-121898634D01*
X233853925Y-121906465D01*
X233929967Y-121918742D01*
X233974459Y-121920387D01*
G37*
G36*
X232524023Y-120835582D02*
G01*
X232313729Y-120835582D01*
X232313729Y-121905000D01*
X232524023Y-121905000D01*
X232524023Y-120835582D01*
G37*
G36*
X233199965Y-120835582D02*
G01*
X232989672Y-120835582D01*
X232989672Y-121905000D01*
X233199965Y-121905000D01*
X233199965Y-120835582D01*
G37*
G36*
X233069173Y-121284745D02*
G01*
X232412648Y-121284745D01*
X232412648Y-121474155D01*
X233069173Y-121474155D01*
X233069173Y-121284745D01*
G37*
G36*
X231319050Y-121903900D02*
G01*
X231319050Y-121144427D01*
X231294504Y-121171172D01*
X231808513Y-121903900D01*
X231990963Y-121903900D01*
X231990963Y-120835582D01*
X231782868Y-120835582D01*
X231782868Y-121612274D01*
X231807414Y-121585530D01*
X231291207Y-120835582D01*
X231110956Y-120835582D01*
X231110956Y-121903900D01*
X231319050Y-121903900D01*
G37*
G36*
X230465422Y-121528743D02*
G01*
X230544522Y-121522664D01*
X230616410Y-121504426D01*
X230660327Y-121485512D01*
X230722624Y-121444643D01*
X230775919Y-121387782D01*
X230791486Y-121364246D01*
X230821848Y-121296312D01*
X230836732Y-121219913D01*
X230838381Y-121181796D01*
X230831889Y-121107865D01*
X230810206Y-121035796D01*
X230792219Y-121000446D01*
X230744213Y-120938576D01*
X230686577Y-120893182D01*
X230661060Y-120878813D01*
X230587945Y-120850823D01*
X230512726Y-120837651D01*
X230465422Y-120835582D01*
X230086235Y-120835582D01*
X230086235Y-121035251D01*
X230473482Y-121035251D01*
X230546586Y-121052607D01*
X230576064Y-121075551D01*
X230610775Y-121143085D01*
X230614532Y-121181796D01*
X230599398Y-121254933D01*
X230597313Y-121259099D01*
X230547854Y-121310757D01*
X230476105Y-121329057D01*
X230473482Y-121329075D01*
X230086235Y-121329075D01*
X230086235Y-121528743D01*
X230465422Y-121528743D01*
G37*
G36*
X230194312Y-121905000D02*
G01*
X230194312Y-120835582D01*
X229984019Y-120835582D01*
X229984019Y-121905000D01*
X230194312Y-121905000D01*
G37*
G36*
X230859996Y-121905000D02*
G01*
X230559211Y-121434954D01*
X230350017Y-121482581D01*
X230610502Y-121905000D01*
X230859996Y-121905000D01*
G37*
G36*
X258356734Y-123979867D02*
G01*
X258356734Y-123800715D01*
X257836496Y-123800715D01*
X257836496Y-123979867D01*
X258356734Y-123979867D01*
G37*
G36*
X258145708Y-124440387D02*
G01*
X258221056Y-124436120D01*
X258297168Y-124422164D01*
X258301779Y-124420969D01*
X258371663Y-124396789D01*
X258434036Y-124363817D01*
X258494186Y-124316380D01*
X258532955Y-124272592D01*
X258381646Y-124136304D01*
X258326559Y-124190246D01*
X258276500Y-124221301D01*
X258206111Y-124245296D01*
X258148639Y-124250976D01*
X258071510Y-124242535D01*
X258002181Y-124214070D01*
X257960327Y-124179535D01*
X257919472Y-124117231D01*
X257898586Y-124045273D01*
X257893283Y-123975837D01*
X257893283Y-123799616D01*
X257901205Y-123721105D01*
X257927918Y-123650566D01*
X257960327Y-123608007D01*
X258023573Y-123563887D01*
X258098054Y-123543124D01*
X258148639Y-123539863D01*
X258225141Y-123549679D01*
X258275401Y-123567707D01*
X258338951Y-123606566D01*
X258381646Y-123647208D01*
X258532955Y-123510921D01*
X258482710Y-123454725D01*
X258435136Y-123418230D01*
X258368614Y-123382814D01*
X258302878Y-123359979D01*
X258226583Y-123344866D01*
X258150897Y-123339848D01*
X258145708Y-123339829D01*
X258066695Y-123344118D01*
X257994522Y-123356985D01*
X257922352Y-123381342D01*
X257895847Y-123394050D01*
X257830368Y-123437086D01*
X257776490Y-123491636D01*
X257737578Y-123551221D01*
X257708791Y-123619714D01*
X257690666Y-123696507D01*
X257683470Y-123772718D01*
X257682990Y-123799616D01*
X257682990Y-123975837D01*
X257687308Y-124055261D01*
X257700262Y-124127847D01*
X257724784Y-124200475D01*
X257737578Y-124227163D01*
X257780908Y-124292851D01*
X257835841Y-124346851D01*
X257895847Y-124385799D01*
X257964641Y-124414585D01*
X258041878Y-124432710D01*
X258118610Y-124439907D01*
X258145708Y-124440387D01*
G37*
G36*
X257513729Y-124234490D02*
G01*
X257440457Y-124215714D01*
X257388400Y-124164006D01*
X257385502Y-124159385D01*
X257355851Y-124087907D01*
X257342569Y-124011557D01*
X257339706Y-123946894D01*
X257339706Y-123355582D01*
X257129413Y-123355582D01*
X257129413Y-123975837D01*
X257132804Y-124054141D01*
X257144525Y-124133396D01*
X257164618Y-124204493D01*
X257172278Y-124224232D01*
X257209664Y-124294488D01*
X257258076Y-124350834D01*
X257296475Y-124380669D01*
X257362266Y-124413264D01*
X257437640Y-124430816D01*
X257493213Y-124434159D01*
X257513729Y-124434159D01*
X257513729Y-124234490D01*
G37*
G36*
X256795655Y-123355582D02*
G01*
X256585362Y-123355582D01*
X256585362Y-124425000D01*
X256795655Y-124425000D01*
X256795655Y-123355582D01*
G37*
G36*
X257208548Y-123355582D02*
G01*
X256684281Y-123355582D01*
X256684281Y-123555251D01*
X257208548Y-123555251D01*
X257208548Y-123355582D01*
G37*
G36*
X255824057Y-124440387D02*
G01*
X255904100Y-124435982D01*
X255977304Y-124422767D01*
X256050619Y-124397751D01*
X256077581Y-124384699D01*
X256143774Y-124340310D01*
X256198277Y-124283713D01*
X256237683Y-124221667D01*
X256266663Y-124149947D01*
X256283568Y-124077874D01*
X256291779Y-123998672D01*
X256292637Y-123961182D01*
X256292637Y-123840648D01*
X256289340Y-123764239D01*
X256277748Y-123685230D01*
X256257810Y-123613581D01*
X256239881Y-123569905D01*
X256201992Y-123504868D01*
X256149488Y-123445477D01*
X256085642Y-123398813D01*
X256018437Y-123367708D01*
X255943217Y-123348123D01*
X255868668Y-123340347D01*
X255842376Y-123339829D01*
X255762591Y-123346376D01*
X255690392Y-123366018D01*
X255619733Y-123402748D01*
X255613764Y-123406873D01*
X255553853Y-123460023D01*
X255508630Y-123520587D01*
X255472209Y-123592816D01*
X255469050Y-123600680D01*
X255444788Y-123675983D01*
X255429887Y-123749633D01*
X255421260Y-123829604D01*
X255418859Y-123904762D01*
X255418859Y-123974738D01*
X256140230Y-123974738D01*
X256140230Y-123805844D01*
X255618893Y-123805844D01*
X255629412Y-123729594D01*
X255652057Y-123658943D01*
X255686304Y-123602145D01*
X255744848Y-123552557D01*
X255818539Y-123530739D01*
X255842376Y-123529605D01*
X255918332Y-123538870D01*
X255986579Y-123570108D01*
X256027756Y-123608007D01*
X256067495Y-123675704D01*
X256087810Y-123753872D01*
X256092969Y-123829291D01*
X256092969Y-123965579D01*
X256086135Y-124042494D01*
X256062833Y-124113298D01*
X256022993Y-124169644D01*
X255962045Y-124212955D01*
X255891784Y-124235096D01*
X255824057Y-124240718D01*
X255748439Y-124231677D01*
X255697295Y-124215073D01*
X255630693Y-124179318D01*
X255584822Y-124142533D01*
X255446702Y-124280652D01*
X255503654Y-124328973D01*
X255565194Y-124369155D01*
X255625122Y-124398621D01*
X255699465Y-124424072D01*
X255774117Y-124437776D01*
X255824057Y-124440387D01*
G37*
G36*
X254822051Y-123810973D02*
G01*
X254531524Y-123355582D01*
X254278000Y-123355582D01*
X254726430Y-123995254D01*
X254822051Y-123810973D01*
G37*
G36*
X255136392Y-123355582D02*
G01*
X254926099Y-123355582D01*
X254926099Y-124425000D01*
X255136392Y-124425000D01*
X255136392Y-123355582D01*
G37*
G36*
X254812892Y-123973639D02*
G01*
X254649127Y-123865561D01*
X254215352Y-124425000D01*
X254496353Y-124425000D01*
X254812892Y-123973639D01*
G37*
G36*
X255034542Y-123789357D02*
G01*
X254648028Y-123789357D01*
X254648028Y-123989026D01*
X255034542Y-123989026D01*
X255034542Y-123789357D01*
G37*
G36*
X253797697Y-123467690D02*
G01*
X253587404Y-123467690D01*
X253587404Y-124425000D01*
X253797697Y-124425000D01*
X253797697Y-123467690D01*
G37*
G36*
X254108007Y-123355582D02*
G01*
X253277459Y-123355582D01*
X253277459Y-123544993D01*
X254108007Y-123544993D01*
X254108007Y-123355582D01*
G37*
G36*
X253004152Y-123355582D02*
G01*
X252793859Y-123355582D01*
X252793859Y-124859874D01*
X253004152Y-124859874D01*
X253004152Y-123355582D01*
G37*
G36*
X252524947Y-124440387D02*
G01*
X252601979Y-124432526D01*
X252675469Y-124406480D01*
X252699337Y-124392759D01*
X252756658Y-124343192D01*
X252799114Y-124278477D01*
X252808513Y-124257205D01*
X252793859Y-124033356D01*
X252785205Y-124108220D01*
X252769312Y-124150959D01*
X252722144Y-124208932D01*
X252697505Y-124225331D01*
X252627278Y-124247946D01*
X252583565Y-124250976D01*
X252506766Y-124240516D01*
X252441370Y-124205855D01*
X252422365Y-124187595D01*
X252383296Y-124122179D01*
X252367222Y-124050258D01*
X252365212Y-124008810D01*
X252365212Y-123776901D01*
X252371966Y-123702283D01*
X252397361Y-123630172D01*
X252422365Y-123594452D01*
X252481350Y-123550123D01*
X252552196Y-123531188D01*
X252583565Y-123529605D01*
X252659500Y-123539337D01*
X252697505Y-123554518D01*
X252753560Y-123601916D01*
X252769312Y-123627058D01*
X252790958Y-123697931D01*
X252793859Y-123741730D01*
X252815474Y-123535833D01*
X252775031Y-123471519D01*
X252721799Y-123415450D01*
X252689078Y-123391120D01*
X252622474Y-123357911D01*
X252550066Y-123341632D01*
X252514689Y-123339829D01*
X252440669Y-123345889D01*
X252368610Y-123366326D01*
X252320516Y-123391120D01*
X252261140Y-123440235D01*
X252217709Y-123499311D01*
X252197418Y-123539863D01*
X252173222Y-123611876D01*
X252159941Y-123685607D01*
X252154961Y-123767209D01*
X252154919Y-123775802D01*
X252154919Y-124008810D01*
X252158368Y-124082193D01*
X252170289Y-124156525D01*
X252193237Y-124229530D01*
X252198517Y-124241817D01*
X252236607Y-124307917D01*
X252290662Y-124364991D01*
X252325279Y-124389462D01*
X252392340Y-124420494D01*
X252468779Y-124437204D01*
X252524947Y-124440387D01*
G37*
G36*
X251469799Y-123340040D02*
G01*
X251543341Y-123346236D01*
X251617644Y-123363180D01*
X251690369Y-123394050D01*
X251747614Y-123432769D01*
X251800004Y-123486517D01*
X251841311Y-123551953D01*
X251850609Y-123571695D01*
X251874995Y-123642850D01*
X251889220Y-123722234D01*
X251893335Y-123800715D01*
X251893335Y-123974738D01*
X251892878Y-124001979D01*
X251886019Y-124079220D01*
X251868746Y-124157159D01*
X251841311Y-124226796D01*
X251804217Y-124287189D01*
X251752834Y-124342381D01*
X251690369Y-124385799D01*
X251677849Y-124392409D01*
X251603408Y-124421142D01*
X251527544Y-124436069D01*
X251452599Y-124440387D01*
X251435354Y-124440174D01*
X251361648Y-124433936D01*
X251287231Y-124416878D01*
X251214462Y-124385799D01*
X251157218Y-124346922D01*
X251104828Y-124293167D01*
X251063520Y-124227896D01*
X251051327Y-124201305D01*
X251027957Y-124128970D01*
X251015612Y-124056710D01*
X251011496Y-123977669D01*
X251221789Y-123977669D01*
X251224682Y-124029661D01*
X251243100Y-124106391D01*
X251282240Y-124171842D01*
X251310928Y-124198679D01*
X251376950Y-124231033D01*
X251452599Y-124240718D01*
X251485844Y-124239037D01*
X251560894Y-124218925D01*
X251623325Y-124171842D01*
X251652369Y-124128488D01*
X251676309Y-124056978D01*
X251683408Y-123977669D01*
X251683408Y-123800715D01*
X251680533Y-123748793D01*
X251662227Y-123672509D01*
X251623325Y-123608007D01*
X251594494Y-123581455D01*
X251528299Y-123549446D01*
X251452599Y-123539863D01*
X251419363Y-123541527D01*
X251344420Y-123561425D01*
X251282240Y-123608007D01*
X251253018Y-123650653D01*
X251228932Y-123721579D01*
X251221789Y-123800715D01*
X251221789Y-123977669D01*
X251011496Y-123977669D01*
X251011496Y-123800715D01*
X251011954Y-123773814D01*
X251018812Y-123697555D01*
X251036086Y-123620640D01*
X251063520Y-123551953D01*
X251100614Y-123491983D01*
X251151997Y-123437172D01*
X251214462Y-123394050D01*
X251226984Y-123387485D01*
X251301484Y-123358944D01*
X251377476Y-123344118D01*
X251452599Y-123339829D01*
X251469799Y-123340040D01*
G37*
G36*
X250043562Y-123355582D02*
G01*
X249833269Y-123355582D01*
X249833269Y-124425000D01*
X250043562Y-124425000D01*
X250043562Y-123355582D01*
G37*
G36*
X250719504Y-123355582D02*
G01*
X250509211Y-123355582D01*
X250509211Y-124425000D01*
X250719504Y-124425000D01*
X250719504Y-123355582D01*
G37*
G36*
X250588712Y-123804745D02*
G01*
X249932187Y-123804745D01*
X249932187Y-123994155D01*
X250588712Y-123994155D01*
X250588712Y-123804745D01*
G37*
G36*
X248834560Y-123355582D02*
G01*
X248624267Y-123355582D01*
X248624267Y-124425000D01*
X248834560Y-124425000D01*
X248834560Y-123355582D01*
G37*
G36*
X249510502Y-123355582D02*
G01*
X249300209Y-123355582D01*
X249300209Y-124425000D01*
X249510502Y-124425000D01*
X249510502Y-123355582D01*
G37*
G36*
X249379710Y-123804745D02*
G01*
X248723185Y-123804745D01*
X248723185Y-123994155D01*
X249379710Y-123994155D01*
X249379710Y-123804745D01*
G37*
G36*
X247353349Y-123355582D02*
G01*
X247143422Y-123355582D01*
X247143422Y-124425000D01*
X247353349Y-124425000D01*
X247353349Y-123355582D01*
G37*
G36*
X248199651Y-124224965D02*
G01*
X247873953Y-124224965D01*
X247800848Y-124207767D01*
X247771371Y-124185031D01*
X247736329Y-124117497D01*
X247732536Y-124078785D01*
X247747992Y-124005648D01*
X247750122Y-124001482D01*
X247799581Y-123950191D01*
X247871307Y-123931525D01*
X247873953Y-123931507D01*
X248199651Y-123931507D01*
X248199651Y-123731472D01*
X247882013Y-123731472D01*
X247802964Y-123737551D01*
X247731231Y-123755789D01*
X247687473Y-123774703D01*
X247624939Y-123815633D01*
X247571524Y-123872694D01*
X247555949Y-123896336D01*
X247525586Y-123964270D01*
X247510703Y-124040669D01*
X247509054Y-124078785D01*
X247515597Y-124152545D01*
X247537453Y-124224660D01*
X247555582Y-124260136D01*
X247603337Y-124322005D01*
X247660866Y-124367400D01*
X247686374Y-124381769D01*
X247759490Y-124409759D01*
X247834709Y-124422931D01*
X247882013Y-124425000D01*
X248199651Y-124425000D01*
X248199651Y-124224965D01*
G37*
G36*
X248301500Y-123355582D02*
G01*
X248091207Y-123355582D01*
X248091207Y-124425000D01*
X248301500Y-124425000D01*
X248301500Y-123355582D01*
G37*
G36*
X246555408Y-123938468D02*
G01*
X246948883Y-123355582D01*
X246715143Y-123355582D01*
X246408129Y-123834420D01*
X246002930Y-124425000D01*
X246235938Y-124425000D01*
X246555408Y-123938468D01*
G37*
G36*
X246561636Y-123834420D02*
G01*
X246460519Y-124028227D01*
X246732728Y-124425000D01*
X246965369Y-124425000D01*
X246561636Y-123834420D01*
G37*
G36*
X246487264Y-123734769D02*
G01*
X246253524Y-123355582D01*
X246019417Y-123355582D01*
X246398604Y-123932606D01*
X246487264Y-123734769D01*
G37*
G36*
X244380303Y-123355582D02*
G01*
X244835694Y-124675226D01*
X244866221Y-124744497D01*
X244900540Y-124791364D01*
X244961323Y-124837052D01*
X244999459Y-124852547D01*
X245073982Y-124867655D01*
X245143806Y-124871231D01*
X245185938Y-124871231D01*
X245185938Y-124669364D01*
X245143806Y-124669364D01*
X245069137Y-124655969D01*
X245050383Y-124645551D01*
X245001940Y-124587770D01*
X244990300Y-124564218D01*
X244594626Y-123355582D01*
X244380303Y-123355582D01*
G37*
G36*
X245326988Y-123355582D02*
G01*
X245112665Y-123355582D01*
X244784036Y-124284682D01*
X244900540Y-124512561D01*
X245326988Y-123355582D01*
G37*
G36*
X243788625Y-124440387D02*
G01*
X243867489Y-124436069D01*
X243939630Y-124423115D01*
X244011901Y-124398593D01*
X244038485Y-124385799D01*
X244103756Y-124342425D01*
X244157512Y-124287362D01*
X244196388Y-124227163D01*
X244225175Y-124157911D01*
X244243300Y-124080216D01*
X244250497Y-124003072D01*
X244250976Y-123975837D01*
X244250976Y-123799616D01*
X244246658Y-123721164D01*
X244231732Y-123641880D01*
X244206144Y-123570897D01*
X244196388Y-123551221D01*
X244153101Y-123486201D01*
X244098298Y-123432698D01*
X244038485Y-123394050D01*
X243969534Y-123365457D01*
X243892283Y-123347453D01*
X243815660Y-123340305D01*
X243788625Y-123339829D01*
X243712488Y-123344256D01*
X243636067Y-123358739D01*
X243631454Y-123359979D01*
X243561571Y-123384617D01*
X243499197Y-123418230D01*
X243439099Y-123466312D01*
X243401011Y-123510921D01*
X243552320Y-123647208D01*
X243608296Y-123596628D01*
X243658565Y-123567707D01*
X243728607Y-123545193D01*
X243785327Y-123539863D01*
X243862500Y-123547916D01*
X243931974Y-123575067D01*
X243974005Y-123608007D01*
X244017414Y-123672327D01*
X244037842Y-123748122D01*
X244041050Y-123799616D01*
X244041050Y-123975837D01*
X244034574Y-124049446D01*
X244009707Y-124122948D01*
X243974738Y-124171842D01*
X243911311Y-124216437D01*
X243836340Y-124237422D01*
X243785327Y-124240718D01*
X243711873Y-124231213D01*
X243657466Y-124210676D01*
X243594264Y-124169113D01*
X243552320Y-124126046D01*
X243401011Y-124272592D01*
X243452145Y-124327783D01*
X243499930Y-124363817D01*
X243566554Y-124398558D01*
X243632554Y-124420969D01*
X243708391Y-124435532D01*
X243783481Y-124440368D01*
X243788625Y-124440387D01*
G37*
G36*
X242998743Y-123467690D02*
G01*
X242788450Y-123467690D01*
X242788450Y-124425000D01*
X242998743Y-124425000D01*
X242998743Y-123467690D01*
G37*
G36*
X243309054Y-123355582D02*
G01*
X242478506Y-123355582D01*
X242478506Y-123544993D01*
X243309054Y-123544993D01*
X243309054Y-123355582D01*
G37*
G36*
X242205198Y-123355582D02*
G01*
X241994905Y-123355582D01*
X241994905Y-124859874D01*
X242205198Y-124859874D01*
X242205198Y-123355582D01*
G37*
G36*
X241725994Y-124440387D02*
G01*
X241803026Y-124432526D01*
X241876516Y-124406480D01*
X241900383Y-124392759D01*
X241957705Y-124343192D01*
X242000160Y-124278477D01*
X242009560Y-124257205D01*
X241994905Y-124033356D01*
X241986252Y-124108220D01*
X241970359Y-124150959D01*
X241923191Y-124208932D01*
X241898551Y-124225331D01*
X241828324Y-124247946D01*
X241784612Y-124250976D01*
X241707813Y-124240516D01*
X241642417Y-124205855D01*
X241623412Y-124187595D01*
X241584343Y-124122179D01*
X241568268Y-124050258D01*
X241566259Y-124008810D01*
X241566259Y-123776901D01*
X241573013Y-123702283D01*
X241598408Y-123630172D01*
X241623412Y-123594452D01*
X241682397Y-123550123D01*
X241753242Y-123531188D01*
X241784612Y-123529605D01*
X241860547Y-123539337D01*
X241898551Y-123554518D01*
X241954607Y-123601916D01*
X241970359Y-123627058D01*
X241992005Y-123697931D01*
X241994905Y-123741730D01*
X242016521Y-123535833D01*
X241976078Y-123471519D01*
X241922846Y-123415450D01*
X241890125Y-123391120D01*
X241823521Y-123357911D01*
X241751113Y-123341632D01*
X241715736Y-123339829D01*
X241641716Y-123345889D01*
X241569657Y-123366326D01*
X241521563Y-123391120D01*
X241462187Y-123440235D01*
X241418755Y-123499311D01*
X241398464Y-123539863D01*
X241374268Y-123611876D01*
X241360988Y-123685607D01*
X241356008Y-123767209D01*
X241355966Y-123775802D01*
X241355966Y-124008810D01*
X241359415Y-124082193D01*
X241371336Y-124156525D01*
X241394284Y-124229530D01*
X241399563Y-124241817D01*
X241437654Y-124307917D01*
X241491709Y-124364991D01*
X241526325Y-124389462D01*
X241593387Y-124420494D01*
X241669826Y-124437204D01*
X241725994Y-124440387D01*
G37*
G36*
X240670846Y-123340040D02*
G01*
X240744388Y-123346236D01*
X240818691Y-123363180D01*
X240891416Y-123394050D01*
X240948661Y-123432769D01*
X241001051Y-123486517D01*
X241042358Y-123551953D01*
X241051655Y-123571695D01*
X241076042Y-123642850D01*
X241090267Y-123722234D01*
X241094382Y-123800715D01*
X241094382Y-123974738D01*
X241093925Y-124001979D01*
X241087066Y-124079220D01*
X241069793Y-124157159D01*
X241042358Y-124226796D01*
X241005264Y-124287189D01*
X240953881Y-124342381D01*
X240891416Y-124385799D01*
X240878895Y-124392409D01*
X240804454Y-124421142D01*
X240728591Y-124436069D01*
X240653646Y-124440387D01*
X240636401Y-124440174D01*
X240562695Y-124433936D01*
X240488277Y-124416878D01*
X240415509Y-124385799D01*
X240358265Y-124346922D01*
X240305874Y-124293167D01*
X240264567Y-124227896D01*
X240252374Y-124201305D01*
X240229004Y-124128970D01*
X240216658Y-124056710D01*
X240212543Y-123977669D01*
X240422836Y-123977669D01*
X240425729Y-124029661D01*
X240444147Y-124106391D01*
X240483286Y-124171842D01*
X240511975Y-124198679D01*
X240577997Y-124231033D01*
X240653646Y-124240718D01*
X240686890Y-124239037D01*
X240761941Y-124218925D01*
X240824371Y-124171842D01*
X240853416Y-124128488D01*
X240877355Y-124056978D01*
X240884455Y-123977669D01*
X240884455Y-123800715D01*
X240881580Y-123748793D01*
X240863273Y-123672509D01*
X240824371Y-123608007D01*
X240795540Y-123581455D01*
X240729346Y-123549446D01*
X240653646Y-123539863D01*
X240620410Y-123541527D01*
X240545467Y-123561425D01*
X240483286Y-123608007D01*
X240454065Y-123650653D01*
X240429979Y-123721579D01*
X240422836Y-123800715D01*
X240422836Y-123977669D01*
X240212543Y-123977669D01*
X240212543Y-123800715D01*
X240213000Y-123773814D01*
X240219859Y-123697555D01*
X240237132Y-123620640D01*
X240264567Y-123551953D01*
X240301661Y-123491983D01*
X240353044Y-123437172D01*
X240415509Y-123394050D01*
X240428031Y-123387485D01*
X240502531Y-123358944D01*
X240578523Y-123344118D01*
X240653646Y-123339829D01*
X240670846Y-123340040D01*
G37*
G36*
X239248639Y-124423900D02*
G01*
X239248639Y-123664427D01*
X239224092Y-123691172D01*
X239738101Y-124423900D01*
X239920551Y-124423900D01*
X239920551Y-123355582D01*
X239712456Y-123355582D01*
X239712456Y-124132274D01*
X239737002Y-124105530D01*
X239220795Y-123355582D01*
X239040544Y-123355582D01*
X239040544Y-124423900D01*
X239248639Y-124423900D01*
G37*
G36*
X239490073Y-123152616D02*
G01*
X239570363Y-123145313D01*
X239645368Y-123120069D01*
X239705417Y-123076792D01*
X239720516Y-123060293D01*
X239760895Y-122993610D01*
X239784449Y-122918239D01*
X239795217Y-122839030D01*
X239797086Y-122783688D01*
X239627826Y-122783688D01*
X239622142Y-122858747D01*
X239597558Y-122930992D01*
X239593387Y-122937561D01*
X239533356Y-122982468D01*
X239490073Y-122988485D01*
X239471388Y-122988485D01*
X239398430Y-122968593D01*
X239367707Y-122937561D01*
X239340836Y-122868771D01*
X239333302Y-122790071D01*
X239333269Y-122783688D01*
X239164375Y-122783688D01*
X239168056Y-122859910D01*
X239181280Y-122936246D01*
X239207652Y-123008383D01*
X239241311Y-123060293D01*
X239296681Y-123108979D01*
X239367077Y-123139633D01*
X239443282Y-123151805D01*
X239471388Y-123152616D01*
X239490073Y-123152616D01*
G37*
G36*
X238285833Y-124440387D02*
G01*
X238364698Y-124436069D01*
X238436838Y-124423115D01*
X238509110Y-124398593D01*
X238535694Y-124385799D01*
X238600965Y-124342425D01*
X238654721Y-124287362D01*
X238693597Y-124227163D01*
X238722384Y-124157911D01*
X238740509Y-124080216D01*
X238747705Y-124003072D01*
X238748185Y-123975837D01*
X238748185Y-123799616D01*
X238743867Y-123721164D01*
X238728941Y-123641880D01*
X238703352Y-123570897D01*
X238693597Y-123551221D01*
X238650310Y-123486201D01*
X238595507Y-123432698D01*
X238535694Y-123394050D01*
X238466743Y-123365457D01*
X238389492Y-123347453D01*
X238312869Y-123340305D01*
X238285833Y-123339829D01*
X238209697Y-123344256D01*
X238133275Y-123358739D01*
X238128663Y-123359979D01*
X238058779Y-123384617D01*
X237996406Y-123418230D01*
X237936308Y-123466312D01*
X237898220Y-123510921D01*
X238049528Y-123647208D01*
X238105505Y-123596628D01*
X238155774Y-123567707D01*
X238225816Y-123545193D01*
X238282536Y-123539863D01*
X238359708Y-123547916D01*
X238429183Y-123575067D01*
X238471214Y-123608007D01*
X238514623Y-123672327D01*
X238535050Y-123748122D01*
X238538258Y-123799616D01*
X238538258Y-123975837D01*
X238531783Y-124049446D01*
X238506916Y-124122948D01*
X238471946Y-124171842D01*
X238408519Y-124216437D01*
X238333549Y-124237422D01*
X238282536Y-124240718D01*
X238209082Y-124231213D01*
X238154675Y-124210676D01*
X238091473Y-124169113D01*
X238049528Y-124126046D01*
X237898220Y-124272592D01*
X237949354Y-124327783D01*
X237997138Y-124363817D01*
X238063763Y-124398558D01*
X238129762Y-124420969D01*
X238205600Y-124435532D01*
X238280690Y-124440368D01*
X238285833Y-124440387D01*
G37*
G36*
X237495952Y-123467690D02*
G01*
X237285659Y-123467690D01*
X237285659Y-124425000D01*
X237495952Y-124425000D01*
X237495952Y-123467690D01*
G37*
G36*
X237806263Y-123355582D02*
G01*
X236975715Y-123355582D01*
X236975715Y-123544993D01*
X237806263Y-123544993D01*
X237806263Y-123355582D01*
G37*
G36*
X236578576Y-124235223D02*
G01*
X236182903Y-124235223D01*
X236110268Y-124218772D01*
X236086182Y-124200418D01*
X236054240Y-124131588D01*
X236052110Y-124101500D01*
X236052110Y-124098203D01*
X236066784Y-124023467D01*
X236086182Y-123994521D01*
X236153364Y-123959488D01*
X236182903Y-123957152D01*
X236578576Y-123957152D01*
X236578576Y-123767742D01*
X236182903Y-123767742D01*
X236110375Y-123748702D01*
X236100837Y-123740997D01*
X236072149Y-123673504D01*
X236071894Y-123664427D01*
X236089559Y-123591476D01*
X236100837Y-123576500D01*
X236168517Y-123545485D01*
X236181071Y-123544993D01*
X236578576Y-123544993D01*
X236578576Y-123355582D01*
X236173743Y-123355582D01*
X236094966Y-123361088D01*
X236019876Y-123380122D01*
X235952401Y-123416762D01*
X235941835Y-123425191D01*
X235891603Y-123485212D01*
X235865923Y-123554443D01*
X235859403Y-123621196D01*
X235869440Y-123694991D01*
X235902699Y-123761749D01*
X235920219Y-123782397D01*
X235982901Y-123829089D01*
X236051697Y-123855159D01*
X236091311Y-123863363D01*
X236015521Y-123885127D01*
X235947257Y-123922891D01*
X235905931Y-123960816D01*
X235865746Y-124022125D01*
X235844107Y-124093944D01*
X235839986Y-124147662D01*
X235839986Y-124150959D01*
X235848608Y-124226944D01*
X235878011Y-124297221D01*
X235928279Y-124353558D01*
X235997344Y-124394232D01*
X236075082Y-124416558D01*
X236157221Y-124424720D01*
X236177041Y-124425000D01*
X236578576Y-124425000D01*
X236578576Y-124235223D01*
G37*
G36*
X236702407Y-123355582D02*
G01*
X236493213Y-123355582D01*
X236493213Y-124425000D01*
X236702407Y-124425000D01*
X236702407Y-123355582D01*
G37*
G36*
X258435136Y-125875582D02*
G01*
X258224842Y-125875582D01*
X258224842Y-127379874D01*
X258435136Y-127379874D01*
X258435136Y-125875582D01*
G37*
G36*
X257955931Y-126960387D02*
G01*
X258032963Y-126952526D01*
X258106453Y-126926480D01*
X258130321Y-126912759D01*
X258187642Y-126863192D01*
X258230098Y-126798477D01*
X258239497Y-126777205D01*
X258224842Y-126553356D01*
X258216189Y-126628220D01*
X258200296Y-126670959D01*
X258153128Y-126728932D01*
X258128489Y-126745331D01*
X258058262Y-126767946D01*
X258014549Y-126770976D01*
X257937750Y-126760516D01*
X257872354Y-126725855D01*
X257853349Y-126707595D01*
X257814280Y-126642179D01*
X257798206Y-126570258D01*
X257796196Y-126528810D01*
X257796196Y-126296901D01*
X257802950Y-126222283D01*
X257828345Y-126150172D01*
X257853349Y-126114452D01*
X257912334Y-126070123D01*
X257983179Y-126051188D01*
X258014549Y-126049605D01*
X258090484Y-126059337D01*
X258128489Y-126074518D01*
X258184544Y-126121916D01*
X258200296Y-126147058D01*
X258221942Y-126217931D01*
X258224842Y-126261730D01*
X258246458Y-126055833D01*
X258206015Y-125991519D01*
X258152783Y-125935450D01*
X258120062Y-125911120D01*
X258053458Y-125877911D01*
X257981050Y-125861632D01*
X257945673Y-125859829D01*
X257871653Y-125865889D01*
X257799594Y-125886326D01*
X257751500Y-125911120D01*
X257692124Y-125960235D01*
X257648692Y-126019311D01*
X257628401Y-126059863D01*
X257604206Y-126131876D01*
X257590925Y-126205607D01*
X257585945Y-126287209D01*
X257585903Y-126295802D01*
X257585903Y-126528810D01*
X257589352Y-126602193D01*
X257601273Y-126676525D01*
X257624221Y-126749530D01*
X257629501Y-126761817D01*
X257667591Y-126827917D01*
X257721646Y-126884991D01*
X257756263Y-126909462D01*
X257823324Y-126940494D01*
X257899763Y-126957204D01*
X257955931Y-126960387D01*
G37*
G36*
X256861967Y-126960387D02*
G01*
X256940832Y-126956069D01*
X257012972Y-126943115D01*
X257085244Y-126918593D01*
X257111828Y-126905799D01*
X257177099Y-126862425D01*
X257230855Y-126807362D01*
X257269731Y-126747163D01*
X257298518Y-126677911D01*
X257316643Y-126600216D01*
X257323839Y-126523072D01*
X257324319Y-126495837D01*
X257324319Y-126319616D01*
X257320001Y-126241164D01*
X257305075Y-126161880D01*
X257279486Y-126090897D01*
X257269731Y-126071221D01*
X257226444Y-126006201D01*
X257171641Y-125952698D01*
X257111828Y-125914050D01*
X257042877Y-125885457D01*
X256965626Y-125867453D01*
X256889003Y-125860305D01*
X256861967Y-125859829D01*
X256785831Y-125864256D01*
X256709409Y-125878739D01*
X256704797Y-125879979D01*
X256634913Y-125904617D01*
X256572540Y-125938230D01*
X256512442Y-125986312D01*
X256474354Y-126030921D01*
X256625662Y-126167208D01*
X256681639Y-126116628D01*
X256731908Y-126087707D01*
X256801949Y-126065193D01*
X256858670Y-126059863D01*
X256935842Y-126067916D01*
X257005317Y-126095067D01*
X257047348Y-126128007D01*
X257090757Y-126192327D01*
X257111184Y-126268122D01*
X257114392Y-126319616D01*
X257114392Y-126495837D01*
X257107917Y-126569446D01*
X257083050Y-126642948D01*
X257048080Y-126691842D01*
X256984653Y-126736437D01*
X256909683Y-126757422D01*
X256858670Y-126760718D01*
X256785216Y-126751213D01*
X256730809Y-126730676D01*
X256667607Y-126689113D01*
X256625662Y-126646046D01*
X256474354Y-126792592D01*
X256525488Y-126847783D01*
X256573272Y-126883817D01*
X256639897Y-126918558D01*
X256705896Y-126940969D01*
X256781734Y-126955532D01*
X256856824Y-126960368D01*
X256861967Y-126960387D01*
G37*
G36*
X255769469Y-126960387D02*
G01*
X255846501Y-126952526D01*
X255919991Y-126926480D01*
X255943859Y-126912759D01*
X256001180Y-126863192D01*
X256043636Y-126798477D01*
X256053035Y-126777205D01*
X256038381Y-126553356D01*
X256029727Y-126628220D01*
X256013834Y-126670959D01*
X255966666Y-126728932D01*
X255942027Y-126745331D01*
X255871800Y-126767946D01*
X255828087Y-126770976D01*
X255751288Y-126760516D01*
X255685892Y-126725855D01*
X255666887Y-126707595D01*
X255627818Y-126642179D01*
X255611744Y-126570258D01*
X255609734Y-126528810D01*
X255609734Y-126296901D01*
X255616488Y-126222283D01*
X255641883Y-126150172D01*
X255666887Y-126114452D01*
X255725872Y-126070123D01*
X255796717Y-126051188D01*
X255828087Y-126049605D01*
X255904022Y-126059337D01*
X255942027Y-126074518D01*
X255998082Y-126121916D01*
X256013834Y-126147058D01*
X256035480Y-126217931D01*
X256038381Y-126261730D01*
X256059996Y-126055833D01*
X256019553Y-125991519D01*
X255966321Y-125935450D01*
X255933600Y-125911120D01*
X255866996Y-125877911D01*
X255794588Y-125861632D01*
X255759211Y-125859829D01*
X255685191Y-125865889D01*
X255613132Y-125886326D01*
X255565038Y-125911120D01*
X255505662Y-125960235D01*
X255462230Y-126019311D01*
X255441939Y-126059863D01*
X255417744Y-126131876D01*
X255404463Y-126205607D01*
X255399483Y-126287209D01*
X255399441Y-126295802D01*
X255399441Y-126528810D01*
X255402890Y-126602193D01*
X255414811Y-126676525D01*
X255437759Y-126749530D01*
X255443039Y-126761817D01*
X255481129Y-126827917D01*
X255535184Y-126884991D01*
X255569801Y-126909462D01*
X255636862Y-126940494D01*
X255713301Y-126957204D01*
X255769469Y-126960387D01*
G37*
G36*
X256248674Y-125446936D02*
G01*
X256038381Y-125446936D01*
X256038381Y-126945000D01*
X256248674Y-126945000D01*
X256248674Y-125446936D01*
G37*
G36*
X254829012Y-126950129D02*
G01*
X254903308Y-126943152D01*
X254974612Y-126916362D01*
X255019155Y-126878688D01*
X255058057Y-126809098D01*
X255075484Y-126732646D01*
X255079239Y-126666929D01*
X255079239Y-125564173D01*
X254868946Y-125564173D01*
X254868946Y-126668761D01*
X254853558Y-126729211D01*
X254808129Y-126750094D01*
X254707379Y-126750094D01*
X254707379Y-126950129D01*
X254829012Y-126950129D01*
G37*
G36*
X255189515Y-125875582D02*
G01*
X254707379Y-125875582D01*
X254707379Y-126064993D01*
X255189515Y-126064993D01*
X255189515Y-125875582D01*
G37*
G36*
X253984909Y-126960387D02*
G01*
X254064952Y-126955982D01*
X254138155Y-126942767D01*
X254211471Y-126917751D01*
X254238433Y-126904699D01*
X254304625Y-126860310D01*
X254359128Y-126803713D01*
X254398534Y-126741667D01*
X254427514Y-126669947D01*
X254444419Y-126597874D01*
X254452630Y-126518672D01*
X254453489Y-126481182D01*
X254453489Y-126360648D01*
X254450191Y-126284239D01*
X254438599Y-126205230D01*
X254418661Y-126133581D01*
X254400732Y-126089905D01*
X254362844Y-126024868D01*
X254310339Y-125965477D01*
X254246493Y-125918813D01*
X254179288Y-125887708D01*
X254104069Y-125868123D01*
X254029519Y-125860347D01*
X254003227Y-125859829D01*
X253923443Y-125866376D01*
X253851243Y-125886018D01*
X253780584Y-125922748D01*
X253774616Y-125926873D01*
X253714705Y-125980023D01*
X253669482Y-126040587D01*
X253633060Y-126112816D01*
X253629902Y-126120680D01*
X253605639Y-126195983D01*
X253590738Y-126269633D01*
X253582112Y-126349604D01*
X253579710Y-126424762D01*
X253579710Y-126494738D01*
X254301081Y-126494738D01*
X254301081Y-126325844D01*
X253779745Y-126325844D01*
X253790263Y-126249594D01*
X253812909Y-126178943D01*
X253847156Y-126122145D01*
X253905700Y-126072557D01*
X253979390Y-126050739D01*
X254003227Y-126049605D01*
X254079183Y-126058870D01*
X254147430Y-126090108D01*
X254188607Y-126128007D01*
X254228346Y-126195704D01*
X254248662Y-126273872D01*
X254253820Y-126349291D01*
X254253820Y-126485579D01*
X254246987Y-126562494D01*
X254223684Y-126633298D01*
X254183845Y-126689644D01*
X254122896Y-126732955D01*
X254052635Y-126755096D01*
X253984909Y-126760718D01*
X253909290Y-126751677D01*
X253858147Y-126735073D01*
X253791544Y-126699318D01*
X253745673Y-126662533D01*
X253607554Y-126800652D01*
X253664505Y-126848973D01*
X253726045Y-126889155D01*
X253785973Y-126918621D01*
X253860316Y-126944072D01*
X253934969Y-126957776D01*
X253984909Y-126960387D01*
G37*
G36*
X252693475Y-126266859D02*
G01*
X252702726Y-126189228D01*
X252736391Y-126119037D01*
X252749528Y-126103827D01*
X252812463Y-126062015D01*
X252889941Y-126046087D01*
X252908897Y-126045575D01*
X252983822Y-126052550D01*
X253034193Y-126065359D01*
X253101940Y-126093842D01*
X253142637Y-126119581D01*
X253296144Y-126014434D01*
X253240382Y-125960519D01*
X253177639Y-125920196D01*
X253136043Y-125900861D01*
X253064978Y-125877500D01*
X252988806Y-125863836D01*
X252915125Y-125859829D01*
X252835727Y-125864408D01*
X252756985Y-125880024D01*
X252687247Y-125906723D01*
X252622469Y-125947870D01*
X252570468Y-126000970D01*
X252542899Y-126043011D01*
X252512760Y-126114933D01*
X252497352Y-126189913D01*
X252493440Y-126257700D01*
X252493440Y-126945000D01*
X252693475Y-126945000D01*
X252693475Y-126266859D01*
G37*
G36*
X252955059Y-126960387D02*
G01*
X253036844Y-126956477D01*
X253118635Y-126942435D01*
X253187969Y-126918181D01*
X253251081Y-126878688D01*
X253302666Y-126819096D01*
X253332756Y-126751270D01*
X253347372Y-126669997D01*
X253348900Y-126629560D01*
X253343290Y-126555211D01*
X253323568Y-126483447D01*
X253285000Y-126418460D01*
X253259141Y-126391789D01*
X253194097Y-126349865D01*
X253120263Y-126325409D01*
X253042467Y-126314229D01*
X252988032Y-126312288D01*
X252684316Y-126312288D01*
X252669661Y-126481182D01*
X252986933Y-126481182D01*
X253062833Y-126491522D01*
X253110397Y-126517819D01*
X253146258Y-126582471D01*
X253151064Y-126629560D01*
X253135761Y-126704371D01*
X253096842Y-126750460D01*
X253028606Y-126779586D01*
X252952528Y-126788953D01*
X252932344Y-126789295D01*
X252856750Y-126786264D01*
X252781577Y-126773642D01*
X252752826Y-126763649D01*
X252698169Y-126711832D01*
X252693475Y-126683415D01*
X252671859Y-126833625D01*
X252720838Y-126889816D01*
X252740369Y-126904699D01*
X252808582Y-126938634D01*
X252834525Y-126946465D01*
X252910567Y-126958742D01*
X252955059Y-126960387D01*
G37*
G36*
X251748988Y-126960387D02*
G01*
X251827852Y-126956069D01*
X251899993Y-126943115D01*
X251972264Y-126918593D01*
X251998848Y-126905799D01*
X252064119Y-126862425D01*
X252117875Y-126807362D01*
X252156751Y-126747163D01*
X252185538Y-126677911D01*
X252203663Y-126600216D01*
X252210860Y-126523072D01*
X252211339Y-126495837D01*
X252211339Y-126319616D01*
X252207021Y-126241164D01*
X252192095Y-126161880D01*
X252166507Y-126090897D01*
X252156751Y-126071221D01*
X252113464Y-126006201D01*
X252058661Y-125952698D01*
X251998848Y-125914050D01*
X251929897Y-125885457D01*
X251852646Y-125867453D01*
X251776023Y-125860305D01*
X251748988Y-125859829D01*
X251672851Y-125864256D01*
X251596429Y-125878739D01*
X251591817Y-125879979D01*
X251521933Y-125904617D01*
X251459560Y-125938230D01*
X251399462Y-125986312D01*
X251361374Y-126030921D01*
X251512683Y-126167208D01*
X251568659Y-126116628D01*
X251618928Y-126087707D01*
X251688970Y-126065193D01*
X251745690Y-126059863D01*
X251822863Y-126067916D01*
X251892337Y-126095067D01*
X251934368Y-126128007D01*
X251977777Y-126192327D01*
X251998204Y-126268122D01*
X252001413Y-126319616D01*
X252001413Y-126495837D01*
X251994937Y-126569446D01*
X251970070Y-126642948D01*
X251935101Y-126691842D01*
X251871674Y-126736437D01*
X251796703Y-126757422D01*
X251745690Y-126760718D01*
X251672236Y-126751213D01*
X251617829Y-126730676D01*
X251554627Y-126689113D01*
X251512683Y-126646046D01*
X251361374Y-126792592D01*
X251412508Y-126847783D01*
X251460293Y-126883817D01*
X251526917Y-126918558D01*
X251592916Y-126940969D01*
X251668754Y-126955532D01*
X251743844Y-126960368D01*
X251748988Y-126960387D01*
G37*
G36*
X251135694Y-125446936D02*
G01*
X250925401Y-125446936D01*
X250925401Y-126945000D01*
X251135694Y-126945000D01*
X251135694Y-125446936D01*
G37*
G36*
X250486496Y-126296901D02*
G01*
X250494791Y-126219209D01*
X250522498Y-126151321D01*
X250545481Y-126121779D01*
X250605818Y-126079454D01*
X250678045Y-126061375D01*
X250709979Y-126059863D01*
X250786122Y-126068752D01*
X250854595Y-126101097D01*
X250869347Y-126113719D01*
X250911387Y-126178291D01*
X250925182Y-126252973D01*
X250925401Y-126265027D01*
X250947016Y-126058764D01*
X250905646Y-125993626D01*
X250851177Y-125936664D01*
X250817690Y-125911852D01*
X250750016Y-125878169D01*
X250676780Y-125861657D01*
X250641102Y-125859829D01*
X250559014Y-125866950D01*
X250486771Y-125888313D01*
X250417267Y-125929372D01*
X250371824Y-125973768D01*
X250329990Y-126036622D01*
X250300109Y-126111246D01*
X250283767Y-126186196D01*
X250276577Y-126270158D01*
X250276203Y-126295802D01*
X250276203Y-126945000D01*
X250486496Y-126945000D01*
X250486496Y-126296901D01*
G37*
G36*
X249999232Y-126724448D02*
G01*
X249779047Y-126724448D01*
X249779047Y-126945000D01*
X249999232Y-126945000D01*
X249999232Y-126724448D01*
G37*
G36*
X249488520Y-125875582D02*
G01*
X249278227Y-125875582D01*
X249278227Y-126945000D01*
X249488520Y-126945000D01*
X249488520Y-125875582D01*
G37*
G36*
X248900139Y-126128740D02*
G01*
X248960085Y-126082097D01*
X248970481Y-126077449D01*
X249044362Y-126060705D01*
X249067934Y-126059863D01*
X249141821Y-126068994D01*
X249208744Y-126102219D01*
X249223272Y-126115184D01*
X249264488Y-126180855D01*
X249278012Y-126255898D01*
X249278227Y-126267958D01*
X249299842Y-126062062D01*
X249258730Y-125996099D01*
X249205121Y-125938244D01*
X249172348Y-125912951D01*
X249105925Y-125878556D01*
X249034061Y-125861696D01*
X248999057Y-125859829D01*
X248925238Y-125865826D01*
X248866800Y-125881078D01*
X248798479Y-125915367D01*
X248763119Y-125943360D01*
X248900139Y-126128740D01*
G37*
G36*
X247947958Y-125875582D02*
G01*
X247738764Y-125875582D01*
X247738764Y-126945000D01*
X247947958Y-126945000D01*
X247947958Y-125875582D01*
G37*
G36*
X248382833Y-126525512D02*
G01*
X248374796Y-126602707D01*
X248345103Y-126674664D01*
X248325680Y-126699535D01*
X248261795Y-126743451D01*
X248189759Y-126759762D01*
X248164480Y-126760718D01*
X248088453Y-126751709D01*
X248019663Y-126718924D01*
X248004745Y-126706130D01*
X247963985Y-126644548D01*
X247948457Y-126568913D01*
X247947958Y-126550425D01*
X247933670Y-126773907D01*
X247970445Y-126838492D01*
X248023069Y-126893119D01*
X248041015Y-126906898D01*
X248106768Y-126941530D01*
X248183767Y-126958506D01*
X248223098Y-126960387D01*
X248296801Y-126954952D01*
X248371545Y-126935432D01*
X248443535Y-126896502D01*
X248496772Y-126846814D01*
X248538927Y-126784005D01*
X248569037Y-126709519D01*
X248585504Y-126634764D01*
X248592749Y-126551068D01*
X248593126Y-126525512D01*
X248593126Y-125875582D01*
X248382833Y-125875582D01*
X248382833Y-126525512D01*
G37*
G36*
X117210889Y-117128803D02*
G01*
X117322836Y-117142370D01*
X117425578Y-117172218D01*
X117519116Y-117218345D01*
X117603448Y-117280753D01*
X117678576Y-117359441D01*
X117740636Y-117450436D01*
X117792177Y-117557030D01*
X117825837Y-117653536D01*
X117852765Y-117760026D01*
X117872961Y-117876500D01*
X117886425Y-118002956D01*
X117892105Y-118104350D01*
X117893998Y-118211360D01*
X117890953Y-118337657D01*
X117881816Y-118454718D01*
X117866589Y-118562543D01*
X117845272Y-118661133D01*
X117810059Y-118771384D01*
X117765330Y-118867204D01*
X117699092Y-118963140D01*
X117674283Y-118990764D01*
X117594495Y-119062943D01*
X117506671Y-119119083D01*
X117410809Y-119159183D01*
X117306911Y-119183243D01*
X117194975Y-119191263D01*
X117172472Y-119190925D01*
X117064481Y-119179104D01*
X116964026Y-119150396D01*
X116871109Y-119104801D01*
X116844814Y-119087828D01*
X116764977Y-119021577D01*
X116697161Y-118940442D01*
X116646406Y-118854696D01*
X116622764Y-118802914D01*
X116590306Y-118706460D01*
X116570832Y-118605833D01*
X116564794Y-118508360D01*
X116816887Y-118508360D01*
X116819642Y-118575398D01*
X116835510Y-118673232D01*
X116870222Y-118769428D01*
X116929727Y-118859092D01*
X117004498Y-118927099D01*
X117096553Y-118972814D01*
X117198883Y-118988053D01*
X117212278Y-118987810D01*
X117310309Y-118970544D01*
X117404047Y-118926015D01*
X117433375Y-118905092D01*
X117504328Y-118831789D01*
X117555478Y-118744298D01*
X117573904Y-118699207D01*
X117600751Y-118598799D01*
X117609699Y-118494682D01*
X117608673Y-118457987D01*
X117593282Y-118355990D01*
X117554518Y-118256891D01*
X117492951Y-118172770D01*
X117485605Y-118165227D01*
X117406684Y-118102964D01*
X117308411Y-118062134D01*
X117208653Y-118050160D01*
X117198145Y-118050280D01*
X117099265Y-118064648D01*
X117003500Y-118108112D01*
X116928262Y-118172770D01*
X116896176Y-118213292D01*
X116848320Y-118307573D01*
X116823848Y-118407518D01*
X116816887Y-118508360D01*
X116564794Y-118508360D01*
X116564340Y-118501032D01*
X116568586Y-118413274D01*
X116584889Y-118314860D01*
X116619363Y-118209549D01*
X116670481Y-118114477D01*
X116738241Y-118029644D01*
X116782754Y-117986825D01*
X116866236Y-117925630D01*
X116956823Y-117881919D01*
X117054516Y-117855692D01*
X117159316Y-117846950D01*
X117229169Y-117850858D01*
X117331202Y-117871374D01*
X117429937Y-117909476D01*
X117506673Y-117954737D01*
X117582157Y-118019511D01*
X117648290Y-118099986D01*
X117647673Y-118063275D01*
X117642825Y-117959576D01*
X117631481Y-117850793D01*
X117611018Y-117742556D01*
X117578436Y-117641297D01*
X117531486Y-117548084D01*
X117468712Y-117462961D01*
X117394277Y-117396078D01*
X117377263Y-117384467D01*
X117284591Y-117343544D01*
X117186671Y-117331109D01*
X117116085Y-117337948D01*
X117021196Y-117373852D01*
X116939497Y-117440530D01*
X116917744Y-117469060D01*
X116874467Y-117558072D01*
X116845708Y-117659371D01*
X116600000Y-117639832D01*
X116602011Y-117624943D01*
X116622745Y-117526412D01*
X116660694Y-117425997D01*
X116713847Y-117338589D01*
X116782205Y-117264187D01*
X116791754Y-117255802D01*
X116874224Y-117198305D01*
X116967502Y-117157845D01*
X117071587Y-117134421D01*
X117171528Y-117127899D01*
X117210889Y-117128803D01*
G37*
G36*
X243951709Y-119160000D02*
G01*
X244198883Y-119160000D01*
X244198883Y-117576329D01*
X244273759Y-117641175D01*
X244356153Y-117700618D01*
X244433356Y-117749253D01*
X244521121Y-117798788D01*
X244610941Y-117843580D01*
X244693719Y-117878213D01*
X244693719Y-117628108D01*
X244605392Y-117583853D01*
X244510573Y-117528525D01*
X244422286Y-117468128D01*
X244340534Y-117402663D01*
X244330774Y-117394124D01*
X244258784Y-117326010D01*
X244191370Y-117250624D01*
X244133324Y-117168402D01*
X244110956Y-117127899D01*
X243951709Y-117127899D01*
X243951709Y-119160000D01*
G37*
D12*
X99359580Y-121765946D02*
X99407200Y-121718327D01*
X99407200Y-121718327D02*
X99454819Y-121575470D01*
X99454819Y-121575470D02*
X99454819Y-121480232D01*
X99454819Y-121480232D02*
X99407200Y-121337375D01*
X99407200Y-121337375D02*
X99311961Y-121242137D01*
X99311961Y-121242137D02*
X99216723Y-121194518D01*
X99216723Y-121194518D02*
X99026247Y-121146899D01*
X99026247Y-121146899D02*
X98883390Y-121146899D01*
X98883390Y-121146899D02*
X98692914Y-121194518D01*
X98692914Y-121194518D02*
X98597676Y-121242137D01*
X98597676Y-121242137D02*
X98502438Y-121337375D01*
X98502438Y-121337375D02*
X98454819Y-121480232D01*
X98454819Y-121480232D02*
X98454819Y-121575470D01*
X98454819Y-121575470D02*
X98502438Y-121718327D01*
X98502438Y-121718327D02*
X98550057Y-121765946D01*
X98883390Y-122337375D02*
X98835771Y-122242137D01*
X98835771Y-122242137D02*
X98788152Y-122194518D01*
X98788152Y-122194518D02*
X98692914Y-122146899D01*
X98692914Y-122146899D02*
X98645295Y-122146899D01*
X98645295Y-122146899D02*
X98550057Y-122194518D01*
X98550057Y-122194518D02*
X98502438Y-122242137D01*
X98502438Y-122242137D02*
X98454819Y-122337375D01*
X98454819Y-122337375D02*
X98454819Y-122527851D01*
X98454819Y-122527851D02*
X98502438Y-122623089D01*
X98502438Y-122623089D02*
X98550057Y-122670708D01*
X98550057Y-122670708D02*
X98645295Y-122718327D01*
X98645295Y-122718327D02*
X98692914Y-122718327D01*
X98692914Y-122718327D02*
X98788152Y-122670708D01*
X98788152Y-122670708D02*
X98835771Y-122623089D01*
X98835771Y-122623089D02*
X98883390Y-122527851D01*
X98883390Y-122527851D02*
X98883390Y-122337375D01*
X98883390Y-122337375D02*
X98931009Y-122242137D01*
X98931009Y-122242137D02*
X98978628Y-122194518D01*
X98978628Y-122194518D02*
X99073866Y-122146899D01*
X99073866Y-122146899D02*
X99264342Y-122146899D01*
X99264342Y-122146899D02*
X99359580Y-122194518D01*
X99359580Y-122194518D02*
X99407200Y-122242137D01*
X99407200Y-122242137D02*
X99454819Y-122337375D01*
X99454819Y-122337375D02*
X99454819Y-122527851D01*
X99454819Y-122527851D02*
X99407200Y-122623089D01*
X99407200Y-122623089D02*
X99359580Y-122670708D01*
X99359580Y-122670708D02*
X99264342Y-122718327D01*
X99264342Y-122718327D02*
X99073866Y-122718327D01*
X99073866Y-122718327D02*
X98978628Y-122670708D01*
X98978628Y-122670708D02*
X98931009Y-122623089D01*
X98931009Y-122623089D02*
X98883390Y-122527851D01*
X92666666Y-124446578D02*
X92714285Y-124494198D01*
X92714285Y-124494198D02*
X92857142Y-124541817D01*
X92857142Y-124541817D02*
X92952380Y-124541817D01*
X92952380Y-124541817D02*
X93095237Y-124494198D01*
X93095237Y-124494198D02*
X93190475Y-124398959D01*
X93190475Y-124398959D02*
X93238094Y-124303721D01*
X93238094Y-124303721D02*
X93285713Y-124113245D01*
X93285713Y-124113245D02*
X93285713Y-123970388D01*
X93285713Y-123970388D02*
X93238094Y-123779912D01*
X93238094Y-123779912D02*
X93190475Y-123684674D01*
X93190475Y-123684674D02*
X93095237Y-123589436D01*
X93095237Y-123589436D02*
X92952380Y-123541817D01*
X92952380Y-123541817D02*
X92857142Y-123541817D01*
X92857142Y-123541817D02*
X92714285Y-123589436D01*
X92714285Y-123589436D02*
X92666666Y-123637055D01*
X92333332Y-123541817D02*
X91666666Y-123541817D01*
X91666666Y-123541817D02*
X92095237Y-124541817D01*
X169166666Y-121446578D02*
X169214285Y-121494198D01*
X169214285Y-121494198D02*
X169357142Y-121541817D01*
X169357142Y-121541817D02*
X169452380Y-121541817D01*
X169452380Y-121541817D02*
X169595237Y-121494198D01*
X169595237Y-121494198D02*
X169690475Y-121398959D01*
X169690475Y-121398959D02*
X169738094Y-121303721D01*
X169738094Y-121303721D02*
X169785713Y-121113245D01*
X169785713Y-121113245D02*
X169785713Y-120970388D01*
X169785713Y-120970388D02*
X169738094Y-120779912D01*
X169738094Y-120779912D02*
X169690475Y-120684674D01*
X169690475Y-120684674D02*
X169595237Y-120589436D01*
X169595237Y-120589436D02*
X169452380Y-120541817D01*
X169452380Y-120541817D02*
X169357142Y-120541817D01*
X169357142Y-120541817D02*
X169214285Y-120589436D01*
X169214285Y-120589436D02*
X169166666Y-120637055D01*
X168309523Y-120541817D02*
X168499999Y-120541817D01*
X168499999Y-120541817D02*
X168595237Y-120589436D01*
X168595237Y-120589436D02*
X168642856Y-120637055D01*
X168642856Y-120637055D02*
X168738094Y-120779912D01*
X168738094Y-120779912D02*
X168785713Y-120970388D01*
X168785713Y-120970388D02*
X168785713Y-121351340D01*
X168785713Y-121351340D02*
X168738094Y-121446578D01*
X168738094Y-121446578D02*
X168690475Y-121494198D01*
X168690475Y-121494198D02*
X168595237Y-121541817D01*
X168595237Y-121541817D02*
X168404761Y-121541817D01*
X168404761Y-121541817D02*
X168309523Y-121494198D01*
X168309523Y-121494198D02*
X168261904Y-121446578D01*
X168261904Y-121446578D02*
X168214285Y-121351340D01*
X168214285Y-121351340D02*
X168214285Y-121113245D01*
X168214285Y-121113245D02*
X168261904Y-121018007D01*
X168261904Y-121018007D02*
X168309523Y-120970388D01*
X168309523Y-120970388D02*
X168404761Y-120922769D01*
X168404761Y-120922769D02*
X168595237Y-120922769D01*
X168595237Y-120922769D02*
X168690475Y-120970388D01*
X168690475Y-120970388D02*
X168738094Y-121018007D01*
X168738094Y-121018007D02*
X168785713Y-121113245D01*
X84966666Y-119353459D02*
X85442856Y-119353459D01*
X85442856Y-119353459D02*
X85442856Y-118353459D01*
X84109523Y-119353459D02*
X84680951Y-119353459D01*
X84395237Y-119353459D02*
X84395237Y-118353459D01*
X84395237Y-118353459D02*
X84490475Y-118496316D01*
X84490475Y-118496316D02*
X84585713Y-118591554D01*
X84585713Y-118591554D02*
X84680951Y-118639173D01*
X161166666Y-115446578D02*
X161214285Y-115494198D01*
X161214285Y-115494198D02*
X161357142Y-115541817D01*
X161357142Y-115541817D02*
X161452380Y-115541817D01*
X161452380Y-115541817D02*
X161595237Y-115494198D01*
X161595237Y-115494198D02*
X161690475Y-115398959D01*
X161690475Y-115398959D02*
X161738094Y-115303721D01*
X161738094Y-115303721D02*
X161785713Y-115113245D01*
X161785713Y-115113245D02*
X161785713Y-114970388D01*
X161785713Y-114970388D02*
X161738094Y-114779912D01*
X161738094Y-114779912D02*
X161690475Y-114684674D01*
X161690475Y-114684674D02*
X161595237Y-114589436D01*
X161595237Y-114589436D02*
X161452380Y-114541817D01*
X161452380Y-114541817D02*
X161357142Y-114541817D01*
X161357142Y-114541817D02*
X161214285Y-114589436D01*
X161214285Y-114589436D02*
X161166666Y-114637055D01*
X160261904Y-114541817D02*
X160738094Y-114541817D01*
X160738094Y-114541817D02*
X160785713Y-115018007D01*
X160785713Y-115018007D02*
X160738094Y-114970388D01*
X160738094Y-114970388D02*
X160642856Y-114922769D01*
X160642856Y-114922769D02*
X160404761Y-114922769D01*
X160404761Y-114922769D02*
X160309523Y-114970388D01*
X160309523Y-114970388D02*
X160261904Y-115018007D01*
X160261904Y-115018007D02*
X160214285Y-115113245D01*
X160214285Y-115113245D02*
X160214285Y-115351340D01*
X160214285Y-115351340D02*
X160261904Y-115446578D01*
X160261904Y-115446578D02*
X160309523Y-115494198D01*
X160309523Y-115494198D02*
X160404761Y-115541817D01*
X160404761Y-115541817D02*
X160642856Y-115541817D01*
X160642856Y-115541817D02*
X160738094Y-115494198D01*
X160738094Y-115494198D02*
X160785713Y-115446578D01*
X163166666Y-121446578D02*
X163214285Y-121494198D01*
X163214285Y-121494198D02*
X163357142Y-121541817D01*
X163357142Y-121541817D02*
X163452380Y-121541817D01*
X163452380Y-121541817D02*
X163595237Y-121494198D01*
X163595237Y-121494198D02*
X163690475Y-121398959D01*
X163690475Y-121398959D02*
X163738094Y-121303721D01*
X163738094Y-121303721D02*
X163785713Y-121113245D01*
X163785713Y-121113245D02*
X163785713Y-120970388D01*
X163785713Y-120970388D02*
X163738094Y-120779912D01*
X163738094Y-120779912D02*
X163690475Y-120684674D01*
X163690475Y-120684674D02*
X163595237Y-120589436D01*
X163595237Y-120589436D02*
X163452380Y-120541817D01*
X163452380Y-120541817D02*
X163357142Y-120541817D01*
X163357142Y-120541817D02*
X163214285Y-120589436D01*
X163214285Y-120589436D02*
X163166666Y-120637055D01*
X162214285Y-121541817D02*
X162785713Y-121541817D01*
X162499999Y-121541817D02*
X162499999Y-120541817D01*
X162499999Y-120541817D02*
X162595237Y-120684674D01*
X162595237Y-120684674D02*
X162690475Y-120779912D01*
X162690475Y-120779912D02*
X162785713Y-120827531D01*
X141766666Y-120804819D02*
X142099999Y-120328628D01*
X142338094Y-120804819D02*
X142338094Y-119804819D01*
X142338094Y-119804819D02*
X141957142Y-119804819D01*
X141957142Y-119804819D02*
X141861904Y-119852438D01*
X141861904Y-119852438D02*
X141814285Y-119900057D01*
X141814285Y-119900057D02*
X141766666Y-119995295D01*
X141766666Y-119995295D02*
X141766666Y-120138152D01*
X141766666Y-120138152D02*
X141814285Y-120233390D01*
X141814285Y-120233390D02*
X141861904Y-120281009D01*
X141861904Y-120281009D02*
X141957142Y-120328628D01*
X141957142Y-120328628D02*
X142338094Y-120328628D01*
X141195237Y-120233390D02*
X141290475Y-120185771D01*
X141290475Y-120185771D02*
X141338094Y-120138152D01*
X141338094Y-120138152D02*
X141385713Y-120042914D01*
X141385713Y-120042914D02*
X141385713Y-119995295D01*
X141385713Y-119995295D02*
X141338094Y-119900057D01*
X141338094Y-119900057D02*
X141290475Y-119852438D01*
X141290475Y-119852438D02*
X141195237Y-119804819D01*
X141195237Y-119804819D02*
X141004761Y-119804819D01*
X141004761Y-119804819D02*
X140909523Y-119852438D01*
X140909523Y-119852438D02*
X140861904Y-119900057D01*
X140861904Y-119900057D02*
X140814285Y-119995295D01*
X140814285Y-119995295D02*
X140814285Y-120042914D01*
X140814285Y-120042914D02*
X140861904Y-120138152D01*
X140861904Y-120138152D02*
X140909523Y-120185771D01*
X140909523Y-120185771D02*
X141004761Y-120233390D01*
X141004761Y-120233390D02*
X141195237Y-120233390D01*
X141195237Y-120233390D02*
X141290475Y-120281009D01*
X141290475Y-120281009D02*
X141338094Y-120328628D01*
X141338094Y-120328628D02*
X141385713Y-120423866D01*
X141385713Y-120423866D02*
X141385713Y-120614342D01*
X141385713Y-120614342D02*
X141338094Y-120709580D01*
X141338094Y-120709580D02*
X141290475Y-120757200D01*
X141290475Y-120757200D02*
X141195237Y-120804819D01*
X141195237Y-120804819D02*
X141004761Y-120804819D01*
X141004761Y-120804819D02*
X140909523Y-120757200D01*
X140909523Y-120757200D02*
X140861904Y-120709580D01*
X140861904Y-120709580D02*
X140814285Y-120614342D01*
X140814285Y-120614342D02*
X140814285Y-120423866D01*
X140814285Y-120423866D02*
X140861904Y-120328628D01*
X140861904Y-120328628D02*
X140909523Y-120281009D01*
X140909523Y-120281009D02*
X141004761Y-120233390D01*
X145129580Y-122157142D02*
X145177200Y-122109523D01*
X145177200Y-122109523D02*
X145224819Y-121966666D01*
X145224819Y-121966666D02*
X145224819Y-121871428D01*
X145224819Y-121871428D02*
X145177200Y-121728571D01*
X145177200Y-121728571D02*
X145081961Y-121633333D01*
X145081961Y-121633333D02*
X144986723Y-121585714D01*
X144986723Y-121585714D02*
X144796247Y-121538095D01*
X144796247Y-121538095D02*
X144653390Y-121538095D01*
X144653390Y-121538095D02*
X144462914Y-121585714D01*
X144462914Y-121585714D02*
X144367676Y-121633333D01*
X144367676Y-121633333D02*
X144272438Y-121728571D01*
X144272438Y-121728571D02*
X144224819Y-121871428D01*
X144224819Y-121871428D02*
X144224819Y-121966666D01*
X144224819Y-121966666D02*
X144272438Y-122109523D01*
X144272438Y-122109523D02*
X144320057Y-122157142D01*
X145224819Y-123109523D02*
X145224819Y-122538095D01*
X145224819Y-122823809D02*
X144224819Y-122823809D01*
X144224819Y-122823809D02*
X144367676Y-122728571D01*
X144367676Y-122728571D02*
X144462914Y-122633333D01*
X144462914Y-122633333D02*
X144510533Y-122538095D01*
X144224819Y-123728571D02*
X144224819Y-123823809D01*
X144224819Y-123823809D02*
X144272438Y-123919047D01*
X144272438Y-123919047D02*
X144320057Y-123966666D01*
X144320057Y-123966666D02*
X144415295Y-124014285D01*
X144415295Y-124014285D02*
X144605771Y-124061904D01*
X144605771Y-124061904D02*
X144843866Y-124061904D01*
X144843866Y-124061904D02*
X145034342Y-124014285D01*
X145034342Y-124014285D02*
X145129580Y-123966666D01*
X145129580Y-123966666D02*
X145177200Y-123919047D01*
X145177200Y-123919047D02*
X145224819Y-123823809D01*
X145224819Y-123823809D02*
X145224819Y-123728571D01*
X145224819Y-123728571D02*
X145177200Y-123633333D01*
X145177200Y-123633333D02*
X145129580Y-123585714D01*
X145129580Y-123585714D02*
X145034342Y-123538095D01*
X145034342Y-123538095D02*
X144843866Y-123490476D01*
X144843866Y-123490476D02*
X144605771Y-123490476D01*
X144605771Y-123490476D02*
X144415295Y-123538095D01*
X144415295Y-123538095D02*
X144320057Y-123585714D01*
X144320057Y-123585714D02*
X144272438Y-123633333D01*
X144272438Y-123633333D02*
X144224819Y-123728571D01*
X147166666Y-119016578D02*
X147214285Y-119064198D01*
X147214285Y-119064198D02*
X147357142Y-119111817D01*
X147357142Y-119111817D02*
X147452380Y-119111817D01*
X147452380Y-119111817D02*
X147595237Y-119064198D01*
X147595237Y-119064198D02*
X147690475Y-118968959D01*
X147690475Y-118968959D02*
X147738094Y-118873721D01*
X147738094Y-118873721D02*
X147785713Y-118683245D01*
X147785713Y-118683245D02*
X147785713Y-118540388D01*
X147785713Y-118540388D02*
X147738094Y-118349912D01*
X147738094Y-118349912D02*
X147690475Y-118254674D01*
X147690475Y-118254674D02*
X147595237Y-118159436D01*
X147595237Y-118159436D02*
X147452380Y-118111817D01*
X147452380Y-118111817D02*
X147357142Y-118111817D01*
X147357142Y-118111817D02*
X147214285Y-118159436D01*
X147214285Y-118159436D02*
X147166666Y-118207055D01*
X146833332Y-118111817D02*
X146214285Y-118111817D01*
X146214285Y-118111817D02*
X146547618Y-118492769D01*
X146547618Y-118492769D02*
X146404761Y-118492769D01*
X146404761Y-118492769D02*
X146309523Y-118540388D01*
X146309523Y-118540388D02*
X146261904Y-118588007D01*
X146261904Y-118588007D02*
X146214285Y-118683245D01*
X146214285Y-118683245D02*
X146214285Y-118921340D01*
X146214285Y-118921340D02*
X146261904Y-119016578D01*
X146261904Y-119016578D02*
X146309523Y-119064198D01*
X146309523Y-119064198D02*
X146404761Y-119111817D01*
X146404761Y-119111817D02*
X146690475Y-119111817D01*
X146690475Y-119111817D02*
X146785713Y-119064198D01*
X146785713Y-119064198D02*
X146833332Y-119016578D01*
X163666666Y-117946578D02*
X163714285Y-117994198D01*
X163714285Y-117994198D02*
X163857142Y-118041817D01*
X163857142Y-118041817D02*
X163952380Y-118041817D01*
X163952380Y-118041817D02*
X164095237Y-117994198D01*
X164095237Y-117994198D02*
X164190475Y-117898959D01*
X164190475Y-117898959D02*
X164238094Y-117803721D01*
X164238094Y-117803721D02*
X164285713Y-117613245D01*
X164285713Y-117613245D02*
X164285713Y-117470388D01*
X164285713Y-117470388D02*
X164238094Y-117279912D01*
X164238094Y-117279912D02*
X164190475Y-117184674D01*
X164190475Y-117184674D02*
X164095237Y-117089436D01*
X164095237Y-117089436D02*
X163952380Y-117041817D01*
X163952380Y-117041817D02*
X163857142Y-117041817D01*
X163857142Y-117041817D02*
X163714285Y-117089436D01*
X163714285Y-117089436D02*
X163666666Y-117137055D01*
X162809523Y-117375150D02*
X162809523Y-118041817D01*
X163047618Y-116994198D02*
X163285713Y-117708483D01*
X163285713Y-117708483D02*
X162666666Y-117708483D01*
X151166666Y-127516578D02*
X151214285Y-127564198D01*
X151214285Y-127564198D02*
X151357142Y-127611817D01*
X151357142Y-127611817D02*
X151452380Y-127611817D01*
X151452380Y-127611817D02*
X151595237Y-127564198D01*
X151595237Y-127564198D02*
X151690475Y-127468959D01*
X151690475Y-127468959D02*
X151738094Y-127373721D01*
X151738094Y-127373721D02*
X151785713Y-127183245D01*
X151785713Y-127183245D02*
X151785713Y-127040388D01*
X151785713Y-127040388D02*
X151738094Y-126849912D01*
X151738094Y-126849912D02*
X151690475Y-126754674D01*
X151690475Y-126754674D02*
X151595237Y-126659436D01*
X151595237Y-126659436D02*
X151452380Y-126611817D01*
X151452380Y-126611817D02*
X151357142Y-126611817D01*
X151357142Y-126611817D02*
X151214285Y-126659436D01*
X151214285Y-126659436D02*
X151166666Y-126707055D01*
X150785713Y-126707055D02*
X150738094Y-126659436D01*
X150738094Y-126659436D02*
X150642856Y-126611817D01*
X150642856Y-126611817D02*
X150404761Y-126611817D01*
X150404761Y-126611817D02*
X150309523Y-126659436D01*
X150309523Y-126659436D02*
X150261904Y-126707055D01*
X150261904Y-126707055D02*
X150214285Y-126802293D01*
X150214285Y-126802293D02*
X150214285Y-126897531D01*
X150214285Y-126897531D02*
X150261904Y-127040388D01*
X150261904Y-127040388D02*
X150833332Y-127611817D01*
X150833332Y-127611817D02*
X150214285Y-127611817D01*
D13*
%TO.C,G\u002A\u002A\u002A*%
G36*
X260931004Y-123229900D02*
G01*
X261202414Y-123285237D01*
X261322050Y-123405432D01*
X261300517Y-123597751D01*
X261255865Y-123639701D01*
X261064107Y-123699791D01*
X260763778Y-123734626D01*
X260269204Y-123761639D01*
X260269204Y-123492930D01*
X260269206Y-123482736D01*
X260278097Y-123333862D01*
X260333319Y-123257051D01*
X260478022Y-123228454D01*
X260755353Y-123224222D01*
X260931004Y-123229900D01*
G37*
G36*
X263590231Y-119293103D02*
G01*
X263687463Y-119348226D01*
X263734666Y-119485903D01*
X263751707Y-119752595D01*
X263750399Y-119903058D01*
X263724102Y-120154446D01*
X263675028Y-120301903D01*
X263600852Y-120375845D01*
X263473910Y-120398429D01*
X263380004Y-120274554D01*
X263329241Y-120023040D01*
X263331732Y-119662711D01*
X263338150Y-119587654D01*
X263371478Y-119377682D01*
X263434667Y-119291217D01*
X263552319Y-119286275D01*
X263590231Y-119293103D01*
G37*
G36*
X263581737Y-126659789D02*
G01*
X263701553Y-126749745D01*
X263765724Y-126960675D01*
X263784775Y-127318261D01*
X263784101Y-127412988D01*
X263765620Y-127607736D01*
X263701556Y-127689776D01*
X263565052Y-127706574D01*
X263557350Y-127706563D01*
X263438794Y-127693882D01*
X263375403Y-127629284D01*
X263349981Y-127471495D01*
X263345329Y-127179239D01*
X263347979Y-126968835D01*
X263368010Y-126766354D01*
X263418419Y-126673914D01*
X263511704Y-126651903D01*
X263581737Y-126659789D01*
G37*
G36*
X268415069Y-123264846D02*
G01*
X268556418Y-123292609D01*
X268610176Y-123366218D01*
X268618685Y-123506109D01*
X268614121Y-123623700D01*
X268570518Y-123712244D01*
X268442346Y-123742673D01*
X268184123Y-123739405D01*
X267944573Y-123724589D01*
X267700251Y-123675485D01*
X267587022Y-123582865D01*
X267578534Y-123433413D01*
X267590059Y-123391327D01*
X267660084Y-123313597D01*
X267820795Y-123275246D01*
X268114517Y-123262799D01*
X268143782Y-123262495D01*
X268415069Y-123264846D01*
G37*
G36*
X261094000Y-122350040D02*
G01*
X261249598Y-122376278D01*
X261312278Y-122441972D01*
X261323875Y-122565052D01*
X261323875Y-122565195D01*
X261312384Y-122687818D01*
X261250148Y-122753486D01*
X261095505Y-122779904D01*
X260806790Y-122784775D01*
X260646963Y-122783098D01*
X260416404Y-122763666D01*
X260296973Y-122711745D01*
X260245069Y-122614086D01*
X260236295Y-122578446D01*
X260229289Y-122453546D01*
X260301320Y-122383242D01*
X260484561Y-122352261D01*
X260811188Y-122345329D01*
X261094000Y-122350040D01*
G37*
G36*
X261095701Y-124195887D02*
G01*
X261250241Y-124222332D01*
X261312411Y-124288044D01*
X261323875Y-124410727D01*
X261312883Y-124531932D01*
X261251661Y-124598617D01*
X261098374Y-124625480D01*
X260811188Y-124630450D01*
X260726856Y-124630219D01*
X260433933Y-124619385D01*
X260277444Y-124581201D01*
X260225214Y-124500396D01*
X260245069Y-124361693D01*
X260263910Y-124309079D01*
X260342239Y-124234649D01*
X260508666Y-124199707D01*
X260806790Y-124191004D01*
X260807126Y-124191004D01*
X261095701Y-124195887D01*
G37*
G36*
X264565150Y-119280197D02*
G01*
X264631835Y-119341419D01*
X264658698Y-119494705D01*
X264663668Y-119781892D01*
X264658546Y-120007270D01*
X264639489Y-120237248D01*
X264611181Y-120347066D01*
X264557000Y-120373173D01*
X264391457Y-120386956D01*
X264319828Y-120370836D01*
X264258864Y-120297029D01*
X264230920Y-120127273D01*
X264224221Y-119821781D01*
X264224277Y-119759769D01*
X264230532Y-119484610D01*
X264258530Y-119338035D01*
X264324318Y-119279686D01*
X264443945Y-119269204D01*
X264565150Y-119280197D01*
G37*
G36*
X265361743Y-119269651D02*
G01*
X265463846Y-119288601D01*
X265517797Y-119364721D01*
X265538925Y-119537542D01*
X265542560Y-119846597D01*
X265542458Y-119927385D01*
X265536043Y-120202604D01*
X265509925Y-120347538D01*
X265450661Y-120399525D01*
X265344810Y-120395905D01*
X265248033Y-120369921D01*
X265178716Y-120291707D01*
X265141779Y-120121942D01*
X265120893Y-119818512D01*
X265116946Y-119733933D01*
X265110751Y-119469922D01*
X265132592Y-119331438D01*
X265197034Y-119278019D01*
X265318643Y-119269204D01*
X265361743Y-119269651D01*
G37*
G36*
X264451646Y-126651915D02*
G01*
X264570203Y-126664596D01*
X264633593Y-126729194D01*
X264659015Y-126886983D01*
X264663668Y-127179239D01*
X264663663Y-127197722D01*
X264658379Y-127482258D01*
X264631463Y-127634395D01*
X264565718Y-127695409D01*
X264443945Y-127706574D01*
X264436243Y-127706563D01*
X264317687Y-127693882D01*
X264254296Y-127629284D01*
X264228874Y-127471495D01*
X264224221Y-127179239D01*
X264224226Y-127160755D01*
X264229510Y-126876220D01*
X264256426Y-126724083D01*
X264322171Y-126663069D01*
X264443945Y-126651903D01*
X264451646Y-126651915D01*
G37*
G36*
X265330539Y-126651915D02*
G01*
X265449095Y-126664596D01*
X265512486Y-126729194D01*
X265537908Y-126886983D01*
X265542560Y-127179239D01*
X265542556Y-127197722D01*
X265537272Y-127482258D01*
X265510356Y-127634395D01*
X265444611Y-127695409D01*
X265322837Y-127706574D01*
X265315136Y-127706563D01*
X265196579Y-127693882D01*
X265133189Y-127629284D01*
X265107766Y-127471495D01*
X265103114Y-127179239D01*
X265103119Y-127160755D01*
X265108403Y-126876220D01*
X265135318Y-126724083D01*
X265201064Y-126663069D01*
X265322837Y-126651903D01*
X265330539Y-126651915D01*
G37*
G36*
X268109833Y-122345334D02*
G01*
X268394369Y-122350617D01*
X268546506Y-122377533D01*
X268607519Y-122443279D01*
X268618685Y-122565052D01*
X268618673Y-122572753D01*
X268605992Y-122691310D01*
X268541395Y-122754700D01*
X268383606Y-122780123D01*
X268091349Y-122784775D01*
X268072866Y-122784770D01*
X267788330Y-122779487D01*
X267636193Y-122752571D01*
X267575179Y-122686825D01*
X267564014Y-122565052D01*
X267564025Y-122557351D01*
X267576707Y-122438794D01*
X267641304Y-122375404D01*
X267799093Y-122349981D01*
X268091349Y-122345329D01*
X268109833Y-122345334D01*
G37*
G36*
X268109833Y-124191008D02*
G01*
X268394369Y-124196292D01*
X268546506Y-124223208D01*
X268607519Y-124288953D01*
X268618685Y-124410727D01*
X268618673Y-124418428D01*
X268605992Y-124536985D01*
X268541395Y-124600375D01*
X268383606Y-124625798D01*
X268091349Y-124630450D01*
X268072866Y-124630445D01*
X267788330Y-124625161D01*
X267636193Y-124598246D01*
X267575179Y-124532500D01*
X267564014Y-124410727D01*
X267564025Y-124403025D01*
X267576707Y-124284469D01*
X267641304Y-124221078D01*
X267799093Y-124195656D01*
X268091349Y-124191004D01*
X268109833Y-124191008D01*
G37*
G36*
X262637924Y-119269376D02*
G01*
X262743672Y-119284958D01*
X262796567Y-119354724D01*
X262810714Y-119519100D01*
X262800215Y-119818512D01*
X262784977Y-120063302D01*
X262753650Y-120258570D01*
X262696211Y-120347030D01*
X262598270Y-120367820D01*
X262477598Y-120332514D01*
X262393159Y-120160555D01*
X262366484Y-120048248D01*
X262280711Y-119986739D01*
X262085547Y-120007764D01*
X261841723Y-120086140D01*
X261587543Y-120223110D01*
X261553789Y-120248670D01*
X261318605Y-120478321D01*
X261134338Y-120742878D01*
X261013071Y-121008155D01*
X260966886Y-121239964D01*
X261007867Y-121404120D01*
X261148097Y-121466436D01*
X261282678Y-121513861D01*
X261323875Y-121686159D01*
X261323864Y-121693861D01*
X261311183Y-121812417D01*
X261246585Y-121875808D01*
X261088796Y-121901230D01*
X260796540Y-121905882D01*
X260505790Y-121900992D01*
X260346914Y-121875350D01*
X260281772Y-121812605D01*
X260269204Y-121696410D01*
X260296829Y-121560954D01*
X260424913Y-121446218D01*
X260453962Y-121434569D01*
X260582628Y-121278225D01*
X260693317Y-120965789D01*
X260770638Y-120738427D01*
X261044734Y-120299357D01*
X261436626Y-119959314D01*
X261911246Y-119753213D01*
X262124787Y-119689235D01*
X262297899Y-119590677D01*
X262362687Y-119457693D01*
X262425807Y-119320538D01*
X262608576Y-119269204D01*
X262637924Y-119269376D01*
G37*
G36*
X260815023Y-125157790D02*
G01*
X261099559Y-125163074D01*
X261251696Y-125189990D01*
X261312710Y-125255735D01*
X261323875Y-125377509D01*
X261291491Y-125536856D01*
X261162745Y-125597232D01*
X261111550Y-125598641D01*
X260968321Y-125644301D01*
X260942343Y-125776383D01*
X261023943Y-126024670D01*
X261112287Y-126209226D01*
X261422188Y-126616899D01*
X261826416Y-126882953D01*
X261892449Y-126910237D01*
X262171746Y-126993305D01*
X262329157Y-126966249D01*
X262378547Y-126827682D01*
X262425971Y-126693101D01*
X262598270Y-126651903D01*
X262605971Y-126651915D01*
X262724528Y-126664596D01*
X262787918Y-126729194D01*
X262813341Y-126886983D01*
X262817993Y-127179239D01*
X262817992Y-127185260D01*
X262812937Y-127475153D01*
X262786779Y-127631195D01*
X262722826Y-127694598D01*
X262604383Y-127706574D01*
X262441455Y-127667673D01*
X262362687Y-127510007D01*
X262352374Y-127460707D01*
X262254070Y-127331767D01*
X262026990Y-127262051D01*
X261650322Y-127162221D01*
X261220924Y-126911688D01*
X260903781Y-126527792D01*
X260693482Y-126005436D01*
X260648986Y-125857546D01*
X260548365Y-125658091D01*
X260426754Y-125597232D01*
X260314421Y-125554081D01*
X260269204Y-125377509D01*
X260269216Y-125369807D01*
X260281897Y-125251251D01*
X260346494Y-125187860D01*
X260504284Y-125162438D01*
X260796540Y-125157786D01*
X260815023Y-125157790D01*
G37*
G36*
X266445755Y-119307643D02*
G01*
X266525202Y-119464509D01*
X266555897Y-119562012D01*
X266678282Y-119663327D01*
X266931674Y-119734310D01*
X267326635Y-119888668D01*
X267703371Y-120177275D01*
X268008044Y-120554668D01*
X268196240Y-120977195D01*
X268221687Y-121064850D01*
X268337047Y-121329790D01*
X268464872Y-121446714D01*
X268559159Y-121509233D01*
X268618685Y-121696410D01*
X268606374Y-121811904D01*
X268541820Y-121875014D01*
X268383865Y-121900890D01*
X268091349Y-121905882D01*
X268072866Y-121905878D01*
X267788330Y-121900594D01*
X267636193Y-121873678D01*
X267575179Y-121807933D01*
X267564014Y-121686159D01*
X267564043Y-121678970D01*
X267606004Y-121512700D01*
X267751292Y-121466436D01*
X267751934Y-121466436D01*
X267871072Y-121446346D01*
X267908867Y-121353534D01*
X267885420Y-121138912D01*
X267810914Y-120870689D01*
X267571876Y-120474993D01*
X267220894Y-120174045D01*
X266794983Y-120006292D01*
X266613893Y-119981142D01*
X266526726Y-120024282D01*
X266509342Y-120171758D01*
X266507718Y-120226935D01*
X266455150Y-120357286D01*
X266289681Y-120380495D01*
X266271467Y-120379364D01*
X266159039Y-120357743D01*
X266098778Y-120284684D01*
X266074485Y-120118752D01*
X266069958Y-119818512D01*
X266069983Y-119774299D01*
X266075847Y-119492692D01*
X266102913Y-119341587D01*
X266166895Y-119280563D01*
X266283507Y-119269204D01*
X266445755Y-119307643D01*
G37*
G36*
X267722696Y-125143294D02*
G01*
X267912568Y-125153701D01*
X268179239Y-125157786D01*
X268355599Y-125159867D01*
X268531726Y-125182050D01*
X268604437Y-125247105D01*
X268618685Y-125377509D01*
X268587744Y-125534172D01*
X268461135Y-125597232D01*
X268422955Y-125602040D01*
X268301594Y-125708727D01*
X268200612Y-125970761D01*
X268181882Y-126034333D01*
X268064434Y-126347274D01*
X267931588Y-126610889D01*
X267789216Y-126776140D01*
X267489255Y-126999966D01*
X267122695Y-127189756D01*
X266751038Y-127309134D01*
X266580511Y-127378043D01*
X266509342Y-127532470D01*
X266462232Y-127665078D01*
X266289619Y-127706574D01*
X266281918Y-127706563D01*
X266163361Y-127693882D01*
X266099971Y-127629284D01*
X266074548Y-127471495D01*
X266069896Y-127179239D01*
X266069901Y-127160755D01*
X266075185Y-126876220D01*
X266102100Y-126724083D01*
X266167846Y-126663069D01*
X266289619Y-126651903D01*
X266296131Y-126651928D01*
X266462870Y-126693717D01*
X266509342Y-126838668D01*
X266521355Y-126942552D01*
X266599442Y-126993183D01*
X266794983Y-126969487D01*
X266951603Y-126927988D01*
X267363363Y-126696908D01*
X267717820Y-126301240D01*
X267843116Y-126080280D01*
X267913605Y-125832778D01*
X267877457Y-125661333D01*
X267733954Y-125597232D01*
X267680903Y-125594411D01*
X267585628Y-125533400D01*
X267580148Y-125355536D01*
X267617785Y-125194551D01*
X267673875Y-125135813D01*
X267722696Y-125143294D01*
G37*
G36*
X266069896Y-123533247D02*
G01*
X266068790Y-123754640D01*
X266053191Y-124181119D01*
X266010164Y-124482173D01*
X265928344Y-124693162D01*
X265796367Y-124849444D01*
X265602868Y-124986381D01*
X265567015Y-125006259D01*
X265266404Y-125102006D01*
X264859340Y-125157477D01*
X264401201Y-125172830D01*
X263947366Y-125148222D01*
X263553213Y-125083811D01*
X263274123Y-124979754D01*
X263034852Y-124780125D01*
X262858802Y-124478974D01*
X262762098Y-124065273D01*
X262735064Y-123512685D01*
X262735498Y-123479864D01*
X263193038Y-123479864D01*
X263203925Y-123993566D01*
X263293582Y-124365385D01*
X263460581Y-124586990D01*
X263484303Y-124602074D01*
X263679670Y-124668935D01*
X263997407Y-124706555D01*
X264463500Y-124718339D01*
X264544418Y-124718226D01*
X264985139Y-124705835D01*
X265287132Y-124653734D01*
X265476529Y-124534745D01*
X265579461Y-124321691D01*
X265622058Y-123987398D01*
X265630450Y-123504688D01*
X265630226Y-123339747D01*
X265619014Y-122909965D01*
X265571782Y-122618766D01*
X265462551Y-122437731D01*
X265265342Y-122338442D01*
X264954179Y-122292479D01*
X264503081Y-122271425D01*
X264085755Y-122263971D01*
X263732113Y-122289694D01*
X263498228Y-122372479D01*
X263354356Y-122533150D01*
X263270756Y-122792533D01*
X263217683Y-123171454D01*
X263193038Y-123479864D01*
X262735498Y-123479864D01*
X262736405Y-123411367D01*
X262771801Y-122892971D01*
X262861797Y-122508867D01*
X263017112Y-122227869D01*
X263248464Y-122018787D01*
X263343344Y-121959249D01*
X263507594Y-121885730D01*
X263711025Y-121842890D01*
X263999120Y-121822915D01*
X264417362Y-121817993D01*
X264811484Y-121825409D01*
X265282946Y-121874829D01*
X265621894Y-121989458D01*
X265849196Y-122190955D01*
X265985719Y-122500979D01*
X266052330Y-122941190D01*
X266069049Y-123504688D01*
X266069896Y-123533247D01*
G37*
G36*
X266947013Y-123994416D02*
G01*
X266938495Y-124392063D01*
X266919429Y-124677856D01*
X266886030Y-124885688D01*
X266834516Y-125049449D01*
X266761103Y-125203032D01*
X266600606Y-125459159D01*
X266325754Y-125725255D01*
X265941199Y-125920130D01*
X265733124Y-125964598D01*
X265390785Y-125997950D01*
X264959320Y-126019272D01*
X264482152Y-126028317D01*
X264002705Y-126024841D01*
X263564401Y-126008598D01*
X263210663Y-125979343D01*
X262984914Y-125936830D01*
X262654297Y-125772449D01*
X262301253Y-125465376D01*
X262060110Y-125094691D01*
X262040362Y-125036692D01*
X261992070Y-124764769D01*
X261958211Y-124373858D01*
X261938800Y-123905876D01*
X261934689Y-123487889D01*
X262380171Y-123487889D01*
X262380854Y-123709852D01*
X262390416Y-124221373D01*
X262417158Y-124598459D01*
X262468596Y-124871438D01*
X262552243Y-125070641D01*
X262675612Y-125226398D01*
X262846219Y-125369036D01*
X262922143Y-125420430D01*
X263050944Y-125480060D01*
X263224378Y-125521011D01*
X263475230Y-125547860D01*
X263836288Y-125565182D01*
X264340337Y-125577552D01*
X264429325Y-125579157D01*
X265010856Y-125579513D01*
X265449618Y-125553524D01*
X265773987Y-125493458D01*
X266012344Y-125391583D01*
X266193065Y-125240166D01*
X266344530Y-125031476D01*
X266367096Y-124992589D01*
X266427809Y-124851750D01*
X266468689Y-124668603D01*
X266493391Y-124409800D01*
X266505569Y-124041994D01*
X266508877Y-123531834D01*
X266501920Y-122996483D01*
X266462217Y-122447342D01*
X266370347Y-122037508D01*
X266207337Y-121746996D01*
X265954215Y-121555827D01*
X265592010Y-121444017D01*
X265101751Y-121391584D01*
X264464465Y-121378547D01*
X264028592Y-121383481D01*
X263537559Y-121411432D01*
X263173160Y-121471242D01*
X262907076Y-121570984D01*
X262710988Y-121718734D01*
X262556578Y-121922566D01*
X262506785Y-122011811D01*
X262450803Y-122156009D01*
X262413915Y-122342307D01*
X262392357Y-122604115D01*
X262382364Y-122974840D01*
X262380171Y-123487889D01*
X261934689Y-123487889D01*
X261933852Y-123402739D01*
X261943382Y-122906364D01*
X261967404Y-122458669D01*
X262005933Y-122101570D01*
X262058983Y-121876984D01*
X262072214Y-121846826D01*
X262310982Y-121502436D01*
X262660906Y-121213704D01*
X263062418Y-121030857D01*
X263091239Y-121023559D01*
X263370438Y-120983238D01*
X263768455Y-120956704D01*
X264236278Y-120943959D01*
X264724901Y-120945001D01*
X265185313Y-120959832D01*
X265568506Y-120988451D01*
X265825471Y-121030857D01*
X265850248Y-121038149D01*
X266150073Y-121169434D01*
X266421939Y-121348498D01*
X266490622Y-121408516D01*
X266660257Y-121591195D01*
X266783098Y-121802567D01*
X266866258Y-122071979D01*
X266916851Y-122428774D01*
X266941990Y-122902298D01*
X266948789Y-123521897D01*
X266948752Y-123531834D01*
X266947013Y-123994416D01*
G37*
D14*
%TO.C,C8*%
X98047032Y-120237050D02*
X99111469Y-119172613D01*
X98047032Y-124692613D02*
X98047032Y-120237050D01*
X99122032Y-118932613D02*
X99122032Y-118307613D01*
X99434532Y-118620113D02*
X98809532Y-118620113D01*
X99747032Y-119172613D02*
X99111469Y-119172613D01*
X99747032Y-124692613D02*
X98047032Y-124692613D01*
X101867032Y-119172613D02*
X102502595Y-119172613D01*
X101867032Y-124692613D02*
X103567032Y-124692613D01*
X103567032Y-120237050D02*
X102502595Y-119172613D01*
X103567032Y-124692613D02*
X103567032Y-120237050D01*
%TO.C,C7*%
X89932970Y-122981381D02*
X94388533Y-122981381D01*
X89932970Y-124681381D02*
X89932970Y-122981381D01*
X89932970Y-126801381D02*
X89932970Y-128501381D01*
X89932970Y-128501381D02*
X94388533Y-128501381D01*
X94388533Y-122981381D02*
X95452970Y-124045818D01*
X94388533Y-128501381D02*
X95452970Y-127436944D01*
X95452970Y-124681381D02*
X95452970Y-124045818D01*
X95452970Y-126801381D02*
X95452970Y-127436944D01*
X95692970Y-124056381D02*
X96317970Y-124056381D01*
X96005470Y-124368881D02*
X96005470Y-123743881D01*
%TO.C,C6*%
X165687500Y-123959498D02*
X165687500Y-124584498D01*
X166000000Y-124271998D02*
X165375000Y-124271998D01*
X166240000Y-121526998D02*
X166240000Y-120891435D01*
X166240000Y-123646998D02*
X166240000Y-124282561D01*
X167304437Y-119826998D02*
X166240000Y-120891435D01*
X167304437Y-125346998D02*
X166240000Y-124282561D01*
X171760000Y-119826998D02*
X167304437Y-119826998D01*
X171760000Y-121526998D02*
X171760000Y-119826998D01*
X171760000Y-123646998D02*
X171760000Y-125346998D01*
X171760000Y-125346998D02*
X167304437Y-125346998D01*
%TO.C,L1*%
X81300000Y-124300000D02*
X81300000Y-122300000D01*
X81680000Y-117680000D02*
X81680000Y-119450000D01*
X81680000Y-122150000D02*
X81680000Y-123920000D01*
X83300000Y-124300000D02*
X81300000Y-124300000D01*
X87920000Y-117680000D02*
X81680000Y-117680000D01*
X87920000Y-117680000D02*
X87920000Y-119450000D01*
X87920000Y-122150000D02*
X87920000Y-123920000D01*
X87920000Y-123920000D02*
X81680000Y-123920000D01*
%TO.C,C5*%
X160865581Y-116076998D02*
X160584419Y-116076998D01*
X160865581Y-117096998D02*
X160584419Y-117096998D01*
%TO.C,C1*%
X163140581Y-122076998D02*
X162859419Y-122076998D01*
X163140581Y-123096998D02*
X162859419Y-123096998D01*
%TO.C,R8*%
X141372936Y-121265000D02*
X141827064Y-121265000D01*
X141372936Y-122735000D02*
X141827064Y-122735000D01*
%TO.C,C10*%
X145690000Y-122940581D02*
X145690000Y-122659419D01*
X146710000Y-122940581D02*
X146710000Y-122659419D01*
%TO.C,C3*%
X146859420Y-119576998D02*
X147140580Y-119576998D01*
X146859420Y-120596998D02*
X147140580Y-120596998D01*
%TO.C,C4*%
X163140581Y-118576998D02*
X162859419Y-118576998D01*
X163140581Y-119596998D02*
X162859419Y-119596998D01*
%TO.C,C2*%
X150859419Y-128076998D02*
X151140581Y-128076998D01*
X150859419Y-129096998D02*
X151140581Y-129096998D01*
%TD*%
M02*
