%TF.GenerationSoftware,KiCad,Pcbnew,8.0.0*%
%TF.CreationDate,2024-11-17T13:36:44+03:00*%
%TF.ProjectId,scale_200,7363616c-655f-4323-9030-2e6b69636164,rev?*%
%TF.SameCoordinates,Original*%
%TF.FileFunction,Legend,Top*%
%TF.FilePolarity,Positive*%
%FSLAX46Y46*%
G04 Gerber Fmt 4.6, Leading zero omitted, Abs format (unit mm)*
G04 Created by KiCad (PCBNEW 8.0.0) date 2024-11-17 13:36:44*
%MOMM*%
%LPD*%
G01*
G04 APERTURE LIST*
%ADD10C,0.200000*%
%ADD11C,0.100000*%
%ADD12C,0.150000*%
%ADD13C,0.120000*%
%ADD14C,0.000000*%
G04 APERTURE END LIST*
D10*
X224000000Y-110000000D02*
X224000000Y-113000000D01*
X103000000Y-110000000D02*
X103000000Y-113000000D01*
X268000000Y-110000000D02*
X268000000Y-113000000D01*
X245000000Y-110000000D02*
X245000000Y-114000000D01*
X105000000Y-110000000D02*
X105000000Y-114000000D01*
X147000000Y-110000000D02*
X147000000Y-113000000D01*
X135000000Y-110000000D02*
X135000000Y-114000000D01*
X88000000Y-110000000D02*
X88000000Y-113000000D01*
X74000000Y-110000000D02*
X74000000Y-113000000D01*
X80000000Y-110000000D02*
X80000000Y-115000000D01*
X176000000Y-110000000D02*
X176000000Y-113000000D01*
X172000000Y-110000000D02*
X172000000Y-113000000D01*
X226000000Y-110000000D02*
X226000000Y-113000000D01*
X130000000Y-110000000D02*
X130000000Y-115000000D01*
X152000000Y-110000000D02*
X152000000Y-113000000D01*
X174000000Y-110000000D02*
X174000000Y-113000000D01*
X150000000Y-110000000D02*
X150000000Y-115000000D01*
X246000000Y-110000000D02*
X246000000Y-113000000D01*
X217000000Y-110000000D02*
X217000000Y-113000000D01*
X258000000Y-110000000D02*
X258000000Y-113000000D01*
X89000000Y-110000000D02*
X89000000Y-113000000D01*
X244000000Y-110000000D02*
X244000000Y-113000000D01*
X113000000Y-110000000D02*
X113000000Y-113000000D01*
X157000000Y-110000000D02*
X157000000Y-113000000D01*
X247000000Y-110000000D02*
X247000000Y-113000000D01*
X164000000Y-110000000D02*
X164000000Y-113000000D01*
X145000000Y-110000000D02*
X145000000Y-114000000D01*
X138000000Y-110000000D02*
X138000000Y-113000000D01*
X257000000Y-110000000D02*
X257000000Y-113000000D01*
X215000000Y-110000000D02*
X215000000Y-114000000D01*
X107000000Y-110000000D02*
X107000000Y-113000000D01*
X232000000Y-110000000D02*
X232000000Y-113000000D01*
X146000000Y-110000000D02*
X146000000Y-113000000D01*
X190000000Y-110000000D02*
X190000000Y-115000000D01*
X104000000Y-110000000D02*
X104000000Y-113000000D01*
X216000000Y-110000000D02*
X216000000Y-113000000D01*
X231000000Y-110000000D02*
X231000000Y-113000000D01*
X200000000Y-110000000D02*
X200000000Y-115000000D01*
X73000000Y-110000000D02*
X73000000Y-113000000D01*
X227000000Y-110000000D02*
X227000000Y-113000000D01*
X223000000Y-110000000D02*
X223000000Y-113000000D01*
X120000000Y-110000000D02*
X120000000Y-115000000D01*
X86000000Y-110000000D02*
X86000000Y-113000000D01*
X71000000Y-110000000D02*
X71000000Y-113000000D01*
X128000000Y-110000000D02*
X128000000Y-113000000D01*
X139000000Y-110000000D02*
X139000000Y-113000000D01*
X254000000Y-110000000D02*
X254000000Y-113000000D01*
X90000000Y-110000000D02*
X90000000Y-115000000D01*
X118000000Y-110000000D02*
X118000000Y-113000000D01*
X209000000Y-110000000D02*
X209000000Y-113000000D01*
X235000000Y-110000000D02*
X235000000Y-114000000D01*
X120000000Y-110000000D02*
X120000000Y-115000000D01*
X153000000Y-110000000D02*
X153000000Y-113000000D01*
X219000000Y-110000000D02*
X219000000Y-113000000D01*
X100000000Y-110000000D02*
X100000000Y-115000000D01*
X230000000Y-110000000D02*
X230000000Y-115000000D01*
X84000000Y-110000000D02*
X84000000Y-113000000D01*
X116000000Y-110000000D02*
X116000000Y-113000000D01*
X78000000Y-110000000D02*
X78000000Y-113000000D01*
X241000000Y-110000000D02*
X241000000Y-113000000D01*
X229000000Y-110000000D02*
X229000000Y-113000000D01*
X184000000Y-110000000D02*
X184000000Y-113000000D01*
X121000000Y-110000000D02*
X121000000Y-113000000D01*
X168000000Y-110000000D02*
X168000000Y-113000000D01*
X250000000Y-110000000D02*
X250000000Y-115000000D01*
X143000000Y-110000000D02*
X143000000Y-113000000D01*
X130000000Y-110000000D02*
X130000000Y-115000000D01*
X193000000Y-110000000D02*
X193000000Y-113000000D01*
X161000000Y-110000000D02*
X161000000Y-113000000D01*
X123000000Y-110000000D02*
X123000000Y-113000000D01*
X240000000Y-110000000D02*
X240000000Y-115000000D01*
X225000000Y-110000000D02*
X225000000Y-114000000D01*
X98000000Y-110000000D02*
X98000000Y-113000000D01*
X210000000Y-110000000D02*
X210000000Y-115000000D01*
X92000000Y-110000000D02*
X92000000Y-113000000D01*
X109000000Y-110000000D02*
X109000000Y-113000000D01*
X178000000Y-110000000D02*
X178000000Y-113000000D01*
X201000000Y-110000000D02*
X201000000Y-113000000D01*
X207000000Y-110000000D02*
X207000000Y-113000000D01*
X76000000Y-110000000D02*
X76000000Y-113000000D01*
X110000000Y-110000000D02*
X110000000Y-115000000D01*
X165000000Y-110000000D02*
X165000000Y-114000000D01*
X249000000Y-110000000D02*
X249000000Y-113000000D01*
X187000000Y-110000000D02*
X187000000Y-113000000D01*
X218000000Y-110000000D02*
X218000000Y-113000000D01*
X151000000Y-110000000D02*
X151000000Y-113000000D01*
X266000000Y-110000000D02*
X266000000Y-113000000D01*
X197000000Y-110000000D02*
X197000000Y-113000000D01*
X248000000Y-110000000D02*
X248000000Y-113000000D01*
X100000000Y-110000000D02*
X100000000Y-115000000D01*
X180000000Y-110000000D02*
X180000000Y-115000000D01*
X240000000Y-110000000D02*
X240000000Y-115000000D01*
X230000000Y-110000000D02*
X230000000Y-115000000D01*
X134000000Y-110000000D02*
X134000000Y-113000000D01*
X237000000Y-110000000D02*
X237000000Y-113000000D01*
X90000000Y-110000000D02*
X90000000Y-115000000D01*
X163000000Y-110000000D02*
X163000000Y-113000000D01*
X179000000Y-110000000D02*
X179000000Y-113000000D01*
X133000000Y-110000000D02*
X133000000Y-113000000D01*
X160000000Y-110000000D02*
X160000000Y-115000000D01*
X126000000Y-110000000D02*
X126000000Y-113000000D01*
X180000000Y-110000000D02*
X180000000Y-115000000D01*
X136000000Y-110000000D02*
X136000000Y-113000000D01*
X239000000Y-110000000D02*
X239000000Y-113000000D01*
X269000000Y-110000000D02*
X269000000Y-113000000D01*
X198000000Y-110000000D02*
X198000000Y-113000000D01*
X189000000Y-110000000D02*
X189000000Y-113000000D01*
X181000000Y-110000000D02*
X181000000Y-113000000D01*
X160000000Y-110000000D02*
X160000000Y-115000000D01*
X97000000Y-110000000D02*
X97000000Y-113000000D01*
X148000000Y-110000000D02*
X148000000Y-113000000D01*
X115000000Y-110000000D02*
X115000000Y-114000000D01*
X149000000Y-110000000D02*
X149000000Y-113000000D01*
X110000000Y-110000000D02*
X110000000Y-115000000D01*
X210000000Y-110000000D02*
X210000000Y-115000000D01*
X129000000Y-110000000D02*
X129000000Y-113000000D01*
X259000000Y-110000000D02*
X259000000Y-113000000D01*
X199000000Y-110000000D02*
X199000000Y-113000000D01*
X214000000Y-110000000D02*
X214000000Y-113000000D01*
X234000000Y-110000000D02*
X234000000Y-113000000D01*
X114000000Y-110000000D02*
X114000000Y-113000000D01*
X220000000Y-110000000D02*
X220000000Y-115000000D01*
X131000000Y-110000000D02*
X131000000Y-113000000D01*
X122000000Y-110000000D02*
X122000000Y-113000000D01*
X80000000Y-110000000D02*
X80000000Y-115000000D01*
X106000000Y-110000000D02*
X106000000Y-113000000D01*
X192000000Y-110000000D02*
X192000000Y-113000000D01*
X127000000Y-110000000D02*
X127000000Y-113000000D01*
X94000000Y-110000000D02*
X94000000Y-113000000D01*
X102000000Y-110000000D02*
X102000000Y-113000000D01*
X191000000Y-110000000D02*
X191000000Y-113000000D01*
X212000000Y-110000000D02*
X212000000Y-113000000D01*
X119000000Y-110000000D02*
X119000000Y-113000000D01*
X196000000Y-110000000D02*
X196000000Y-113000000D01*
X91000000Y-110000000D02*
X91000000Y-113000000D01*
X202000000Y-110000000D02*
X202000000Y-113000000D01*
X265000000Y-110000000D02*
X265000000Y-114000000D01*
X171000000Y-110000000D02*
X171000000Y-113000000D01*
X221000000Y-110000000D02*
X221000000Y-113000000D01*
X93000000Y-110000000D02*
X93000000Y-113000000D01*
X177000000Y-110000000D02*
X177000000Y-113000000D01*
X255000000Y-110000000D02*
X255000000Y-114000000D01*
X233000000Y-110000000D02*
X233000000Y-113000000D01*
X262000000Y-110000000D02*
X262000000Y-113000000D01*
X182000000Y-110000000D02*
X182000000Y-113000000D01*
X243000000Y-110000000D02*
X243000000Y-113000000D01*
X137000000Y-110000000D02*
X137000000Y-113000000D01*
X155000000Y-110000000D02*
X155000000Y-114000000D01*
X250000000Y-110000000D02*
X250000000Y-115000000D01*
X167000000Y-110000000D02*
X167000000Y-113000000D01*
X75000000Y-110000000D02*
X75000000Y-114000000D01*
X183000000Y-110000000D02*
X183000000Y-113000000D01*
X156000000Y-110000000D02*
X156000000Y-113000000D01*
X185000000Y-110000000D02*
X185000000Y-114000000D01*
X111000000Y-110000000D02*
X111000000Y-113000000D01*
X190000000Y-110000000D02*
X190000000Y-115000000D01*
X238000000Y-110000000D02*
X238000000Y-113000000D01*
X166000000Y-110000000D02*
X166000000Y-113000000D01*
X158000000Y-110000000D02*
X158000000Y-113000000D01*
X125000000Y-110000000D02*
X125000000Y-114000000D01*
X169000000Y-110000000D02*
X169000000Y-113000000D01*
X173000000Y-110000000D02*
X173000000Y-113000000D01*
X222000000Y-110000000D02*
X222000000Y-113000000D01*
X140000000Y-110000000D02*
X140000000Y-115000000D01*
X87000000Y-110000000D02*
X87000000Y-113000000D01*
X101000000Y-110000000D02*
X101000000Y-113000000D01*
X81000000Y-110000000D02*
X81000000Y-113000000D01*
X261000000Y-110000000D02*
X261000000Y-113000000D01*
X99000000Y-110000000D02*
X99000000Y-113000000D01*
X162000000Y-110000000D02*
X162000000Y-113000000D01*
X267000000Y-110000000D02*
X267000000Y-113000000D01*
X95000000Y-110000000D02*
X95000000Y-114000000D01*
X208000000Y-110000000D02*
X208000000Y-113000000D01*
X205000000Y-110000000D02*
X205000000Y-114000000D01*
X159000000Y-110000000D02*
X159000000Y-113000000D01*
X230000000Y-110000000D02*
X230000000Y-115000000D01*
X270000000Y-110000000D02*
X270000000Y-115000000D01*
X82000000Y-110000000D02*
X82000000Y-113000000D01*
X256000000Y-110000000D02*
X256000000Y-113000000D01*
X175000000Y-110000000D02*
X175000000Y-114000000D01*
X260000000Y-110000000D02*
X260000000Y-115000000D01*
X141000000Y-110000000D02*
X141000000Y-113000000D01*
X251000000Y-110000000D02*
X251000000Y-113000000D01*
X211000000Y-110000000D02*
X211000000Y-113000000D01*
X236000000Y-110000000D02*
X236000000Y-113000000D01*
X112000000Y-110000000D02*
X112000000Y-113000000D01*
X204000000Y-110000000D02*
X204000000Y-113000000D01*
X142000000Y-110000000D02*
X142000000Y-113000000D01*
X170000000Y-110000000D02*
X170000000Y-115000000D01*
X260000000Y-110000000D02*
X260000000Y-115000000D01*
X213000000Y-110000000D02*
X213000000Y-113000000D01*
X140000000Y-110000000D02*
X140000000Y-115000000D01*
X188000000Y-110000000D02*
X188000000Y-113000000D01*
X124000000Y-110000000D02*
X124000000Y-113000000D01*
X264000000Y-110000000D02*
X264000000Y-113000000D01*
X144000000Y-110000000D02*
X144000000Y-113000000D01*
X220000000Y-110000000D02*
X220000000Y-115000000D01*
X170000000Y-110000000D02*
X170000000Y-115000000D01*
X263000000Y-110000000D02*
X263000000Y-113000000D01*
X186000000Y-110000000D02*
X186000000Y-113000000D01*
X206000000Y-110000000D02*
X206000000Y-113000000D01*
X203000000Y-110000000D02*
X203000000Y-113000000D01*
X195000000Y-110000000D02*
X195000000Y-114000000D01*
X150000000Y-110000000D02*
X150000000Y-115000000D01*
X117000000Y-110000000D02*
X117000000Y-113000000D01*
X228000000Y-110000000D02*
X228000000Y-113000000D01*
X79000000Y-110000000D02*
X79000000Y-113000000D01*
X200000000Y-110000000D02*
X200000000Y-115000000D01*
X194000000Y-110000000D02*
X194000000Y-113000000D01*
X77000000Y-110000000D02*
X77000000Y-113000000D01*
X132000000Y-110000000D02*
X132000000Y-113000000D01*
X70000000Y-110000000D02*
X70000000Y-115000000D01*
X154000000Y-110000000D02*
X154000000Y-113000000D01*
X83000000Y-110000000D02*
X83000000Y-113000000D01*
X252000000Y-110000000D02*
X252000000Y-113000000D01*
X96000000Y-110000000D02*
X96000000Y-113000000D01*
X72000000Y-110000000D02*
X72000000Y-113000000D01*
X253000000Y-110000000D02*
X253000000Y-113000000D01*
X85000000Y-110000000D02*
X85000000Y-114000000D01*
X108000000Y-110000000D02*
X108000000Y-113000000D01*
X242000000Y-110000000D02*
X242000000Y-113000000D01*
D11*
G36*
X119116748Y-117128527D02*
G01*
X119376622Y-117106545D01*
X119398861Y-117205974D01*
X119437711Y-117298958D01*
X119497637Y-117379973D01*
X119510467Y-117392309D01*
X119595349Y-117450653D01*
X119692459Y-117482069D01*
X119763991Y-117488053D01*
X119870084Y-117474600D01*
X119965491Y-117434243D01*
X120050213Y-117366981D01*
X120065875Y-117350300D01*
X120125853Y-117265742D01*
X120166202Y-117167043D01*
X120185589Y-117067438D01*
X120189951Y-116985401D01*
X120182501Y-116882910D01*
X120156312Y-116781257D01*
X120111266Y-116694055D01*
X120070760Y-116643949D01*
X119989368Y-116578004D01*
X119893570Y-116536482D01*
X119795033Y-116519996D01*
X119759595Y-116518897D01*
X119659698Y-116529743D01*
X119562418Y-116565435D01*
X119544173Y-116575561D01*
X119462971Y-116635739D01*
X119399802Y-116710944D01*
X119392742Y-116722107D01*
X119160711Y-116691821D01*
X119355617Y-115659162D01*
X120357501Y-115659162D01*
X120357501Y-115893635D01*
X119553454Y-115893635D01*
X119445010Y-116434877D01*
X119536937Y-116382732D01*
X119631001Y-116345484D01*
X119727202Y-116323136D01*
X119825540Y-116315687D01*
X119936995Y-116324476D01*
X120040548Y-116350843D01*
X120136201Y-116394787D01*
X120223954Y-116456310D01*
X120270551Y-116499357D01*
X120341356Y-116584549D01*
X120394771Y-116679838D01*
X120430795Y-116785225D01*
X120447831Y-116883593D01*
X120452267Y-116971235D01*
X120446669Y-117071556D01*
X120425986Y-117181955D01*
X120390062Y-117285201D01*
X120338898Y-117381295D01*
X120293021Y-117445554D01*
X120215335Y-117529057D01*
X120127722Y-117595283D01*
X120030183Y-117644232D01*
X119922718Y-117675906D01*
X119825582Y-117689103D01*
X119763991Y-117691263D01*
X119664414Y-117685853D01*
X119557228Y-117665868D01*
X119459718Y-117631156D01*
X119371885Y-117581718D01*
X119315073Y-117537390D01*
X119246311Y-117465065D01*
X119191761Y-117383156D01*
X119151422Y-117291664D01*
X119125296Y-117190588D01*
X119116748Y-117128527D01*
G37*
G36*
X69541085Y-126901720D02*
G01*
X69590783Y-126904391D01*
X69641625Y-126910717D01*
X69689815Y-126921936D01*
X69735868Y-126940231D01*
X69765945Y-126958100D01*
X69803402Y-126991114D01*
X69834409Y-127033398D01*
X69846545Y-127056041D01*
X69865298Y-127104905D01*
X69874885Y-127152835D01*
X69877320Y-127194283D01*
X69873405Y-127248917D01*
X69861659Y-127299763D01*
X69842082Y-127346824D01*
X69814675Y-127390097D01*
X69795498Y-127413125D01*
X69753402Y-127448051D01*
X69707292Y-127471161D01*
X69651925Y-127487968D01*
X69598715Y-127497159D01*
X69539077Y-127501974D01*
X69500209Y-127502762D01*
X69241800Y-127502762D01*
X69241800Y-127916998D01*
X69108443Y-127916998D01*
X69108443Y-127018184D01*
X69241800Y-127018184D01*
X69241800Y-127385525D01*
X69502163Y-127385525D01*
X69555102Y-127383176D01*
X69606816Y-127374738D01*
X69653792Y-127357910D01*
X69685589Y-127336432D01*
X69716460Y-127297977D01*
X69734516Y-127250112D01*
X69739811Y-127198435D01*
X69734531Y-127149108D01*
X69717033Y-127102840D01*
X69707815Y-127088037D01*
X69673540Y-127051805D01*
X69627042Y-127028182D01*
X69623796Y-127027221D01*
X69571923Y-127020169D01*
X69521240Y-127018325D01*
X69499476Y-127018184D01*
X69241800Y-127018184D01*
X69108443Y-127018184D01*
X69108443Y-126900947D01*
X69488485Y-126900947D01*
X69541085Y-126901720D01*
G37*
G36*
X70217306Y-127916998D02*
G01*
X69950104Y-126900947D01*
X70086880Y-126900947D01*
X70240020Y-127567974D01*
X70251943Y-127620273D01*
X70263040Y-127672388D01*
X70273314Y-127724320D01*
X70282763Y-127776069D01*
X70293977Y-127728459D01*
X70305403Y-127680236D01*
X70317191Y-127631059D01*
X70327948Y-127588002D01*
X70519678Y-126900947D01*
X70680390Y-126900947D01*
X70824738Y-127415811D01*
X70837820Y-127463381D01*
X70852842Y-127521824D01*
X70866385Y-127579134D01*
X70878449Y-127635311D01*
X70889035Y-127690355D01*
X70898141Y-127744267D01*
X70902896Y-127776069D01*
X70913276Y-127726061D01*
X70925122Y-127672510D01*
X70936689Y-127622749D01*
X70949378Y-127570276D01*
X70953210Y-127554785D01*
X71110990Y-126900947D01*
X71245080Y-126900947D01*
X70968841Y-127916998D01*
X70840369Y-127916998D01*
X70628122Y-127142015D01*
X70614867Y-127093266D01*
X70601791Y-127043794D01*
X70596615Y-127022580D01*
X70585017Y-127072234D01*
X70572268Y-127122784D01*
X70567062Y-127142015D01*
X70353349Y-127916998D01*
X70217306Y-127916998D01*
G37*
G36*
X71866783Y-126902268D02*
G01*
X71916404Y-126906230D01*
X71965558Y-126913992D01*
X72015666Y-126928547D01*
X72060510Y-126952346D01*
X72098659Y-126986132D01*
X72127529Y-127025511D01*
X72149683Y-127070424D01*
X72163631Y-127118152D01*
X72169375Y-127168694D01*
X72169539Y-127179140D01*
X72165204Y-127231347D01*
X72152198Y-127279279D01*
X72127202Y-127328095D01*
X72100174Y-127362322D01*
X72060775Y-127396073D01*
X72011941Y-127423077D01*
X71961473Y-127441171D01*
X71912466Y-127452569D01*
X71885973Y-127456844D01*
X71929904Y-127480672D01*
X71966329Y-127507158D01*
X72002193Y-127543494D01*
X72036816Y-127585029D01*
X72066916Y-127626857D01*
X72076727Y-127641736D01*
X72252093Y-127916998D01*
X72084298Y-127916998D01*
X71951186Y-127706460D01*
X71923281Y-127663580D01*
X71894954Y-127621727D01*
X71864739Y-127579755D01*
X71854954Y-127566998D01*
X71821234Y-127528046D01*
X71787299Y-127499342D01*
X71741915Y-127476994D01*
X71726482Y-127472476D01*
X71676199Y-127467896D01*
X71652233Y-127467591D01*
X71497627Y-127467591D01*
X71497627Y-127916998D01*
X71364515Y-127916998D01*
X71364515Y-127014276D01*
X71497627Y-127014276D01*
X71497627Y-127354262D01*
X71784124Y-127354262D01*
X71837328Y-127352378D01*
X71886871Y-127345952D01*
X71927006Y-127334967D01*
X71972374Y-127309932D01*
X72005408Y-127273418D01*
X72026371Y-127226195D01*
X72032274Y-127181094D01*
X72024959Y-127130146D01*
X72003011Y-127086480D01*
X71980251Y-127061415D01*
X71937524Y-127034577D01*
X71886309Y-127019846D01*
X71836854Y-127014690D01*
X71816364Y-127014276D01*
X71497627Y-127014276D01*
X71364515Y-127014276D01*
X71364515Y-126900947D01*
X71810990Y-126900947D01*
X71866783Y-126902268D01*
G37*
G36*
X72242812Y-128193969D02*
G01*
X72242812Y-128104576D01*
X73062247Y-128104576D01*
X73062247Y-128193969D01*
X72242812Y-128193969D01*
G37*
G36*
X73566852Y-127916998D02*
G01*
X73443265Y-127916998D01*
X73443265Y-127125162D01*
X73405828Y-127157585D01*
X73364630Y-127187307D01*
X73326029Y-127211624D01*
X73282146Y-127236392D01*
X73237236Y-127258788D01*
X73195847Y-127276104D01*
X73195847Y-127151052D01*
X73240011Y-127128924D01*
X73287421Y-127101260D01*
X73331564Y-127071062D01*
X73372440Y-127038329D01*
X73377320Y-127034060D01*
X73413315Y-127000003D01*
X73447022Y-126962310D01*
X73476045Y-126921199D01*
X73487229Y-126900947D01*
X73566852Y-126900947D01*
X73566852Y-127916998D01*
G37*
G36*
X74529658Y-127799761D02*
G01*
X74529658Y-127916998D01*
X73863852Y-127916998D01*
X73867810Y-127867796D01*
X73878262Y-127831024D01*
X73899472Y-127784435D01*
X73924965Y-127742532D01*
X73956373Y-127701058D01*
X73959839Y-127696935D01*
X73995242Y-127658080D01*
X74033328Y-127620818D01*
X74071763Y-127586110D01*
X74114967Y-127549438D01*
X74121528Y-127544039D01*
X74160897Y-127510970D01*
X74205428Y-127472115D01*
X74244760Y-127436014D01*
X74285094Y-127396329D01*
X74322688Y-127355044D01*
X74343300Y-127328861D01*
X74371282Y-127284886D01*
X74391632Y-127237612D01*
X74400960Y-127187539D01*
X74401186Y-127178651D01*
X74393767Y-127126261D01*
X74371510Y-127080466D01*
X74348429Y-127053599D01*
X74308575Y-127024536D01*
X74261217Y-127007537D01*
X74211653Y-127002552D01*
X74159265Y-127008014D01*
X74109682Y-127026640D01*
X74068527Y-127058484D01*
X74037987Y-127102045D01*
X74021043Y-127150512D01*
X74014603Y-127201352D01*
X74014305Y-127213578D01*
X73887299Y-127200145D01*
X73894695Y-127147820D01*
X73907174Y-127100391D01*
X73928158Y-127051242D01*
X73956061Y-127008755D01*
X73985484Y-126977640D01*
X74025571Y-126947756D01*
X74071243Y-126925213D01*
X74122503Y-126910010D01*
X74170886Y-126902820D01*
X74214340Y-126900947D01*
X74266533Y-126903789D01*
X74322063Y-126914290D01*
X74371819Y-126932527D01*
X74415802Y-126958502D01*
X74443684Y-126981792D01*
X74476612Y-127019008D01*
X74504342Y-127066063D01*
X74521507Y-127117941D01*
X74527862Y-127167292D01*
X74528192Y-127182071D01*
X74524121Y-127231162D01*
X74511907Y-127279608D01*
X74503524Y-127301750D01*
X74480420Y-127346606D01*
X74451155Y-127389294D01*
X74421458Y-127425337D01*
X74383164Y-127465707D01*
X74345071Y-127502395D01*
X74306634Y-127537526D01*
X74262857Y-127576057D01*
X74230704Y-127603634D01*
X74191821Y-127636942D01*
X74153511Y-127670396D01*
X74115419Y-127704856D01*
X74087822Y-127731861D01*
X74055854Y-127769935D01*
X74035799Y-127799761D01*
X74529658Y-127799761D01*
G37*
G36*
X74996406Y-127916998D02*
G01*
X74606106Y-126900947D01*
X74750453Y-126900947D01*
X75012281Y-127639782D01*
X75029193Y-127688902D01*
X75044481Y-127736244D01*
X75059565Y-127786763D01*
X75065038Y-127806355D01*
X75080408Y-127754301D01*
X75095465Y-127707452D01*
X75111681Y-127660604D01*
X75119260Y-127639782D01*
X75391346Y-126900947D01*
X75527390Y-126900947D01*
X75133182Y-127916998D01*
X74996406Y-127916998D01*
G37*
G36*
X129928412Y-115634421D02*
G01*
X130032497Y-115657845D01*
X130125775Y-115698305D01*
X130208245Y-115755802D01*
X130217794Y-115764187D01*
X130286152Y-115838589D01*
X130339305Y-115925997D01*
X130377254Y-116026412D01*
X130397988Y-116124943D01*
X130400000Y-116139832D01*
X130154291Y-116159371D01*
X130125532Y-116058072D01*
X130082255Y-115969060D01*
X130060502Y-115940530D01*
X129978803Y-115873852D01*
X129883914Y-115837948D01*
X129813328Y-115831109D01*
X129715408Y-115843544D01*
X129622736Y-115884467D01*
X129605722Y-115896078D01*
X129531287Y-115962961D01*
X129468513Y-116048084D01*
X129421563Y-116141297D01*
X129388981Y-116242556D01*
X129368518Y-116350793D01*
X129357174Y-116459576D01*
X129352326Y-116563275D01*
X129351709Y-116599986D01*
X129417842Y-116519511D01*
X129493326Y-116454737D01*
X129570062Y-116409476D01*
X129668797Y-116371374D01*
X129770830Y-116350858D01*
X129840683Y-116346950D01*
X129945483Y-116355692D01*
X130043176Y-116381919D01*
X130133763Y-116425630D01*
X130217245Y-116486825D01*
X130261758Y-116529644D01*
X130329518Y-116614477D01*
X130380636Y-116709549D01*
X130415110Y-116814860D01*
X130431413Y-116913274D01*
X130435659Y-117001032D01*
X130429167Y-117105833D01*
X130409693Y-117206460D01*
X130377235Y-117302914D01*
X130353593Y-117354696D01*
X130302838Y-117440442D01*
X130235022Y-117521577D01*
X130155185Y-117587828D01*
X130128890Y-117604801D01*
X130035973Y-117650396D01*
X129935518Y-117679104D01*
X129827527Y-117690925D01*
X129805024Y-117691263D01*
X129693088Y-117683243D01*
X129589190Y-117659183D01*
X129493328Y-117619083D01*
X129405504Y-117562943D01*
X129325716Y-117490764D01*
X129300907Y-117463140D01*
X129234669Y-117367204D01*
X129189940Y-117271384D01*
X129154727Y-117161133D01*
X129133410Y-117062543D01*
X129123827Y-116994682D01*
X129390300Y-116994682D01*
X129399248Y-117098799D01*
X129426095Y-117199207D01*
X129444521Y-117244298D01*
X129495671Y-117331789D01*
X129566624Y-117405092D01*
X129595952Y-117426015D01*
X129689690Y-117470544D01*
X129787721Y-117487810D01*
X129801116Y-117488053D01*
X129903446Y-117472814D01*
X129995501Y-117427099D01*
X130070272Y-117359092D01*
X130129777Y-117269428D01*
X130164489Y-117173232D01*
X130180357Y-117075398D01*
X130183112Y-117008360D01*
X130176151Y-116907518D01*
X130151679Y-116807573D01*
X130103823Y-116713292D01*
X130071737Y-116672770D01*
X129996499Y-116608112D01*
X129900734Y-116564648D01*
X129801854Y-116550280D01*
X129791346Y-116550160D01*
X129691588Y-116562134D01*
X129593315Y-116602964D01*
X129514394Y-116665227D01*
X129507048Y-116672770D01*
X129445481Y-116756891D01*
X129406717Y-116855990D01*
X129391326Y-116957987D01*
X129390300Y-116994682D01*
X129123827Y-116994682D01*
X129118183Y-116954718D01*
X129109046Y-116837657D01*
X129106001Y-116711360D01*
X129107894Y-116604350D01*
X129113574Y-116502956D01*
X129127038Y-116376500D01*
X129147234Y-116260026D01*
X129174162Y-116153536D01*
X129207822Y-116057030D01*
X129259363Y-115950436D01*
X129321423Y-115859441D01*
X129396551Y-115780753D01*
X129480883Y-115718345D01*
X129574421Y-115672218D01*
X129677163Y-115642370D01*
X129789110Y-115628803D01*
X129828471Y-115627899D01*
X129928412Y-115634421D01*
G37*
G36*
X210048290Y-117660000D02*
G01*
X209801116Y-117660000D01*
X209801116Y-116076329D01*
X209726240Y-116141175D01*
X209643846Y-116200618D01*
X209566643Y-116249253D01*
X209478878Y-116298788D01*
X209389058Y-116343580D01*
X209306280Y-116378213D01*
X209306280Y-116128108D01*
X209394607Y-116083853D01*
X209489426Y-116028525D01*
X209577713Y-115968128D01*
X209659465Y-115902663D01*
X209669225Y-115894124D01*
X209741215Y-115826010D01*
X209808629Y-115750624D01*
X209866675Y-115668402D01*
X209889043Y-115627899D01*
X210048290Y-115627899D01*
X210048290Y-117660000D01*
G37*
G36*
X211714026Y-116940949D02*
G01*
X211986113Y-116940949D01*
X211986113Y-117167606D01*
X211714026Y-117167606D01*
X211714026Y-117660000D01*
X211466852Y-117660000D01*
X211466852Y-117167606D01*
X210592951Y-117167606D01*
X210592951Y-116940949D01*
X210836217Y-116940949D01*
X211466852Y-116940949D01*
X211466852Y-116027480D01*
X210836217Y-116940949D01*
X210592951Y-116940949D01*
X211512281Y-115627899D01*
X211714026Y-115627899D01*
X211714026Y-116940949D01*
G37*
G36*
X74178341Y-117020643D02*
G01*
X74421607Y-117068270D01*
X74398145Y-117224012D01*
X74362809Y-117364255D01*
X74307885Y-117505557D01*
X74237451Y-117626618D01*
X74217420Y-117653720D01*
X74130652Y-117746044D01*
X74034482Y-117811990D01*
X73928908Y-117851557D01*
X73828817Y-117864540D01*
X73813930Y-117864746D01*
X73705761Y-117854391D01*
X73605835Y-117823324D01*
X73514153Y-117771546D01*
X73417608Y-117684963D01*
X73343786Y-117588311D01*
X73332283Y-117570189D01*
X73270528Y-117450465D01*
X73221550Y-117312761D01*
X73185348Y-117157076D01*
X73164941Y-117013604D01*
X73153406Y-116857645D01*
X73150567Y-116723888D01*
X73154307Y-116572369D01*
X73167740Y-116409680D01*
X73190943Y-116258166D01*
X73223916Y-116117825D01*
X73228724Y-116101069D01*
X73279377Y-115961237D01*
X73342858Y-115842619D01*
X73419168Y-115745214D01*
X73467106Y-115700266D01*
X73559434Y-115635802D01*
X73656167Y-115592435D01*
X73757305Y-115570165D01*
X73815396Y-115566909D01*
X73915313Y-115575570D01*
X74019315Y-115606676D01*
X74112448Y-115660406D01*
X74204230Y-115747893D01*
X74280793Y-115861695D01*
X74340123Y-115999491D01*
X74378393Y-116142121D01*
X74398159Y-116261536D01*
X74157824Y-116317223D01*
X74127746Y-116177661D01*
X74076125Y-116046434D01*
X74035703Y-115983832D01*
X73946137Y-115903364D01*
X73848016Y-115872710D01*
X73825166Y-115871724D01*
X73725492Y-115887721D01*
X73627794Y-115943020D01*
X73543836Y-116037816D01*
X73521327Y-116073958D01*
X73464892Y-116206319D01*
X73430232Y-116355212D01*
X73411876Y-116509610D01*
X73405035Y-116659868D01*
X73404579Y-116713630D01*
X73408546Y-116871616D01*
X73423202Y-117034379D01*
X73453176Y-117191973D01*
X73503755Y-117333028D01*
X73517420Y-117359163D01*
X73594623Y-117465037D01*
X73685184Y-117531698D01*
X73789102Y-117559147D01*
X73811488Y-117559931D01*
X73913864Y-117541384D01*
X74009422Y-117479431D01*
X74054265Y-117428040D01*
X74117509Y-117308582D01*
X74157861Y-117163959D01*
X74178341Y-117020643D01*
G37*
G36*
X74625305Y-117817852D02*
G01*
X74625305Y-115613804D01*
X74846589Y-115613804D01*
X74846589Y-115918619D01*
X74909652Y-115800183D01*
X74987710Y-115702063D01*
X75028794Y-115663630D01*
X75118920Y-115604691D01*
X75217838Y-115572954D01*
X75288669Y-115566909D01*
X75393239Y-115578685D01*
X75491516Y-115618389D01*
X75554405Y-115666561D01*
X75633666Y-115769042D01*
X75689364Y-115902098D01*
X75700951Y-115945730D01*
X75769472Y-115816990D01*
X75845344Y-115714886D01*
X75943151Y-115629430D01*
X76050962Y-115580227D01*
X76151334Y-115566909D01*
X76253733Y-115578267D01*
X76353897Y-115618195D01*
X76446518Y-115696276D01*
X76485459Y-115748626D01*
X76547025Y-115880918D01*
X76582939Y-116032773D01*
X76599356Y-116193836D01*
X76602207Y-116306965D01*
X76602207Y-117817852D01*
X76356010Y-117817852D01*
X76356010Y-116426400D01*
X76352644Y-116275515D01*
X76337684Y-116129794D01*
X76332074Y-116103267D01*
X76277226Y-115981134D01*
X76244635Y-115944265D01*
X76152462Y-115890634D01*
X76096624Y-115883448D01*
X75997013Y-115901804D01*
X75902433Y-115963696D01*
X75841146Y-116038787D01*
X75783299Y-116167156D01*
X75751547Y-116322174D01*
X75740434Y-116472464D01*
X75739541Y-116534844D01*
X75739541Y-117817852D01*
X75491879Y-117817852D01*
X75491879Y-116382436D01*
X75484721Y-116225880D01*
X75457807Y-116078812D01*
X75431306Y-116008745D01*
X75351928Y-115914772D01*
X75250815Y-115883938D01*
X75233958Y-115883448D01*
X75133330Y-115904331D01*
X75040518Y-115966979D01*
X74964192Y-116069195D01*
X74914597Y-116200292D01*
X74912046Y-116210245D01*
X74886428Y-116363490D01*
X74875609Y-116513298D01*
X74872479Y-116671864D01*
X74872479Y-117817852D01*
X74625305Y-117817852D01*
G37*
G36*
X240048290Y-117660000D02*
G01*
X239801116Y-117660000D01*
X239801116Y-116076329D01*
X239726240Y-116141175D01*
X239643846Y-116200618D01*
X239566643Y-116249253D01*
X239478878Y-116298788D01*
X239389058Y-116343580D01*
X239306280Y-116378213D01*
X239306280Y-116128108D01*
X239394607Y-116083853D01*
X239489426Y-116028525D01*
X239577713Y-115968128D01*
X239659465Y-115902663D01*
X239669225Y-115894124D01*
X239741215Y-115826010D01*
X239808629Y-115750624D01*
X239866675Y-115668402D01*
X239889043Y-115627899D01*
X240048290Y-115627899D01*
X240048290Y-117660000D01*
G37*
G36*
X240690648Y-115893635D02*
G01*
X240690648Y-115659162D01*
X241994417Y-115659162D01*
X241994417Y-115851625D01*
X241922363Y-115933703D01*
X241850550Y-116025328D01*
X241790890Y-116108976D01*
X241731396Y-116199256D01*
X241672069Y-116296166D01*
X241612909Y-116399706D01*
X241556073Y-116506899D01*
X241503410Y-116615069D01*
X241454922Y-116724218D01*
X241410608Y-116834344D01*
X241370467Y-116945448D01*
X241334501Y-117057531D01*
X241321284Y-117102637D01*
X241295329Y-117199775D01*
X241273152Y-117300314D01*
X241254754Y-117404252D01*
X241240134Y-117511591D01*
X241229292Y-117622331D01*
X241226517Y-117660000D01*
X240972016Y-117660000D01*
X240977984Y-117550298D01*
X240989535Y-117448678D01*
X241007029Y-117340051D01*
X241026147Y-117244176D01*
X241049390Y-117143435D01*
X241065317Y-117080655D01*
X241095149Y-116975018D01*
X241128772Y-116870597D01*
X241166189Y-116767393D01*
X241207398Y-116665404D01*
X241252399Y-116564633D01*
X241301193Y-116465078D01*
X241321772Y-116425596D01*
X241374492Y-116329404D01*
X241428237Y-116238054D01*
X241483008Y-116151546D01*
X241538805Y-116069879D01*
X241607114Y-115978271D01*
X241676901Y-115893635D01*
X240690648Y-115893635D01*
G37*
G36*
X260048290Y-117660000D02*
G01*
X259801116Y-117660000D01*
X259801116Y-116076329D01*
X259726240Y-116141175D01*
X259643846Y-116200618D01*
X259566643Y-116249253D01*
X259478878Y-116298788D01*
X259389058Y-116343580D01*
X259306280Y-116378213D01*
X259306280Y-116128108D01*
X259394607Y-116083853D01*
X259489426Y-116028525D01*
X259577713Y-115968128D01*
X259659465Y-115902663D01*
X259669225Y-115894124D01*
X259741215Y-115826010D01*
X259808629Y-115750624D01*
X259866675Y-115668402D01*
X259889043Y-115627899D01*
X260048290Y-115627899D01*
X260048290Y-117660000D01*
G37*
G36*
X261415399Y-115636323D02*
G01*
X261517859Y-115661593D01*
X261614987Y-115703711D01*
X261666643Y-115734389D01*
X261751960Y-115801163D01*
X261824912Y-115882234D01*
X261879378Y-115966299D01*
X261913817Y-116036762D01*
X261946745Y-116131089D01*
X261971586Y-116242246D01*
X261986441Y-116350919D01*
X261994281Y-116450925D01*
X261997995Y-116559518D01*
X261998325Y-116605359D01*
X261996273Y-116722419D01*
X261990120Y-116831799D01*
X261979863Y-116933498D01*
X261962140Y-117045400D01*
X261938510Y-117146241D01*
X261914305Y-117221828D01*
X261873833Y-117317037D01*
X261817963Y-117413024D01*
X261751834Y-117495334D01*
X261675447Y-117563966D01*
X261665177Y-117571584D01*
X261578838Y-117623943D01*
X261485415Y-117661343D01*
X261384909Y-117683783D01*
X261277320Y-117691263D01*
X261178020Y-117684881D01*
X261074667Y-117661961D01*
X260982122Y-117622370D01*
X260900385Y-117566111D01*
X260890928Y-117557906D01*
X260823639Y-117484236D01*
X260771249Y-117397072D01*
X260733757Y-117296413D01*
X260713174Y-117197268D01*
X260711165Y-117182260D01*
X260949057Y-117159790D01*
X260973071Y-117258355D01*
X261016119Y-117352328D01*
X261063852Y-117410383D01*
X261147814Y-117463478D01*
X261250102Y-117486839D01*
X261282693Y-117488053D01*
X261383279Y-117476783D01*
X261477083Y-117439917D01*
X261482484Y-117436762D01*
X261560642Y-117376922D01*
X261623168Y-117299986D01*
X261670945Y-117206183D01*
X261703449Y-117112131D01*
X261715491Y-117067955D01*
X261736628Y-116966963D01*
X261748991Y-116864817D01*
X261752616Y-116770956D01*
X261751151Y-116722107D01*
X261687839Y-116799730D01*
X261609276Y-116865539D01*
X261548429Y-116902847D01*
X261457623Y-116942339D01*
X261361853Y-116965438D01*
X261270481Y-116972212D01*
X261164730Y-116963516D01*
X261066319Y-116937430D01*
X260975247Y-116893953D01*
X260891515Y-116833085D01*
X260846964Y-116790495D01*
X260779584Y-116705240D01*
X260728754Y-116608906D01*
X260694473Y-116501492D01*
X260678262Y-116400605D01*
X260674771Y-116325945D01*
X260928053Y-116325945D01*
X260937249Y-116430844D01*
X260969039Y-116533712D01*
X261023535Y-116622174D01*
X261044312Y-116645903D01*
X261122222Y-116710818D01*
X261220044Y-116754456D01*
X261319993Y-116768881D01*
X261330565Y-116769002D01*
X261432021Y-116756980D01*
X261529738Y-116715988D01*
X261605950Y-116653477D01*
X261612909Y-116645903D01*
X261671385Y-116559712D01*
X261705495Y-116466315D01*
X261722063Y-116357926D01*
X261723796Y-116304940D01*
X261716713Y-116201625D01*
X261691811Y-116098826D01*
X261648981Y-116010246D01*
X261610467Y-115959092D01*
X261535152Y-115891601D01*
X261441948Y-115846232D01*
X261337892Y-115831109D01*
X261238850Y-115844561D01*
X261148108Y-115884919D01*
X261065666Y-115952181D01*
X261050174Y-115968862D01*
X260991141Y-116052801D01*
X260951427Y-116149646D01*
X260932346Y-116246564D01*
X260928053Y-116325945D01*
X260674771Y-116325945D01*
X260674040Y-116310314D01*
X260680394Y-116199299D01*
X260699456Y-116096700D01*
X260731227Y-116002516D01*
X260784355Y-115903270D01*
X260854780Y-115815478D01*
X260938224Y-115742388D01*
X261030411Y-115687250D01*
X261131340Y-115650064D01*
X261241012Y-115630830D01*
X261307606Y-115627899D01*
X261415399Y-115636323D01*
G37*
G36*
X99118213Y-117130481D02*
G01*
X99365387Y-117097264D01*
X99390361Y-117193831D01*
X99427361Y-117285172D01*
X99485386Y-117371938D01*
X99509979Y-117396706D01*
X99593166Y-117452370D01*
X99688856Y-117482343D01*
X99759595Y-117488053D01*
X99863551Y-117476222D01*
X99956821Y-117440730D01*
X100039405Y-117381578D01*
X100054640Y-117366908D01*
X100118010Y-117285564D01*
X100157909Y-117192961D01*
X100174338Y-117089101D01*
X100174808Y-117066978D01*
X100163931Y-116966294D01*
X100126842Y-116869097D01*
X100063433Y-116786099D01*
X99979763Y-116722967D01*
X99881894Y-116686041D01*
X99780600Y-116675212D01*
X99679315Y-116685898D01*
X99605722Y-116702568D01*
X99633565Y-116469560D01*
X99673133Y-116472002D01*
X99778133Y-116462421D01*
X99875515Y-116433675D01*
X99957431Y-116390914D01*
X100029463Y-116324775D01*
X100073942Y-116228925D01*
X100083949Y-116140809D01*
X100068712Y-116039638D01*
X100018223Y-115947635D01*
X99991625Y-115919036D01*
X99908141Y-115862107D01*
X99806921Y-115834200D01*
X99754221Y-115831109D01*
X99652876Y-115843749D01*
X99558279Y-115885968D01*
X99513886Y-115920990D01*
X99451398Y-116001041D01*
X99411135Y-116096628D01*
X99390300Y-116190635D01*
X99143126Y-116146671D01*
X99168327Y-116043862D01*
X99204608Y-115951712D01*
X99259639Y-115859449D01*
X99329142Y-115781108D01*
X99348778Y-115763698D01*
X99434050Y-115704286D01*
X99529152Y-115661849D01*
X99634084Y-115636386D01*
X99733965Y-115628032D01*
X99748848Y-115627899D01*
X99849207Y-115634768D01*
X99953762Y-115658193D01*
X100052198Y-115698241D01*
X100139840Y-115752720D01*
X100212013Y-115819435D01*
X100264200Y-115890704D01*
X100309149Y-115984059D01*
X100333352Y-116081672D01*
X100337962Y-116149113D01*
X100326433Y-116250898D01*
X100291848Y-116345105D01*
X100268108Y-116386029D01*
X100200146Y-116465377D01*
X100117520Y-116525884D01*
X100060502Y-116555533D01*
X100154732Y-116585960D01*
X100244568Y-116636354D01*
X100318756Y-116704208D01*
X100337962Y-116727969D01*
X100390255Y-116816230D01*
X100423180Y-116917371D01*
X100436253Y-117019411D01*
X100437124Y-117055743D01*
X100427915Y-117168145D01*
X100400286Y-117272835D01*
X100354237Y-117369810D01*
X100289770Y-117459072D01*
X100244661Y-117506615D01*
X100168932Y-117569366D01*
X100071596Y-117626167D01*
X99964583Y-117665297D01*
X99865155Y-117684771D01*
X99758618Y-117691263D01*
X99646873Y-117683806D01*
X99543730Y-117661436D01*
X99449189Y-117624154D01*
X99363250Y-117571958D01*
X99318004Y-117535436D01*
X99248671Y-117462630D01*
X99193690Y-117380988D01*
X99153061Y-117290511D01*
X99126784Y-117191198D01*
X99118213Y-117130481D01*
G37*
G36*
X149883745Y-115635309D02*
G01*
X149984354Y-115657538D01*
X150075098Y-115694587D01*
X150166727Y-115755076D01*
X150197766Y-115782749D01*
X150268292Y-115864173D01*
X150318667Y-115954085D01*
X150348892Y-116052485D01*
X150358967Y-116159371D01*
X150348594Y-116260465D01*
X150313946Y-116358355D01*
X150285205Y-116406057D01*
X150213014Y-116483091D01*
X150123907Y-116540176D01*
X150061967Y-116567257D01*
X150159349Y-116606927D01*
X150242665Y-116658344D01*
X150318743Y-116729251D01*
X150344312Y-116761674D01*
X150395317Y-116850737D01*
X150427431Y-116950008D01*
X150440182Y-117048081D01*
X150441032Y-117082609D01*
X150432290Y-117191499D01*
X150406064Y-117292488D01*
X150362353Y-117385577D01*
X150301157Y-117470765D01*
X150258339Y-117515896D01*
X150172894Y-117584227D01*
X150076416Y-117635776D01*
X149968905Y-117670541D01*
X149867972Y-117686981D01*
X149777669Y-117691263D01*
X149669963Y-117685080D01*
X149570329Y-117666533D01*
X149464291Y-117629267D01*
X149369239Y-117575171D01*
X149296510Y-117515408D01*
X149225324Y-117434097D01*
X149171622Y-117344464D01*
X149135404Y-117246511D01*
X149116671Y-117140235D01*
X149113904Y-117077725D01*
X149368318Y-117077725D01*
X149380774Y-117181161D01*
X149415078Y-117275250D01*
X149418143Y-117281423D01*
X149475939Y-117364163D01*
X149554986Y-117427368D01*
X149567131Y-117434319D01*
X149663424Y-117472888D01*
X149766371Y-117487843D01*
X149780600Y-117488053D01*
X149885109Y-117476985D01*
X149977597Y-117443784D01*
X150065449Y-117381696D01*
X150072714Y-117374724D01*
X150133765Y-117297577D01*
X150174805Y-117198832D01*
X150188372Y-117096441D01*
X150188485Y-117085540D01*
X150176845Y-116980420D01*
X150141926Y-116887322D01*
X150083728Y-116806245D01*
X150069295Y-116791472D01*
X149989286Y-116730163D01*
X149897638Y-116691561D01*
X149794350Y-116675666D01*
X149772295Y-116675212D01*
X149668864Y-116686470D01*
X149577168Y-116720245D01*
X149497207Y-116776535D01*
X149482623Y-116790495D01*
X149422345Y-116867870D01*
X149381825Y-116965986D01*
X149368429Y-117067004D01*
X149368318Y-117077725D01*
X149113904Y-117077725D01*
X149113817Y-117075771D01*
X149121699Y-116970610D01*
X149145347Y-116875495D01*
X149190112Y-116781595D01*
X149213468Y-116747508D01*
X149284002Y-116673024D01*
X149371043Y-116615045D01*
X149463491Y-116576976D01*
X149497278Y-116567257D01*
X149400899Y-116522528D01*
X149317219Y-116460567D01*
X149269155Y-116405080D01*
X149221081Y-116312498D01*
X149198458Y-116214873D01*
X149194905Y-116152533D01*
X149195763Y-116143251D01*
X149447941Y-116143251D01*
X149460855Y-116244574D01*
X149503993Y-116337441D01*
X149539776Y-116380167D01*
X149623819Y-116439627D01*
X149717425Y-116467608D01*
X149779134Y-116472002D01*
X149878900Y-116459157D01*
X149970700Y-116416249D01*
X150013119Y-116380655D01*
X150072262Y-116299664D01*
X150101254Y-116205129D01*
X150104466Y-116156929D01*
X150091208Y-116059797D01*
X150046923Y-115968523D01*
X150010188Y-115925387D01*
X149926325Y-115864346D01*
X149827145Y-115834424D01*
X149776203Y-115831109D01*
X149676758Y-115844023D01*
X149584375Y-115887161D01*
X149541242Y-115922944D01*
X149480833Y-116003607D01*
X149450219Y-116103998D01*
X149447941Y-116143251D01*
X149195763Y-116143251D01*
X149204767Y-116045860D01*
X149234351Y-115948101D01*
X149283657Y-115859258D01*
X149352686Y-115779330D01*
X149438324Y-115713079D01*
X149536967Y-115665757D01*
X149633949Y-115639877D01*
X149740889Y-115628491D01*
X149773272Y-115627899D01*
X149883745Y-115635309D01*
G37*
G36*
X110156734Y-116940949D02*
G01*
X110428820Y-116940949D01*
X110428820Y-117167606D01*
X110156734Y-117167606D01*
X110156734Y-117660000D01*
X109909560Y-117660000D01*
X109909560Y-117167606D01*
X109035659Y-117167606D01*
X109035659Y-116940949D01*
X109278925Y-116940949D01*
X109909560Y-116940949D01*
X109909560Y-116027480D01*
X109278925Y-116940949D01*
X109035659Y-116940949D01*
X109954989Y-115627899D01*
X110156734Y-115627899D01*
X110156734Y-116940949D01*
G37*
G36*
X80048290Y-117660000D02*
G01*
X79801116Y-117660000D01*
X79801116Y-116076329D01*
X79726240Y-116141175D01*
X79643846Y-116200618D01*
X79566643Y-116249253D01*
X79478878Y-116298788D01*
X79389058Y-116343580D01*
X79306280Y-116378213D01*
X79306280Y-116128108D01*
X79394607Y-116083853D01*
X79489426Y-116028525D01*
X79577713Y-115968128D01*
X79659465Y-115902663D01*
X79669225Y-115894124D01*
X79741215Y-115826010D01*
X79808629Y-115750624D01*
X79866675Y-115668402D01*
X79889043Y-115627899D01*
X80048290Y-115627899D01*
X80048290Y-117660000D01*
G37*
G36*
X200048290Y-117660000D02*
G01*
X199801116Y-117660000D01*
X199801116Y-116076329D01*
X199726240Y-116141175D01*
X199643846Y-116200618D01*
X199566643Y-116249253D01*
X199478878Y-116298788D01*
X199389058Y-116343580D01*
X199306280Y-116378213D01*
X199306280Y-116128108D01*
X199394607Y-116083853D01*
X199489426Y-116028525D01*
X199577713Y-115968128D01*
X199659465Y-115902663D01*
X199669225Y-115894124D01*
X199741215Y-115826010D01*
X199808629Y-115750624D01*
X199866675Y-115668402D01*
X199889043Y-115627899D01*
X200048290Y-115627899D01*
X200048290Y-117660000D01*
G37*
G36*
X200675505Y-117130481D02*
G01*
X200922679Y-117097264D01*
X200947653Y-117193831D01*
X200984653Y-117285172D01*
X201042679Y-117371938D01*
X201067271Y-117396706D01*
X201150459Y-117452370D01*
X201246148Y-117482343D01*
X201316887Y-117488053D01*
X201420843Y-117476222D01*
X201514113Y-117440730D01*
X201596698Y-117381578D01*
X201611933Y-117366908D01*
X201675302Y-117285564D01*
X201715201Y-117192961D01*
X201731631Y-117089101D01*
X201732100Y-117066978D01*
X201721224Y-116966294D01*
X201684135Y-116869097D01*
X201620725Y-116786099D01*
X201537055Y-116722967D01*
X201439186Y-116686041D01*
X201337892Y-116675212D01*
X201236608Y-116685898D01*
X201163014Y-116702568D01*
X201190858Y-116469560D01*
X201230425Y-116472002D01*
X201335426Y-116462421D01*
X201432807Y-116433675D01*
X201514724Y-116390914D01*
X201586755Y-116324775D01*
X201631234Y-116228925D01*
X201641242Y-116140809D01*
X201626005Y-116039638D01*
X201575515Y-115947635D01*
X201548918Y-115919036D01*
X201465434Y-115862107D01*
X201364213Y-115834200D01*
X201311514Y-115831109D01*
X201210168Y-115843749D01*
X201115571Y-115885968D01*
X201071179Y-115920990D01*
X201008691Y-116001041D01*
X200968428Y-116096628D01*
X200947592Y-116190635D01*
X200700418Y-116146671D01*
X200725620Y-116043862D01*
X200761901Y-115951712D01*
X200816932Y-115859449D01*
X200886434Y-115781108D01*
X200906071Y-115763698D01*
X200991342Y-115704286D01*
X201086444Y-115661849D01*
X201191377Y-115636386D01*
X201291257Y-115628032D01*
X201306140Y-115627899D01*
X201406499Y-115634768D01*
X201511054Y-115658193D01*
X201609490Y-115698241D01*
X201697132Y-115752720D01*
X201769305Y-115819435D01*
X201821493Y-115890704D01*
X201866441Y-115984059D01*
X201890644Y-116081672D01*
X201895254Y-116149113D01*
X201883726Y-116250898D01*
X201849140Y-116345105D01*
X201825401Y-116386029D01*
X201757439Y-116465377D01*
X201674812Y-116525884D01*
X201617794Y-116555533D01*
X201712024Y-116585960D01*
X201801860Y-116636354D01*
X201876049Y-116704208D01*
X201895254Y-116727969D01*
X201947547Y-116816230D01*
X201980472Y-116917371D01*
X201993545Y-117019411D01*
X201994417Y-117055743D01*
X201985207Y-117168145D01*
X201957578Y-117272835D01*
X201911530Y-117369810D01*
X201847062Y-117459072D01*
X201801953Y-117506615D01*
X201726225Y-117569366D01*
X201628889Y-117626167D01*
X201521876Y-117665297D01*
X201422448Y-117684771D01*
X201315910Y-117691263D01*
X201204165Y-117683806D01*
X201101022Y-117661436D01*
X201006481Y-117624154D01*
X200920542Y-117571958D01*
X200875296Y-117535436D01*
X200805963Y-117462630D01*
X200750982Y-117380988D01*
X200710353Y-117290511D01*
X200684077Y-117191198D01*
X200675505Y-117130481D01*
G37*
G36*
X250048290Y-117660000D02*
G01*
X249801116Y-117660000D01*
X249801116Y-116076329D01*
X249726240Y-116141175D01*
X249643846Y-116200618D01*
X249566643Y-116249253D01*
X249478878Y-116298788D01*
X249389058Y-116343580D01*
X249306280Y-116378213D01*
X249306280Y-116128108D01*
X249394607Y-116083853D01*
X249489426Y-116028525D01*
X249577713Y-115968128D01*
X249659465Y-115902663D01*
X249669225Y-115894124D01*
X249741215Y-115826010D01*
X249808629Y-115750624D01*
X249866675Y-115668402D01*
X249889043Y-115627899D01*
X250048290Y-115627899D01*
X250048290Y-117660000D01*
G37*
G36*
X251441037Y-115635309D02*
G01*
X251541646Y-115657538D01*
X251632390Y-115694587D01*
X251724019Y-115755076D01*
X251755059Y-115782749D01*
X251825584Y-115864173D01*
X251875959Y-115954085D01*
X251906184Y-116052485D01*
X251916259Y-116159371D01*
X251905886Y-116260465D01*
X251871239Y-116358355D01*
X251842498Y-116406057D01*
X251770306Y-116483091D01*
X251681200Y-116540176D01*
X251619260Y-116567257D01*
X251716641Y-116606927D01*
X251799958Y-116658344D01*
X251876035Y-116729251D01*
X251901605Y-116761674D01*
X251952609Y-116850737D01*
X251984723Y-116950008D01*
X251997475Y-117048081D01*
X251998325Y-117082609D01*
X251989583Y-117191499D01*
X251963356Y-117292488D01*
X251919645Y-117385577D01*
X251858450Y-117470765D01*
X251815631Y-117515896D01*
X251730186Y-117584227D01*
X251633708Y-117635776D01*
X251526198Y-117670541D01*
X251425264Y-117686981D01*
X251334961Y-117691263D01*
X251227256Y-117685080D01*
X251127622Y-117666533D01*
X251021584Y-117629267D01*
X250926532Y-117575171D01*
X250853803Y-117515408D01*
X250782616Y-117434097D01*
X250728914Y-117344464D01*
X250692697Y-117246511D01*
X250673964Y-117140235D01*
X250671196Y-117077725D01*
X250925610Y-117077725D01*
X250938066Y-117181161D01*
X250972370Y-117275250D01*
X250975436Y-117281423D01*
X251033231Y-117364163D01*
X251112278Y-117427368D01*
X251124424Y-117434319D01*
X251220716Y-117472888D01*
X251323663Y-117487843D01*
X251337892Y-117488053D01*
X251442401Y-117476985D01*
X251534889Y-117443784D01*
X251622741Y-117381696D01*
X251630006Y-117374724D01*
X251691058Y-117297577D01*
X251732098Y-117198832D01*
X251745665Y-117096441D01*
X251745778Y-117085540D01*
X251734138Y-116980420D01*
X251699219Y-116887322D01*
X251641020Y-116806245D01*
X251626587Y-116791472D01*
X251546578Y-116730163D01*
X251454930Y-116691561D01*
X251351642Y-116675666D01*
X251329588Y-116675212D01*
X251226157Y-116686470D01*
X251134461Y-116720245D01*
X251054500Y-116776535D01*
X251039916Y-116790495D01*
X250979637Y-116867870D01*
X250939117Y-116965986D01*
X250925722Y-117067004D01*
X250925610Y-117077725D01*
X250671196Y-117077725D01*
X250671109Y-117075771D01*
X250678992Y-116970610D01*
X250702639Y-116875495D01*
X250747404Y-116781595D01*
X250770760Y-116747508D01*
X250841295Y-116673024D01*
X250928335Y-116615045D01*
X251020783Y-116576976D01*
X251054570Y-116567257D01*
X250958191Y-116522528D01*
X250874511Y-116460567D01*
X250826448Y-116405080D01*
X250778374Y-116312498D01*
X250755751Y-116214873D01*
X250752198Y-116152533D01*
X250753056Y-116143251D01*
X251005233Y-116143251D01*
X251018148Y-116244574D01*
X251061285Y-116337441D01*
X251097069Y-116380167D01*
X251181111Y-116439627D01*
X251274717Y-116467608D01*
X251336427Y-116472002D01*
X251436192Y-116459157D01*
X251527993Y-116416249D01*
X251570411Y-116380655D01*
X251629555Y-116299664D01*
X251658547Y-116205129D01*
X251661758Y-116156929D01*
X251648500Y-116059797D01*
X251604215Y-115968523D01*
X251567480Y-115925387D01*
X251483618Y-115864346D01*
X251384437Y-115834424D01*
X251333496Y-115831109D01*
X251234051Y-115844023D01*
X251141667Y-115887161D01*
X251098534Y-115922944D01*
X251038125Y-116003607D01*
X251007511Y-116103998D01*
X251005233Y-116143251D01*
X250753056Y-116143251D01*
X250762059Y-116045860D01*
X250791643Y-115948101D01*
X250840949Y-115859258D01*
X250909979Y-115779330D01*
X250995616Y-115713079D01*
X251094260Y-115665757D01*
X251191242Y-115639877D01*
X251298182Y-115628491D01*
X251330565Y-115627899D01*
X251441037Y-115635309D01*
G37*
G36*
X230048290Y-117660000D02*
G01*
X229801116Y-117660000D01*
X229801116Y-116076329D01*
X229726240Y-116141175D01*
X229643846Y-116200618D01*
X229566643Y-116249253D01*
X229478878Y-116298788D01*
X229389058Y-116343580D01*
X229306280Y-116378213D01*
X229306280Y-116128108D01*
X229394607Y-116083853D01*
X229489426Y-116028525D01*
X229577713Y-115968128D01*
X229659465Y-115902663D01*
X229669225Y-115894124D01*
X229741215Y-115826010D01*
X229808629Y-115750624D01*
X229866675Y-115668402D01*
X229889043Y-115627899D01*
X230048290Y-115627899D01*
X230048290Y-117660000D01*
G37*
G36*
X231485704Y-115634421D02*
G01*
X231589790Y-115657845D01*
X231683068Y-115698305D01*
X231765538Y-115755802D01*
X231775087Y-115764187D01*
X231843444Y-115838589D01*
X231896598Y-115925997D01*
X231934547Y-116026412D01*
X231955280Y-116124943D01*
X231957292Y-116139832D01*
X231711584Y-116159371D01*
X231682824Y-116058072D01*
X231639547Y-115969060D01*
X231617794Y-115940530D01*
X231536095Y-115873852D01*
X231441207Y-115837948D01*
X231370621Y-115831109D01*
X231272700Y-115843544D01*
X231180029Y-115884467D01*
X231163014Y-115896078D01*
X231088580Y-115962961D01*
X231025805Y-116048084D01*
X230978855Y-116141297D01*
X230946273Y-116242556D01*
X230925810Y-116350793D01*
X230914467Y-116459576D01*
X230909618Y-116563275D01*
X230909002Y-116599986D01*
X230975135Y-116519511D01*
X231050619Y-116454737D01*
X231127355Y-116409476D01*
X231226090Y-116371374D01*
X231328122Y-116350858D01*
X231397976Y-116346950D01*
X231502775Y-116355692D01*
X231600468Y-116381919D01*
X231691056Y-116425630D01*
X231774537Y-116486825D01*
X231819050Y-116529644D01*
X231886811Y-116614477D01*
X231937928Y-116709549D01*
X231972403Y-116814860D01*
X231988706Y-116913274D01*
X231992951Y-117001032D01*
X231986460Y-117105833D01*
X231966985Y-117206460D01*
X231934528Y-117302914D01*
X231910886Y-117354696D01*
X231860130Y-117440442D01*
X231792314Y-117521577D01*
X231712478Y-117587828D01*
X231686182Y-117604801D01*
X231593265Y-117650396D01*
X231492811Y-117679104D01*
X231384819Y-117690925D01*
X231362316Y-117691263D01*
X231250381Y-117683243D01*
X231146482Y-117659183D01*
X231050620Y-117619083D01*
X230962796Y-117562943D01*
X230883009Y-117490764D01*
X230858199Y-117463140D01*
X230791962Y-117367204D01*
X230747232Y-117271384D01*
X230712020Y-117161133D01*
X230690702Y-117062543D01*
X230681119Y-116994682D01*
X230947592Y-116994682D01*
X230956541Y-117098799D01*
X230983387Y-117199207D01*
X231001814Y-117244298D01*
X231052964Y-117331789D01*
X231123916Y-117405092D01*
X231153244Y-117426015D01*
X231246982Y-117470544D01*
X231345013Y-117487810D01*
X231358408Y-117488053D01*
X231460738Y-117472814D01*
X231552793Y-117427099D01*
X231627564Y-117359092D01*
X231687070Y-117269428D01*
X231721781Y-117173232D01*
X231737649Y-117075398D01*
X231740404Y-117008360D01*
X231733443Y-116907518D01*
X231708971Y-116807573D01*
X231661115Y-116713292D01*
X231629030Y-116672770D01*
X231553791Y-116608112D01*
X231458026Y-116564648D01*
X231359146Y-116550280D01*
X231348639Y-116550160D01*
X231248881Y-116562134D01*
X231150607Y-116602964D01*
X231071686Y-116665227D01*
X231064340Y-116672770D01*
X231002774Y-116756891D01*
X230964010Y-116855990D01*
X230948618Y-116957987D01*
X230947592Y-116994682D01*
X230681119Y-116994682D01*
X230675475Y-116954718D01*
X230666339Y-116837657D01*
X230663293Y-116711360D01*
X230665187Y-116604350D01*
X230670867Y-116502956D01*
X230684331Y-116376500D01*
X230704526Y-116260026D01*
X230731454Y-116153536D01*
X230765114Y-116057030D01*
X230816655Y-115950436D01*
X230878715Y-115859441D01*
X230953843Y-115780753D01*
X231038176Y-115718345D01*
X231131713Y-115672218D01*
X231234455Y-115642370D01*
X231346402Y-115628803D01*
X231385764Y-115627899D01*
X231485704Y-115634421D01*
G37*
G36*
X220048290Y-117660000D02*
G01*
X219801116Y-117660000D01*
X219801116Y-116076329D01*
X219726240Y-116141175D01*
X219643846Y-116200618D01*
X219566643Y-116249253D01*
X219478878Y-116298788D01*
X219389058Y-116343580D01*
X219306280Y-116378213D01*
X219306280Y-116128108D01*
X219394607Y-116083853D01*
X219489426Y-116028525D01*
X219577713Y-115968128D01*
X219659465Y-115902663D01*
X219669225Y-115894124D01*
X219741215Y-115826010D01*
X219808629Y-115750624D01*
X219866675Y-115668402D01*
X219889043Y-115627899D01*
X220048290Y-115627899D01*
X220048290Y-117660000D01*
G37*
G36*
X220674040Y-117128527D02*
G01*
X220933914Y-117106545D01*
X220956154Y-117205974D01*
X220995004Y-117298958D01*
X221054929Y-117379973D01*
X221067759Y-117392309D01*
X221152641Y-117450653D01*
X221249751Y-117482069D01*
X221321284Y-117488053D01*
X221427377Y-117474600D01*
X221522784Y-117434243D01*
X221607506Y-117366981D01*
X221623168Y-117350300D01*
X221683146Y-117265742D01*
X221723494Y-117167043D01*
X221742881Y-117067438D01*
X221747243Y-116985401D01*
X221739794Y-116882910D01*
X221713604Y-116781257D01*
X221668559Y-116694055D01*
X221628053Y-116643949D01*
X221546661Y-116578004D01*
X221450862Y-116536482D01*
X221352326Y-116519996D01*
X221316887Y-116518897D01*
X221216990Y-116529743D01*
X221119710Y-116565435D01*
X221101465Y-116575561D01*
X221020264Y-116635739D01*
X220957095Y-116710944D01*
X220950034Y-116722107D01*
X220718004Y-116691821D01*
X220912909Y-115659162D01*
X221914794Y-115659162D01*
X221914794Y-115893635D01*
X221110746Y-115893635D01*
X221002302Y-116434877D01*
X221094229Y-116382732D01*
X221188293Y-116345484D01*
X221284494Y-116323136D01*
X221382833Y-116315687D01*
X221494287Y-116324476D01*
X221597841Y-116350843D01*
X221693494Y-116394787D01*
X221781246Y-116456310D01*
X221827843Y-116499357D01*
X221898649Y-116584549D01*
X221952064Y-116679838D01*
X221988087Y-116785225D01*
X222005123Y-116883593D01*
X222009560Y-116971235D01*
X222003961Y-117071556D01*
X221983278Y-117181955D01*
X221947354Y-117285201D01*
X221896190Y-117381295D01*
X221850314Y-117445554D01*
X221772627Y-117529057D01*
X221685015Y-117595283D01*
X221587476Y-117644232D01*
X221480011Y-117675906D01*
X221382874Y-117689103D01*
X221321284Y-117691263D01*
X221221707Y-117685853D01*
X221114520Y-117665868D01*
X221017010Y-117631156D01*
X220929178Y-117581718D01*
X220872365Y-117537390D01*
X220803603Y-117465065D01*
X220749053Y-117383156D01*
X220708715Y-117291664D01*
X220682588Y-117190588D01*
X220674040Y-117128527D01*
G37*
G36*
X90416608Y-117425526D02*
G01*
X90416608Y-117660000D01*
X89084996Y-117660000D01*
X89092913Y-117561596D01*
X89113817Y-117488053D01*
X89156237Y-117394874D01*
X89207222Y-117311069D01*
X89270039Y-117228121D01*
X89276971Y-117219874D01*
X89347777Y-117142165D01*
X89423950Y-117067640D01*
X89500819Y-116998224D01*
X89587226Y-116924880D01*
X89600348Y-116914082D01*
X89679086Y-116847945D01*
X89768149Y-116770234D01*
X89846812Y-116698032D01*
X89927481Y-116618662D01*
X90002668Y-116536093D01*
X90043893Y-116483726D01*
X90099857Y-116395777D01*
X90140558Y-116301228D01*
X90159212Y-116201082D01*
X90159665Y-116183307D01*
X90144827Y-116078527D01*
X90100314Y-115986936D01*
X90054152Y-115933203D01*
X89974444Y-115875077D01*
X89879728Y-115841079D01*
X89780600Y-115831109D01*
X89675823Y-115842033D01*
X89576658Y-115879285D01*
X89494347Y-115942972D01*
X89433267Y-116030095D01*
X89399379Y-116127029D01*
X89386499Y-116228708D01*
X89385903Y-116253161D01*
X89131891Y-116226294D01*
X89146683Y-116121645D01*
X89171641Y-116026786D01*
X89213609Y-115928488D01*
X89269415Y-115843514D01*
X89328262Y-115781284D01*
X89408434Y-115721517D01*
X89499780Y-115676431D01*
X89602298Y-115646024D01*
X89699064Y-115631644D01*
X89785973Y-115627899D01*
X89890358Y-115633583D01*
X90001419Y-115654584D01*
X90100932Y-115691059D01*
X90188898Y-115743008D01*
X90244661Y-115789588D01*
X90310518Y-115864020D01*
X90365976Y-115958130D01*
X90400308Y-116061887D01*
X90413017Y-116160589D01*
X90413677Y-116190146D01*
X90405535Y-116288328D01*
X90381107Y-116385220D01*
X90364340Y-116429504D01*
X90318132Y-116519217D01*
X90259603Y-116604593D01*
X90200209Y-116676678D01*
X90123620Y-116757418D01*
X90047435Y-116830795D01*
X89970561Y-116901057D01*
X89883006Y-116978119D01*
X89818702Y-117033272D01*
X89740935Y-117099888D01*
X89664316Y-117166796D01*
X89588131Y-117235717D01*
X89532937Y-117289727D01*
X89469001Y-117365874D01*
X89428890Y-117425526D01*
X90416608Y-117425526D01*
G37*
G36*
X139133356Y-115893635D02*
G01*
X139133356Y-115659162D01*
X140437124Y-115659162D01*
X140437124Y-115851625D01*
X140365071Y-115933703D01*
X140293258Y-116025328D01*
X140233597Y-116108976D01*
X140174103Y-116199256D01*
X140114777Y-116296166D01*
X140055617Y-116399706D01*
X139998781Y-116506899D01*
X139946118Y-116615069D01*
X139897630Y-116724218D01*
X139853315Y-116834344D01*
X139813175Y-116945448D01*
X139777209Y-117057531D01*
X139763991Y-117102637D01*
X139738037Y-117199775D01*
X139715860Y-117300314D01*
X139697462Y-117404252D01*
X139682841Y-117511591D01*
X139671999Y-117622331D01*
X139669225Y-117660000D01*
X139414724Y-117660000D01*
X139420691Y-117550298D01*
X139432243Y-117448678D01*
X139449737Y-117340051D01*
X139468854Y-117244176D01*
X139492098Y-117143435D01*
X139508025Y-117080655D01*
X139537856Y-116975018D01*
X139571480Y-116870597D01*
X139608896Y-116767393D01*
X139650105Y-116665404D01*
X139695107Y-116564633D01*
X139743900Y-116465078D01*
X139764480Y-116425596D01*
X139817199Y-116329404D01*
X139870945Y-116238054D01*
X139925716Y-116151546D01*
X139981512Y-116069879D01*
X140049822Y-115978271D01*
X140119609Y-115893635D01*
X139133356Y-115893635D01*
G37*
G36*
X190048290Y-117660000D02*
G01*
X189801116Y-117660000D01*
X189801116Y-116076329D01*
X189726240Y-116141175D01*
X189643846Y-116200618D01*
X189566643Y-116249253D01*
X189478878Y-116298788D01*
X189389058Y-116343580D01*
X189306280Y-116378213D01*
X189306280Y-116128108D01*
X189394607Y-116083853D01*
X189489426Y-116028525D01*
X189577713Y-115968128D01*
X189659465Y-115902663D01*
X189669225Y-115894124D01*
X189741215Y-115826010D01*
X189808629Y-115750624D01*
X189866675Y-115668402D01*
X189889043Y-115627899D01*
X190048290Y-115627899D01*
X190048290Y-117660000D01*
G37*
G36*
X191973900Y-117425526D02*
G01*
X191973900Y-117660000D01*
X190642288Y-117660000D01*
X190650205Y-117561596D01*
X190671109Y-117488053D01*
X190713529Y-117394874D01*
X190764515Y-117311069D01*
X190827331Y-117228121D01*
X190834263Y-117219874D01*
X190905069Y-117142165D01*
X190981242Y-117067640D01*
X191058112Y-116998224D01*
X191144518Y-116924880D01*
X191157641Y-116914082D01*
X191236379Y-116847945D01*
X191325441Y-116770234D01*
X191404105Y-116698032D01*
X191484774Y-116618662D01*
X191559960Y-116536093D01*
X191601186Y-116483726D01*
X191657149Y-116395777D01*
X191697850Y-116301228D01*
X191716505Y-116201082D01*
X191716957Y-116183307D01*
X191702119Y-116078527D01*
X191657606Y-115986936D01*
X191611444Y-115933203D01*
X191531736Y-115875077D01*
X191437020Y-115841079D01*
X191337892Y-115831109D01*
X191233116Y-115842033D01*
X191133950Y-115879285D01*
X191051639Y-115942972D01*
X190990560Y-116030095D01*
X190956671Y-116127029D01*
X190943791Y-116228708D01*
X190943196Y-116253161D01*
X190689183Y-116226294D01*
X190703975Y-116121645D01*
X190728934Y-116026786D01*
X190770901Y-115928488D01*
X190826707Y-115843514D01*
X190885554Y-115781284D01*
X190965727Y-115721517D01*
X191057072Y-115676431D01*
X191159590Y-115646024D01*
X191256356Y-115631644D01*
X191343265Y-115627899D01*
X191447651Y-115633583D01*
X191558711Y-115654584D01*
X191658224Y-115691059D01*
X191746190Y-115743008D01*
X191801953Y-115789588D01*
X191867810Y-115864020D01*
X191923269Y-115958130D01*
X191957600Y-116061887D01*
X191970309Y-116160589D01*
X191970969Y-116190146D01*
X191962827Y-116288328D01*
X191938399Y-116385220D01*
X191921632Y-116429504D01*
X191875425Y-116519217D01*
X191816895Y-116604593D01*
X191757501Y-116676678D01*
X191680913Y-116757418D01*
X191604727Y-116830795D01*
X191527854Y-116901057D01*
X191440298Y-116978119D01*
X191375994Y-117033272D01*
X191298227Y-117099888D01*
X191221608Y-117166796D01*
X191145423Y-117235717D01*
X191090230Y-117289727D01*
X191026293Y-117365874D01*
X190986182Y-117425526D01*
X191973900Y-117425526D01*
G37*
G36*
X270416608Y-117425526D02*
G01*
X270416608Y-117660000D01*
X269084996Y-117660000D01*
X269092913Y-117561596D01*
X269113817Y-117488053D01*
X269156237Y-117394874D01*
X269207222Y-117311069D01*
X269270039Y-117228121D01*
X269276971Y-117219874D01*
X269347777Y-117142165D01*
X269423950Y-117067640D01*
X269500819Y-116998224D01*
X269587226Y-116924880D01*
X269600348Y-116914082D01*
X269679086Y-116847945D01*
X269768149Y-116770234D01*
X269846812Y-116698032D01*
X269927481Y-116618662D01*
X270002668Y-116536093D01*
X270043893Y-116483726D01*
X270099857Y-116395777D01*
X270140558Y-116301228D01*
X270159212Y-116201082D01*
X270159665Y-116183307D01*
X270144827Y-116078527D01*
X270100314Y-115986936D01*
X270054152Y-115933203D01*
X269974444Y-115875077D01*
X269879728Y-115841079D01*
X269780600Y-115831109D01*
X269675823Y-115842033D01*
X269576658Y-115879285D01*
X269494347Y-115942972D01*
X269433267Y-116030095D01*
X269399379Y-116127029D01*
X269386499Y-116228708D01*
X269385903Y-116253161D01*
X269131891Y-116226294D01*
X269146683Y-116121645D01*
X269171641Y-116026786D01*
X269213609Y-115928488D01*
X269269415Y-115843514D01*
X269328262Y-115781284D01*
X269408434Y-115721517D01*
X269499780Y-115676431D01*
X269602298Y-115646024D01*
X269699064Y-115631644D01*
X269785973Y-115627899D01*
X269890358Y-115633583D01*
X270001419Y-115654584D01*
X270100932Y-115691059D01*
X270188898Y-115743008D01*
X270244661Y-115789588D01*
X270310518Y-115864020D01*
X270365976Y-115958130D01*
X270400308Y-116061887D01*
X270413017Y-116160589D01*
X270413677Y-116190146D01*
X270405535Y-116288328D01*
X270381107Y-116385220D01*
X270364340Y-116429504D01*
X270318132Y-116519217D01*
X270259603Y-116604593D01*
X270200209Y-116676678D01*
X270123620Y-116757418D01*
X270047435Y-116830795D01*
X269970561Y-116901057D01*
X269883006Y-116978119D01*
X269818702Y-117033272D01*
X269740935Y-117099888D01*
X269664316Y-117166796D01*
X269588131Y-117235717D01*
X269532937Y-117289727D01*
X269469001Y-117365874D01*
X269428890Y-117425526D01*
X270416608Y-117425526D01*
G37*
G36*
X271437328Y-115635634D02*
G01*
X271534626Y-115658838D01*
X271614863Y-115693356D01*
X271700776Y-115750623D01*
X271774598Y-115824240D01*
X271817096Y-115882400D01*
X271867797Y-115973437D01*
X271906876Y-116067318D01*
X271936337Y-116160866D01*
X271942149Y-116182819D01*
X271962024Y-116278959D01*
X271976221Y-116390547D01*
X271983984Y-116500860D01*
X271987179Y-116604827D01*
X271987578Y-116660069D01*
X271985801Y-116767861D01*
X271980470Y-116868973D01*
X271969382Y-116981493D01*
X271953176Y-117084395D01*
X271927801Y-117192294D01*
X271914794Y-117234528D01*
X271873883Y-117337507D01*
X271823935Y-117428091D01*
X271764951Y-117506279D01*
X271696929Y-117572072D01*
X271609294Y-117629689D01*
X271509602Y-117668449D01*
X271410867Y-117687072D01*
X271330565Y-117691263D01*
X271225785Y-117683895D01*
X271129797Y-117661793D01*
X271028925Y-117617384D01*
X270940020Y-117552920D01*
X270873342Y-117481702D01*
X270815926Y-117395182D01*
X270768241Y-117293158D01*
X270737100Y-117200376D01*
X270712188Y-117097672D01*
X270693503Y-116985046D01*
X270681047Y-116862497D01*
X270675792Y-116764074D01*
X270674040Y-116660069D01*
X270674048Y-116659581D01*
X270928053Y-116659581D01*
X270929869Y-116778939D01*
X270935319Y-116887887D01*
X270944402Y-116986424D01*
X270960864Y-117094954D01*
X270988112Y-117203719D01*
X271030234Y-117301004D01*
X271044312Y-117322944D01*
X271113959Y-117402757D01*
X271201314Y-117460803D01*
X271299163Y-117486601D01*
X271330565Y-117488053D01*
X271431821Y-117471881D01*
X271522486Y-117423366D01*
X271595031Y-117352050D01*
X271617306Y-117322456D01*
X271662606Y-117234136D01*
X271692579Y-117133168D01*
X271711313Y-117031213D01*
X271724369Y-116913063D01*
X271730727Y-116806883D01*
X271733452Y-116690337D01*
X271733565Y-116659581D01*
X271731749Y-116539894D01*
X271726299Y-116430695D01*
X271717216Y-116331982D01*
X271700754Y-116223340D01*
X271673506Y-116114598D01*
X271631384Y-116017556D01*
X271617306Y-115995729D01*
X271547428Y-115916152D01*
X271459271Y-115858278D01*
X271360048Y-115832556D01*
X271328122Y-115831109D01*
X271228298Y-115845277D01*
X271134028Y-115893590D01*
X271062453Y-115967263D01*
X271056036Y-115976189D01*
X271006167Y-116072170D01*
X270973172Y-116178289D01*
X270952549Y-116283540D01*
X270938176Y-116404080D01*
X270931177Y-116511520D01*
X270928178Y-116628746D01*
X270928053Y-116659581D01*
X270674048Y-116659581D01*
X270675829Y-116551586D01*
X270681196Y-116449925D01*
X270692358Y-116336936D01*
X270708673Y-116233770D01*
X270734218Y-116125825D01*
X270747313Y-116083656D01*
X270788620Y-115980525D01*
X270838782Y-115889972D01*
X270897797Y-115811997D01*
X270965666Y-115746601D01*
X271053185Y-115689221D01*
X271152529Y-115650619D01*
X271250760Y-115632072D01*
X271330565Y-115627899D01*
X271437328Y-115635634D01*
G37*
G36*
X180048290Y-117660000D02*
G01*
X179801116Y-117660000D01*
X179801116Y-116076329D01*
X179726240Y-116141175D01*
X179643846Y-116200618D01*
X179566643Y-116249253D01*
X179478878Y-116298788D01*
X179389058Y-116343580D01*
X179306280Y-116378213D01*
X179306280Y-116128108D01*
X179394607Y-116083853D01*
X179489426Y-116028525D01*
X179577713Y-115968128D01*
X179659465Y-115902663D01*
X179669225Y-115894124D01*
X179741215Y-115826010D01*
X179808629Y-115750624D01*
X179866675Y-115668402D01*
X179889043Y-115627899D01*
X180048290Y-115627899D01*
X180048290Y-117660000D01*
G37*
G36*
X181396510Y-117660000D02*
G01*
X181149337Y-117660000D01*
X181149337Y-116076329D01*
X181074461Y-116141175D01*
X180992066Y-116200618D01*
X180914863Y-116249253D01*
X180827098Y-116298788D01*
X180737278Y-116343580D01*
X180654501Y-116378213D01*
X180654501Y-116128108D01*
X180742827Y-116083853D01*
X180837647Y-116028525D01*
X180925933Y-115968128D01*
X181007686Y-115902663D01*
X181017445Y-115894124D01*
X181089436Y-115826010D01*
X181156850Y-115750624D01*
X181214896Y-115668402D01*
X181237264Y-115627899D01*
X181396510Y-115627899D01*
X181396510Y-117660000D01*
G37*
G36*
X242593510Y-121006936D02*
G01*
X242772662Y-121006936D01*
X243325139Y-122505000D01*
X243098360Y-122505000D01*
X242683269Y-121296364D01*
X242267812Y-122505000D01*
X242041399Y-122505000D01*
X242593510Y-121006936D01*
G37*
G36*
X242295655Y-121976336D02*
G01*
X243084071Y-121976336D01*
X243084071Y-122176371D01*
X242295655Y-122176371D01*
X242295655Y-121976336D01*
G37*
G36*
X243837683Y-121890973D02*
G01*
X244128210Y-121435582D01*
X244381734Y-121435582D01*
X243933304Y-122075254D01*
X243837683Y-121890973D01*
G37*
G36*
X243523342Y-121435582D02*
G01*
X243733635Y-121435582D01*
X243733635Y-122505000D01*
X243523342Y-122505000D01*
X243523342Y-121435582D01*
G37*
G36*
X243846842Y-122053639D02*
G01*
X244010607Y-121945561D01*
X244444382Y-122505000D01*
X244163381Y-122505000D01*
X243846842Y-122053639D01*
G37*
G36*
X243625191Y-121869357D02*
G01*
X244011706Y-121869357D01*
X244011706Y-122069026D01*
X243625191Y-122069026D01*
X243625191Y-121869357D01*
G37*
G36*
X245207152Y-121826859D02*
G01*
X245197901Y-121749228D01*
X245164236Y-121679037D01*
X245151099Y-121663827D01*
X245088164Y-121622015D01*
X245010686Y-121606087D01*
X244991730Y-121605575D01*
X244916805Y-121612550D01*
X244866434Y-121625359D01*
X244798687Y-121653842D01*
X244757990Y-121679581D01*
X244604483Y-121574434D01*
X244660245Y-121520519D01*
X244722988Y-121480196D01*
X244764584Y-121460861D01*
X244835649Y-121437500D01*
X244911821Y-121423836D01*
X244985502Y-121419829D01*
X245064900Y-121424408D01*
X245143643Y-121440024D01*
X245213381Y-121466723D01*
X245278158Y-121507870D01*
X245330159Y-121560970D01*
X245357728Y-121603011D01*
X245387867Y-121674933D01*
X245403275Y-121749913D01*
X245407187Y-121817700D01*
X245407187Y-122505000D01*
X245207152Y-122505000D01*
X245207152Y-121826859D01*
G37*
G36*
X244945568Y-122520387D02*
G01*
X244863783Y-122516477D01*
X244781992Y-122502435D01*
X244712658Y-122478181D01*
X244649546Y-122438688D01*
X244597962Y-122379096D01*
X244567871Y-122311270D01*
X244553255Y-122229997D01*
X244551727Y-122189560D01*
X244557337Y-122115211D01*
X244577059Y-122043447D01*
X244615628Y-121978460D01*
X244641486Y-121951789D01*
X244706530Y-121909865D01*
X244780364Y-121885409D01*
X244858160Y-121874229D01*
X244912595Y-121872288D01*
X245216311Y-121872288D01*
X245230966Y-122041182D01*
X244913695Y-122041182D01*
X244837795Y-122051522D01*
X244790230Y-122077819D01*
X244754369Y-122142471D01*
X244749563Y-122189560D01*
X244764866Y-122264371D01*
X244803785Y-122310460D01*
X244872021Y-122339586D01*
X244948099Y-122348953D01*
X244968283Y-122349295D01*
X245043877Y-122346264D01*
X245119050Y-122333642D01*
X245147801Y-122323649D01*
X245202458Y-122271832D01*
X245207152Y-122243415D01*
X245228768Y-122393625D01*
X245179789Y-122449816D01*
X245160258Y-122464699D01*
X245092045Y-122498634D01*
X245066102Y-122506465D01*
X244990060Y-122518742D01*
X244945568Y-122520387D01*
G37*
G36*
X245685990Y-122315223D02*
G01*
X245710903Y-122315223D01*
X245784010Y-122298772D01*
X245807623Y-122280418D01*
X245842917Y-122214915D01*
X245852320Y-122173806D01*
X245860584Y-122100666D01*
X245863985Y-122021566D01*
X245864410Y-121976336D01*
X245864410Y-121435582D01*
X246074703Y-121435582D01*
X246074703Y-122046311D01*
X246071074Y-122123245D01*
X246058039Y-122200565D01*
X246032044Y-122274030D01*
X245998866Y-122327313D01*
X245945206Y-122377545D01*
X245879024Y-122409172D01*
X245800320Y-122422195D01*
X245783077Y-122422568D01*
X245758164Y-122422568D01*
X245685990Y-122315223D01*
G37*
G36*
X245647889Y-122315223D02*
G01*
X245858182Y-122315223D01*
X245858182Y-122773911D01*
X245647889Y-122773911D01*
X245647889Y-122315223D01*
G37*
G36*
X245647889Y-122315223D02*
G01*
X246677372Y-122315223D01*
X246677372Y-122505000D01*
X245647889Y-122505000D01*
X245647889Y-122315223D01*
G37*
G36*
X246591643Y-122315223D02*
G01*
X246801936Y-122315223D01*
X246801936Y-122773911D01*
X246591643Y-122773911D01*
X246591643Y-122315223D01*
G37*
G36*
X246401133Y-121435582D02*
G01*
X246611427Y-121435582D01*
X246611427Y-122505000D01*
X246401133Y-122505000D01*
X246401133Y-121435582D01*
G37*
G36*
X245995202Y-121435582D02*
G01*
X246471109Y-121435582D01*
X246471109Y-121624993D01*
X245995202Y-121624993D01*
X245995202Y-121435582D01*
G37*
G36*
X247448935Y-122520387D02*
G01*
X247368893Y-122515982D01*
X247295689Y-122502767D01*
X247222373Y-122477751D01*
X247195411Y-122464699D01*
X247129219Y-122420310D01*
X247074716Y-122363713D01*
X247035310Y-122301667D01*
X247006330Y-122229947D01*
X246989425Y-122157874D01*
X246981214Y-122078672D01*
X246980355Y-122041182D01*
X246980355Y-121920648D01*
X246983653Y-121844239D01*
X246995245Y-121765230D01*
X247015183Y-121693581D01*
X247033112Y-121649905D01*
X247071001Y-121584868D01*
X247123505Y-121525477D01*
X247187351Y-121478813D01*
X247254556Y-121447708D01*
X247329775Y-121428123D01*
X247404325Y-121420347D01*
X247430617Y-121419829D01*
X247510401Y-121426376D01*
X247582601Y-121446018D01*
X247653260Y-121482748D01*
X247659228Y-121486873D01*
X247719139Y-121540023D01*
X247764362Y-121600587D01*
X247800784Y-121672816D01*
X247803942Y-121680680D01*
X247828205Y-121755983D01*
X247843106Y-121829633D01*
X247851732Y-121909604D01*
X247854134Y-121984762D01*
X247854134Y-122054738D01*
X247132763Y-122054738D01*
X247132763Y-121885844D01*
X247654099Y-121885844D01*
X247643581Y-121809594D01*
X247620935Y-121738943D01*
X247586688Y-121682145D01*
X247528144Y-121632557D01*
X247454454Y-121610739D01*
X247430617Y-121609605D01*
X247354661Y-121618870D01*
X247286414Y-121650108D01*
X247245237Y-121688007D01*
X247205498Y-121755704D01*
X247185182Y-121833872D01*
X247180024Y-121909291D01*
X247180024Y-122045579D01*
X247186857Y-122122494D01*
X247210160Y-122193298D01*
X247250000Y-122249644D01*
X247310948Y-122292955D01*
X247381209Y-122315096D01*
X247448935Y-122320718D01*
X247524554Y-122311677D01*
X247575697Y-122295073D01*
X247642300Y-122259318D01*
X247688171Y-122222533D01*
X247826290Y-122360652D01*
X247769339Y-122408973D01*
X247707799Y-122449155D01*
X247647871Y-122478621D01*
X247573528Y-122504072D01*
X247498875Y-122517776D01*
X247448935Y-122520387D01*
G37*
G36*
X248955792Y-121435582D02*
G01*
X249142271Y-121435582D01*
X249142271Y-122505000D01*
X248952861Y-122505000D01*
X248952861Y-121749556D01*
X248963119Y-121815502D01*
X248702267Y-122296905D01*
X248576605Y-122296905D01*
X248315753Y-121815502D01*
X248326378Y-121749556D01*
X248326378Y-122505000D01*
X248136601Y-122505000D01*
X248136601Y-121435582D01*
X248323080Y-121435582D01*
X248639619Y-122026894D01*
X248955792Y-121435582D01*
G37*
G36*
X250136217Y-122503900D02*
G01*
X250136217Y-121744427D01*
X250160764Y-121771172D01*
X249646755Y-122503900D01*
X249464305Y-122503900D01*
X249464305Y-121435582D01*
X249672400Y-121435582D01*
X249672400Y-122212274D01*
X249647854Y-122185530D01*
X250164061Y-121435582D01*
X250344312Y-121435582D01*
X250344312Y-122503900D01*
X250136217Y-122503900D01*
G37*
G36*
X250989846Y-122128743D02*
G01*
X250910746Y-122122664D01*
X250838858Y-122104426D01*
X250794940Y-122085512D01*
X250732643Y-122044643D01*
X250679349Y-121987782D01*
X250663782Y-121964246D01*
X250633419Y-121896312D01*
X250618536Y-121819913D01*
X250616887Y-121781796D01*
X250623379Y-121707865D01*
X250645062Y-121635796D01*
X250663049Y-121600446D01*
X250711054Y-121538576D01*
X250768691Y-121493182D01*
X250794207Y-121478813D01*
X250867323Y-121450823D01*
X250942542Y-121437651D01*
X250989846Y-121435582D01*
X251369033Y-121435582D01*
X251369033Y-121635251D01*
X250981786Y-121635251D01*
X250908681Y-121652607D01*
X250879204Y-121675551D01*
X250844492Y-121743085D01*
X250840736Y-121781796D01*
X250855870Y-121854933D01*
X250857955Y-121859099D01*
X250907414Y-121910757D01*
X250979162Y-121929057D01*
X250981786Y-121929075D01*
X251369033Y-121929075D01*
X251369033Y-122128743D01*
X250989846Y-122128743D01*
G37*
G36*
X251260956Y-122505000D02*
G01*
X251260956Y-121435582D01*
X251471249Y-121435582D01*
X251471249Y-122505000D01*
X251260956Y-122505000D01*
G37*
G36*
X250595272Y-122505000D02*
G01*
X250896057Y-122034954D01*
X251105251Y-122082581D01*
X250844766Y-122505000D01*
X250595272Y-122505000D01*
G37*
G36*
X253033060Y-121435582D02*
G01*
X253243353Y-121435582D01*
X253243353Y-122505000D01*
X253033060Y-122505000D01*
X253033060Y-121435582D01*
G37*
G36*
X252357117Y-121435582D02*
G01*
X252567411Y-121435582D01*
X252567411Y-122505000D01*
X252357117Y-122505000D01*
X252357117Y-121435582D01*
G37*
G36*
X252487909Y-121435582D02*
G01*
X253144434Y-121435582D01*
X253144434Y-121635251D01*
X252487909Y-121635251D01*
X252487909Y-121435582D01*
G37*
G36*
X253566120Y-121435582D02*
G01*
X253776413Y-121435582D01*
X253776413Y-122939874D01*
X253566120Y-122939874D01*
X253566120Y-121435582D01*
G37*
G36*
X254045324Y-122520387D02*
G01*
X253968292Y-122512526D01*
X253894802Y-122486480D01*
X253870935Y-122472759D01*
X253813613Y-122423192D01*
X253771158Y-122358477D01*
X253761758Y-122337205D01*
X253776413Y-122113356D01*
X253785066Y-122188220D01*
X253800959Y-122230959D01*
X253848127Y-122288932D01*
X253872766Y-122305331D01*
X253942994Y-122327946D01*
X253986706Y-122330976D01*
X254063505Y-122320516D01*
X254128901Y-122285855D01*
X254147906Y-122267595D01*
X254186975Y-122202179D01*
X254203050Y-122130258D01*
X254205059Y-122088810D01*
X254205059Y-121856901D01*
X254198305Y-121782283D01*
X254172910Y-121710172D01*
X254147906Y-121674452D01*
X254088921Y-121630123D01*
X254018076Y-121611188D01*
X253986706Y-121609605D01*
X253910771Y-121619337D01*
X253872766Y-121634518D01*
X253816711Y-121681916D01*
X253800959Y-121707058D01*
X253779313Y-121777931D01*
X253776413Y-121821730D01*
X253754797Y-121615833D01*
X253795240Y-121551519D01*
X253848472Y-121495450D01*
X253881193Y-121471120D01*
X253947797Y-121437911D01*
X254020205Y-121421632D01*
X254055582Y-121419829D01*
X254129602Y-121425889D01*
X254201661Y-121446326D01*
X254249755Y-121471120D01*
X254309131Y-121520235D01*
X254352563Y-121579311D01*
X254372854Y-121619863D01*
X254397049Y-121691876D01*
X254410330Y-121765607D01*
X254415310Y-121847209D01*
X254415352Y-121855802D01*
X254415352Y-122088810D01*
X254411903Y-122162193D01*
X254399982Y-122236525D01*
X254377034Y-122309530D01*
X254371755Y-122321817D01*
X254333664Y-122387917D01*
X254279609Y-122444991D01*
X254244993Y-122469462D01*
X254177931Y-122500494D01*
X254101492Y-122517204D01*
X254045324Y-122520387D01*
G37*
G36*
X255192795Y-121424118D02*
G01*
X255268787Y-121438944D01*
X255343287Y-121467485D01*
X255355809Y-121474050D01*
X255418274Y-121517172D01*
X255469657Y-121571983D01*
X255506751Y-121631953D01*
X255534185Y-121700640D01*
X255551459Y-121777555D01*
X255558318Y-121853814D01*
X255558775Y-121880715D01*
X255558775Y-122057669D01*
X255554660Y-122136710D01*
X255542314Y-122208970D01*
X255518944Y-122281305D01*
X255506751Y-122307896D01*
X255465443Y-122373167D01*
X255413053Y-122426922D01*
X255355809Y-122465799D01*
X255283041Y-122496878D01*
X255208623Y-122513936D01*
X255134917Y-122520174D01*
X255117672Y-122520387D01*
X255042727Y-122516069D01*
X254966864Y-122501142D01*
X254892423Y-122472409D01*
X254879902Y-122465799D01*
X254817437Y-122422381D01*
X254766054Y-122367189D01*
X254728960Y-122306796D01*
X254701525Y-122237159D01*
X254684252Y-122159220D01*
X254677393Y-122081979D01*
X254676985Y-122057669D01*
X254886863Y-122057669D01*
X254893962Y-122136978D01*
X254917902Y-122208488D01*
X254946946Y-122251842D01*
X255009377Y-122298925D01*
X255084428Y-122319037D01*
X255117672Y-122320718D01*
X255193321Y-122311033D01*
X255259343Y-122278679D01*
X255288032Y-122251842D01*
X255327171Y-122186391D01*
X255345589Y-122109661D01*
X255348482Y-122057669D01*
X255348482Y-121880715D01*
X255341339Y-121801579D01*
X255317253Y-121730653D01*
X255288032Y-121688007D01*
X255225851Y-121641425D01*
X255150908Y-121621527D01*
X255117672Y-121619863D01*
X255041972Y-121629446D01*
X254975778Y-121661455D01*
X254946946Y-121688007D01*
X254908045Y-121752509D01*
X254889738Y-121828793D01*
X254886863Y-121880715D01*
X254886863Y-122057669D01*
X254676985Y-122057669D01*
X254676936Y-122054738D01*
X254676936Y-121880715D01*
X254681051Y-121802234D01*
X254695276Y-121722850D01*
X254719663Y-121651695D01*
X254728960Y-121631953D01*
X254770267Y-121566517D01*
X254822657Y-121512769D01*
X254879902Y-121474050D01*
X254952627Y-121443180D01*
X255026930Y-121426236D01*
X255100472Y-121420040D01*
X255117672Y-121419829D01*
X255192795Y-121424118D01*
G37*
G36*
X255850767Y-121435582D02*
G01*
X256061060Y-121435582D01*
X256061060Y-122505000D01*
X255850767Y-122505000D01*
X255850767Y-121435582D01*
G37*
G36*
X255953715Y-121435582D02*
G01*
X256535868Y-121435582D01*
X256535868Y-121635251D01*
X255953715Y-121635251D01*
X255953715Y-121435582D01*
G37*
G36*
X256747627Y-121435582D02*
G01*
X256957920Y-121435582D01*
X256957920Y-122939874D01*
X256747627Y-122939874D01*
X256747627Y-121435582D01*
G37*
G36*
X257226831Y-122520387D02*
G01*
X257149800Y-122512526D01*
X257076309Y-122486480D01*
X257052442Y-122472759D01*
X256995120Y-122423192D01*
X256952665Y-122358477D01*
X256943265Y-122337205D01*
X256957920Y-122113356D01*
X256966574Y-122188220D01*
X256982466Y-122230959D01*
X257029634Y-122288932D01*
X257054274Y-122305331D01*
X257124501Y-122327946D01*
X257168213Y-122330976D01*
X257245012Y-122320516D01*
X257310408Y-122285855D01*
X257329413Y-122267595D01*
X257368483Y-122202179D01*
X257384557Y-122130258D01*
X257386566Y-122088810D01*
X257386566Y-121856901D01*
X257379813Y-121782283D01*
X257354418Y-121710172D01*
X257329413Y-121674452D01*
X257270429Y-121630123D01*
X257199583Y-121611188D01*
X257168213Y-121609605D01*
X257092278Y-121619337D01*
X257054274Y-121634518D01*
X256998219Y-121681916D01*
X256982466Y-121707058D01*
X256960820Y-121777931D01*
X256957920Y-121821730D01*
X256936304Y-121615833D01*
X256976748Y-121551519D01*
X257029980Y-121495450D01*
X257062700Y-121471120D01*
X257129304Y-121437911D01*
X257201712Y-121421632D01*
X257237090Y-121419829D01*
X257311109Y-121425889D01*
X257383169Y-121446326D01*
X257431263Y-121471120D01*
X257490639Y-121520235D01*
X257534070Y-121579311D01*
X257554361Y-121619863D01*
X257578557Y-121691876D01*
X257591837Y-121765607D01*
X257596818Y-121847209D01*
X257596859Y-121855802D01*
X257596859Y-122088810D01*
X257593411Y-122162193D01*
X257581489Y-122236525D01*
X257558541Y-122309530D01*
X257553262Y-122321817D01*
X257515171Y-122387917D01*
X257461116Y-122444991D01*
X257426500Y-122469462D01*
X257359438Y-122500494D01*
X257283000Y-122517204D01*
X257226831Y-122520387D01*
G37*
G36*
X258492986Y-121826859D02*
G01*
X258483735Y-121749228D01*
X258450070Y-121679037D01*
X258436933Y-121663827D01*
X258373998Y-121622015D01*
X258296520Y-121606087D01*
X258277564Y-121605575D01*
X258202639Y-121612550D01*
X258152267Y-121625359D01*
X258084521Y-121653842D01*
X258043824Y-121679581D01*
X257890317Y-121574434D01*
X257946079Y-121520519D01*
X258008822Y-121480196D01*
X258050418Y-121460861D01*
X258121482Y-121437500D01*
X258197655Y-121423836D01*
X258271336Y-121419829D01*
X258350734Y-121424408D01*
X258429476Y-121440024D01*
X258499214Y-121466723D01*
X258563992Y-121507870D01*
X258615993Y-121560970D01*
X258643562Y-121603011D01*
X258673701Y-121674933D01*
X258689109Y-121749913D01*
X258693021Y-121817700D01*
X258693021Y-122505000D01*
X258492986Y-122505000D01*
X258492986Y-121826859D01*
G37*
G36*
X258231402Y-122520387D02*
G01*
X258149617Y-122516477D01*
X258067826Y-122502435D01*
X257998492Y-122478181D01*
X257935380Y-122438688D01*
X257883795Y-122379096D01*
X257853705Y-122311270D01*
X257839089Y-122229997D01*
X257837561Y-122189560D01*
X257843171Y-122115211D01*
X257862893Y-122043447D01*
X257901461Y-121978460D01*
X257927320Y-121951789D01*
X257992364Y-121909865D01*
X258066198Y-121885409D01*
X258143994Y-121874229D01*
X258198429Y-121872288D01*
X258502145Y-121872288D01*
X258516800Y-122041182D01*
X258199528Y-122041182D01*
X258123628Y-122051522D01*
X258076064Y-122077819D01*
X258040203Y-122142471D01*
X258035397Y-122189560D01*
X258050700Y-122264371D01*
X258089619Y-122310460D01*
X258157855Y-122339586D01*
X258233933Y-122348953D01*
X258254117Y-122349295D01*
X258329711Y-122346264D01*
X258404884Y-122333642D01*
X258433635Y-122323649D01*
X258488291Y-122271832D01*
X258492986Y-122243415D01*
X258514602Y-122393625D01*
X258465623Y-122449816D01*
X258446092Y-122464699D01*
X258377879Y-122498634D01*
X258351936Y-122506465D01*
X258275894Y-122518742D01*
X258231402Y-122520387D01*
G37*
G36*
X259825087Y-121435582D02*
G01*
X260011566Y-121435582D01*
X260011566Y-122505000D01*
X259822156Y-122505000D01*
X259822156Y-121749556D01*
X259832414Y-121815502D01*
X259571563Y-122296905D01*
X259445900Y-122296905D01*
X259185048Y-121815502D01*
X259195673Y-121749556D01*
X259195673Y-122505000D01*
X259005896Y-122505000D01*
X259005896Y-121435582D01*
X259192376Y-121435582D01*
X259508914Y-122026894D01*
X259825087Y-121435582D01*
G37*
G36*
X261152791Y-121435582D02*
G01*
X261339270Y-121435582D01*
X261339270Y-122505000D01*
X261149860Y-122505000D01*
X261149860Y-121749556D01*
X261160118Y-121815502D01*
X260899267Y-122296905D01*
X260773604Y-122296905D01*
X260512752Y-121815502D01*
X260523377Y-121749556D01*
X260523377Y-122505000D01*
X260333600Y-122505000D01*
X260333600Y-121435582D01*
X260520080Y-121435582D01*
X260836618Y-122026894D01*
X261152791Y-121435582D01*
G37*
G36*
X262333217Y-122503900D02*
G01*
X262333217Y-121744427D01*
X262357763Y-121771172D01*
X261843754Y-122503900D01*
X261661304Y-122503900D01*
X261661304Y-121435582D01*
X261869399Y-121435582D01*
X261869399Y-122212274D01*
X261844853Y-122185530D01*
X262361060Y-121435582D01*
X262541311Y-121435582D01*
X262541311Y-122503900D01*
X262333217Y-122503900D01*
G37*
G36*
X262864445Y-121435582D02*
G01*
X263074738Y-121435582D01*
X263074738Y-122939874D01*
X262864445Y-122939874D01*
X262864445Y-121435582D01*
G37*
G36*
X263343649Y-122520387D02*
G01*
X263266618Y-122512526D01*
X263193127Y-122486480D01*
X263169260Y-122472759D01*
X263111938Y-122423192D01*
X263069483Y-122358477D01*
X263060083Y-122337205D01*
X263074738Y-122113356D01*
X263083391Y-122188220D01*
X263099284Y-122230959D01*
X263146452Y-122288932D01*
X263171092Y-122305331D01*
X263241319Y-122327946D01*
X263285031Y-122330976D01*
X263361830Y-122320516D01*
X263427226Y-122285855D01*
X263446231Y-122267595D01*
X263485300Y-122202179D01*
X263501375Y-122130258D01*
X263503384Y-122088810D01*
X263503384Y-121856901D01*
X263496631Y-121782283D01*
X263471236Y-121710172D01*
X263446231Y-121674452D01*
X263387247Y-121630123D01*
X263316401Y-121611188D01*
X263285031Y-121609605D01*
X263209096Y-121619337D01*
X263171092Y-121634518D01*
X263115036Y-121681916D01*
X263099284Y-121707058D01*
X263077638Y-121777931D01*
X263074738Y-121821730D01*
X263053122Y-121615833D01*
X263093566Y-121551519D01*
X263146797Y-121495450D01*
X263179518Y-121471120D01*
X263246122Y-121437911D01*
X263318530Y-121421632D01*
X263353907Y-121419829D01*
X263427927Y-121425889D01*
X263499987Y-121446326D01*
X263548080Y-121471120D01*
X263607457Y-121520235D01*
X263650888Y-121579311D01*
X263671179Y-121619863D01*
X263695375Y-121691876D01*
X263708655Y-121765607D01*
X263713636Y-121847209D01*
X263713677Y-121855802D01*
X263713677Y-122088810D01*
X263710228Y-122162193D01*
X263698307Y-122236525D01*
X263675359Y-122309530D01*
X263670080Y-122321817D01*
X263631989Y-122387917D01*
X263577934Y-122444991D01*
X263543318Y-122469462D01*
X263476256Y-122500494D01*
X263399817Y-122517204D01*
X263343649Y-122520387D01*
G37*
G36*
X264491120Y-121424118D02*
G01*
X264567112Y-121438944D01*
X264641612Y-121467485D01*
X264654134Y-121474050D01*
X264716599Y-121517172D01*
X264767982Y-121571983D01*
X264805076Y-121631953D01*
X264832511Y-121700640D01*
X264849784Y-121777555D01*
X264856643Y-121853814D01*
X264857100Y-121880715D01*
X264857100Y-122057669D01*
X264852985Y-122136710D01*
X264840639Y-122208970D01*
X264817269Y-122281305D01*
X264805076Y-122307896D01*
X264763769Y-122373167D01*
X264711379Y-122426922D01*
X264654134Y-122465799D01*
X264581366Y-122496878D01*
X264506948Y-122513936D01*
X264433242Y-122520174D01*
X264415997Y-122520387D01*
X264341052Y-122516069D01*
X264265189Y-122501142D01*
X264190748Y-122472409D01*
X264178227Y-122465799D01*
X264115762Y-122422381D01*
X264064379Y-122367189D01*
X264027285Y-122306796D01*
X263999851Y-122237159D01*
X263982577Y-122159220D01*
X263975718Y-122081979D01*
X263975310Y-122057669D01*
X264185188Y-122057669D01*
X264192288Y-122136978D01*
X264216227Y-122208488D01*
X264245272Y-122251842D01*
X264307702Y-122298925D01*
X264382753Y-122319037D01*
X264415997Y-122320718D01*
X264491646Y-122311033D01*
X264557668Y-122278679D01*
X264586357Y-122251842D01*
X264625496Y-122186391D01*
X264643914Y-122109661D01*
X264646807Y-122057669D01*
X264646807Y-121880715D01*
X264639664Y-121801579D01*
X264615578Y-121730653D01*
X264586357Y-121688007D01*
X264524176Y-121641425D01*
X264449233Y-121621527D01*
X264415997Y-121619863D01*
X264340297Y-121629446D01*
X264274103Y-121661455D01*
X264245272Y-121688007D01*
X264206370Y-121752509D01*
X264188063Y-121828793D01*
X264185188Y-121880715D01*
X264185188Y-122057669D01*
X263975310Y-122057669D01*
X263975261Y-122054738D01*
X263975261Y-121880715D01*
X263979376Y-121802234D01*
X263993602Y-121722850D01*
X264017988Y-121651695D01*
X264027285Y-121631953D01*
X264068592Y-121566517D01*
X264120983Y-121512769D01*
X264178227Y-121474050D01*
X264250952Y-121443180D01*
X264325255Y-121426236D01*
X264398797Y-121420040D01*
X264415997Y-121419829D01*
X264491120Y-121424118D01*
G37*
G36*
X265272923Y-122315223D02*
G01*
X265668597Y-122315223D01*
X265741231Y-122298772D01*
X265765317Y-122280418D01*
X265797259Y-122211588D01*
X265799389Y-122181500D01*
X265799389Y-122178203D01*
X265784715Y-122103467D01*
X265765317Y-122074521D01*
X265698135Y-122039488D01*
X265668597Y-122037152D01*
X265272923Y-122037152D01*
X265272923Y-121847742D01*
X265668597Y-121847742D01*
X265741124Y-121828702D01*
X265750662Y-121820997D01*
X265779351Y-121753504D01*
X265779605Y-121744427D01*
X265761940Y-121671476D01*
X265750662Y-121656500D01*
X265682982Y-121625485D01*
X265670429Y-121624993D01*
X265272923Y-121624993D01*
X265272923Y-121435582D01*
X265677756Y-121435582D01*
X265756533Y-121441088D01*
X265831624Y-121460122D01*
X265899099Y-121496762D01*
X265909665Y-121505191D01*
X265959897Y-121565212D01*
X265985576Y-121634443D01*
X265992096Y-121701196D01*
X265982059Y-121774991D01*
X265948800Y-121841749D01*
X265931280Y-121862397D01*
X265868599Y-121909089D01*
X265799802Y-121935159D01*
X265760188Y-121943363D01*
X265835979Y-121965127D01*
X265904243Y-122002891D01*
X265945568Y-122040816D01*
X265985754Y-122102125D01*
X266007392Y-122173944D01*
X266011514Y-122227662D01*
X266011514Y-122230959D01*
X266002891Y-122306944D01*
X265973489Y-122377221D01*
X265923220Y-122433558D01*
X265854155Y-122474232D01*
X265776417Y-122496558D01*
X265694278Y-122504720D01*
X265674459Y-122505000D01*
X265272923Y-122505000D01*
X265272923Y-122315223D01*
G37*
G36*
X265149092Y-121435582D02*
G01*
X265358286Y-121435582D01*
X265358286Y-122505000D01*
X265149092Y-122505000D01*
X265149092Y-121435582D01*
G37*
G36*
X266887124Y-121826859D02*
G01*
X266877873Y-121749228D01*
X266844208Y-121679037D01*
X266831071Y-121663827D01*
X266768136Y-121622015D01*
X266690658Y-121606087D01*
X266671702Y-121605575D01*
X266596777Y-121612550D01*
X266546406Y-121625359D01*
X266478659Y-121653842D01*
X266437962Y-121679581D01*
X266284455Y-121574434D01*
X266340217Y-121520519D01*
X266402960Y-121480196D01*
X266444556Y-121460861D01*
X266515621Y-121437500D01*
X266591793Y-121423836D01*
X266665474Y-121419829D01*
X266744872Y-121424408D01*
X266823615Y-121440024D01*
X266893353Y-121466723D01*
X266958130Y-121507870D01*
X267010131Y-121560970D01*
X267037700Y-121603011D01*
X267067839Y-121674933D01*
X267083247Y-121749913D01*
X267087159Y-121817700D01*
X267087159Y-122505000D01*
X266887124Y-122505000D01*
X266887124Y-121826859D01*
G37*
G36*
X266625540Y-122520387D02*
G01*
X266543755Y-122516477D01*
X266461964Y-122502435D01*
X266392630Y-122478181D01*
X266329518Y-122438688D01*
X266277934Y-122379096D01*
X266247843Y-122311270D01*
X266233227Y-122229997D01*
X266231699Y-122189560D01*
X266237309Y-122115211D01*
X266257031Y-122043447D01*
X266295600Y-121978460D01*
X266321458Y-121951789D01*
X266386502Y-121909865D01*
X266460337Y-121885409D01*
X266538132Y-121874229D01*
X266592568Y-121872288D01*
X266896284Y-121872288D01*
X266910938Y-122041182D01*
X266593667Y-122041182D01*
X266517767Y-122051522D01*
X266470202Y-122077819D01*
X266434341Y-122142471D01*
X266429535Y-122189560D01*
X266444838Y-122264371D01*
X266483757Y-122310460D01*
X266551993Y-122339586D01*
X266628071Y-122348953D01*
X266648255Y-122349295D01*
X266723849Y-122346264D01*
X266799022Y-122333642D01*
X266827773Y-122323649D01*
X266882430Y-122271832D01*
X266887124Y-122243415D01*
X266908740Y-122393625D01*
X266859762Y-122449816D01*
X266840230Y-122464699D01*
X266772017Y-122498634D01*
X266746074Y-122506465D01*
X266670032Y-122518742D01*
X266625540Y-122520387D01*
G37*
G36*
X268075976Y-121435582D02*
G01*
X268286270Y-121435582D01*
X268286270Y-122505000D01*
X268075976Y-122505000D01*
X268075976Y-121435582D01*
G37*
G36*
X267400034Y-121435582D02*
G01*
X267610327Y-121435582D01*
X267610327Y-122505000D01*
X267400034Y-122505000D01*
X267400034Y-121435582D01*
G37*
G36*
X267530826Y-121884745D02*
G01*
X268187351Y-121884745D01*
X268187351Y-122074155D01*
X267530826Y-122074155D01*
X267530826Y-121884745D01*
G37*
G36*
X269280949Y-122503900D02*
G01*
X269280949Y-121744427D01*
X269305495Y-121771172D01*
X268791486Y-122503900D01*
X268609036Y-122503900D01*
X268609036Y-121435582D01*
X268817131Y-121435582D01*
X268817131Y-122212274D01*
X268792585Y-122185530D01*
X269308792Y-121435582D01*
X269489043Y-121435582D01*
X269489043Y-122503900D01*
X269280949Y-122503900D01*
G37*
G36*
X270134577Y-122128743D02*
G01*
X270055477Y-122122664D01*
X269983589Y-122104426D01*
X269939672Y-122085512D01*
X269877375Y-122044643D01*
X269824080Y-121987782D01*
X269808513Y-121964246D01*
X269778151Y-121896312D01*
X269763267Y-121819913D01*
X269761618Y-121781796D01*
X269768110Y-121707865D01*
X269789793Y-121635796D01*
X269807780Y-121600446D01*
X269855786Y-121538576D01*
X269913422Y-121493182D01*
X269938939Y-121478813D01*
X270012054Y-121450823D01*
X270087273Y-121437651D01*
X270134577Y-121435582D01*
X270513764Y-121435582D01*
X270513764Y-121635251D01*
X270126517Y-121635251D01*
X270053413Y-121652607D01*
X270023935Y-121675551D01*
X269989224Y-121743085D01*
X269985467Y-121781796D01*
X270000601Y-121854933D01*
X270002686Y-121859099D01*
X270052145Y-121910757D01*
X270123894Y-121929057D01*
X270126517Y-121929075D01*
X270513764Y-121929075D01*
X270513764Y-122128743D01*
X270134577Y-122128743D01*
G37*
G36*
X270405687Y-122505000D02*
G01*
X270405687Y-121435582D01*
X270615980Y-121435582D01*
X270615980Y-122505000D01*
X270405687Y-122505000D01*
G37*
G36*
X269740003Y-122505000D02*
G01*
X270040788Y-122034954D01*
X270249982Y-122082581D01*
X269989497Y-122505000D01*
X269740003Y-122505000D01*
G37*
G36*
X242243265Y-124579867D02*
G01*
X242243265Y-124400715D01*
X242763503Y-124400715D01*
X242763503Y-124579867D01*
X242243265Y-124579867D01*
G37*
G36*
X242454291Y-125040387D02*
G01*
X242378943Y-125036120D01*
X242302831Y-125022164D01*
X242298220Y-125020969D01*
X242228336Y-124996789D01*
X242165963Y-124963817D01*
X242105813Y-124916380D01*
X242067044Y-124872592D01*
X242218353Y-124736304D01*
X242273440Y-124790246D01*
X242323499Y-124821301D01*
X242393888Y-124845296D01*
X242451360Y-124850976D01*
X242528489Y-124842535D01*
X242597818Y-124814070D01*
X242639672Y-124779535D01*
X242680527Y-124717231D01*
X242701413Y-124645273D01*
X242706716Y-124575837D01*
X242706716Y-124399616D01*
X242698794Y-124321105D01*
X242672081Y-124250566D01*
X242639672Y-124208007D01*
X242576426Y-124163887D01*
X242501945Y-124143124D01*
X242451360Y-124139863D01*
X242374858Y-124149679D01*
X242324598Y-124167707D01*
X242261048Y-124206566D01*
X242218353Y-124247208D01*
X242067044Y-124110921D01*
X242117289Y-124054725D01*
X242164863Y-124018230D01*
X242231385Y-123982814D01*
X242297121Y-123959979D01*
X242373416Y-123944866D01*
X242449102Y-123939848D01*
X242454291Y-123939829D01*
X242533304Y-123944118D01*
X242605477Y-123956985D01*
X242677647Y-123981342D01*
X242704152Y-123994050D01*
X242769631Y-124037086D01*
X242823509Y-124091636D01*
X242862421Y-124151221D01*
X242891208Y-124219714D01*
X242909333Y-124296507D01*
X242916529Y-124372718D01*
X242917009Y-124399616D01*
X242917009Y-124575837D01*
X242912691Y-124655261D01*
X242899737Y-124727847D01*
X242875215Y-124800475D01*
X242862421Y-124827163D01*
X242819091Y-124892851D01*
X242764158Y-124946851D01*
X242704152Y-124985799D01*
X242635358Y-125014585D01*
X242558121Y-125032710D01*
X242481389Y-125039907D01*
X242454291Y-125040387D01*
G37*
G36*
X243086270Y-124834490D02*
G01*
X243159542Y-124815714D01*
X243211599Y-124764006D01*
X243214497Y-124759385D01*
X243244148Y-124687907D01*
X243257430Y-124611557D01*
X243260293Y-124546894D01*
X243260293Y-123955582D01*
X243470586Y-123955582D01*
X243470586Y-124575837D01*
X243467195Y-124654141D01*
X243455474Y-124733396D01*
X243435381Y-124804493D01*
X243427721Y-124824232D01*
X243390335Y-124894488D01*
X243341923Y-124950834D01*
X243303524Y-124980669D01*
X243237733Y-125013264D01*
X243162359Y-125030816D01*
X243106786Y-125034159D01*
X243086270Y-125034159D01*
X243086270Y-124834490D01*
G37*
G36*
X243804344Y-123955582D02*
G01*
X244014637Y-123955582D01*
X244014637Y-125025000D01*
X243804344Y-125025000D01*
X243804344Y-123955582D01*
G37*
G36*
X243391451Y-123955582D02*
G01*
X243915718Y-123955582D01*
X243915718Y-124155251D01*
X243391451Y-124155251D01*
X243391451Y-123955582D01*
G37*
G36*
X244775942Y-125040387D02*
G01*
X244695899Y-125035982D01*
X244622695Y-125022767D01*
X244549380Y-124997751D01*
X244522418Y-124984699D01*
X244456225Y-124940310D01*
X244401722Y-124883713D01*
X244362316Y-124821667D01*
X244333336Y-124749947D01*
X244316431Y-124677874D01*
X244308220Y-124598672D01*
X244307362Y-124561182D01*
X244307362Y-124440648D01*
X244310659Y-124364239D01*
X244322251Y-124285230D01*
X244342189Y-124213581D01*
X244360118Y-124169905D01*
X244398007Y-124104868D01*
X244450511Y-124045477D01*
X244514357Y-123998813D01*
X244581562Y-123967708D01*
X244656782Y-123948123D01*
X244731331Y-123940347D01*
X244757623Y-123939829D01*
X244837408Y-123946376D01*
X244909607Y-123966018D01*
X244980266Y-124002748D01*
X244986235Y-124006873D01*
X245046146Y-124060023D01*
X245091369Y-124120587D01*
X245127790Y-124192816D01*
X245130949Y-124200680D01*
X245155211Y-124275983D01*
X245170112Y-124349633D01*
X245178739Y-124429604D01*
X245181140Y-124504762D01*
X245181140Y-124574738D01*
X244459769Y-124574738D01*
X244459769Y-124405844D01*
X244981106Y-124405844D01*
X244970587Y-124329594D01*
X244947942Y-124258943D01*
X244913695Y-124202145D01*
X244855151Y-124152557D01*
X244781460Y-124130739D01*
X244757623Y-124129605D01*
X244681667Y-124138870D01*
X244613420Y-124170108D01*
X244572243Y-124208007D01*
X244532504Y-124275704D01*
X244512189Y-124353872D01*
X244507030Y-124429291D01*
X244507030Y-124565579D01*
X244513864Y-124642494D01*
X244537166Y-124713298D01*
X244577006Y-124769644D01*
X244637954Y-124812955D01*
X244708215Y-124835096D01*
X244775942Y-124840718D01*
X244851560Y-124831677D01*
X244902704Y-124815073D01*
X244969306Y-124779318D01*
X245015177Y-124742533D01*
X245153297Y-124880652D01*
X245096345Y-124928973D01*
X245034805Y-124969155D01*
X244974877Y-124998621D01*
X244900534Y-125024072D01*
X244825882Y-125037776D01*
X244775942Y-125040387D01*
G37*
G36*
X245777948Y-124410973D02*
G01*
X246068475Y-123955582D01*
X246321999Y-123955582D01*
X245873569Y-124595254D01*
X245777948Y-124410973D01*
G37*
G36*
X245463607Y-123955582D02*
G01*
X245673900Y-123955582D01*
X245673900Y-125025000D01*
X245463607Y-125025000D01*
X245463607Y-123955582D01*
G37*
G36*
X245787107Y-124573639D02*
G01*
X245950872Y-124465561D01*
X246384647Y-125025000D01*
X246103646Y-125025000D01*
X245787107Y-124573639D01*
G37*
G36*
X245565457Y-124389357D02*
G01*
X245951971Y-124389357D01*
X245951971Y-124589026D01*
X245565457Y-124589026D01*
X245565457Y-124389357D01*
G37*
G36*
X246802302Y-124067690D02*
G01*
X247012595Y-124067690D01*
X247012595Y-125025000D01*
X246802302Y-125025000D01*
X246802302Y-124067690D01*
G37*
G36*
X246491992Y-123955582D02*
G01*
X247322540Y-123955582D01*
X247322540Y-124144993D01*
X246491992Y-124144993D01*
X246491992Y-123955582D01*
G37*
G36*
X247595847Y-123955582D02*
G01*
X247806140Y-123955582D01*
X247806140Y-125459874D01*
X247595847Y-125459874D01*
X247595847Y-123955582D01*
G37*
G36*
X248075052Y-125040387D02*
G01*
X247998020Y-125032526D01*
X247924530Y-125006480D01*
X247900662Y-124992759D01*
X247843341Y-124943192D01*
X247800885Y-124878477D01*
X247791486Y-124857205D01*
X247806140Y-124633356D01*
X247814794Y-124708220D01*
X247830687Y-124750959D01*
X247877855Y-124808932D01*
X247902494Y-124825331D01*
X247972721Y-124847946D01*
X248016434Y-124850976D01*
X248093233Y-124840516D01*
X248158629Y-124805855D01*
X248177634Y-124787595D01*
X248216703Y-124722179D01*
X248232777Y-124650258D01*
X248234787Y-124608810D01*
X248234787Y-124376901D01*
X248228033Y-124302283D01*
X248202638Y-124230172D01*
X248177634Y-124194452D01*
X248118649Y-124150123D01*
X248047803Y-124131188D01*
X248016434Y-124129605D01*
X247940499Y-124139337D01*
X247902494Y-124154518D01*
X247846439Y-124201916D01*
X247830687Y-124227058D01*
X247809041Y-124297931D01*
X247806140Y-124341730D01*
X247784525Y-124135833D01*
X247824968Y-124071519D01*
X247878200Y-124015450D01*
X247910921Y-123991120D01*
X247977525Y-123957911D01*
X248049933Y-123941632D01*
X248085310Y-123939829D01*
X248159330Y-123945889D01*
X248231389Y-123966326D01*
X248279483Y-123991120D01*
X248338859Y-124040235D01*
X248382290Y-124099311D01*
X248402581Y-124139863D01*
X248426777Y-124211876D01*
X248440058Y-124285607D01*
X248445038Y-124367209D01*
X248445080Y-124375802D01*
X248445080Y-124608810D01*
X248441631Y-124682193D01*
X248429710Y-124756525D01*
X248406762Y-124829530D01*
X248401482Y-124841817D01*
X248363392Y-124907917D01*
X248309337Y-124964991D01*
X248274720Y-124989462D01*
X248207659Y-125020494D01*
X248131220Y-125037204D01*
X248075052Y-125040387D01*
G37*
G36*
X249222523Y-123944118D02*
G01*
X249298515Y-123958944D01*
X249373015Y-123987485D01*
X249385537Y-123994050D01*
X249448002Y-124037172D01*
X249499385Y-124091983D01*
X249536479Y-124151953D01*
X249563913Y-124220640D01*
X249581187Y-124297555D01*
X249588045Y-124373814D01*
X249588503Y-124400715D01*
X249588503Y-124577669D01*
X249584387Y-124656710D01*
X249572042Y-124728970D01*
X249548672Y-124801305D01*
X249536479Y-124827896D01*
X249495171Y-124893167D01*
X249442781Y-124946922D01*
X249385537Y-124985799D01*
X249312768Y-125016878D01*
X249238351Y-125033936D01*
X249164645Y-125040174D01*
X249147400Y-125040387D01*
X249072455Y-125036069D01*
X248996591Y-125021142D01*
X248922150Y-124992409D01*
X248909630Y-124985799D01*
X248847165Y-124942381D01*
X248795782Y-124887189D01*
X248758688Y-124826796D01*
X248731253Y-124757159D01*
X248713980Y-124679220D01*
X248707121Y-124601979D01*
X248706713Y-124577669D01*
X248916591Y-124577669D01*
X248923690Y-124656978D01*
X248947630Y-124728488D01*
X248976674Y-124771842D01*
X249039105Y-124818925D01*
X249114155Y-124839037D01*
X249147400Y-124840718D01*
X249223049Y-124831033D01*
X249289071Y-124798679D01*
X249317759Y-124771842D01*
X249356899Y-124706391D01*
X249375317Y-124629661D01*
X249378210Y-124577669D01*
X249378210Y-124400715D01*
X249371067Y-124321579D01*
X249346981Y-124250653D01*
X249317759Y-124208007D01*
X249255579Y-124161425D01*
X249180636Y-124141527D01*
X249147400Y-124139863D01*
X249071700Y-124149446D01*
X249005505Y-124181455D01*
X248976674Y-124208007D01*
X248937772Y-124272509D01*
X248919466Y-124348793D01*
X248916591Y-124400715D01*
X248916591Y-124577669D01*
X248706713Y-124577669D01*
X248706664Y-124574738D01*
X248706664Y-124400715D01*
X248710779Y-124322234D01*
X248725004Y-124242850D01*
X248749390Y-124171695D01*
X248758688Y-124151953D01*
X248799995Y-124086517D01*
X248852385Y-124032769D01*
X248909630Y-123994050D01*
X248982355Y-123963180D01*
X249056658Y-123946236D01*
X249130200Y-123940040D01*
X249147400Y-123939829D01*
X249222523Y-123944118D01*
G37*
G36*
X250556437Y-123955582D02*
G01*
X250766730Y-123955582D01*
X250766730Y-125025000D01*
X250556437Y-125025000D01*
X250556437Y-123955582D01*
G37*
G36*
X249880495Y-123955582D02*
G01*
X250090788Y-123955582D01*
X250090788Y-125025000D01*
X249880495Y-125025000D01*
X249880495Y-123955582D01*
G37*
G36*
X250011287Y-124404745D02*
G01*
X250667812Y-124404745D01*
X250667812Y-124594155D01*
X250011287Y-124594155D01*
X250011287Y-124404745D01*
G37*
G36*
X251765439Y-123955582D02*
G01*
X251975732Y-123955582D01*
X251975732Y-125025000D01*
X251765439Y-125025000D01*
X251765439Y-123955582D01*
G37*
G36*
X251089497Y-123955582D02*
G01*
X251299790Y-123955582D01*
X251299790Y-125025000D01*
X251089497Y-125025000D01*
X251089497Y-123955582D01*
G37*
G36*
X251220289Y-124404745D02*
G01*
X251876814Y-124404745D01*
X251876814Y-124594155D01*
X251220289Y-124594155D01*
X251220289Y-124404745D01*
G37*
G36*
X253246650Y-123955582D02*
G01*
X253456577Y-123955582D01*
X253456577Y-125025000D01*
X253246650Y-125025000D01*
X253246650Y-123955582D01*
G37*
G36*
X252400348Y-124824965D02*
G01*
X252726046Y-124824965D01*
X252799151Y-124807767D01*
X252828628Y-124785031D01*
X252863670Y-124717497D01*
X252867463Y-124678785D01*
X252852007Y-124605648D01*
X252849877Y-124601482D01*
X252800418Y-124550191D01*
X252728692Y-124531525D01*
X252726046Y-124531507D01*
X252400348Y-124531507D01*
X252400348Y-124331472D01*
X252717986Y-124331472D01*
X252797035Y-124337551D01*
X252868768Y-124355789D01*
X252912526Y-124374703D01*
X252975060Y-124415633D01*
X253028475Y-124472694D01*
X253044050Y-124496336D01*
X253074413Y-124564270D01*
X253089296Y-124640669D01*
X253090945Y-124678785D01*
X253084402Y-124752545D01*
X253062546Y-124824660D01*
X253044417Y-124860136D01*
X252996662Y-124922005D01*
X252939133Y-124967400D01*
X252913625Y-124981769D01*
X252840509Y-125009759D01*
X252765290Y-125022931D01*
X252717986Y-125025000D01*
X252400348Y-125025000D01*
X252400348Y-124824965D01*
G37*
G36*
X252298499Y-123955582D02*
G01*
X252508792Y-123955582D01*
X252508792Y-125025000D01*
X252298499Y-125025000D01*
X252298499Y-123955582D01*
G37*
G36*
X254044591Y-124538468D02*
G01*
X253651116Y-123955582D01*
X253884856Y-123955582D01*
X254191870Y-124434420D01*
X254597069Y-125025000D01*
X254364061Y-125025000D01*
X254044591Y-124538468D01*
G37*
G36*
X254038363Y-124434420D02*
G01*
X254139480Y-124628227D01*
X253867271Y-125025000D01*
X253634630Y-125025000D01*
X254038363Y-124434420D01*
G37*
G36*
X254112735Y-124334769D02*
G01*
X254346475Y-123955582D01*
X254580582Y-123955582D01*
X254201395Y-124532606D01*
X254112735Y-124334769D01*
G37*
G36*
X256219696Y-123955582D02*
G01*
X255764305Y-125275226D01*
X255733778Y-125344497D01*
X255699459Y-125391364D01*
X255638676Y-125437052D01*
X255600540Y-125452547D01*
X255526017Y-125467655D01*
X255456193Y-125471231D01*
X255414061Y-125471231D01*
X255414061Y-125269364D01*
X255456193Y-125269364D01*
X255530862Y-125255969D01*
X255549616Y-125245551D01*
X255598059Y-125187770D01*
X255609699Y-125164218D01*
X256005373Y-123955582D01*
X256219696Y-123955582D01*
G37*
G36*
X255273011Y-123955582D02*
G01*
X255487334Y-123955582D01*
X255815963Y-124884682D01*
X255699459Y-125112561D01*
X255273011Y-123955582D01*
G37*
G36*
X256811374Y-125040387D02*
G01*
X256732510Y-125036069D01*
X256660369Y-125023115D01*
X256588098Y-124998593D01*
X256561514Y-124985799D01*
X256496243Y-124942425D01*
X256442487Y-124887362D01*
X256403611Y-124827163D01*
X256374824Y-124757911D01*
X256356699Y-124680216D01*
X256349502Y-124603072D01*
X256349023Y-124575837D01*
X256349023Y-124399616D01*
X256353341Y-124321164D01*
X256368267Y-124241880D01*
X256393855Y-124170897D01*
X256403611Y-124151221D01*
X256446898Y-124086201D01*
X256501701Y-124032698D01*
X256561514Y-123994050D01*
X256630465Y-123965457D01*
X256707716Y-123947453D01*
X256784339Y-123940305D01*
X256811374Y-123939829D01*
X256887511Y-123944256D01*
X256963932Y-123958739D01*
X256968545Y-123959979D01*
X257038428Y-123984617D01*
X257100802Y-124018230D01*
X257160900Y-124066312D01*
X257198988Y-124110921D01*
X257047679Y-124247208D01*
X256991703Y-124196628D01*
X256941434Y-124167707D01*
X256871392Y-124145193D01*
X256814672Y-124139863D01*
X256737499Y-124147916D01*
X256668025Y-124175067D01*
X256625994Y-124208007D01*
X256582585Y-124272327D01*
X256562157Y-124348122D01*
X256558949Y-124399616D01*
X256558949Y-124575837D01*
X256565425Y-124649446D01*
X256590292Y-124722948D01*
X256625261Y-124771842D01*
X256688688Y-124816437D01*
X256763659Y-124837422D01*
X256814672Y-124840718D01*
X256888126Y-124831213D01*
X256942533Y-124810676D01*
X257005735Y-124769113D01*
X257047679Y-124726046D01*
X257198988Y-124872592D01*
X257147854Y-124927783D01*
X257100069Y-124963817D01*
X257033445Y-124998558D01*
X256967445Y-125020969D01*
X256891608Y-125035532D01*
X256816518Y-125040368D01*
X256811374Y-125040387D01*
G37*
G36*
X257601256Y-124067690D02*
G01*
X257811549Y-124067690D01*
X257811549Y-125025000D01*
X257601256Y-125025000D01*
X257601256Y-124067690D01*
G37*
G36*
X257290945Y-123955582D02*
G01*
X258121493Y-123955582D01*
X258121493Y-124144993D01*
X257290945Y-124144993D01*
X257290945Y-123955582D01*
G37*
G36*
X258394801Y-123955582D02*
G01*
X258605094Y-123955582D01*
X258605094Y-125459874D01*
X258394801Y-125459874D01*
X258394801Y-123955582D01*
G37*
G36*
X258874005Y-125040387D02*
G01*
X258796973Y-125032526D01*
X258723483Y-125006480D01*
X258699616Y-124992759D01*
X258642294Y-124943192D01*
X258599839Y-124878477D01*
X258590439Y-124857205D01*
X258605094Y-124633356D01*
X258613747Y-124708220D01*
X258629640Y-124750959D01*
X258676808Y-124808932D01*
X258701448Y-124825331D01*
X258771675Y-124847946D01*
X258815387Y-124850976D01*
X258892186Y-124840516D01*
X258957582Y-124805855D01*
X258976587Y-124787595D01*
X259015656Y-124722179D01*
X259031731Y-124650258D01*
X259033740Y-124608810D01*
X259033740Y-124376901D01*
X259026986Y-124302283D01*
X259001591Y-124230172D01*
X258976587Y-124194452D01*
X258917602Y-124150123D01*
X258846757Y-124131188D01*
X258815387Y-124129605D01*
X258739452Y-124139337D01*
X258701448Y-124154518D01*
X258645392Y-124201916D01*
X258629640Y-124227058D01*
X258607994Y-124297931D01*
X258605094Y-124341730D01*
X258583478Y-124135833D01*
X258623921Y-124071519D01*
X258677153Y-124015450D01*
X258709874Y-123991120D01*
X258776478Y-123957911D01*
X258848886Y-123941632D01*
X258884263Y-123939829D01*
X258958283Y-123945889D01*
X259030342Y-123966326D01*
X259078436Y-123991120D01*
X259137812Y-124040235D01*
X259181244Y-124099311D01*
X259201535Y-124139863D01*
X259225731Y-124211876D01*
X259239011Y-124285607D01*
X259243991Y-124367209D01*
X259244033Y-124375802D01*
X259244033Y-124608810D01*
X259240584Y-124682193D01*
X259228663Y-124756525D01*
X259205715Y-124829530D01*
X259200436Y-124841817D01*
X259162345Y-124907917D01*
X259108290Y-124964991D01*
X259073674Y-124989462D01*
X259006612Y-125020494D01*
X258930173Y-125037204D01*
X258874005Y-125040387D01*
G37*
G36*
X260021476Y-123944118D02*
G01*
X260097468Y-123958944D01*
X260171968Y-123987485D01*
X260184490Y-123994050D01*
X260246955Y-124037172D01*
X260298338Y-124091983D01*
X260335432Y-124151953D01*
X260362867Y-124220640D01*
X260380140Y-124297555D01*
X260386999Y-124373814D01*
X260387456Y-124400715D01*
X260387456Y-124577669D01*
X260383341Y-124656710D01*
X260370995Y-124728970D01*
X260347625Y-124801305D01*
X260335432Y-124827896D01*
X260294125Y-124893167D01*
X260241734Y-124946922D01*
X260184490Y-124985799D01*
X260111722Y-125016878D01*
X260037304Y-125033936D01*
X259963598Y-125040174D01*
X259946353Y-125040387D01*
X259871408Y-125036069D01*
X259795545Y-125021142D01*
X259721104Y-124992409D01*
X259708583Y-124985799D01*
X259646118Y-124942381D01*
X259594735Y-124887189D01*
X259557641Y-124826796D01*
X259530206Y-124757159D01*
X259512933Y-124679220D01*
X259506074Y-124601979D01*
X259505666Y-124577669D01*
X259715544Y-124577669D01*
X259722644Y-124656978D01*
X259746583Y-124728488D01*
X259775628Y-124771842D01*
X259838058Y-124818925D01*
X259913109Y-124839037D01*
X259946353Y-124840718D01*
X260022002Y-124831033D01*
X260088024Y-124798679D01*
X260116713Y-124771842D01*
X260155852Y-124706391D01*
X260174270Y-124629661D01*
X260177163Y-124577669D01*
X260177163Y-124400715D01*
X260170020Y-124321579D01*
X260145934Y-124250653D01*
X260116713Y-124208007D01*
X260054532Y-124161425D01*
X259979589Y-124141527D01*
X259946353Y-124139863D01*
X259870653Y-124149446D01*
X259804459Y-124181455D01*
X259775628Y-124208007D01*
X259736726Y-124272509D01*
X259718419Y-124348793D01*
X259715544Y-124400715D01*
X259715544Y-124577669D01*
X259505666Y-124577669D01*
X259505617Y-124574738D01*
X259505617Y-124400715D01*
X259509732Y-124322234D01*
X259523957Y-124242850D01*
X259548344Y-124171695D01*
X259557641Y-124151953D01*
X259598948Y-124086517D01*
X259651338Y-124032769D01*
X259708583Y-123994050D01*
X259781308Y-123963180D01*
X259855611Y-123946236D01*
X259929153Y-123940040D01*
X259946353Y-123939829D01*
X260021476Y-123944118D01*
G37*
G36*
X261351360Y-125023900D02*
G01*
X261351360Y-124264427D01*
X261375907Y-124291172D01*
X260861898Y-125023900D01*
X260679448Y-125023900D01*
X260679448Y-123955582D01*
X260887543Y-123955582D01*
X260887543Y-124732274D01*
X260862997Y-124705530D01*
X261379204Y-123955582D01*
X261559455Y-123955582D01*
X261559455Y-125023900D01*
X261351360Y-125023900D01*
G37*
G36*
X261109926Y-123752616D02*
G01*
X261029636Y-123745313D01*
X260954631Y-123720069D01*
X260894582Y-123676792D01*
X260879483Y-123660293D01*
X260839104Y-123593610D01*
X260815550Y-123518239D01*
X260804782Y-123439030D01*
X260802913Y-123383688D01*
X260972173Y-123383688D01*
X260977857Y-123458747D01*
X261002441Y-123530992D01*
X261006612Y-123537561D01*
X261066643Y-123582468D01*
X261109926Y-123588485D01*
X261128611Y-123588485D01*
X261201569Y-123568593D01*
X261232292Y-123537561D01*
X261259163Y-123468771D01*
X261266697Y-123390071D01*
X261266730Y-123383688D01*
X261435624Y-123383688D01*
X261431943Y-123459910D01*
X261418719Y-123536246D01*
X261392347Y-123608383D01*
X261358688Y-123660293D01*
X261303318Y-123708979D01*
X261232922Y-123739633D01*
X261156717Y-123751805D01*
X261128611Y-123752616D01*
X261109926Y-123752616D01*
G37*
G36*
X262314166Y-125040387D02*
G01*
X262235301Y-125036069D01*
X262163161Y-125023115D01*
X262090889Y-124998593D01*
X262064305Y-124985799D01*
X261999034Y-124942425D01*
X261945278Y-124887362D01*
X261906402Y-124827163D01*
X261877615Y-124757911D01*
X261859490Y-124680216D01*
X261852294Y-124603072D01*
X261851814Y-124575837D01*
X261851814Y-124399616D01*
X261856132Y-124321164D01*
X261871058Y-124241880D01*
X261896647Y-124170897D01*
X261906402Y-124151221D01*
X261949689Y-124086201D01*
X262004492Y-124032698D01*
X262064305Y-123994050D01*
X262133256Y-123965457D01*
X262210507Y-123947453D01*
X262287130Y-123940305D01*
X262314166Y-123939829D01*
X262390302Y-123944256D01*
X262466724Y-123958739D01*
X262471336Y-123959979D01*
X262541220Y-123984617D01*
X262603593Y-124018230D01*
X262663691Y-124066312D01*
X262701779Y-124110921D01*
X262550471Y-124247208D01*
X262494494Y-124196628D01*
X262444225Y-124167707D01*
X262374183Y-124145193D01*
X262317463Y-124139863D01*
X262240291Y-124147916D01*
X262170816Y-124175067D01*
X262128785Y-124208007D01*
X262085376Y-124272327D01*
X262064949Y-124348122D01*
X262061741Y-124399616D01*
X262061741Y-124575837D01*
X262068216Y-124649446D01*
X262093083Y-124722948D01*
X262128053Y-124771842D01*
X262191480Y-124816437D01*
X262266450Y-124837422D01*
X262317463Y-124840718D01*
X262390917Y-124831213D01*
X262445324Y-124810676D01*
X262508526Y-124769113D01*
X262550471Y-124726046D01*
X262701779Y-124872592D01*
X262650645Y-124927783D01*
X262602861Y-124963817D01*
X262536236Y-124998558D01*
X262470237Y-125020969D01*
X262394399Y-125035532D01*
X262319309Y-125040368D01*
X262314166Y-125040387D01*
G37*
G36*
X263104047Y-124067690D02*
G01*
X263314340Y-124067690D01*
X263314340Y-125025000D01*
X263104047Y-125025000D01*
X263104047Y-124067690D01*
G37*
G36*
X262793736Y-123955582D02*
G01*
X263624284Y-123955582D01*
X263624284Y-124144993D01*
X262793736Y-124144993D01*
X262793736Y-123955582D01*
G37*
G36*
X264021423Y-124835223D02*
G01*
X264417096Y-124835223D01*
X264489731Y-124818772D01*
X264513817Y-124800418D01*
X264545759Y-124731588D01*
X264547889Y-124701500D01*
X264547889Y-124698203D01*
X264533215Y-124623467D01*
X264513817Y-124594521D01*
X264446635Y-124559488D01*
X264417096Y-124557152D01*
X264021423Y-124557152D01*
X264021423Y-124367742D01*
X264417096Y-124367742D01*
X264489624Y-124348702D01*
X264499162Y-124340997D01*
X264527850Y-124273504D01*
X264528105Y-124264427D01*
X264510440Y-124191476D01*
X264499162Y-124176500D01*
X264431482Y-124145485D01*
X264418928Y-124144993D01*
X264021423Y-124144993D01*
X264021423Y-123955582D01*
X264426256Y-123955582D01*
X264505033Y-123961088D01*
X264580123Y-123980122D01*
X264647598Y-124016762D01*
X264658164Y-124025191D01*
X264708396Y-124085212D01*
X264734076Y-124154443D01*
X264740596Y-124221196D01*
X264730559Y-124294991D01*
X264697300Y-124361749D01*
X264679780Y-124382397D01*
X264617098Y-124429089D01*
X264548302Y-124455159D01*
X264508688Y-124463363D01*
X264584478Y-124485127D01*
X264652742Y-124522891D01*
X264694068Y-124560816D01*
X264734253Y-124622125D01*
X264755892Y-124693944D01*
X264760013Y-124747662D01*
X264760013Y-124750959D01*
X264751391Y-124826944D01*
X264721988Y-124897221D01*
X264671720Y-124953558D01*
X264602655Y-124994232D01*
X264524917Y-125016558D01*
X264442778Y-125024720D01*
X264422958Y-125025000D01*
X264021423Y-125025000D01*
X264021423Y-124835223D01*
G37*
G36*
X263897592Y-123955582D02*
G01*
X264106786Y-123955582D01*
X264106786Y-125025000D01*
X263897592Y-125025000D01*
X263897592Y-123955582D01*
G37*
G36*
X242164863Y-126475582D02*
G01*
X242375157Y-126475582D01*
X242375157Y-127979874D01*
X242164863Y-127979874D01*
X242164863Y-126475582D01*
G37*
G36*
X242644068Y-127560387D02*
G01*
X242567036Y-127552526D01*
X242493546Y-127526480D01*
X242469678Y-127512759D01*
X242412357Y-127463192D01*
X242369901Y-127398477D01*
X242360502Y-127377205D01*
X242375157Y-127153356D01*
X242383810Y-127228220D01*
X242399703Y-127270959D01*
X242446871Y-127328932D01*
X242471510Y-127345331D01*
X242541737Y-127367946D01*
X242585450Y-127370976D01*
X242662249Y-127360516D01*
X242727645Y-127325855D01*
X242746650Y-127307595D01*
X242785719Y-127242179D01*
X242801793Y-127170258D01*
X242803803Y-127128810D01*
X242803803Y-126896901D01*
X242797049Y-126822283D01*
X242771654Y-126750172D01*
X242746650Y-126714452D01*
X242687665Y-126670123D01*
X242616820Y-126651188D01*
X242585450Y-126649605D01*
X242509515Y-126659337D01*
X242471510Y-126674518D01*
X242415455Y-126721916D01*
X242399703Y-126747058D01*
X242378057Y-126817931D01*
X242375157Y-126861730D01*
X242353541Y-126655833D01*
X242393984Y-126591519D01*
X242447216Y-126535450D01*
X242479937Y-126511120D01*
X242546541Y-126477911D01*
X242618949Y-126461632D01*
X242654326Y-126459829D01*
X242728346Y-126465889D01*
X242800405Y-126486326D01*
X242848499Y-126511120D01*
X242907875Y-126560235D01*
X242951307Y-126619311D01*
X242971598Y-126659863D01*
X242995793Y-126731876D01*
X243009074Y-126805607D01*
X243014054Y-126887209D01*
X243014096Y-126895802D01*
X243014096Y-127128810D01*
X243010647Y-127202193D01*
X242998726Y-127276525D01*
X242975778Y-127349530D01*
X242970498Y-127361817D01*
X242932408Y-127427917D01*
X242878353Y-127484991D01*
X242843736Y-127509462D01*
X242776675Y-127540494D01*
X242700236Y-127557204D01*
X242644068Y-127560387D01*
G37*
G36*
X243738032Y-127560387D02*
G01*
X243659167Y-127556069D01*
X243587027Y-127543115D01*
X243514755Y-127518593D01*
X243488171Y-127505799D01*
X243422900Y-127462425D01*
X243369144Y-127407362D01*
X243330268Y-127347163D01*
X243301481Y-127277911D01*
X243283356Y-127200216D01*
X243276160Y-127123072D01*
X243275680Y-127095837D01*
X243275680Y-126919616D01*
X243279998Y-126841164D01*
X243294924Y-126761880D01*
X243320513Y-126690897D01*
X243330268Y-126671221D01*
X243373555Y-126606201D01*
X243428358Y-126552698D01*
X243488171Y-126514050D01*
X243557122Y-126485457D01*
X243634373Y-126467453D01*
X243710996Y-126460305D01*
X243738032Y-126459829D01*
X243814168Y-126464256D01*
X243890590Y-126478739D01*
X243895202Y-126479979D01*
X243965086Y-126504617D01*
X244027459Y-126538230D01*
X244087557Y-126586312D01*
X244125645Y-126630921D01*
X243974337Y-126767208D01*
X243918360Y-126716628D01*
X243868091Y-126687707D01*
X243798050Y-126665193D01*
X243741329Y-126659863D01*
X243664157Y-126667916D01*
X243594682Y-126695067D01*
X243552651Y-126728007D01*
X243509242Y-126792327D01*
X243488815Y-126868122D01*
X243485607Y-126919616D01*
X243485607Y-127095837D01*
X243492082Y-127169446D01*
X243516949Y-127242948D01*
X243551919Y-127291842D01*
X243615346Y-127336437D01*
X243690316Y-127357422D01*
X243741329Y-127360718D01*
X243814783Y-127351213D01*
X243869190Y-127330676D01*
X243932392Y-127289113D01*
X243974337Y-127246046D01*
X244125645Y-127392592D01*
X244074511Y-127447783D01*
X244026727Y-127483817D01*
X243960102Y-127518558D01*
X243894103Y-127540969D01*
X243818265Y-127555532D01*
X243743175Y-127560368D01*
X243738032Y-127560387D01*
G37*
G36*
X244830530Y-127560387D02*
G01*
X244753498Y-127552526D01*
X244680008Y-127526480D01*
X244656140Y-127512759D01*
X244598819Y-127463192D01*
X244556363Y-127398477D01*
X244546964Y-127377205D01*
X244561618Y-127153356D01*
X244570272Y-127228220D01*
X244586165Y-127270959D01*
X244633333Y-127328932D01*
X244657972Y-127345331D01*
X244728199Y-127367946D01*
X244771912Y-127370976D01*
X244848711Y-127360516D01*
X244914107Y-127325855D01*
X244933112Y-127307595D01*
X244972181Y-127242179D01*
X244988255Y-127170258D01*
X244990265Y-127128810D01*
X244990265Y-126896901D01*
X244983511Y-126822283D01*
X244958116Y-126750172D01*
X244933112Y-126714452D01*
X244874127Y-126670123D01*
X244803282Y-126651188D01*
X244771912Y-126649605D01*
X244695977Y-126659337D01*
X244657972Y-126674518D01*
X244601917Y-126721916D01*
X244586165Y-126747058D01*
X244564519Y-126817931D01*
X244561618Y-126861730D01*
X244540003Y-126655833D01*
X244580446Y-126591519D01*
X244633678Y-126535450D01*
X244666399Y-126511120D01*
X244733003Y-126477911D01*
X244805411Y-126461632D01*
X244840788Y-126459829D01*
X244914808Y-126465889D01*
X244986867Y-126486326D01*
X245034961Y-126511120D01*
X245094337Y-126560235D01*
X245137769Y-126619311D01*
X245158060Y-126659863D01*
X245182255Y-126731876D01*
X245195536Y-126805607D01*
X245200516Y-126887209D01*
X245200558Y-126895802D01*
X245200558Y-127128810D01*
X245197109Y-127202193D01*
X245185188Y-127276525D01*
X245162240Y-127349530D01*
X245156960Y-127361817D01*
X245118870Y-127427917D01*
X245064815Y-127484991D01*
X245030198Y-127509462D01*
X244963137Y-127540494D01*
X244886698Y-127557204D01*
X244830530Y-127560387D01*
G37*
G36*
X244351325Y-126046936D02*
G01*
X244561618Y-126046936D01*
X244561618Y-127545000D01*
X244351325Y-127545000D01*
X244351325Y-126046936D01*
G37*
G36*
X245770987Y-127550129D02*
G01*
X245696691Y-127543152D01*
X245625387Y-127516362D01*
X245580844Y-127478688D01*
X245541942Y-127409098D01*
X245524515Y-127332646D01*
X245520760Y-127266929D01*
X245520760Y-126164173D01*
X245731053Y-126164173D01*
X245731053Y-127268761D01*
X245746441Y-127329211D01*
X245791870Y-127350094D01*
X245892620Y-127350094D01*
X245892620Y-127550129D01*
X245770987Y-127550129D01*
G37*
G36*
X245410484Y-126475582D02*
G01*
X245892620Y-126475582D01*
X245892620Y-126664993D01*
X245410484Y-126664993D01*
X245410484Y-126475582D01*
G37*
G36*
X246615090Y-127560387D02*
G01*
X246535047Y-127555982D01*
X246461844Y-127542767D01*
X246388528Y-127517751D01*
X246361566Y-127504699D01*
X246295374Y-127460310D01*
X246240871Y-127403713D01*
X246201465Y-127341667D01*
X246172485Y-127269947D01*
X246155580Y-127197874D01*
X246147369Y-127118672D01*
X246146510Y-127081182D01*
X246146510Y-126960648D01*
X246149808Y-126884239D01*
X246161400Y-126805230D01*
X246181338Y-126733581D01*
X246199267Y-126689905D01*
X246237155Y-126624868D01*
X246289660Y-126565477D01*
X246353506Y-126518813D01*
X246420711Y-126487708D01*
X246495930Y-126468123D01*
X246570480Y-126460347D01*
X246596772Y-126459829D01*
X246676556Y-126466376D01*
X246748756Y-126486018D01*
X246819415Y-126522748D01*
X246825383Y-126526873D01*
X246885294Y-126580023D01*
X246930517Y-126640587D01*
X246966939Y-126712816D01*
X246970097Y-126720680D01*
X246994360Y-126795983D01*
X247009261Y-126869633D01*
X247017887Y-126949604D01*
X247020289Y-127024762D01*
X247020289Y-127094738D01*
X246298918Y-127094738D01*
X246298918Y-126925844D01*
X246820254Y-126925844D01*
X246809736Y-126849594D01*
X246787090Y-126778943D01*
X246752843Y-126722145D01*
X246694299Y-126672557D01*
X246620609Y-126650739D01*
X246596772Y-126649605D01*
X246520816Y-126658870D01*
X246452569Y-126690108D01*
X246411392Y-126728007D01*
X246371653Y-126795704D01*
X246351337Y-126873872D01*
X246346179Y-126949291D01*
X246346179Y-127085579D01*
X246353012Y-127162494D01*
X246376315Y-127233298D01*
X246416154Y-127289644D01*
X246477103Y-127332955D01*
X246547364Y-127355096D01*
X246615090Y-127360718D01*
X246690709Y-127351677D01*
X246741852Y-127335073D01*
X246808455Y-127299318D01*
X246854326Y-127262533D01*
X246992445Y-127400652D01*
X246935494Y-127448973D01*
X246873954Y-127489155D01*
X246814026Y-127518621D01*
X246739683Y-127544072D01*
X246665030Y-127557776D01*
X246615090Y-127560387D01*
G37*
G36*
X247906524Y-126866859D02*
G01*
X247897273Y-126789228D01*
X247863608Y-126719037D01*
X247850471Y-126703827D01*
X247787536Y-126662015D01*
X247710058Y-126646087D01*
X247691102Y-126645575D01*
X247616177Y-126652550D01*
X247565806Y-126665359D01*
X247498059Y-126693842D01*
X247457362Y-126719581D01*
X247303855Y-126614434D01*
X247359617Y-126560519D01*
X247422360Y-126520196D01*
X247463956Y-126500861D01*
X247535021Y-126477500D01*
X247611193Y-126463836D01*
X247684874Y-126459829D01*
X247764272Y-126464408D01*
X247843014Y-126480024D01*
X247912752Y-126506723D01*
X247977530Y-126547870D01*
X248029531Y-126600970D01*
X248057100Y-126643011D01*
X248087239Y-126714933D01*
X248102647Y-126789913D01*
X248106559Y-126857700D01*
X248106559Y-127545000D01*
X247906524Y-127545000D01*
X247906524Y-126866859D01*
G37*
G36*
X247644940Y-127560387D02*
G01*
X247563155Y-127556477D01*
X247481364Y-127542435D01*
X247412030Y-127518181D01*
X247348918Y-127478688D01*
X247297333Y-127419096D01*
X247267243Y-127351270D01*
X247252627Y-127269997D01*
X247251099Y-127229560D01*
X247256709Y-127155211D01*
X247276431Y-127083447D01*
X247314999Y-127018460D01*
X247340858Y-126991789D01*
X247405902Y-126949865D01*
X247479736Y-126925409D01*
X247557532Y-126914229D01*
X247611967Y-126912288D01*
X247915683Y-126912288D01*
X247930338Y-127081182D01*
X247613066Y-127081182D01*
X247537166Y-127091522D01*
X247489602Y-127117819D01*
X247453741Y-127182471D01*
X247448935Y-127229560D01*
X247464238Y-127304371D01*
X247503157Y-127350460D01*
X247571393Y-127379586D01*
X247647471Y-127388953D01*
X247667655Y-127389295D01*
X247743249Y-127386264D01*
X247818422Y-127373642D01*
X247847173Y-127363649D01*
X247901830Y-127311832D01*
X247906524Y-127283415D01*
X247928140Y-127433625D01*
X247879161Y-127489816D01*
X247859630Y-127504699D01*
X247791417Y-127538634D01*
X247765474Y-127546465D01*
X247689432Y-127558742D01*
X247644940Y-127560387D01*
G37*
G36*
X248851011Y-127560387D02*
G01*
X248772147Y-127556069D01*
X248700006Y-127543115D01*
X248627735Y-127518593D01*
X248601151Y-127505799D01*
X248535880Y-127462425D01*
X248482124Y-127407362D01*
X248443248Y-127347163D01*
X248414461Y-127277911D01*
X248396336Y-127200216D01*
X248389139Y-127123072D01*
X248388660Y-127095837D01*
X248388660Y-126919616D01*
X248392978Y-126841164D01*
X248407904Y-126761880D01*
X248433492Y-126690897D01*
X248443248Y-126671221D01*
X248486535Y-126606201D01*
X248541338Y-126552698D01*
X248601151Y-126514050D01*
X248670102Y-126485457D01*
X248747353Y-126467453D01*
X248823976Y-126460305D01*
X248851011Y-126459829D01*
X248927148Y-126464256D01*
X249003570Y-126478739D01*
X249008182Y-126479979D01*
X249078066Y-126504617D01*
X249140439Y-126538230D01*
X249200537Y-126586312D01*
X249238625Y-126630921D01*
X249087316Y-126767208D01*
X249031340Y-126716628D01*
X248981071Y-126687707D01*
X248911029Y-126665193D01*
X248854309Y-126659863D01*
X248777136Y-126667916D01*
X248707662Y-126695067D01*
X248665631Y-126728007D01*
X248622222Y-126792327D01*
X248601795Y-126868122D01*
X248598586Y-126919616D01*
X248598586Y-127095837D01*
X248605062Y-127169446D01*
X248629929Y-127242948D01*
X248664898Y-127291842D01*
X248728325Y-127336437D01*
X248803296Y-127357422D01*
X248854309Y-127360718D01*
X248927763Y-127351213D01*
X248982170Y-127330676D01*
X249045372Y-127289113D01*
X249087316Y-127246046D01*
X249238625Y-127392592D01*
X249187491Y-127447783D01*
X249139706Y-127483817D01*
X249073082Y-127518558D01*
X249007083Y-127540969D01*
X248931245Y-127555532D01*
X248856155Y-127560368D01*
X248851011Y-127560387D01*
G37*
G36*
X249464305Y-126046936D02*
G01*
X249674598Y-126046936D01*
X249674598Y-127545000D01*
X249464305Y-127545000D01*
X249464305Y-126046936D01*
G37*
G36*
X250113503Y-126896901D02*
G01*
X250105208Y-126819209D01*
X250077501Y-126751321D01*
X250054518Y-126721779D01*
X249994181Y-126679454D01*
X249921954Y-126661375D01*
X249890020Y-126659863D01*
X249813877Y-126668752D01*
X249745404Y-126701097D01*
X249730652Y-126713719D01*
X249688612Y-126778291D01*
X249674817Y-126852973D01*
X249674598Y-126865027D01*
X249652983Y-126658764D01*
X249694353Y-126593626D01*
X249748822Y-126536664D01*
X249782309Y-126511852D01*
X249849983Y-126478169D01*
X249923219Y-126461657D01*
X249958897Y-126459829D01*
X250040985Y-126466950D01*
X250113228Y-126488313D01*
X250182732Y-126529372D01*
X250228175Y-126573768D01*
X250270009Y-126636622D01*
X250299890Y-126711246D01*
X250316232Y-126786196D01*
X250323422Y-126870158D01*
X250323796Y-126895802D01*
X250323796Y-127545000D01*
X250113503Y-127545000D01*
X250113503Y-126896901D01*
G37*
G36*
X250600767Y-127324448D02*
G01*
X250820952Y-127324448D01*
X250820952Y-127545000D01*
X250600767Y-127545000D01*
X250600767Y-127324448D01*
G37*
G36*
X251111479Y-126475582D02*
G01*
X251321772Y-126475582D01*
X251321772Y-127545000D01*
X251111479Y-127545000D01*
X251111479Y-126475582D01*
G37*
G36*
X251699860Y-126728740D02*
G01*
X251639914Y-126682097D01*
X251629518Y-126677449D01*
X251555637Y-126660705D01*
X251532065Y-126659863D01*
X251458178Y-126668994D01*
X251391255Y-126702219D01*
X251376727Y-126715184D01*
X251335511Y-126780855D01*
X251321987Y-126855898D01*
X251321772Y-126867958D01*
X251300157Y-126662062D01*
X251341269Y-126596099D01*
X251394878Y-126538244D01*
X251427651Y-126512951D01*
X251494074Y-126478556D01*
X251565938Y-126461696D01*
X251600942Y-126459829D01*
X251674761Y-126465826D01*
X251733199Y-126481078D01*
X251801520Y-126515367D01*
X251836880Y-126543360D01*
X251699860Y-126728740D01*
G37*
G36*
X252652041Y-126475582D02*
G01*
X252861235Y-126475582D01*
X252861235Y-127545000D01*
X252652041Y-127545000D01*
X252652041Y-126475582D01*
G37*
G36*
X252217166Y-127125512D02*
G01*
X252225203Y-127202707D01*
X252254896Y-127274664D01*
X252274319Y-127299535D01*
X252338204Y-127343451D01*
X252410240Y-127359762D01*
X252435519Y-127360718D01*
X252511546Y-127351709D01*
X252580336Y-127318924D01*
X252595254Y-127306130D01*
X252636014Y-127244548D01*
X252651542Y-127168913D01*
X252652041Y-127150425D01*
X252666329Y-127373907D01*
X252629554Y-127438492D01*
X252576930Y-127493119D01*
X252558984Y-127506898D01*
X252493231Y-127541530D01*
X252416232Y-127558506D01*
X252376901Y-127560387D01*
X252303198Y-127554952D01*
X252228454Y-127535432D01*
X252156464Y-127496502D01*
X252103227Y-127446814D01*
X252061072Y-127384005D01*
X252030962Y-127309519D01*
X252014495Y-127234764D01*
X252007250Y-127151068D01*
X252006873Y-127125512D01*
X252006873Y-126475582D01*
X252217166Y-126475582D01*
X252217166Y-127125512D01*
G37*
G36*
X170048290Y-117660000D02*
G01*
X169801116Y-117660000D01*
X169801116Y-116076329D01*
X169726240Y-116141175D01*
X169643846Y-116200618D01*
X169566643Y-116249253D01*
X169478878Y-116298788D01*
X169389058Y-116343580D01*
X169306280Y-116378213D01*
X169306280Y-116128108D01*
X169394607Y-116083853D01*
X169489426Y-116028525D01*
X169577713Y-115968128D01*
X169659465Y-115902663D01*
X169669225Y-115894124D01*
X169741215Y-115826010D01*
X169808629Y-115750624D01*
X169866675Y-115668402D01*
X169889043Y-115627899D01*
X170048290Y-115627899D01*
X170048290Y-117660000D01*
G37*
G36*
X171437328Y-115635634D02*
G01*
X171534626Y-115658838D01*
X171614863Y-115693356D01*
X171700776Y-115750623D01*
X171774598Y-115824240D01*
X171817096Y-115882400D01*
X171867797Y-115973437D01*
X171906876Y-116067318D01*
X171936337Y-116160866D01*
X171942149Y-116182819D01*
X171962024Y-116278959D01*
X171976221Y-116390547D01*
X171983984Y-116500860D01*
X171987179Y-116604827D01*
X171987578Y-116660069D01*
X171985801Y-116767861D01*
X171980470Y-116868973D01*
X171969382Y-116981493D01*
X171953176Y-117084395D01*
X171927801Y-117192294D01*
X171914794Y-117234528D01*
X171873883Y-117337507D01*
X171823935Y-117428091D01*
X171764951Y-117506279D01*
X171696929Y-117572072D01*
X171609294Y-117629689D01*
X171509602Y-117668449D01*
X171410867Y-117687072D01*
X171330565Y-117691263D01*
X171225785Y-117683895D01*
X171129797Y-117661793D01*
X171028925Y-117617384D01*
X170940020Y-117552920D01*
X170873342Y-117481702D01*
X170815926Y-117395182D01*
X170768241Y-117293158D01*
X170737100Y-117200376D01*
X170712188Y-117097672D01*
X170693503Y-116985046D01*
X170681047Y-116862497D01*
X170675792Y-116764074D01*
X170674040Y-116660069D01*
X170674048Y-116659581D01*
X170928053Y-116659581D01*
X170929869Y-116778939D01*
X170935319Y-116887887D01*
X170944402Y-116986424D01*
X170960864Y-117094954D01*
X170988112Y-117203719D01*
X171030234Y-117301004D01*
X171044312Y-117322944D01*
X171113959Y-117402757D01*
X171201314Y-117460803D01*
X171299163Y-117486601D01*
X171330565Y-117488053D01*
X171431821Y-117471881D01*
X171522486Y-117423366D01*
X171595031Y-117352050D01*
X171617306Y-117322456D01*
X171662606Y-117234136D01*
X171692579Y-117133168D01*
X171711313Y-117031213D01*
X171724369Y-116913063D01*
X171730727Y-116806883D01*
X171733452Y-116690337D01*
X171733565Y-116659581D01*
X171731749Y-116539894D01*
X171726299Y-116430695D01*
X171717216Y-116331982D01*
X171700754Y-116223340D01*
X171673506Y-116114598D01*
X171631384Y-116017556D01*
X171617306Y-115995729D01*
X171547428Y-115916152D01*
X171459271Y-115858278D01*
X171360048Y-115832556D01*
X171328122Y-115831109D01*
X171228298Y-115845277D01*
X171134028Y-115893590D01*
X171062453Y-115967263D01*
X171056036Y-115976189D01*
X171006167Y-116072170D01*
X170973172Y-116178289D01*
X170952549Y-116283540D01*
X170938176Y-116404080D01*
X170931177Y-116511520D01*
X170928178Y-116628746D01*
X170928053Y-116659581D01*
X170674048Y-116659581D01*
X170675829Y-116551586D01*
X170681196Y-116449925D01*
X170692358Y-116336936D01*
X170708673Y-116233770D01*
X170734218Y-116125825D01*
X170747313Y-116083656D01*
X170788620Y-115980525D01*
X170838782Y-115889972D01*
X170897797Y-115811997D01*
X170965666Y-115746601D01*
X171053185Y-115689221D01*
X171152529Y-115650619D01*
X171250760Y-115632072D01*
X171330565Y-115627899D01*
X171437328Y-115635634D01*
G37*
G36*
X69880036Y-115635634D02*
G01*
X69977333Y-115658838D01*
X70057571Y-115693356D01*
X70143483Y-115750623D01*
X70217306Y-115824240D01*
X70259804Y-115882400D01*
X70310505Y-115973437D01*
X70349583Y-116067318D01*
X70379044Y-116160866D01*
X70384856Y-116182819D01*
X70404732Y-116278959D01*
X70418928Y-116390547D01*
X70426692Y-116500860D01*
X70429886Y-116604827D01*
X70430286Y-116660069D01*
X70428509Y-116767861D01*
X70423178Y-116868973D01*
X70412090Y-116981493D01*
X70395884Y-117084395D01*
X70370509Y-117192294D01*
X70357501Y-117234528D01*
X70316591Y-117337507D01*
X70266643Y-117428091D01*
X70207658Y-117506279D01*
X70139637Y-117572072D01*
X70052001Y-117629689D01*
X69952310Y-117668449D01*
X69853575Y-117687072D01*
X69773272Y-117691263D01*
X69668492Y-117683895D01*
X69572505Y-117661793D01*
X69471632Y-117617384D01*
X69382728Y-117552920D01*
X69316050Y-117481702D01*
X69258634Y-117395182D01*
X69210949Y-117293158D01*
X69179808Y-117200376D01*
X69154895Y-117097672D01*
X69136211Y-116985046D01*
X69123754Y-116862497D01*
X69118499Y-116764074D01*
X69116748Y-116660069D01*
X69116756Y-116659581D01*
X69370760Y-116659581D01*
X69372577Y-116778939D01*
X69378026Y-116887887D01*
X69387109Y-116986424D01*
X69403572Y-117094954D01*
X69430820Y-117203719D01*
X69472941Y-117301004D01*
X69487020Y-117322944D01*
X69556666Y-117402757D01*
X69644021Y-117460803D01*
X69741871Y-117486601D01*
X69773272Y-117488053D01*
X69874528Y-117471881D01*
X69965194Y-117423366D01*
X70037738Y-117352050D01*
X70060013Y-117322456D01*
X70105314Y-117234136D01*
X70135287Y-117133168D01*
X70154020Y-117031213D01*
X70167077Y-116913063D01*
X70173435Y-116806883D01*
X70176160Y-116690337D01*
X70176273Y-116659581D01*
X70174456Y-116539894D01*
X70169007Y-116430695D01*
X70159924Y-116331982D01*
X70143462Y-116223340D01*
X70116213Y-116114598D01*
X70074092Y-116017556D01*
X70060013Y-115995729D01*
X69990135Y-115916152D01*
X69901979Y-115858278D01*
X69802755Y-115832556D01*
X69770830Y-115831109D01*
X69671005Y-115845277D01*
X69576736Y-115893590D01*
X69505161Y-115967263D01*
X69498743Y-115976189D01*
X69448875Y-116072170D01*
X69415879Y-116178289D01*
X69395257Y-116283540D01*
X69380884Y-116404080D01*
X69373885Y-116511520D01*
X69370885Y-116628746D01*
X69370760Y-116659581D01*
X69116756Y-116659581D01*
X69118536Y-116551586D01*
X69123903Y-116449925D01*
X69135066Y-116336936D01*
X69151380Y-116233770D01*
X69176926Y-116125825D01*
X69190020Y-116083656D01*
X69231328Y-115980525D01*
X69281489Y-115889972D01*
X69340505Y-115811997D01*
X69408374Y-115746601D01*
X69495893Y-115689221D01*
X69595236Y-115650619D01*
X69693468Y-115632072D01*
X69773272Y-115627899D01*
X69880036Y-115635634D01*
G37*
G36*
X159858106Y-115636323D02*
G01*
X159960567Y-115661593D01*
X160057695Y-115703711D01*
X160109351Y-115734389D01*
X160194668Y-115801163D01*
X160267620Y-115882234D01*
X160322086Y-115966299D01*
X160356524Y-116036762D01*
X160389453Y-116131089D01*
X160414293Y-116242246D01*
X160429148Y-116350919D01*
X160436988Y-116450925D01*
X160440702Y-116559518D01*
X160441032Y-116605359D01*
X160438981Y-116722419D01*
X160432827Y-116831799D01*
X160422571Y-116933498D01*
X160404848Y-117045400D01*
X160381218Y-117146241D01*
X160357013Y-117221828D01*
X160316541Y-117317037D01*
X160260670Y-117413024D01*
X160194542Y-117495334D01*
X160118155Y-117563966D01*
X160107885Y-117571584D01*
X160021545Y-117623943D01*
X159928122Y-117661343D01*
X159827616Y-117683783D01*
X159720027Y-117691263D01*
X159620728Y-117684881D01*
X159517375Y-117661961D01*
X159424830Y-117622370D01*
X159343092Y-117566111D01*
X159333635Y-117557906D01*
X159266346Y-117484236D01*
X159213956Y-117397072D01*
X159176465Y-117296413D01*
X159155882Y-117197268D01*
X159153872Y-117182260D01*
X159391765Y-117159790D01*
X159415779Y-117258355D01*
X159458827Y-117352328D01*
X159506559Y-117410383D01*
X159590521Y-117463478D01*
X159692810Y-117486839D01*
X159725401Y-117488053D01*
X159825986Y-117476783D01*
X159919791Y-117439917D01*
X159925191Y-117436762D01*
X160003349Y-117376922D01*
X160065875Y-117299986D01*
X160113653Y-117206183D01*
X160146156Y-117112131D01*
X160158199Y-117067955D01*
X160179336Y-116966963D01*
X160191699Y-116864817D01*
X160195324Y-116770956D01*
X160193859Y-116722107D01*
X160130546Y-116799730D01*
X160051984Y-116865539D01*
X159991137Y-116902847D01*
X159900331Y-116942339D01*
X159804560Y-116965438D01*
X159713189Y-116972212D01*
X159607438Y-116963516D01*
X159509026Y-116937430D01*
X159417955Y-116893953D01*
X159334223Y-116833085D01*
X159289672Y-116790495D01*
X159222292Y-116705240D01*
X159171462Y-116608906D01*
X159137181Y-116501492D01*
X159120969Y-116400605D01*
X159117479Y-116325945D01*
X159370760Y-116325945D01*
X159379956Y-116430844D01*
X159411746Y-116533712D01*
X159466243Y-116622174D01*
X159487020Y-116645903D01*
X159564929Y-116710818D01*
X159662752Y-116754456D01*
X159762700Y-116768881D01*
X159773272Y-116769002D01*
X159874729Y-116756980D01*
X159972446Y-116715988D01*
X160048657Y-116653477D01*
X160055617Y-116645903D01*
X160114092Y-116559712D01*
X160148203Y-116466315D01*
X160164771Y-116357926D01*
X160166503Y-116304940D01*
X160159420Y-116201625D01*
X160134519Y-116098826D01*
X160091689Y-116010246D01*
X160053175Y-115959092D01*
X159977860Y-115891601D01*
X159884656Y-115846232D01*
X159780600Y-115831109D01*
X159681557Y-115844561D01*
X159590815Y-115884919D01*
X159508374Y-115952181D01*
X159492882Y-115968862D01*
X159433848Y-116052801D01*
X159394135Y-116149646D01*
X159375053Y-116246564D01*
X159370760Y-116325945D01*
X159117479Y-116325945D01*
X159116748Y-116310314D01*
X159123102Y-116199299D01*
X159142164Y-116096700D01*
X159173935Y-116002516D01*
X159227062Y-115903270D01*
X159297487Y-115815478D01*
X159380932Y-115742388D01*
X159473119Y-115687250D01*
X159574048Y-115650064D01*
X159683719Y-115630830D01*
X159750314Y-115627899D01*
X159858106Y-115636323D01*
G37*
D12*
X87833333Y-128541817D02*
X87500000Y-128065626D01*
X87261905Y-128541817D02*
X87261905Y-127541817D01*
X87261905Y-127541817D02*
X87642857Y-127541817D01*
X87642857Y-127541817D02*
X87738095Y-127589436D01*
X87738095Y-127589436D02*
X87785714Y-127637055D01*
X87785714Y-127637055D02*
X87833333Y-127732293D01*
X87833333Y-127732293D02*
X87833333Y-127875150D01*
X87833333Y-127875150D02*
X87785714Y-127970388D01*
X87785714Y-127970388D02*
X87738095Y-128018007D01*
X87738095Y-128018007D02*
X87642857Y-128065626D01*
X87642857Y-128065626D02*
X87261905Y-128065626D01*
X88738095Y-127541817D02*
X88261905Y-127541817D01*
X88261905Y-127541817D02*
X88214286Y-128018007D01*
X88214286Y-128018007D02*
X88261905Y-127970388D01*
X88261905Y-127970388D02*
X88357143Y-127922769D01*
X88357143Y-127922769D02*
X88595238Y-127922769D01*
X88595238Y-127922769D02*
X88690476Y-127970388D01*
X88690476Y-127970388D02*
X88738095Y-128018007D01*
X88738095Y-128018007D02*
X88785714Y-128113245D01*
X88785714Y-128113245D02*
X88785714Y-128351340D01*
X88785714Y-128351340D02*
X88738095Y-128446578D01*
X88738095Y-128446578D02*
X88690476Y-128494198D01*
X88690476Y-128494198D02*
X88595238Y-128541817D01*
X88595238Y-128541817D02*
X88357143Y-128541817D01*
X88357143Y-128541817D02*
X88261905Y-128494198D01*
X88261905Y-128494198D02*
X88214286Y-128446578D01*
X81261908Y-126541814D02*
X81261908Y-125541814D01*
X81261908Y-125541814D02*
X81500003Y-125541814D01*
X81500003Y-125541814D02*
X81642860Y-125589433D01*
X81642860Y-125589433D02*
X81738098Y-125684671D01*
X81738098Y-125684671D02*
X81785717Y-125779909D01*
X81785717Y-125779909D02*
X81833336Y-125970385D01*
X81833336Y-125970385D02*
X81833336Y-126113242D01*
X81833336Y-126113242D02*
X81785717Y-126303718D01*
X81785717Y-126303718D02*
X81738098Y-126398956D01*
X81738098Y-126398956D02*
X81642860Y-126494195D01*
X81642860Y-126494195D02*
X81500003Y-126541814D01*
X81500003Y-126541814D02*
X81261908Y-126541814D01*
X82690479Y-125541814D02*
X82500003Y-125541814D01*
X82500003Y-125541814D02*
X82404765Y-125589433D01*
X82404765Y-125589433D02*
X82357146Y-125637052D01*
X82357146Y-125637052D02*
X82261908Y-125779909D01*
X82261908Y-125779909D02*
X82214289Y-125970385D01*
X82214289Y-125970385D02*
X82214289Y-126351337D01*
X82214289Y-126351337D02*
X82261908Y-126446575D01*
X82261908Y-126446575D02*
X82309527Y-126494195D01*
X82309527Y-126494195D02*
X82404765Y-126541814D01*
X82404765Y-126541814D02*
X82595241Y-126541814D01*
X82595241Y-126541814D02*
X82690479Y-126494195D01*
X82690479Y-126494195D02*
X82738098Y-126446575D01*
X82738098Y-126446575D02*
X82785717Y-126351337D01*
X82785717Y-126351337D02*
X82785717Y-126113242D01*
X82785717Y-126113242D02*
X82738098Y-126018004D01*
X82738098Y-126018004D02*
X82690479Y-125970385D01*
X82690479Y-125970385D02*
X82595241Y-125922766D01*
X82595241Y-125922766D02*
X82404765Y-125922766D01*
X82404765Y-125922766D02*
X82309527Y-125970385D01*
X82309527Y-125970385D02*
X82261908Y-126018004D01*
X82261908Y-126018004D02*
X82214289Y-126113242D01*
X213104819Y-127229855D02*
X212628628Y-127563188D01*
X213104819Y-127801283D02*
X212104819Y-127801283D01*
X212104819Y-127801283D02*
X212104819Y-127420331D01*
X212104819Y-127420331D02*
X212152438Y-127325093D01*
X212152438Y-127325093D02*
X212200057Y-127277474D01*
X212200057Y-127277474D02*
X212295295Y-127229855D01*
X212295295Y-127229855D02*
X212438152Y-127229855D01*
X212438152Y-127229855D02*
X212533390Y-127277474D01*
X212533390Y-127277474D02*
X212581009Y-127325093D01*
X212581009Y-127325093D02*
X212628628Y-127420331D01*
X212628628Y-127420331D02*
X212628628Y-127801283D01*
X213104819Y-126277474D02*
X213104819Y-126848902D01*
X213104819Y-126563188D02*
X212104819Y-126563188D01*
X212104819Y-126563188D02*
X212247676Y-126658426D01*
X212247676Y-126658426D02*
X212342914Y-126753664D01*
X212342914Y-126753664D02*
X212390533Y-126848902D01*
X212104819Y-125658426D02*
X212104819Y-125563188D01*
X212104819Y-125563188D02*
X212152438Y-125467950D01*
X212152438Y-125467950D02*
X212200057Y-125420331D01*
X212200057Y-125420331D02*
X212295295Y-125372712D01*
X212295295Y-125372712D02*
X212485771Y-125325093D01*
X212485771Y-125325093D02*
X212723866Y-125325093D01*
X212723866Y-125325093D02*
X212914342Y-125372712D01*
X212914342Y-125372712D02*
X213009580Y-125420331D01*
X213009580Y-125420331D02*
X213057200Y-125467950D01*
X213057200Y-125467950D02*
X213104819Y-125563188D01*
X213104819Y-125563188D02*
X213104819Y-125658426D01*
X213104819Y-125658426D02*
X213057200Y-125753664D01*
X213057200Y-125753664D02*
X213009580Y-125801283D01*
X213009580Y-125801283D02*
X212914342Y-125848902D01*
X212914342Y-125848902D02*
X212723866Y-125896521D01*
X212723866Y-125896521D02*
X212485771Y-125896521D01*
X212485771Y-125896521D02*
X212295295Y-125848902D01*
X212295295Y-125848902D02*
X212200057Y-125801283D01*
X212200057Y-125801283D02*
X212152438Y-125753664D01*
X212152438Y-125753664D02*
X212104819Y-125658426D01*
X131361906Y-126047926D02*
X131361906Y-125047926D01*
X131361906Y-125047926D02*
X131600001Y-125047926D01*
X131600001Y-125047926D02*
X131742858Y-125095545D01*
X131742858Y-125095545D02*
X131838096Y-125190783D01*
X131838096Y-125190783D02*
X131885715Y-125286021D01*
X131885715Y-125286021D02*
X131933334Y-125476497D01*
X131933334Y-125476497D02*
X131933334Y-125619354D01*
X131933334Y-125619354D02*
X131885715Y-125809830D01*
X131885715Y-125809830D02*
X131838096Y-125905068D01*
X131838096Y-125905068D02*
X131742858Y-126000307D01*
X131742858Y-126000307D02*
X131600001Y-126047926D01*
X131600001Y-126047926D02*
X131361906Y-126047926D01*
X132314287Y-125143164D02*
X132361906Y-125095545D01*
X132361906Y-125095545D02*
X132457144Y-125047926D01*
X132457144Y-125047926D02*
X132695239Y-125047926D01*
X132695239Y-125047926D02*
X132790477Y-125095545D01*
X132790477Y-125095545D02*
X132838096Y-125143164D01*
X132838096Y-125143164D02*
X132885715Y-125238402D01*
X132885715Y-125238402D02*
X132885715Y-125333640D01*
X132885715Y-125333640D02*
X132838096Y-125476497D01*
X132838096Y-125476497D02*
X132266668Y-126047926D01*
X132266668Y-126047926D02*
X132885715Y-126047926D01*
X98834819Y-123229855D02*
X98358628Y-123563188D01*
X98834819Y-123801283D02*
X97834819Y-123801283D01*
X97834819Y-123801283D02*
X97834819Y-123420331D01*
X97834819Y-123420331D02*
X97882438Y-123325093D01*
X97882438Y-123325093D02*
X97930057Y-123277474D01*
X97930057Y-123277474D02*
X98025295Y-123229855D01*
X98025295Y-123229855D02*
X98168152Y-123229855D01*
X98168152Y-123229855D02*
X98263390Y-123277474D01*
X98263390Y-123277474D02*
X98311009Y-123325093D01*
X98311009Y-123325093D02*
X98358628Y-123420331D01*
X98358628Y-123420331D02*
X98358628Y-123801283D01*
X98834819Y-122277474D02*
X98834819Y-122848902D01*
X98834819Y-122563188D02*
X97834819Y-122563188D01*
X97834819Y-122563188D02*
X97977676Y-122658426D01*
X97977676Y-122658426D02*
X98072914Y-122753664D01*
X98072914Y-122753664D02*
X98120533Y-122848902D01*
X97930057Y-121896521D02*
X97882438Y-121848902D01*
X97882438Y-121848902D02*
X97834819Y-121753664D01*
X97834819Y-121753664D02*
X97834819Y-121515569D01*
X97834819Y-121515569D02*
X97882438Y-121420331D01*
X97882438Y-121420331D02*
X97930057Y-121372712D01*
X97930057Y-121372712D02*
X98025295Y-121325093D01*
X98025295Y-121325093D02*
X98120533Y-121325093D01*
X98120533Y-121325093D02*
X98263390Y-121372712D01*
X98263390Y-121372712D02*
X98834819Y-121944140D01*
X98834819Y-121944140D02*
X98834819Y-121325093D01*
X98833333Y-128541817D02*
X98500000Y-128065626D01*
X98261905Y-128541817D02*
X98261905Y-127541817D01*
X98261905Y-127541817D02*
X98642857Y-127541817D01*
X98642857Y-127541817D02*
X98738095Y-127589436D01*
X98738095Y-127589436D02*
X98785714Y-127637055D01*
X98785714Y-127637055D02*
X98833333Y-127732293D01*
X98833333Y-127732293D02*
X98833333Y-127875150D01*
X98833333Y-127875150D02*
X98785714Y-127970388D01*
X98785714Y-127970388D02*
X98738095Y-128018007D01*
X98738095Y-128018007D02*
X98642857Y-128065626D01*
X98642857Y-128065626D02*
X98261905Y-128065626D01*
X99690476Y-127541817D02*
X99500000Y-127541817D01*
X99500000Y-127541817D02*
X99404762Y-127589436D01*
X99404762Y-127589436D02*
X99357143Y-127637055D01*
X99357143Y-127637055D02*
X99261905Y-127779912D01*
X99261905Y-127779912D02*
X99214286Y-127970388D01*
X99214286Y-127970388D02*
X99214286Y-128351340D01*
X99214286Y-128351340D02*
X99261905Y-128446578D01*
X99261905Y-128446578D02*
X99309524Y-128494198D01*
X99309524Y-128494198D02*
X99404762Y-128541817D01*
X99404762Y-128541817D02*
X99595238Y-128541817D01*
X99595238Y-128541817D02*
X99690476Y-128494198D01*
X99690476Y-128494198D02*
X99738095Y-128446578D01*
X99738095Y-128446578D02*
X99785714Y-128351340D01*
X99785714Y-128351340D02*
X99785714Y-128113245D01*
X99785714Y-128113245D02*
X99738095Y-128018007D01*
X99738095Y-128018007D02*
X99690476Y-127970388D01*
X99690476Y-127970388D02*
X99595238Y-127922769D01*
X99595238Y-127922769D02*
X99404762Y-127922769D01*
X99404762Y-127922769D02*
X99309524Y-127970388D01*
X99309524Y-127970388D02*
X99261905Y-128018007D01*
X99261905Y-128018007D02*
X99214286Y-128113245D01*
X113166666Y-124041817D02*
X113166666Y-124756102D01*
X113166666Y-124756102D02*
X113119047Y-124898959D01*
X113119047Y-124898959D02*
X113023809Y-124994198D01*
X113023809Y-124994198D02*
X112880952Y-125041817D01*
X112880952Y-125041817D02*
X112785714Y-125041817D01*
X114119047Y-124041817D02*
X113642857Y-124041817D01*
X113642857Y-124041817D02*
X113595238Y-124518007D01*
X113595238Y-124518007D02*
X113642857Y-124470388D01*
X113642857Y-124470388D02*
X113738095Y-124422769D01*
X113738095Y-124422769D02*
X113976190Y-124422769D01*
X113976190Y-124422769D02*
X114071428Y-124470388D01*
X114071428Y-124470388D02*
X114119047Y-124518007D01*
X114119047Y-124518007D02*
X114166666Y-124613245D01*
X114166666Y-124613245D02*
X114166666Y-124851340D01*
X114166666Y-124851340D02*
X114119047Y-124946578D01*
X114119047Y-124946578D02*
X114071428Y-124994198D01*
X114071428Y-124994198D02*
X113976190Y-125041817D01*
X113976190Y-125041817D02*
X113738095Y-125041817D01*
X113738095Y-125041817D02*
X113642857Y-124994198D01*
X113642857Y-124994198D02*
X113595238Y-124946578D01*
X217104819Y-126753664D02*
X216628628Y-127086997D01*
X217104819Y-127325092D02*
X216104819Y-127325092D01*
X216104819Y-127325092D02*
X216104819Y-126944140D01*
X216104819Y-126944140D02*
X216152438Y-126848902D01*
X216152438Y-126848902D02*
X216200057Y-126801283D01*
X216200057Y-126801283D02*
X216295295Y-126753664D01*
X216295295Y-126753664D02*
X216438152Y-126753664D01*
X216438152Y-126753664D02*
X216533390Y-126801283D01*
X216533390Y-126801283D02*
X216581009Y-126848902D01*
X216581009Y-126848902D02*
X216628628Y-126944140D01*
X216628628Y-126944140D02*
X216628628Y-127325092D01*
X217104819Y-126277473D02*
X217104819Y-126086997D01*
X217104819Y-126086997D02*
X217057200Y-125991759D01*
X217057200Y-125991759D02*
X217009580Y-125944140D01*
X217009580Y-125944140D02*
X216866723Y-125848902D01*
X216866723Y-125848902D02*
X216676247Y-125801283D01*
X216676247Y-125801283D02*
X216295295Y-125801283D01*
X216295295Y-125801283D02*
X216200057Y-125848902D01*
X216200057Y-125848902D02*
X216152438Y-125896521D01*
X216152438Y-125896521D02*
X216104819Y-125991759D01*
X216104819Y-125991759D02*
X216104819Y-126182235D01*
X216104819Y-126182235D02*
X216152438Y-126277473D01*
X216152438Y-126277473D02*
X216200057Y-126325092D01*
X216200057Y-126325092D02*
X216295295Y-126372711D01*
X216295295Y-126372711D02*
X216533390Y-126372711D01*
X216533390Y-126372711D02*
X216628628Y-126325092D01*
X216628628Y-126325092D02*
X216676247Y-126277473D01*
X216676247Y-126277473D02*
X216723866Y-126182235D01*
X216723866Y-126182235D02*
X216723866Y-125991759D01*
X216723866Y-125991759D02*
X216676247Y-125896521D01*
X216676247Y-125896521D02*
X216628628Y-125848902D01*
X216628628Y-125848902D02*
X216533390Y-125801283D01*
X120833333Y-126091817D02*
X120500000Y-125615626D01*
X120261905Y-126091817D02*
X120261905Y-125091817D01*
X120261905Y-125091817D02*
X120642857Y-125091817D01*
X120642857Y-125091817D02*
X120738095Y-125139436D01*
X120738095Y-125139436D02*
X120785714Y-125187055D01*
X120785714Y-125187055D02*
X120833333Y-125282293D01*
X120833333Y-125282293D02*
X120833333Y-125425150D01*
X120833333Y-125425150D02*
X120785714Y-125520388D01*
X120785714Y-125520388D02*
X120738095Y-125568007D01*
X120738095Y-125568007D02*
X120642857Y-125615626D01*
X120642857Y-125615626D02*
X120261905Y-125615626D01*
X121214286Y-125187055D02*
X121261905Y-125139436D01*
X121261905Y-125139436D02*
X121357143Y-125091817D01*
X121357143Y-125091817D02*
X121595238Y-125091817D01*
X121595238Y-125091817D02*
X121690476Y-125139436D01*
X121690476Y-125139436D02*
X121738095Y-125187055D01*
X121738095Y-125187055D02*
X121785714Y-125282293D01*
X121785714Y-125282293D02*
X121785714Y-125377531D01*
X121785714Y-125377531D02*
X121738095Y-125520388D01*
X121738095Y-125520388D02*
X121166667Y-126091817D01*
X121166667Y-126091817D02*
X121785714Y-126091817D01*
X91738095Y-118641817D02*
X91738095Y-119451340D01*
X91738095Y-119451340D02*
X91785714Y-119546578D01*
X91785714Y-119546578D02*
X91833333Y-119594198D01*
X91833333Y-119594198D02*
X91928571Y-119641817D01*
X91928571Y-119641817D02*
X92119047Y-119641817D01*
X92119047Y-119641817D02*
X92214285Y-119594198D01*
X92214285Y-119594198D02*
X92261904Y-119546578D01*
X92261904Y-119546578D02*
X92309523Y-119451340D01*
X92309523Y-119451340D02*
X92309523Y-118641817D01*
X92690476Y-118641817D02*
X93309523Y-118641817D01*
X93309523Y-118641817D02*
X92976190Y-119022769D01*
X92976190Y-119022769D02*
X93119047Y-119022769D01*
X93119047Y-119022769D02*
X93214285Y-119070388D01*
X93214285Y-119070388D02*
X93261904Y-119118007D01*
X93261904Y-119118007D02*
X93309523Y-119213245D01*
X93309523Y-119213245D02*
X93309523Y-119451340D01*
X93309523Y-119451340D02*
X93261904Y-119546578D01*
X93261904Y-119546578D02*
X93214285Y-119594198D01*
X93214285Y-119594198D02*
X93119047Y-119641817D01*
X93119047Y-119641817D02*
X92833333Y-119641817D01*
X92833333Y-119641817D02*
X92738095Y-119594198D01*
X92738095Y-119594198D02*
X92690476Y-119546578D01*
X85084580Y-124229855D02*
X85132200Y-124277474D01*
X85132200Y-124277474D02*
X85179819Y-124420331D01*
X85179819Y-124420331D02*
X85179819Y-124515569D01*
X85179819Y-124515569D02*
X85132200Y-124658426D01*
X85132200Y-124658426D02*
X85036961Y-124753664D01*
X85036961Y-124753664D02*
X84941723Y-124801283D01*
X84941723Y-124801283D02*
X84751247Y-124848902D01*
X84751247Y-124848902D02*
X84608390Y-124848902D01*
X84608390Y-124848902D02*
X84417914Y-124801283D01*
X84417914Y-124801283D02*
X84322676Y-124753664D01*
X84322676Y-124753664D02*
X84227438Y-124658426D01*
X84227438Y-124658426D02*
X84179819Y-124515569D01*
X84179819Y-124515569D02*
X84179819Y-124420331D01*
X84179819Y-124420331D02*
X84227438Y-124277474D01*
X84227438Y-124277474D02*
X84275057Y-124229855D01*
X85179819Y-123277474D02*
X85179819Y-123848902D01*
X85179819Y-123563188D02*
X84179819Y-123563188D01*
X84179819Y-123563188D02*
X84322676Y-123658426D01*
X84322676Y-123658426D02*
X84417914Y-123753664D01*
X84417914Y-123753664D02*
X84465533Y-123848902D01*
X85179819Y-122325093D02*
X85179819Y-122896521D01*
X85179819Y-122610807D02*
X84179819Y-122610807D01*
X84179819Y-122610807D02*
X84322676Y-122706045D01*
X84322676Y-122706045D02*
X84417914Y-122801283D01*
X84417914Y-122801283D02*
X84465533Y-122896521D01*
X110261905Y-121541817D02*
X110261905Y-120541817D01*
X110261905Y-120541817D02*
X110500000Y-120541817D01*
X110500000Y-120541817D02*
X110642857Y-120589436D01*
X110642857Y-120589436D02*
X110738095Y-120684674D01*
X110738095Y-120684674D02*
X110785714Y-120779912D01*
X110785714Y-120779912D02*
X110833333Y-120970388D01*
X110833333Y-120970388D02*
X110833333Y-121113245D01*
X110833333Y-121113245D02*
X110785714Y-121303721D01*
X110785714Y-121303721D02*
X110738095Y-121398959D01*
X110738095Y-121398959D02*
X110642857Y-121494198D01*
X110642857Y-121494198D02*
X110500000Y-121541817D01*
X110500000Y-121541817D02*
X110261905Y-121541817D01*
X111166667Y-120541817D02*
X111833333Y-120541817D01*
X111833333Y-120541817D02*
X111404762Y-121541817D01*
X76239405Y-124532498D02*
X76239405Y-123532498D01*
X76239405Y-123532498D02*
X76477500Y-123532498D01*
X76477500Y-123532498D02*
X76620357Y-123580117D01*
X76620357Y-123580117D02*
X76715595Y-123675355D01*
X76715595Y-123675355D02*
X76763214Y-123770593D01*
X76763214Y-123770593D02*
X76810833Y-123961069D01*
X76810833Y-123961069D02*
X76810833Y-124103926D01*
X76810833Y-124103926D02*
X76763214Y-124294402D01*
X76763214Y-124294402D02*
X76715595Y-124389640D01*
X76715595Y-124389640D02*
X76620357Y-124484879D01*
X76620357Y-124484879D02*
X76477500Y-124532498D01*
X76477500Y-124532498D02*
X76239405Y-124532498D01*
X77715595Y-123532498D02*
X77239405Y-123532498D01*
X77239405Y-123532498D02*
X77191786Y-124008688D01*
X77191786Y-124008688D02*
X77239405Y-123961069D01*
X77239405Y-123961069D02*
X77334643Y-123913450D01*
X77334643Y-123913450D02*
X77572738Y-123913450D01*
X77572738Y-123913450D02*
X77667976Y-123961069D01*
X77667976Y-123961069D02*
X77715595Y-124008688D01*
X77715595Y-124008688D02*
X77763214Y-124103926D01*
X77763214Y-124103926D02*
X77763214Y-124342021D01*
X77763214Y-124342021D02*
X77715595Y-124437259D01*
X77715595Y-124437259D02*
X77667976Y-124484879D01*
X77667976Y-124484879D02*
X77572738Y-124532498D01*
X77572738Y-124532498D02*
X77334643Y-124532498D01*
X77334643Y-124532498D02*
X77239405Y-124484879D01*
X77239405Y-124484879D02*
X77191786Y-124437259D01*
X198246667Y-123016817D02*
X198246667Y-123731102D01*
X198246667Y-123731102D02*
X198199048Y-123873959D01*
X198199048Y-123873959D02*
X198103810Y-123969198D01*
X198103810Y-123969198D02*
X197960953Y-124016817D01*
X197960953Y-124016817D02*
X197865715Y-124016817D01*
X198675239Y-123112055D02*
X198722858Y-123064436D01*
X198722858Y-123064436D02*
X198818096Y-123016817D01*
X198818096Y-123016817D02*
X199056191Y-123016817D01*
X199056191Y-123016817D02*
X199151429Y-123064436D01*
X199151429Y-123064436D02*
X199199048Y-123112055D01*
X199199048Y-123112055D02*
X199246667Y-123207293D01*
X199246667Y-123207293D02*
X199246667Y-123302531D01*
X199246667Y-123302531D02*
X199199048Y-123445388D01*
X199199048Y-123445388D02*
X198627620Y-124016817D01*
X198627620Y-124016817D02*
X199246667Y-124016817D01*
X220604819Y-127179855D02*
X220128628Y-127513188D01*
X220604819Y-127751283D02*
X219604819Y-127751283D01*
X219604819Y-127751283D02*
X219604819Y-127370331D01*
X219604819Y-127370331D02*
X219652438Y-127275093D01*
X219652438Y-127275093D02*
X219700057Y-127227474D01*
X219700057Y-127227474D02*
X219795295Y-127179855D01*
X219795295Y-127179855D02*
X219938152Y-127179855D01*
X219938152Y-127179855D02*
X220033390Y-127227474D01*
X220033390Y-127227474D02*
X220081009Y-127275093D01*
X220081009Y-127275093D02*
X220128628Y-127370331D01*
X220128628Y-127370331D02*
X220128628Y-127751283D01*
X220604819Y-126227474D02*
X220604819Y-126798902D01*
X220604819Y-126513188D02*
X219604819Y-126513188D01*
X219604819Y-126513188D02*
X219747676Y-126608426D01*
X219747676Y-126608426D02*
X219842914Y-126703664D01*
X219842914Y-126703664D02*
X219890533Y-126798902D01*
X220604819Y-125275093D02*
X220604819Y-125846521D01*
X220604819Y-125560807D02*
X219604819Y-125560807D01*
X219604819Y-125560807D02*
X219747676Y-125656045D01*
X219747676Y-125656045D02*
X219842914Y-125751283D01*
X219842914Y-125751283D02*
X219890533Y-125846521D01*
X140333333Y-119391817D02*
X140000000Y-118915626D01*
X139761905Y-119391817D02*
X139761905Y-118391817D01*
X139761905Y-118391817D02*
X140142857Y-118391817D01*
X140142857Y-118391817D02*
X140238095Y-118439436D01*
X140238095Y-118439436D02*
X140285714Y-118487055D01*
X140285714Y-118487055D02*
X140333333Y-118582293D01*
X140333333Y-118582293D02*
X140333333Y-118725150D01*
X140333333Y-118725150D02*
X140285714Y-118820388D01*
X140285714Y-118820388D02*
X140238095Y-118868007D01*
X140238095Y-118868007D02*
X140142857Y-118915626D01*
X140142857Y-118915626D02*
X139761905Y-118915626D01*
X140666667Y-118391817D02*
X141333333Y-118391817D01*
X141333333Y-118391817D02*
X140904762Y-119391817D01*
X139738095Y-124541817D02*
X139738095Y-125351340D01*
X139738095Y-125351340D02*
X139785714Y-125446578D01*
X139785714Y-125446578D02*
X139833333Y-125494198D01*
X139833333Y-125494198D02*
X139928571Y-125541817D01*
X139928571Y-125541817D02*
X140119047Y-125541817D01*
X140119047Y-125541817D02*
X140214285Y-125494198D01*
X140214285Y-125494198D02*
X140261904Y-125446578D01*
X140261904Y-125446578D02*
X140309523Y-125351340D01*
X140309523Y-125351340D02*
X140309523Y-124541817D01*
X140738095Y-124637055D02*
X140785714Y-124589436D01*
X140785714Y-124589436D02*
X140880952Y-124541817D01*
X140880952Y-124541817D02*
X141119047Y-124541817D01*
X141119047Y-124541817D02*
X141214285Y-124589436D01*
X141214285Y-124589436D02*
X141261904Y-124637055D01*
X141261904Y-124637055D02*
X141309523Y-124732293D01*
X141309523Y-124732293D02*
X141309523Y-124827531D01*
X141309523Y-124827531D02*
X141261904Y-124970388D01*
X141261904Y-124970388D02*
X140690476Y-125541817D01*
X140690476Y-125541817D02*
X141309523Y-125541817D01*
X228666666Y-121541817D02*
X228666666Y-122256102D01*
X228666666Y-122256102D02*
X228619047Y-122398959D01*
X228619047Y-122398959D02*
X228523809Y-122494198D01*
X228523809Y-122494198D02*
X228380952Y-122541817D01*
X228380952Y-122541817D02*
X228285714Y-122541817D01*
X229666666Y-122541817D02*
X229095238Y-122541817D01*
X229380952Y-122541817D02*
X229380952Y-121541817D01*
X229380952Y-121541817D02*
X229285714Y-121684674D01*
X229285714Y-121684674D02*
X229190476Y-121779912D01*
X229190476Y-121779912D02*
X229095238Y-121827531D01*
X131361906Y-123541817D02*
X131361906Y-122541817D01*
X131361906Y-122541817D02*
X131600001Y-122541817D01*
X131600001Y-122541817D02*
X131742858Y-122589436D01*
X131742858Y-122589436D02*
X131838096Y-122684674D01*
X131838096Y-122684674D02*
X131885715Y-122779912D01*
X131885715Y-122779912D02*
X131933334Y-122970388D01*
X131933334Y-122970388D02*
X131933334Y-123113245D01*
X131933334Y-123113245D02*
X131885715Y-123303721D01*
X131885715Y-123303721D02*
X131838096Y-123398959D01*
X131838096Y-123398959D02*
X131742858Y-123494198D01*
X131742858Y-123494198D02*
X131600001Y-123541817D01*
X131600001Y-123541817D02*
X131361906Y-123541817D01*
X132266668Y-122541817D02*
X132885715Y-122541817D01*
X132885715Y-122541817D02*
X132552382Y-122922769D01*
X132552382Y-122922769D02*
X132695239Y-122922769D01*
X132695239Y-122922769D02*
X132790477Y-122970388D01*
X132790477Y-122970388D02*
X132838096Y-123018007D01*
X132838096Y-123018007D02*
X132885715Y-123113245D01*
X132885715Y-123113245D02*
X132885715Y-123351340D01*
X132885715Y-123351340D02*
X132838096Y-123446578D01*
X132838096Y-123446578D02*
X132790477Y-123494198D01*
X132790477Y-123494198D02*
X132695239Y-123541817D01*
X132695239Y-123541817D02*
X132409525Y-123541817D01*
X132409525Y-123541817D02*
X132314287Y-123494198D01*
X132314287Y-123494198D02*
X132266668Y-123446578D01*
X71666666Y-118971817D02*
X71666666Y-119686102D01*
X71666666Y-119686102D02*
X71619047Y-119828959D01*
X71619047Y-119828959D02*
X71523809Y-119924198D01*
X71523809Y-119924198D02*
X71380952Y-119971817D01*
X71380952Y-119971817D02*
X71285714Y-119971817D01*
X72047619Y-118971817D02*
X72666666Y-118971817D01*
X72666666Y-118971817D02*
X72333333Y-119352769D01*
X72333333Y-119352769D02*
X72476190Y-119352769D01*
X72476190Y-119352769D02*
X72571428Y-119400388D01*
X72571428Y-119400388D02*
X72619047Y-119448007D01*
X72619047Y-119448007D02*
X72666666Y-119543245D01*
X72666666Y-119543245D02*
X72666666Y-119781340D01*
X72666666Y-119781340D02*
X72619047Y-119876578D01*
X72619047Y-119876578D02*
X72571428Y-119924198D01*
X72571428Y-119924198D02*
X72476190Y-119971817D01*
X72476190Y-119971817D02*
X72190476Y-119971817D01*
X72190476Y-119971817D02*
X72095238Y-119924198D01*
X72095238Y-119924198D02*
X72047619Y-119876578D01*
X110833333Y-123446578D02*
X110785714Y-123494198D01*
X110785714Y-123494198D02*
X110642857Y-123541817D01*
X110642857Y-123541817D02*
X110547619Y-123541817D01*
X110547619Y-123541817D02*
X110404762Y-123494198D01*
X110404762Y-123494198D02*
X110309524Y-123398959D01*
X110309524Y-123398959D02*
X110261905Y-123303721D01*
X110261905Y-123303721D02*
X110214286Y-123113245D01*
X110214286Y-123113245D02*
X110214286Y-122970388D01*
X110214286Y-122970388D02*
X110261905Y-122779912D01*
X110261905Y-122779912D02*
X110309524Y-122684674D01*
X110309524Y-122684674D02*
X110404762Y-122589436D01*
X110404762Y-122589436D02*
X110547619Y-122541817D01*
X110547619Y-122541817D02*
X110642857Y-122541817D01*
X110642857Y-122541817D02*
X110785714Y-122589436D01*
X110785714Y-122589436D02*
X110833333Y-122637055D01*
X111309524Y-123541817D02*
X111500000Y-123541817D01*
X111500000Y-123541817D02*
X111595238Y-123494198D01*
X111595238Y-123494198D02*
X111642857Y-123446578D01*
X111642857Y-123446578D02*
X111738095Y-123303721D01*
X111738095Y-123303721D02*
X111785714Y-123113245D01*
X111785714Y-123113245D02*
X111785714Y-122732293D01*
X111785714Y-122732293D02*
X111738095Y-122637055D01*
X111738095Y-122637055D02*
X111690476Y-122589436D01*
X111690476Y-122589436D02*
X111595238Y-122541817D01*
X111595238Y-122541817D02*
X111404762Y-122541817D01*
X111404762Y-122541817D02*
X111309524Y-122589436D01*
X111309524Y-122589436D02*
X111261905Y-122637055D01*
X111261905Y-122637055D02*
X111214286Y-122732293D01*
X111214286Y-122732293D02*
X111214286Y-122970388D01*
X111214286Y-122970388D02*
X111261905Y-123065626D01*
X111261905Y-123065626D02*
X111309524Y-123113245D01*
X111309524Y-123113245D02*
X111404762Y-123160864D01*
X111404762Y-123160864D02*
X111595238Y-123160864D01*
X111595238Y-123160864D02*
X111690476Y-123113245D01*
X111690476Y-123113245D02*
X111738095Y-123065626D01*
X111738095Y-123065626D02*
X111785714Y-122970388D01*
X183991665Y-123236818D02*
X183991665Y-123951103D01*
X183991665Y-123951103D02*
X183944046Y-124093960D01*
X183944046Y-124093960D02*
X183848808Y-124189199D01*
X183848808Y-124189199D02*
X183705951Y-124236818D01*
X183705951Y-124236818D02*
X183610713Y-124236818D01*
X184896427Y-123570151D02*
X184896427Y-124236818D01*
X184658332Y-123189199D02*
X184420237Y-123903484D01*
X184420237Y-123903484D02*
X185039284Y-123903484D01*
X120833333Y-120991817D02*
X120500000Y-120515626D01*
X120261905Y-120991817D02*
X120261905Y-119991817D01*
X120261905Y-119991817D02*
X120642857Y-119991817D01*
X120642857Y-119991817D02*
X120738095Y-120039436D01*
X120738095Y-120039436D02*
X120785714Y-120087055D01*
X120785714Y-120087055D02*
X120833333Y-120182293D01*
X120833333Y-120182293D02*
X120833333Y-120325150D01*
X120833333Y-120325150D02*
X120785714Y-120420388D01*
X120785714Y-120420388D02*
X120738095Y-120468007D01*
X120738095Y-120468007D02*
X120642857Y-120515626D01*
X120642857Y-120515626D02*
X120261905Y-120515626D01*
X121690476Y-120325150D02*
X121690476Y-120991817D01*
X121452381Y-119944198D02*
X121214286Y-120658483D01*
X121214286Y-120658483D02*
X121833333Y-120658483D01*
X121333333Y-128541817D02*
X121000000Y-128065626D01*
X120761905Y-128541817D02*
X120761905Y-127541817D01*
X120761905Y-127541817D02*
X121142857Y-127541817D01*
X121142857Y-127541817D02*
X121238095Y-127589436D01*
X121238095Y-127589436D02*
X121285714Y-127637055D01*
X121285714Y-127637055D02*
X121333333Y-127732293D01*
X121333333Y-127732293D02*
X121333333Y-127875150D01*
X121333333Y-127875150D02*
X121285714Y-127970388D01*
X121285714Y-127970388D02*
X121238095Y-128018007D01*
X121238095Y-128018007D02*
X121142857Y-128065626D01*
X121142857Y-128065626D02*
X120761905Y-128065626D01*
X122285714Y-128541817D02*
X121714286Y-128541817D01*
X122000000Y-128541817D02*
X122000000Y-127541817D01*
X122000000Y-127541817D02*
X121904762Y-127684674D01*
X121904762Y-127684674D02*
X121809524Y-127779912D01*
X121809524Y-127779912D02*
X121714286Y-127827531D01*
X120833333Y-123541817D02*
X120500000Y-123065626D01*
X120261905Y-123541817D02*
X120261905Y-122541817D01*
X120261905Y-122541817D02*
X120642857Y-122541817D01*
X120642857Y-122541817D02*
X120738095Y-122589436D01*
X120738095Y-122589436D02*
X120785714Y-122637055D01*
X120785714Y-122637055D02*
X120833333Y-122732293D01*
X120833333Y-122732293D02*
X120833333Y-122875150D01*
X120833333Y-122875150D02*
X120785714Y-122970388D01*
X120785714Y-122970388D02*
X120738095Y-123018007D01*
X120738095Y-123018007D02*
X120642857Y-123065626D01*
X120642857Y-123065626D02*
X120261905Y-123065626D01*
X121166667Y-122541817D02*
X121785714Y-122541817D01*
X121785714Y-122541817D02*
X121452381Y-122922769D01*
X121452381Y-122922769D02*
X121595238Y-122922769D01*
X121595238Y-122922769D02*
X121690476Y-122970388D01*
X121690476Y-122970388D02*
X121738095Y-123018007D01*
X121738095Y-123018007D02*
X121785714Y-123113245D01*
X121785714Y-123113245D02*
X121785714Y-123351340D01*
X121785714Y-123351340D02*
X121738095Y-123446578D01*
X121738095Y-123446578D02*
X121690476Y-123494198D01*
X121690476Y-123494198D02*
X121595238Y-123541817D01*
X121595238Y-123541817D02*
X121309524Y-123541817D01*
X121309524Y-123541817D02*
X121214286Y-123494198D01*
X121214286Y-123494198D02*
X121166667Y-123446578D01*
X131361906Y-128541817D02*
X131361906Y-127541817D01*
X131361906Y-127541817D02*
X131600001Y-127541817D01*
X131600001Y-127541817D02*
X131742858Y-127589436D01*
X131742858Y-127589436D02*
X131838096Y-127684674D01*
X131838096Y-127684674D02*
X131885715Y-127779912D01*
X131885715Y-127779912D02*
X131933334Y-127970388D01*
X131933334Y-127970388D02*
X131933334Y-128113245D01*
X131933334Y-128113245D02*
X131885715Y-128303721D01*
X131885715Y-128303721D02*
X131838096Y-128398959D01*
X131838096Y-128398959D02*
X131742858Y-128494198D01*
X131742858Y-128494198D02*
X131600001Y-128541817D01*
X131600001Y-128541817D02*
X131361906Y-128541817D01*
X132885715Y-128541817D02*
X132314287Y-128541817D01*
X132600001Y-128541817D02*
X132600001Y-127541817D01*
X132600001Y-127541817D02*
X132504763Y-127684674D01*
X132504763Y-127684674D02*
X132409525Y-127779912D01*
X132409525Y-127779912D02*
X132314287Y-127827531D01*
X154075750Y-121740244D02*
X154648170Y-122312664D01*
X154648170Y-122312664D02*
X154749185Y-122346336D01*
X154749185Y-122346336D02*
X154816529Y-122346336D01*
X154816529Y-122346336D02*
X154917544Y-122312664D01*
X154917544Y-122312664D02*
X155052231Y-122177977D01*
X155052231Y-122177977D02*
X155085903Y-122076962D01*
X155085903Y-122076962D02*
X155085903Y-122009618D01*
X155085903Y-122009618D02*
X155052231Y-121908603D01*
X155052231Y-121908603D02*
X154479811Y-121336183D01*
X155894025Y-121336183D02*
X155489964Y-121740244D01*
X155691994Y-121538214D02*
X154984888Y-120831107D01*
X154984888Y-120831107D02*
X155018559Y-120999466D01*
X155018559Y-120999466D02*
X155018559Y-121134153D01*
X155018559Y-121134153D02*
X154984888Y-121235168D01*
X131361906Y-121047926D02*
X131361906Y-120047926D01*
X131361906Y-120047926D02*
X131600001Y-120047926D01*
X131600001Y-120047926D02*
X131742858Y-120095545D01*
X131742858Y-120095545D02*
X131838096Y-120190783D01*
X131838096Y-120190783D02*
X131885715Y-120286021D01*
X131885715Y-120286021D02*
X131933334Y-120476497D01*
X131933334Y-120476497D02*
X131933334Y-120619354D01*
X131933334Y-120619354D02*
X131885715Y-120809830D01*
X131885715Y-120809830D02*
X131838096Y-120905068D01*
X131838096Y-120905068D02*
X131742858Y-121000307D01*
X131742858Y-121000307D02*
X131600001Y-121047926D01*
X131600001Y-121047926D02*
X131361906Y-121047926D01*
X132790477Y-120381259D02*
X132790477Y-121047926D01*
X132552382Y-120000307D02*
X132314287Y-120714592D01*
X132314287Y-120714592D02*
X132933334Y-120714592D01*
D13*
%TO.C,R5*%
X90772936Y-127351998D02*
X91227064Y-127351998D01*
X90772936Y-128821998D02*
X91227064Y-128821998D01*
%TO.C,D6*%
X81000000Y-120726998D02*
X81000000Y-124736998D01*
X83000000Y-120726998D02*
X81000000Y-120726998D01*
X83000000Y-120726998D02*
X83000000Y-124736998D01*
%TO.C,R10*%
X210265000Y-126359934D02*
X210265000Y-126814062D01*
X211735000Y-126359934D02*
X211735000Y-126814062D01*
%TO.C,D2*%
X127000001Y-126728107D02*
X130885001Y-126728107D01*
X130885001Y-124458107D02*
X127000001Y-124458107D01*
X130885001Y-126728107D02*
X130885001Y-124458107D01*
%TO.C,R12*%
X99290000Y-124764062D02*
X99290000Y-120409934D01*
X102710000Y-124764062D02*
X102710000Y-120409934D01*
%TO.C,R6*%
X96227064Y-127351998D02*
X95772936Y-127351998D01*
X96227064Y-128821998D02*
X95772936Y-128821998D01*
%TO.C,J5*%
X104050000Y-125756998D02*
X105380000Y-125756998D01*
X104050000Y-127086998D02*
X104050000Y-125756998D01*
X106650001Y-125756998D02*
X119410000Y-125756998D01*
X106650001Y-128416998D02*
X106650001Y-125756998D01*
X106650001Y-128416998D02*
X119410000Y-128416998D01*
X119410000Y-128416998D02*
X119410000Y-125756998D01*
%TO.C,R9*%
X214265000Y-126359934D02*
X214265000Y-126814062D01*
X215735000Y-126359934D02*
X215735000Y-126814062D01*
%TO.C,R2*%
X124227064Y-124851998D02*
X123772936Y-124851998D01*
X124227064Y-126321998D02*
X123772936Y-126321998D01*
%TO.C,U3*%
X92500000Y-120026998D02*
X90550000Y-120026998D01*
X92500000Y-120026998D02*
X94450000Y-120026998D01*
X92500000Y-125146998D02*
X90550000Y-125146998D01*
X92500000Y-125146998D02*
X94450000Y-125146998D01*
X89800000Y-120121998D02*
X89560000Y-119791998D01*
X90040000Y-119791998D01*
X89800000Y-120121998D01*
G36*
X89800000Y-120121998D02*
G01*
X89560000Y-119791998D01*
X90040000Y-119791998D01*
X89800000Y-120121998D01*
G37*
%TO.C,C11*%
X85990000Y-123727579D02*
X85990000Y-123446417D01*
X87010000Y-123727579D02*
X87010000Y-123446417D01*
%TO.C,D7*%
X109837500Y-120077678D02*
X105827500Y-120077678D01*
X109837500Y-122077678D02*
X105827500Y-122077678D01*
X109837500Y-122077678D02*
X109837500Y-120077678D01*
%TO.C,D5*%
X79337500Y-121077678D02*
X75327500Y-121077678D01*
X79337500Y-123077678D02*
X75327500Y-123077678D01*
X79337500Y-123077678D02*
X79337500Y-121077678D01*
%TO.C,J2*%
X190590001Y-125231998D02*
X191920001Y-125231998D01*
X190590001Y-126561998D02*
X190590001Y-125231998D01*
X193190002Y-125231998D02*
X205950001Y-125231998D01*
X193190002Y-127891998D02*
X193190002Y-125231998D01*
X193190002Y-127891998D02*
X205950001Y-127891998D01*
X205950001Y-127891998D02*
X205950001Y-125231998D01*
%TO.C,R11*%
X217765000Y-126309934D02*
X217765000Y-126764062D01*
X219235000Y-126309934D02*
X219235000Y-126764062D01*
%TO.C,R7*%
X140272936Y-119851998D02*
X140727064Y-119851998D01*
X140272936Y-121321998D02*
X140727064Y-121321998D01*
%TO.C,U2*%
X137775000Y-122861998D02*
X137775000Y-123121998D01*
X137775000Y-128311998D02*
X137775000Y-128051998D01*
X140500000Y-122861998D02*
X137775000Y-122861998D01*
X140500000Y-122861998D02*
X143225000Y-122861998D01*
X140500000Y-128311998D02*
X137775000Y-128311998D01*
X140500000Y-128311998D02*
X143225000Y-128311998D01*
X143225000Y-122861998D02*
X143225000Y-123121998D01*
X143225000Y-128311998D02*
X143225000Y-128051998D01*
X136992500Y-123121998D02*
X136752500Y-122791998D01*
X137232500Y-122791998D01*
X136992500Y-123121998D01*
G36*
X136992500Y-123121998D02*
G01*
X136752500Y-122791998D01*
X137232500Y-122791998D01*
X136992500Y-123121998D01*
G37*
%TO.C,J1*%
X222209999Y-115196998D02*
X222209999Y-128016998D01*
X222209999Y-115196998D02*
X224809998Y-115196998D01*
X222209999Y-128016998D02*
X227409999Y-128016998D01*
X224809998Y-115196998D02*
X224809999Y-117796998D01*
X224809999Y-117796998D02*
X227409999Y-117796999D01*
X226079999Y-115196998D02*
X227409999Y-115196998D01*
X227409999Y-115196998D02*
X227409999Y-116526998D01*
X227409999Y-117796999D02*
X227409999Y-128016998D01*
%TO.C,D3*%
X127000001Y-124221998D02*
X130885001Y-124221998D01*
X130885001Y-121951998D02*
X127000001Y-121951998D01*
X130885001Y-124221998D02*
X130885001Y-121951998D01*
%TO.C,J3*%
X70670000Y-123556998D02*
X70670000Y-126156998D01*
X70670000Y-123556998D02*
X73330000Y-123556998D01*
X70670000Y-126156998D02*
X73330000Y-126156998D01*
X72000000Y-120956998D02*
X73330000Y-120956998D01*
X73330000Y-120956998D02*
X73330000Y-122286998D01*
X73330000Y-123556998D02*
X73330000Y-126156998D01*
%TO.C,C9*%
X108640581Y-122576998D02*
X108359419Y-122576998D01*
X108640581Y-123596998D02*
X108359419Y-123596998D01*
%TO.C,J4*%
X180130001Y-125256998D02*
X180130001Y-127916998D01*
X185269999Y-125256998D02*
X180130001Y-125256998D01*
X185269999Y-125256998D02*
X185269999Y-127916998D01*
X185269999Y-127916998D02*
X180130001Y-127916998D01*
X187870000Y-126586998D02*
X187870000Y-127916998D01*
X187870000Y-127916998D02*
X186540000Y-127916998D01*
%TO.C,R4*%
X124227064Y-119851998D02*
X123772936Y-119851998D01*
X124227064Y-121321998D02*
X123772936Y-121321998D01*
D14*
%TO.C,G\u002A\u002A\u002A*%
G36*
X240121978Y-123828454D02*
G01*
X240266681Y-123857051D01*
X240321903Y-123933862D01*
X240330794Y-124082736D01*
X240330796Y-124092930D01*
X240330796Y-124361639D01*
X239836222Y-124334626D01*
X239535893Y-124299791D01*
X239344135Y-124239701D01*
X239299483Y-124197751D01*
X239277950Y-124005432D01*
X239397586Y-123885237D01*
X239668996Y-123829900D01*
X239844647Y-123824222D01*
X240121978Y-123828454D01*
G37*
G36*
X237165333Y-119891217D02*
G01*
X237228522Y-119977682D01*
X237261850Y-120187654D01*
X237268268Y-120262711D01*
X237270759Y-120623040D01*
X237219996Y-120874554D01*
X237126090Y-120998429D01*
X236999148Y-120975845D01*
X236924972Y-120901903D01*
X236875898Y-120754446D01*
X236849601Y-120503058D01*
X236848293Y-120352595D01*
X236865334Y-120085903D01*
X236912537Y-119948226D01*
X237009769Y-119893103D01*
X237047681Y-119886275D01*
X237165333Y-119891217D01*
G37*
G36*
X232485483Y-123862799D02*
G01*
X232779205Y-123875246D01*
X232939916Y-123913597D01*
X233009941Y-123991327D01*
X233021466Y-124033413D01*
X233012978Y-124182865D01*
X232899749Y-124275485D01*
X232655427Y-124324589D01*
X232415877Y-124339405D01*
X232157654Y-124342673D01*
X232029482Y-124312244D01*
X231985879Y-124223700D01*
X231981315Y-124106109D01*
X231989824Y-123966218D01*
X232043582Y-123892609D01*
X232184931Y-123864846D01*
X232456218Y-123862495D01*
X232485483Y-123862799D01*
G37*
G36*
X237181581Y-127273914D02*
G01*
X237231990Y-127366354D01*
X237252021Y-127568835D01*
X237254671Y-127779239D01*
X237250019Y-128071495D01*
X237224597Y-128229284D01*
X237161206Y-128293882D01*
X237042650Y-128306563D01*
X237034948Y-128306574D01*
X236898444Y-128289776D01*
X236834380Y-128207736D01*
X236815899Y-128012988D01*
X236815225Y-127918261D01*
X236834276Y-127560675D01*
X236898447Y-127349745D01*
X237018263Y-127259789D01*
X237088296Y-127251903D01*
X237181581Y-127273914D01*
G37*
G36*
X236275682Y-119879686D02*
G01*
X236341470Y-119938035D01*
X236369468Y-120084610D01*
X236375723Y-120359769D01*
X236375779Y-120421781D01*
X236369080Y-120727273D01*
X236341136Y-120897029D01*
X236280172Y-120970836D01*
X236208543Y-120986956D01*
X236043000Y-120973173D01*
X235988819Y-120947066D01*
X235960511Y-120837248D01*
X235941454Y-120607270D01*
X235936332Y-120381892D01*
X235941302Y-120094705D01*
X235968165Y-119941419D01*
X236034850Y-119880197D01*
X236156055Y-119869204D01*
X236275682Y-119879686D01*
G37*
G36*
X240091334Y-124799707D02*
G01*
X240257761Y-124834649D01*
X240336090Y-124909079D01*
X240354931Y-124961693D01*
X240374786Y-125100396D01*
X240322556Y-125181201D01*
X240166067Y-125219385D01*
X239873144Y-125230219D01*
X239788812Y-125230450D01*
X239501626Y-125225480D01*
X239348339Y-125198617D01*
X239287117Y-125131932D01*
X239276125Y-125010727D01*
X239287589Y-124888044D01*
X239349759Y-124822332D01*
X239504299Y-124795887D01*
X239792874Y-124791004D01*
X239793210Y-124791004D01*
X240091334Y-124799707D01*
G37*
G36*
X240115439Y-122952261D02*
G01*
X240298680Y-122983242D01*
X240370711Y-123053546D01*
X240363705Y-123178446D01*
X240354931Y-123214086D01*
X240303027Y-123311745D01*
X240183596Y-123363666D01*
X239953037Y-123383098D01*
X239793210Y-123384775D01*
X239504495Y-123379904D01*
X239349852Y-123353486D01*
X239287616Y-123287818D01*
X239276125Y-123165195D01*
X239276125Y-123165052D01*
X239287722Y-123041972D01*
X239350402Y-122976278D01*
X239506000Y-122950040D01*
X239788812Y-122945329D01*
X240115439Y-122952261D01*
G37*
G36*
X235402966Y-119878019D02*
G01*
X235467408Y-119931438D01*
X235489249Y-120069922D01*
X235483054Y-120333933D01*
X235479107Y-120418512D01*
X235458221Y-120721942D01*
X235421284Y-120891707D01*
X235351967Y-120969921D01*
X235255190Y-120995905D01*
X235149339Y-120999525D01*
X235090075Y-120947538D01*
X235063957Y-120802604D01*
X235057542Y-120527385D01*
X235057440Y-120446597D01*
X235061075Y-120137542D01*
X235082203Y-119964721D01*
X235136154Y-119888601D01*
X235238257Y-119869651D01*
X235281357Y-119869204D01*
X235402966Y-119878019D01*
G37*
G36*
X232800907Y-122949981D02*
G01*
X232958696Y-122975404D01*
X233023293Y-123038794D01*
X233035975Y-123157351D01*
X233035986Y-123165052D01*
X233024821Y-123286825D01*
X232963807Y-123352571D01*
X232811670Y-123379487D01*
X232527134Y-123384770D01*
X232508651Y-123384775D01*
X232216394Y-123380123D01*
X232058605Y-123354700D01*
X231994008Y-123291310D01*
X231981327Y-123172753D01*
X231981315Y-123165052D01*
X231992481Y-123043279D01*
X232053494Y-122977533D01*
X232205631Y-122950617D01*
X232490167Y-122945334D01*
X232508651Y-122945329D01*
X232800907Y-122949981D01*
G37*
G36*
X232800907Y-124795656D02*
G01*
X232958696Y-124821078D01*
X233023293Y-124884469D01*
X233035975Y-125003025D01*
X233035986Y-125010727D01*
X233024821Y-125132500D01*
X232963807Y-125198246D01*
X232811670Y-125225161D01*
X232527134Y-125230445D01*
X232508651Y-125230450D01*
X232216394Y-125225798D01*
X232058605Y-125200375D01*
X231994008Y-125136985D01*
X231981327Y-125018428D01*
X231981315Y-125010727D01*
X231992481Y-124888953D01*
X232053494Y-124823208D01*
X232205631Y-124796292D01*
X232490167Y-124791008D01*
X232508651Y-124791004D01*
X232800907Y-124795656D01*
G37*
G36*
X235398936Y-127263069D02*
G01*
X235464682Y-127324083D01*
X235491597Y-127476220D01*
X235496881Y-127760755D01*
X235496886Y-127779239D01*
X235492234Y-128071495D01*
X235466811Y-128229284D01*
X235403421Y-128293882D01*
X235284864Y-128306563D01*
X235277163Y-128306574D01*
X235155389Y-128295409D01*
X235089644Y-128234395D01*
X235062728Y-128082258D01*
X235057444Y-127797722D01*
X235057440Y-127779239D01*
X235062092Y-127486983D01*
X235087514Y-127329194D01*
X235150905Y-127264596D01*
X235269461Y-127251915D01*
X235277163Y-127251903D01*
X235398936Y-127263069D01*
G37*
G36*
X236277829Y-127263069D02*
G01*
X236343574Y-127324083D01*
X236370490Y-127476220D01*
X236375774Y-127760755D01*
X236375779Y-127779239D01*
X236371126Y-128071495D01*
X236345704Y-128229284D01*
X236282313Y-128293882D01*
X236163757Y-128306563D01*
X236156055Y-128306574D01*
X236034282Y-128295409D01*
X235968537Y-128234395D01*
X235941621Y-128082258D01*
X235936337Y-127797722D01*
X235936332Y-127779239D01*
X235940985Y-127486983D01*
X235966407Y-127329194D01*
X236029797Y-127264596D01*
X236148354Y-127251915D01*
X236156055Y-127251903D01*
X236277829Y-127263069D01*
G37*
G36*
X238174193Y-119920538D02*
G01*
X238237313Y-120057693D01*
X238302101Y-120190677D01*
X238475213Y-120289235D01*
X238688754Y-120353213D01*
X239163374Y-120559314D01*
X239555266Y-120899357D01*
X239829362Y-121338427D01*
X239906683Y-121565789D01*
X240017372Y-121878225D01*
X240146038Y-122034569D01*
X240175087Y-122046218D01*
X240303171Y-122160954D01*
X240330796Y-122296410D01*
X240318228Y-122412605D01*
X240253086Y-122475350D01*
X240094210Y-122500992D01*
X239803460Y-122505882D01*
X239511204Y-122501230D01*
X239353415Y-122475808D01*
X239288817Y-122412417D01*
X239276136Y-122293861D01*
X239276125Y-122286159D01*
X239317322Y-122113861D01*
X239451903Y-122066436D01*
X239592133Y-122004120D01*
X239633114Y-121839964D01*
X239586929Y-121608155D01*
X239465662Y-121342878D01*
X239281395Y-121078321D01*
X239046211Y-120848670D01*
X239012457Y-120823110D01*
X238758277Y-120686140D01*
X238514453Y-120607764D01*
X238319289Y-120586739D01*
X238233516Y-120648248D01*
X238206841Y-120760555D01*
X238122402Y-120932514D01*
X238001730Y-120967820D01*
X237903789Y-120947030D01*
X237846350Y-120858570D01*
X237815023Y-120663302D01*
X237799785Y-120418512D01*
X237789286Y-120119100D01*
X237803433Y-119954724D01*
X237856328Y-119884958D01*
X237962076Y-119869376D01*
X237991424Y-119869204D01*
X238174193Y-119920538D01*
G37*
G36*
X240095716Y-125762438D02*
G01*
X240253506Y-125787860D01*
X240318103Y-125851251D01*
X240330784Y-125969807D01*
X240330796Y-125977509D01*
X240285579Y-126154081D01*
X240173246Y-126197232D01*
X240051635Y-126258091D01*
X239951014Y-126457546D01*
X239906518Y-126605436D01*
X239696219Y-127127792D01*
X239379076Y-127511688D01*
X238949678Y-127762221D01*
X238573010Y-127862051D01*
X238345930Y-127931767D01*
X238247626Y-128060707D01*
X238237313Y-128110007D01*
X238158545Y-128267673D01*
X237995617Y-128306574D01*
X237877174Y-128294598D01*
X237813221Y-128231195D01*
X237787063Y-128075153D01*
X237782008Y-127785260D01*
X237782007Y-127779239D01*
X237786659Y-127486983D01*
X237812082Y-127329194D01*
X237875472Y-127264596D01*
X237994029Y-127251915D01*
X238001730Y-127251903D01*
X238174029Y-127293101D01*
X238221453Y-127427682D01*
X238270843Y-127566249D01*
X238428254Y-127593305D01*
X238707551Y-127510237D01*
X238773584Y-127482953D01*
X239177812Y-127216899D01*
X239487713Y-126809226D01*
X239576057Y-126624670D01*
X239657657Y-126376383D01*
X239631679Y-126244301D01*
X239488450Y-126198641D01*
X239437255Y-126197232D01*
X239308509Y-126136856D01*
X239276125Y-125977509D01*
X239287290Y-125855735D01*
X239348304Y-125789990D01*
X239500441Y-125763074D01*
X239784977Y-125757790D01*
X239803460Y-125757786D01*
X240095716Y-125762438D01*
G37*
G36*
X234433105Y-119880563D02*
G01*
X234497087Y-119941587D01*
X234524153Y-120092692D01*
X234530017Y-120374299D01*
X234530042Y-120418512D01*
X234525515Y-120718752D01*
X234501222Y-120884684D01*
X234440961Y-120957743D01*
X234328533Y-120979364D01*
X234310319Y-120980495D01*
X234144850Y-120957286D01*
X234092282Y-120826935D01*
X234090658Y-120771758D01*
X234073274Y-120624282D01*
X233986107Y-120581142D01*
X233805017Y-120606292D01*
X233379106Y-120774045D01*
X233028124Y-121074993D01*
X232789086Y-121470689D01*
X232714580Y-121738912D01*
X232691133Y-121953534D01*
X232728928Y-122046346D01*
X232848066Y-122066436D01*
X232848708Y-122066436D01*
X232993996Y-122112700D01*
X233035957Y-122278970D01*
X233035986Y-122286159D01*
X233024821Y-122407933D01*
X232963807Y-122473678D01*
X232811670Y-122500594D01*
X232527134Y-122505878D01*
X232508651Y-122505882D01*
X232216135Y-122500890D01*
X232058180Y-122475014D01*
X231993626Y-122411904D01*
X231981315Y-122296410D01*
X232040841Y-122109233D01*
X232135128Y-122046714D01*
X232262953Y-121929790D01*
X232378313Y-121664850D01*
X232403760Y-121577195D01*
X232591956Y-121154668D01*
X232896629Y-120777275D01*
X233273365Y-120488668D01*
X233668326Y-120334310D01*
X233921718Y-120263327D01*
X234044103Y-120162012D01*
X234074798Y-120064509D01*
X234154245Y-119907643D01*
X234316493Y-119869204D01*
X234433105Y-119880563D01*
G37*
G36*
X232982215Y-125794551D02*
G01*
X233019852Y-125955536D01*
X233014372Y-126133400D01*
X232919097Y-126194411D01*
X232866046Y-126197232D01*
X232722543Y-126261333D01*
X232686395Y-126432778D01*
X232756884Y-126680280D01*
X232882180Y-126901240D01*
X233236637Y-127296908D01*
X233648397Y-127527988D01*
X233805017Y-127569487D01*
X234000558Y-127593183D01*
X234078645Y-127542552D01*
X234090658Y-127438668D01*
X234137130Y-127293717D01*
X234303869Y-127251928D01*
X234310381Y-127251903D01*
X234432154Y-127263069D01*
X234497900Y-127324083D01*
X234524815Y-127476220D01*
X234530099Y-127760755D01*
X234530104Y-127779239D01*
X234525452Y-128071495D01*
X234500029Y-128229284D01*
X234436639Y-128293882D01*
X234318082Y-128306563D01*
X234310381Y-128306574D01*
X234137768Y-128265078D01*
X234090658Y-128132470D01*
X234019489Y-127978043D01*
X233848962Y-127909134D01*
X233477305Y-127789756D01*
X233110745Y-127599966D01*
X232810784Y-127376140D01*
X232668412Y-127210889D01*
X232535566Y-126947274D01*
X232418118Y-126634333D01*
X232399388Y-126570761D01*
X232298406Y-126308727D01*
X232177045Y-126202040D01*
X232138865Y-126197232D01*
X232012256Y-126134172D01*
X231981315Y-125977509D01*
X231995563Y-125847105D01*
X232068274Y-125782050D01*
X232244401Y-125759867D01*
X232420761Y-125757786D01*
X232687432Y-125753701D01*
X232877304Y-125743294D01*
X232926125Y-125735813D01*
X232982215Y-125794551D01*
G37*
G36*
X236600880Y-122422915D02*
G01*
X236888975Y-122442890D01*
X237092406Y-122485730D01*
X237256656Y-122559249D01*
X237351536Y-122618787D01*
X237582888Y-122827869D01*
X237738203Y-123108867D01*
X237828199Y-123492971D01*
X237863595Y-124011367D01*
X237864936Y-124112685D01*
X237837902Y-124665273D01*
X237741198Y-125078974D01*
X237565148Y-125380125D01*
X237325877Y-125579754D01*
X237046787Y-125683811D01*
X236652634Y-125748222D01*
X236198799Y-125772830D01*
X235740660Y-125757477D01*
X235333596Y-125702006D01*
X235032985Y-125606259D01*
X234997132Y-125586381D01*
X234803633Y-125449444D01*
X234671656Y-125293162D01*
X234589836Y-125082173D01*
X234546809Y-124781119D01*
X234531210Y-124354640D01*
X234530104Y-124133247D01*
X234530951Y-124104688D01*
X234969550Y-124104688D01*
X234977942Y-124587398D01*
X235020539Y-124921691D01*
X235123471Y-125134745D01*
X235312868Y-125253734D01*
X235614861Y-125305835D01*
X236055582Y-125318226D01*
X236136500Y-125318339D01*
X236602593Y-125306555D01*
X236920330Y-125268935D01*
X237115697Y-125202074D01*
X237139419Y-125186990D01*
X237306418Y-124965385D01*
X237396075Y-124593566D01*
X237406962Y-124079864D01*
X237382317Y-123771454D01*
X237329244Y-123392533D01*
X237245644Y-123133150D01*
X237101772Y-122972479D01*
X236867887Y-122889694D01*
X236514245Y-122863971D01*
X236096919Y-122871425D01*
X235645821Y-122892479D01*
X235334658Y-122938442D01*
X235137449Y-123037731D01*
X235028218Y-123218766D01*
X234980986Y-123509965D01*
X234969774Y-123939747D01*
X234969550Y-124104688D01*
X234530951Y-124104688D01*
X234547670Y-123541190D01*
X234614281Y-123100979D01*
X234750804Y-122790955D01*
X234978106Y-122589458D01*
X235317054Y-122474829D01*
X235788516Y-122425409D01*
X236182638Y-122417993D01*
X236600880Y-122422915D01*
G37*
G36*
X236831545Y-121556704D02*
G01*
X237229562Y-121583238D01*
X237508761Y-121623559D01*
X237537582Y-121630857D01*
X237939094Y-121813704D01*
X238289018Y-122102436D01*
X238527786Y-122446826D01*
X238541017Y-122476984D01*
X238594067Y-122701570D01*
X238632596Y-123058669D01*
X238656618Y-123506364D01*
X238666148Y-124002739D01*
X238661200Y-124505876D01*
X238641789Y-124973858D01*
X238607930Y-125364769D01*
X238559638Y-125636692D01*
X238539890Y-125694691D01*
X238298747Y-126065376D01*
X237945703Y-126372449D01*
X237615086Y-126536830D01*
X237389337Y-126579343D01*
X237035599Y-126608598D01*
X236597295Y-126624841D01*
X236117848Y-126628317D01*
X235640680Y-126619272D01*
X235209215Y-126597950D01*
X234866876Y-126564598D01*
X234658801Y-126520130D01*
X234274246Y-126325255D01*
X233999394Y-126059159D01*
X233838897Y-125803032D01*
X233765484Y-125649449D01*
X233713970Y-125485688D01*
X233680571Y-125277856D01*
X233661505Y-124992063D01*
X233652987Y-124594416D01*
X233651248Y-124131834D01*
X234091123Y-124131834D01*
X234094431Y-124641994D01*
X234106609Y-125009800D01*
X234131311Y-125268603D01*
X234172191Y-125451750D01*
X234232904Y-125592589D01*
X234255470Y-125631476D01*
X234406935Y-125840166D01*
X234587656Y-125991583D01*
X234826013Y-126093458D01*
X235150382Y-126153524D01*
X235589144Y-126179513D01*
X236170675Y-126179157D01*
X236259663Y-126177552D01*
X236763712Y-126165182D01*
X237124770Y-126147860D01*
X237375622Y-126121011D01*
X237549056Y-126080060D01*
X237677857Y-126020430D01*
X237753781Y-125969036D01*
X237924388Y-125826398D01*
X238047757Y-125670641D01*
X238131404Y-125471438D01*
X238182842Y-125198459D01*
X238209584Y-124821373D01*
X238219146Y-124309852D01*
X238219829Y-124087889D01*
X238217636Y-123574840D01*
X238207643Y-123204115D01*
X238186085Y-122942307D01*
X238149197Y-122756009D01*
X238093215Y-122611811D01*
X238043422Y-122522566D01*
X237889012Y-122318734D01*
X237692924Y-122170984D01*
X237426840Y-122071242D01*
X237062441Y-122011432D01*
X236571408Y-121983481D01*
X236135535Y-121978547D01*
X235498249Y-121991584D01*
X235007990Y-122044017D01*
X234645785Y-122155827D01*
X234392663Y-122346996D01*
X234229653Y-122637508D01*
X234137783Y-123047342D01*
X234098080Y-123596483D01*
X234091123Y-124131834D01*
X233651248Y-124131834D01*
X233651211Y-124121897D01*
X233658010Y-123502298D01*
X233683149Y-123028774D01*
X233733742Y-122671979D01*
X233816902Y-122402567D01*
X233939743Y-122191195D01*
X234109378Y-122008516D01*
X234178061Y-121948498D01*
X234449927Y-121769434D01*
X234749752Y-121638149D01*
X234774529Y-121630857D01*
X235031494Y-121588451D01*
X235414687Y-121559832D01*
X235875099Y-121545001D01*
X236363722Y-121543959D01*
X236831545Y-121556704D01*
G37*
D13*
%TO.C,R1*%
X124227064Y-127251998D02*
X123772936Y-127251998D01*
X124227064Y-128721998D02*
X123772936Y-128721998D01*
%TO.C,R3*%
X124227064Y-122351998D02*
X123772936Y-122351998D01*
X124227064Y-123821998D02*
X123772936Y-123821998D01*
%TO.C,D1*%
X127000001Y-129221998D02*
X130885001Y-129221998D01*
X130885001Y-126951998D02*
X127000001Y-126951998D01*
X130885001Y-129221998D02*
X130885001Y-126951998D01*
%TO.C,U1*%
X149894689Y-121586998D02*
X150212887Y-121905196D01*
X150212887Y-121268800D02*
X149894689Y-121586998D01*
X154681802Y-116799885D02*
X155000000Y-116481687D01*
X155000000Y-116481687D02*
X155318198Y-116799885D01*
X155000000Y-126692309D02*
X154681802Y-126374111D01*
X155318198Y-126374111D02*
X155000000Y-126692309D01*
X159787113Y-121905196D02*
X160105311Y-121586998D01*
X160105311Y-121586998D02*
X159787113Y-121268800D01*
X160777062Y-120943531D02*
X160296230Y-121424363D01*
X160204306Y-120851607D01*
X160777062Y-120943531D01*
G36*
X160777062Y-120943531D02*
G01*
X160296230Y-121424363D01*
X160204306Y-120851607D01*
X160777062Y-120943531D01*
G37*
%TO.C,D4*%
X127000001Y-121728107D02*
X130885001Y-121728107D01*
X130885001Y-119458107D02*
X127000001Y-119458107D01*
X130885001Y-121728107D02*
X130885001Y-119458107D01*
%TD*%
M02*
