%TF.GenerationSoftware,KiCad,Pcbnew,8.0.0*%
%TF.CreationDate,2024-11-17T13:36:44+03:00*%
%TF.ProjectId,scale_200,7363616c-655f-4323-9030-2e6b69636164,rev?*%
%TF.SameCoordinates,Original*%
%TF.FileFunction,Soldermask,Bot*%
%TF.FilePolarity,Negative*%
%FSLAX46Y46*%
G04 Gerber Fmt 4.6, Leading zero omitted, Abs format (unit mm)*
G04 Created by KiCad (PCBNEW 8.0.0) date 2024-11-17 13:36:44*
%MOMM*%
%LPD*%
G01*
G04 APERTURE LIST*
G04 Aperture macros list*
%AMRoundRect*
0 Rectangle with rounded corners*
0 $1 Rounding radius*
0 $2 $3 $4 $5 $6 $7 $8 $9 X,Y pos of 4 corners*
0 Add a 4 corners polygon primitive as box body*
4,1,4,$2,$3,$4,$5,$6,$7,$8,$9,$2,$3,0*
0 Add four circle primitives for the rounded corners*
1,1,$1+$1,$2,$3*
1,1,$1+$1,$4,$5*
1,1,$1+$1,$6,$7*
1,1,$1+$1,$8,$9*
0 Add four rect primitives between the rounded corners*
20,1,$1+$1,$2,$3,$4,$5,0*
20,1,$1+$1,$4,$5,$6,$7,0*
20,1,$1+$1,$6,$7,$8,$9,0*
20,1,$1+$1,$8,$9,$2,$3,0*%
G04 Aperture macros list end*
%ADD10R,1.700000X1.700000*%
%ADD11O,1.700000X1.700000*%
%ADD12RoundRect,0.250000X-0.550000X1.250000X-0.550000X-1.250000X0.550000X-1.250000X0.550000X1.250000X0*%
%ADD13RoundRect,0.250000X1.250000X0.550000X-1.250000X0.550000X-1.250000X-0.550000X1.250000X-0.550000X0*%
%ADD14RoundRect,0.250000X-1.250000X-0.550000X1.250000X-0.550000X1.250000X0.550000X-1.250000X0.550000X0*%
%ADD15RoundRect,0.375000X-0.375000X-0.725000X0.375000X-0.725000X0.375000X0.725000X-0.375000X0.725000X0*%
%ADD16RoundRect,0.225000X-0.225000X-0.250000X0.225000X-0.250000X0.225000X0.250000X-0.225000X0.250000X0*%
%ADD17RoundRect,0.250000X0.350000X0.450000X-0.350000X0.450000X-0.350000X-0.450000X0.350000X-0.450000X0*%
%ADD18RoundRect,0.225000X-0.250000X0.225000X-0.250000X-0.225000X0.250000X-0.225000X0.250000X0.225000X0*%
%ADD19RoundRect,0.225000X0.225000X0.250000X-0.225000X0.250000X-0.225000X-0.250000X0.225000X-0.250000X0*%
G04 APERTURE END LIST*
D10*
%TO.C,J5*%
X105380000Y-127086998D03*
D11*
X107920000Y-127086998D03*
X110459999Y-127086998D03*
X113000000Y-127086998D03*
X115540000Y-127086998D03*
X118080000Y-127086998D03*
%TD*%
D10*
%TO.C,J2*%
X191920001Y-126561998D03*
D11*
X194460001Y-126561998D03*
X197000000Y-126561998D03*
X199540001Y-126561998D03*
X202080001Y-126561998D03*
X204620001Y-126561998D03*
%TD*%
D10*
%TO.C,J1*%
X226079999Y-116526998D03*
D11*
X223539999Y-116526998D03*
X226079999Y-119066998D03*
X223539999Y-119066998D03*
X226079999Y-121606997D03*
X223539999Y-121606998D03*
X226079999Y-124146998D03*
X223539999Y-124146998D03*
X226079999Y-126686998D03*
X223539999Y-126686998D03*
%TD*%
D10*
%TO.C,J3*%
X72000000Y-122286998D03*
D11*
X72000000Y-124826998D03*
%TD*%
D10*
%TO.C,J4*%
X186540000Y-126586998D03*
D11*
X184000000Y-126586998D03*
X181460001Y-126586998D03*
%TD*%
D12*
%TO.C,C8*%
X100807032Y-119732613D03*
X100807032Y-124132613D03*
%TD*%
D13*
%TO.C,C7*%
X94892970Y-125741381D03*
X90492970Y-125741381D03*
%TD*%
D14*
%TO.C,C6*%
X166800000Y-122586998D03*
X171200000Y-122586998D03*
%TD*%
D15*
%TO.C,L1*%
X82050000Y-120800000D03*
X87550000Y-120800000D03*
%TD*%
D16*
%TO.C,C5*%
X159950000Y-116586998D03*
X161500000Y-116586998D03*
%TD*%
%TO.C,C1*%
X162225000Y-122586998D03*
X163775000Y-122586998D03*
%TD*%
D17*
%TO.C,R8*%
X142600000Y-122000000D03*
X140600000Y-122000000D03*
%TD*%
D18*
%TO.C,C10*%
X146200000Y-122025000D03*
X146200000Y-123575000D03*
%TD*%
D19*
%TO.C,C3*%
X147775000Y-120086998D03*
X146225000Y-120086998D03*
%TD*%
D16*
%TO.C,C4*%
X162225000Y-119086998D03*
X163775000Y-119086998D03*
%TD*%
D19*
%TO.C,C2*%
X151775000Y-128586998D03*
X150225000Y-128586998D03*
%TD*%
M02*
